<?xml version="1.0" encoding="UTF-8"?>
<!DOCTYPE svg PUBLIC "-//W3C//DTD SVG 1.1//EN" "http://www.w3.org/Graphics/SVG/1.1/DTD/svg11.dtd">
<!-- Creator: CorelDRAW -->
<svg xmlns="http://www.w3.org/2000/svg" xml:space="preserve" width="0.988772in" height="0.988772in" version="1.1" style="shape-rendering:geometricPrecision; text-rendering:geometricPrecision; image-rendering:optimizeQuality; fill-rule:evenodd; clip-rule:evenodd"
viewBox="0 0 54.18 54.18"
 xmlns:xlink="http://www.w3.org/1999/xlink"
 xmlns:xodm="http://www.corel.com/coreldraw/odm/2003">
 <defs>
  <style type="text/css">
   <![CDATA[
    .fil0 {fill:#FEFEFE}
   ]]>
  </style>
 </defs>
 <g id="Layer_x0020_1">
  <metadata id="CorelCorpID_0Corel-Layer"/>
  <g id="_1760231525872">
   <path class="fil0" d="M25.2 7.58c0,0.8 -0.09,1.52 0.53,2.15 0.68,0.69 1.95,0.72 2.68,0.05 0.67,-0.62 0.58,-1.38 0.58,-2.2 0.9,0.02 2.86,0.45 3.64,0.71 1.23,0.4 2.12,0.72 3.2,1.26 3.85,1.93 6.88,4.96 8.81,8.81 0.85,1.69 1.93,4.88 1.97,6.84 -0.8,0 -1.52,-0.09 -2.15,0.53 -1.16,1.13 -0.31,3.26 1.15,3.26l1 0c-0.02,0.9 -0.45,2.86 -0.71,3.64 -0.39,1.19 -0.73,2.15 -1.26,3.2 -2.56,5.11 -6.57,8.25 -11.92,10.04 -0.8,0.27 -2.78,0.72 -3.72,0.74 0,-0.8 0.09,-1.52 -0.53,-2.15 -1.13,-1.16 -3.26,-0.31 -3.26,1.15l0 1c-0.82,-0.02 -2.91,-0.47 -3.64,-0.71 -6.74,-2.2 -10.99,-6.47 -13.24,-13.18 -0.27,-0.8 -0.72,-2.78 -0.74,-3.72 0.8,0 1.52,0.09 2.15,-0.53 0.69,-0.68 0.72,-1.95 0.05,-2.68 -0.62,-0.67 -1.38,-0.58 -2.2,-0.58 0.09,-4.04 2.82,-9.12 5.66,-11.96 2.83,-2.83 7.92,-5.57 11.96,-5.66zm0 -5.91l0 2.12c-2.44,0 -6.33,1.26 -8.4,2.3 -0.66,0.33 -1.15,0.58 -1.74,0.93 -1.1,0.66 -2.13,1.4 -3.1,2.25 -1.24,1.08 -1.6,1.44 -2.68,2.68 -0.85,0.98 -1.59,2 -2.25,3.1 -0.36,0.59 -0.6,1.08 -0.93,1.74 -1.1,2.21 -2.3,5.9 -2.3,8.4 -2.22,0 -3.79,-0.32 -3.79,2.23 0,0.76 0.96,1.56 1.67,1.56l2.12 0c0,1.36 0.49,3.39 0.8,4.55 1.51,5.57 5.51,10.64 10.46,13.62 2.59,1.56 7.12,3.24 10.14,3.24l0 2.12c0,0.71 0.8,1.67 1.56,1.67l0.67 0c1.87,0 1.56,-2.72 1.56,-3.79 2.49,0 6.21,-1.2 8.4,-2.3 4.1,-2.06 7.43,-5.08 9.77,-8.96 1.03,-1.71 1.84,-3.61 2.42,-5.61 0.33,-1.15 0.82,-3.16 0.82,-4.53l2.12 0c0.71,0 1.67,-0.8 1.67,-1.56l0 -0.67c0,-0.76 -0.96,-1.56 -1.67,-1.56l-2.12 0c0,-2.48 -1.2,-6.21 -2.3,-8.4 -1.26,-2.5 -2.5,-4.27 -4.47,-6.23 -0.25,-0.25 -0.42,-0.42 -0.67,-0.67 -0.83,-0.83 -2.81,-2.25 -3.83,-2.86 -2.66,-1.6 -7.05,-3.24 -10.14,-3.24 0,-2.22 0.32,-3.79 -2.23,-3.79 -0.76,0 -1.56,0.96 -1.56,1.67z"/>
   <path class="fil0" d="M22.86 26.76l0 0.67c0,1.98 1.92,3.9 3.9,3.9l0.67 0c1.98,0 3.9,-1.92 3.9,-3.9l0 -0.67c0,-1.98 -1.92,-3.9 -3.9,-3.9l-0.67 0c-1.98,0 -3.9,1.92 -3.9,3.9z"/>
  </g>
 </g>
</svg>
