<?xml version="1.0" encoding="UTF-8"?>
<!DOCTYPE svg PUBLIC "-//W3C//DTD SVG 1.1//EN" "http://www.w3.org/Graphics/SVG/1.1/DTD/svg11.dtd">
<!-- Creator: CorelDRAW -->
<svg xmlns="http://www.w3.org/2000/svg" xml:space="preserve" width="3.1315in" height="3.22991in" version="1.1" style="shape-rendering:geometricPrecision; text-rendering:geometricPrecision; image-rendering:optimizeQuality; fill-rule:evenodd; clip-rule:evenodd"
viewBox="0 0 550.08 567.37"
 xmlns:xlink="http://www.w3.org/1999/xlink"
 xmlns:xodm="http://www.corel.com/coreldraw/odm/2003">
 <defs>
  <style type="text/css">
   <![CDATA[
    .fil0 {fill:#FEFEFE}
   ]]>
  </style>
 </defs>
 <g id="Layer_x0020_1">
  <metadata id="CorelCorpID_0Corel-Layer"/>
  <g id="_1760134280576">
   <path class="fil0" d="M-0 240.63c0,34.79 0.19,46.77 9.93,80.89 4.22,14.79 13.31,37.26 20.95,49.82 6.83,11.23 19.7,32.09 28.98,41.79l17.1 18.28c40.46,40.59 103.95,69.63 161.34,71.04 6.31,0.15 8.95,1.53 16.51,1.26l32.35 -3.07c8.37,-1.21 24.52,-3.72 30.15,-6.42l-46.8 -47.57c-4.05,-3.22 -0.45,-1.27 -4.2,-1.15 -47.26,1.49 -78.22,-5.29 -119.98,-30.36 -53.7,-32.24 -89.7,-99.35 -89.7,-162.73 0,-29.33 7.41,-59.46 16.9,-79.82 49.76,-106.78 174.93,-147.25 272.15,-91.27 14.08,8.11 37.19,24.1 47.95,36.98l16.18 20.38c7.02,9.74 12.7,18.97 17.99,30.38 10.56,22.78 18.08,50.74 18.08,82.18l57.8 0c0,-99.62 -61.03,-185.02 -142.33,-225.69 -43.48,-21.75 -71.68,-25.56 -121.89,-25.56 -32.9,0 -73.6,12.5 -95.55,23.59 -6.58,3.32 -12.87,6.17 -19.38,10.1 -46.64,28.18 -76.36,61.56 -100.93,110.21 -11.14,22.06 -23.59,63.64 -23.59,96.73z"/>
   <path class="fil0" d="M358.59 294.89l0.13 133.42c-3.53,5.57 -25.22,-0.36 -41.41,3.41 -2.55,10.63 0.12,7.43 11.97,22.24l57.91 64.77c9.7,9.53 26.42,29.76 35.99,40.68l8.54 7.97c7.12,-3.77 23.49,-23.5 30.39,-30.95 16.25,-17.54 35.5,-40.04 51.91,-56.61l21.82 -24.18c3.11,-3.21 3.8,-5.03 7.05,-8.28 20.2,-20.19 -8,-16.8 -13.26,-16.8 -7.55,0 -19.29,1.45 -24.77,-1.18 -2.77,-2.77 -1.18,-105.59 -1.18,-123.85 0,-15.79 3.26,-29.49 -12.97,-29.49l-120.32 0c-10.18,0 -11.8,8.69 -11.8,18.87z"/>
   <path class="fil0" d="M235.91 135.65c-16.57,3.86 -28.46,9.73 -39.76,19.21 -22.75,19.08 -27.75,60.41 -3,84.89 5.78,5.72 7.31,7.1 14.21,11.74 30.94,20.75 79.27,23.66 79.27,52.84 0,18.76 -19.97,24.77 -37.75,24.77 -10.18,0 -22.59,-5.41 -29.89,-9.04 -21.01,-10.45 -21.05,-21.56 -30.15,-9.72 -18.01,23.43 -25.72,24.13 6.15,43.16 42.15,25.17 41.01,-0.83 40.92,29.86 -0.07,22.54 -3.6,18.87 29.49,18.87 7.41,0 4.72,-20.05 4.72,-33.03 8.72,-4.18 23.89,-4.48 40.42,-20.91 23.8,-23.66 26.87,-61.81 5.87,-85.54 -15.17,-17.14 -46.83,-26.89 -69.56,-36.6 -46.92,-20.04 -28.39,-52.75 10.29,-52.75 12.88,0 27.09,6.11 36.82,12.72 15.49,10.53 12.85,8.18 22.21,-7.95 10.67,-18.38 11.51,-17.08 -1.72,-26.7 -9.85,-7.16 -30.71,-15.82 -44.34,-15.82l-1.18 -34.21c-8.94,-2.08 -15.27,-1.18 -25.95,-1.18 -10.64,0 -7.08,12.85 -7.08,35.39z"/>
  </g>
 </g>
</svg>
