<?xml version="1.0" encoding="UTF-8"?>
<!DOCTYPE svg PUBLIC "-//W3C//DTD SVG 1.1//EN" "http://www.w3.org/Graphics/SVG/1.1/DTD/svg11.dtd">
<!-- Creator: CorelDRAW -->
<svg xmlns="http://www.w3.org/2000/svg" xml:space="preserve" width="4.7867in" height="3.23125in" version="1.1" style="shape-rendering:geometricPrecision; text-rendering:geometricPrecision; image-rendering:optimizeQuality; fill-rule:evenodd; clip-rule:evenodd"
viewBox="0 0 1083.15 731.18"
 xmlns:xlink="http://www.w3.org/1999/xlink"
 xmlns:xodm="http://www.corel.com/coreldraw/odm/2003">
 <defs>
  <style type="text/css">
   <![CDATA[
    .fil0 {fill:#FEFEFE}
   ]]>
  </style>
 </defs>
 <g id="Layer_x0020_1">
  <metadata id="CorelCorpID_0Corel-Layer"/>
  <g id="_1760489121696">
   <path class="fil0" d="M682.63 370.13l0 -157.95c0,-13.29 3.88,-17.35 11.05,-24.31 4.12,-4 3.91,-4.64 9.42,-7.08 19.95,-8.83 38.95,0.93 47,13.41 10.55,16.35 4.93,121.49 5.4,145.47 0.31,15.56 2.33,12.55 19.65,29.86l49.51 49.5c9.48,9.42 18.27,15.42 18.27,33.6 0,21.31 -16.41,37.72 -37.72,37.72 -23.01,0 -45.3,-29.97 -67.78,-52.45 -9.71,-9.71 -22.03,-20.42 -30.24,-31.05 -8.15,-10.56 -24.57,-22.09 -24.57,-36.72zm-330.04 -21.22c0,68.16 6.13,116.49 36.14,176.03 5.18,10.27 8.56,18.34 14.75,27.68 22.06,33.3 26.55,41.94 59.3,75.07 26.18,26.48 71.86,57.06 105.67,71.14 23.7,9.87 39.02,15.61 65.11,22.11 145.16,36.15 299.1,-26.02 382.87,-146.65 7.04,-10.14 11.68,-16.68 17.45,-27.35 18.47,-34.16 29.71,-58.32 39.17,-99.92 2.93,-12.88 5.01,-24.1 7.06,-37.73 1.26,-8.37 0.42,-14.3 1.05,-22.52 2.68,-34.81 2.59,-6.7 0,-40.36 -7.24,-94.12 -37.22,-170.13 -105.64,-238.55 -133.44,-133.44 -343.27,-144.33 -488.92,-25.68 -42.32,34.48 -72.47,73.19 -97.9,123.7 -17.32,34.41 -36.14,92.63 -36.14,143.02z"/>
   <path class="fil0" d="M36.69 403.14l233.39 0c42.98,0 42.32,-75.44 0,-75.44l-233.39 0c-49.41,0 -48.42,75.44 0,75.44z"/>
   <path class="fil0" d="M189.92 202.76l124.94 0c49.4,0 54.22,-77.8 -7.07,-77.8l-110.8 0c-63.92,0 -56.95,77.8 -7.07,77.8z"/>
   <path class="fil0" d="M196.99 605.88l110.8 0c61.29,0 56.47,-77.8 7.07,-77.8l-124.94 0c-49.88,0 -56.84,77.8 7.07,77.8z"/>
  </g>
 </g>
</svg>
