<?xml version="1.0" encoding="UTF-8"?>
<!DOCTYPE svg PUBLIC "-//W3C//DTD SVG 1.1//EN" "http://www.w3.org/Graphics/SVG/1.1/DTD/svg11.dtd">
<!-- Creator: CorelDRAW -->
<svg xmlns="http://www.w3.org/2000/svg" xml:space="preserve" width="4.7786in" height="5.68938in" version="1.1" style="shape-rendering:geometricPrecision; text-rendering:geometricPrecision; image-rendering:optimizeQuality; fill-rule:evenodd; clip-rule:evenodd"
viewBox="0 0 1198.2 1426.57"
 xmlns:xlink="http://www.w3.org/1999/xlink"
 xmlns:xodm="http://www.corel.com/coreldraw/odm/2003">
 <defs>
  <style type="text/css">
   <![CDATA[
    .fil0 {fill:#FEFEFE}
   ]]>
  </style>
 </defs>
 <g id="Layer_x0020_1">
  <metadata id="CorelCorpID_0Corel-Layer"/>
  <g id="_1760134477664">
   <path class="fil0" d="M195.04 785.73c0,28.18 14.26,47.37 41.79,47.37l303.7 0c0,28.28 -2.48,53.89 -5.16,78.43 -2.89,26.41 -2.96,53.77 -5.57,78.02 -1.38,12.78 -2.23,28.39 -3.05,38.75l-25.49 350.96c-0.24,27.63 17.56,44.8 37.6,47.33l10.34 0c8.54,-1.08 17.01,-4.87 24.22,-11.69 9.89,-9.34 35.64,-59.48 43.26,-73.76l82.79 -148.47c34.59,-59.84 76.81,-142.56 110.79,-198.49l55.73 -100.31c34.72,-57.14 76.79,-139.52 111.86,-200.2 4.91,-8.49 9.16,-16.91 13.93,-25.07 27.39,-46.87 -0.95,-75.11 -30.53,-75.11l-303.7 0c0,-36.11 10.33,-151.22 13.78,-195.19l5.56 -78.03c1.09,-14.18 2.4,-27.52 2.95,-38.85 2.81,-58.24 12.67,-144.43 13.96,-195.01 0.77,-30.26 10.06,-47.79 -7.07,-71 -6.5,-8.81 -16.95,-14.3 -28.21,-15.4l-8.41 0c-8.96,0.88 -17.94,4.6 -25.45,11.69 -10.28,9.71 -46.9,79.53 -57.19,98.84l-42.04 74.98c-43.34,72.61 -93.78,174.78 -137.6,246.91 -25.61,42.15 -57.85,107.91 -83.59,150.46 -28.22,46.66 -56.43,102.35 -84,150.04 -6.34,10.97 -25.2,42.29 -25.2,52.81z"/>
   <path class="fil0" d="M766.22 225.69c16.81,8.9 40.46,14.68 77.1,34.35 24.75,13.29 45.95,28 67.4,44.05 87.59,65.54 152.21,160.59 182.47,266.12 28.98,101.08 25.99,191.53 -1.5,293.01 -2.06,7.59 -4.9,13.69 -7.43,20.43 -18.05,48.05 -34.16,85.72 -66.46,128.58 -8.76,11.62 -15.22,19.94 -24.27,31.46 -36.88,46.91 -103.5,99.54 -155.76,125.65 -7.22,3.61 -12.13,6.14 -18.57,9.29 -32.15,15.74 -21.44,4.69 -51.12,60.33 -4.06,7.62 -6.51,10.42 -10.23,17.63 -6.05,11.71 -16.49,26.14 -19.49,39.02 51.96,-4.32 134.85,-47.98 179.22,-74.33 33.6,-19.96 78.14,-56.29 105.68,-83.79 76.08,-75.98 136.39,-181.62 159.32,-286.48 33.72,-154.15 13.51,-307.42 -67.19,-442.32 -24.69,-41.27 -74.97,-109.25 -109.55,-135.65 -22.45,-17.13 -27.31,-27.59 -67.97,-54.63 -26.71,-17.76 -48.22,-29.83 -77.84,-44.76 -24.1,-12.15 -60.6,-27.92 -88.24,-34.36 0,28.66 -5.57,55.4 -5.57,86.37z"/>
   <path class="fil0" d="M-0 688.21c0,104.85 6.07,149.57 42.21,247.56 10.39,28.16 25.21,56.54 40.5,82.1 12.85,21.48 34.11,54.14 50.32,72.28 19.56,21.9 36.38,45.93 59.23,63.36 7.16,5.46 9.28,8.18 15.97,14.68 45.03,43.76 157.47,104.94 218.08,119.06 0,-28.66 5.57,-55.4 5.57,-86.37 -16.81,-8.9 -40.46,-14.68 -77.1,-34.35 -120.91,-64.91 -212.04,-178.26 -249.87,-310.17 -49.91,-174.07 -9.07,-335.15 99.66,-473.47 5.16,-6.57 8.38,-8.73 13.17,-14.69 32.08,-39.84 96.62,-87.99 142.59,-110.96 48.33,-24.15 39.27,-8.53 79.92,-87.25 6.05,-11.71 16.49,-26.14 19.49,-39.02 -22.38,1.86 -75.5,21.36 -95.58,29.8 -28.72,12.08 -57.65,29.09 -83.64,44.53 -13.95,8.28 -23.21,15.75 -36.44,24.86 -6.28,4.32 -11.96,8.37 -17.53,13.11 -49.88,42.44 -39.59,35.3 -82.38,79.22 -55.22,56.68 -111.34,173.95 -128.64,253.07 -7.17,32.78 -15.51,74.88 -15.51,112.66z"/>
  </g>
 </g>
</svg>
