<?xml version="1.0" encoding="UTF-8"?>
<!DOCTYPE svg PUBLIC "-//W3C//DTD SVG 1.1//EN" "http://www.w3.org/Graphics/SVG/1.1/DTD/svg11.dtd">
<!-- Creator: CorelDRAW -->
<svg xmlns="http://www.w3.org/2000/svg" xml:space="preserve" width="5.11011in" height="4.56743in" version="1.1" style="shape-rendering:geometricPrecision; text-rendering:geometricPrecision; image-rendering:optimizeQuality; fill-rule:evenodd; clip-rule:evenodd"
viewBox="0 0 1026.82 917.78"
 xmlns:xlink="http://www.w3.org/1999/xlink"
 xmlns:xodm="http://www.corel.com/coreldraw/odm/2003">
 <defs>
  <style type="text/css">
   <![CDATA[
    .fil0 {fill:#FEFEFE}
   ]]>
  </style>
 </defs>
 <g id="Layer_x0020_1">
  <metadata id="CorelCorpID_0Corel-Layer"/>
  <g id="_1760234154432">
   <path class="fil0" d="M651.3 651.4c0,-44.68 21.85,-84.23 62.15,-101.13 106.19,-44.54 188.58,77.45 130.48,157.7 -20.42,28.21 -50.41,44.62 -86.07,45.61 -20.94,0.58 -42.54,-7.38 -59.14,-17.72 -27.33,-17.03 -47.44,-51.52 -47.44,-84.45zm-60.71 -213.53c-8.59,0 -44.94,35.45 -43.12,45.14 1.8,9.64 32.66,49.92 32.66,57.44 0,7.62 -9.45,22.6 -12.29,29.57 -2.34,5.74 -3.68,8.74 -5.74,15.19 -6.46,20.23 -6.33,13.21 -44.36,22.63 -36.2,8.96 -29.71,1.33 -29.71,60.31 0,14.28 14.15,14.85 26.38,17.58 53.9,12.05 38.77,1.97 52.25,35.67 2.52,6.3 13.48,27.32 13.48,30.48 0,11.59 -26.56,43.3 -31.65,56.54 -4.42,11.51 6.77,18.03 14.38,25.62 31.08,31.02 18.57,29.98 69.51,-0.62 26.47,-15.9 10.12,-11.54 58.09,7 22.25,8.6 17.18,-3.51 30.03,57.89 5.1,24.35 13.27,18.95 56.42,18.95 16.56,0 18.25,-24.22 22.51,-44.48 8.44,-40.14 1.63,-19.08 56.32,-46.43 19.93,-9.96 46.97,30.2 69.8,30.2 3.99,0 43.07,-34.27 41.03,-45.14 -1.8,-9.64 -32.66,-49.92 -32.66,-57.44 0,-8.36 13.34,-28.2 18.33,-46.57 2.15,-7.9 1.97,-10.71 9.71,-13.32 4.46,-1.5 11.94,-2.43 17.18,-3.75l37.17 -8.89c14.67,-5.56 9.72,-20.71 9.72,-55.18 0,-16.81 -22.74,-16.12 -43.56,-21.34 -34.21,-8.57 -21.94,0.93 -35.07,-31.92 -15.09,-37.73 -21.14,-23.28 1.58,-59.38 3.76,-5.97 15.46,-23.34 17.17,-29.12 3.8,-12.87 -37.43,-46.65 -40.6,-46.65 -9.77,0 -16.65,5.66 -24.71,10.88 -48.38,31.31 -31.03,23.31 -66.48,9.14 -34.65,-13.86 -27.13,4.36 -40.82,-61.76 -5.01,-24.18 -10.91,-18.97 -56.4,-18.97 -17.05,0 -17.76,22.05 -22.5,44.49 -7.24,34.22 -4.35,24.05 -33.44,35.64 -9.81,3.91 -13.91,6.41 -22.91,10.81 -19.28,9.43 -47.18,-30.23 -67.69,-30.23z"/>
   <path class="fil0" d="M148.88 249.47c0,-30.4 12.96,-53.9 28.77,-69.62 70.44,-69.98 168.01,-6.98 168.01,59.15 0,30.81 -3.84,53.22 -26.66,78.01 -34.32,37.28 -101.17,40.81 -142.43,-1.03 -15.63,-15.85 -27.69,-43.91 -27.69,-66.51zm0 -163.29c-3.89,0 -33.91,-20 -39.33,-23.48 -20.71,-13.28 -21.75,-4.42 -36.56,10.4 -25.01,25.01 -22.27,16.69 1.73,55.84 18.93,30.88 11.05,17.84 -0.94,49.62 -12.4,32.88 0.86,22.61 -48.85,34.89 -29.17,7.21 -24.69,2.7 -24.69,54.86 0,15.38 39.93,15.24 59.03,22.61 9.88,3.81 10.2,15.42 14.21,25.56 15.31,38.71 18.46,21.44 -1.4,55.07 -18.86,31.95 -24.79,26.58 -2.24,49.05 16.72,16.65 19.31,26.82 39.29,13.12 33.5,-22.98 37.66,-27.12 55.52,-17.9 22.16,11.44 36.72,9.35 40.89,21.91 4.67,14.09 7.91,58.76 22.89,58.76 72.91,0 41.19,-2.26 61.51,-57.81 4.18,-11.43 15.3,-11.65 26.14,-15.73 7.44,-2.8 21.62,-12.29 29.58,-12.29 13.45,0 41.47,29.31 56.52,29.31 5.36,0 37.68,-32.32 37.68,-37.68 0,-15.03 -29.31,-42.68 -29.31,-56.52 0,-6.41 8.95,-22.24 11.98,-29.89 10.68,-26.93 2.71,-23.73 50.31,-33.42 27.83,-5.67 23.54,-7.51 23.54,-49.73 0,-21.49 -32.64,-18.89 -57.42,-26.32 -12.51,-3.75 -11.71,-14.01 -16.12,-25.75 -11.6,-30.87 -24.17,-19.84 9.9,-70.18 14.21,-20.99 6.13,-22.09 -11.2,-39.46 -23.41,-23.47 -18.8,-17.47 -48.77,0.43 -34.98,20.89 -18.72,17.18 -54.91,2.77 -27.92,-11.12 -25.4,-0.51 -34.84,-46.81 -6.64,-32.55 -4.45,-27.04 -52.51,-27.04 -19.4,0 -16.01,32.02 -24.96,58.78 -3.56,10.65 -15.89,10.52 -27.11,14.76 -7.42,2.8 -21.64,12.29 -29.58,12.29z"/>
   <path class="fil0" d="M515.23 123.86c0,17.86 31.82,43.33 49.72,61.23 20.18,20.18 40.66,47.63 61.23,47.63 32.54,0 27.21,-44.5 27.21,-64.9l163.29 0 0 144.45c0,15.79 4.96,26.66 13,35.15 31.08,32.79 77.02,5.59 77.02,-26.77l0 -200.97c0,-22.65 -21.53,-41.87 -43.96,-41.87l-209.34 0c0,-24.46 5.04,-64.9 -29.31,-64.9 -17.75,0 -68.52,57.02 -87.4,75.89 -9.18,9.18 -21.46,17.96 -21.46,35.06z"/>
   <path class="fil0" d="M96.54 576.04l0 184.22c0,15.79 4.96,26.66 13,35.15 7.17,7.56 19.08,15.09 33.06,15.09l209.34 0 0 37.68c0,17.62 20.3,31.61 38.9,24.34 9.29,-3.63 28.11,-25.4 35.94,-33.24 12.03,-12.03 22.52,-22.52 34.54,-34.54 42.31,-42.31 40.65,-39.95 -18.84,-99.44 -20.63,-20.63 -40.64,-49.72 -65.42,-49.72 -31.2,0 -25.12,44.19 -25.12,64.9l-165.38 0 0 -152.82c0,-52.95 -90.02,-59.71 -90.02,8.37z"/>
   <path class="fil0" d="M672.23 640.94c0,26.4 5.92,50.42 25.7,68.5 60.05,54.87 143.86,4.37 143.86,-55.94l0 -12.56c0,-53.32 -72.55,-113.27 -142.71,-56.88 -12.02,9.66 -26.85,35.45 -26.85,56.88z"/>
   <path class="fil0" d="M169.81 249.47c0,66.65 84.61,102.86 133.51,53.96 8.39,-8.39 17.46,-24.01 20.52,-38.11 3.65,-16.87 2.08,-33.95 -4.63,-48.02 -38.4,-80.53 -149.4,-49.89 -149.4,32.17z"/>
  </g>
 </g>
</svg>
