<svg width="435" height="510" viewBox="0 0 435 510" fill="none" xmlns="http://www.w3.org/2000/svg">
<path d="M0 217.5C0 201.25 0 193.125 0.47209 186.266C7.32988 86.6337 86.6337 7.32988 186.266 0.47209C193.125 0 201.25 0 217.5 0V0C233.75 0 241.875 0 248.734 0.47209C348.366 7.32988 427.67 86.6337 434.528 186.266C435 193.125 435 201.25 435 217.5V501.95C435 504.797 435 506.221 434.437 507.305C433.963 508.218 433.218 508.963 432.305 509.437C431.221 510 429.797 510 426.95 510H8.04998C5.20254 510 3.77882 510 2.69513 509.437C1.78191 508.963 1.03731 508.218 0.562933 507.305C0 506.221 0 504.797 0 501.95V217.5Z" fill="#BFDBFE"/>
</svg>
