<svg width="80" height="80" viewBox="0 0 80 80" fill="none" xmlns="http://www.w3.org/2000/svg">
<rect width="80" height="80" rx="10" fill="#F9756D"/>
<path d="M35.2148 30.9727L27.8711 54H21.0742L31.6016 25.5625H35.8984L35.2148 30.9727ZM41.3086 54L33.9453 30.9727L33.1836 25.5625H37.5391L48.1055 54H41.3086ZM40.9961 43.4141V48.3359H26.1719V43.4141H40.9961ZM56.582 32.8672V54H50.4688V32.8672H56.582ZM50.0977 27.3984C50.0977 26.513 50.4102 25.7904 51.0352 25.2305C51.6602 24.6576 52.4805 24.3711 53.4961 24.3711C54.5117 24.3711 55.332 24.6576 55.957 25.2305C56.5951 25.7904 56.9141 26.513 56.9141 27.3984C56.9141 28.2708 56.5951 28.9935 55.957 29.5664C55.332 30.1263 54.5117 30.4062 53.4961 30.4062C52.4805 30.4062 51.6602 30.1263 51.0352 29.5664C50.4102 28.9935 50.0977 28.2708 50.0977 27.3984Z" fill="white"/>
</svg>
