<?xml version="1.0" encoding="UTF-8"?>
<!DOCTYPE svg PUBLIC "-//W3C//DTD SVG 1.1//EN" "http://www.w3.org/Graphics/SVG/1.1/DTD/svg11.dtd">
<!-- Creator: CorelDRAW -->
<svg xmlns="http://www.w3.org/2000/svg" xml:space="preserve" width="2.18104in" height="2.6676in" version="1.1" style="shape-rendering:geometricPrecision; text-rendering:geometricPrecision; image-rendering:optimizeQuality; fill-rule:evenodd; clip-rule:evenodd"
viewBox="0 0 418.59 511.97"
 xmlns:xlink="http://www.w3.org/1999/xlink"
 xmlns:xodm="http://www.corel.com/coreldraw/odm/2003"
 data-name="Layer 1">
 <defs>
  <style type="text/css">
   <![CDATA[
    .fil0 {fill:#C1D2EB;fill-rule:nonzero}
   ]]>
  </style>
 </defs>
 <g id="Layer_x0020_1">
  <metadata id="CorelCorpID_0Corel-Layer"/>
  <g id="_2708716173920">
   <path class="fil0" d="M363.68 189.1c-5.04,2.16 -5.5,6.54 -5.74,11.38 -0.98,19.39 -1.34,38.86 -3.64,58.1 -2.86,26.35 -10.89,52 -23.55,75.3 -1.8,3.79 -5.14,6.64 -9.17,7.83 -14.97,4.32 -29.73,9.52 -44.88,13.05 -18.99,4.37 -38.47,6.58 -57.96,6.58 -3.98,0 -8.05,-0.13 -12,-0.28 0,-10.9 0,-21.15 0,-31.43 0,-18.67 -12.68,-27.03 -29.79,-19.69 -27.47,11.76 -54.93,23.54 -82.35,35.35 -26.58,11.4 -53.15,22.8 -79.71,34.23 -8.42,3.19 -14.2,11.01 -14.79,19.99 -0.72,9.6 2.86,17.57 11.27,22.33 23.03,13.01 46.32,25.57 69.53,38.28 0.68,0.34 1.4,0.6 2.14,0.78 0.73,0.18 1.47,0.28 2.22,0.28 4.98,0 9.02,-4.04 9.02,-9.02 0,-2.37 -0.94,-4.65 -2.6,-6.33 -1.59,-1.36 -3.35,-2.51 -5.24,-3.42 -20.67,-11.36 -41.42,-22.61 -61.97,-34.15 -2.5,-1.4 -6,-4.72 -5.74,-6.48 0.5,-2.54 3.76,-5.34 6.5,-6.52 52.44,-22.47 104.95,-44.81 157.51,-67.01 1.66,-0.7 3.4,-1.18 5.76,-2 0,13.85 0,26.79 0,39.72 0,10.38 2.26,12.83 12.43,13.51 31.33,2.14 61.97,-2.32 92.2,-9.86 37.98,-9.46 73.23,-24.55 102.5,-51.44 0.18,-0.18 0.64,0 1.42,0 -0.6,2 -1.08,4 -1.74,6 -10.24,29.41 -28.23,53.44 -51.78,73.31 -42.22,35.67 -91.7,50.6 -146.4,49.98 -14.43,-0.18 -16.33,1.36 -16.45,15.57 0,9.84 0,19.65 0,30.83 -3.64,-1.86 -5.64,-2.82 -7.58,-3.88 -14.69,-8 -29.37,-15.99 -44.08,-24.11 -6.68,-3.64 -12,-2.66 -14.75,2.6 -2.76,5.26 -0.66,9.74 6,13.35 16.18,8.89 32.37,17.76 48.56,26.63 15.99,8.8 30.27,0.34 30.33,-17.99 0,-8 0,-15.87 0,-23.29 14.37,-1.44 28.11,-2 41.56,-4.3 56.32,-9.64 104.68,-34.09 141.68,-78.55 21.67,-25.99 35.43,-55.58 36.17,-89.96 0.84,-39.98 -15.03,-73.17 -42.62,-101.34 -3.6,-3.62 -7.22,-6.1 -12.25,-3.94zm21.83 47.44c7.81,14.19 12.75,29.88 14.43,45.99 0.06,0.4 0.1,0.81 0.1,1.23 0,1.6 -0.46,3.18 -1.33,4.52 -11.8,13.87 -25.94,25.64 -41.71,34.74 11.55,-32.02 18.47,-65.74 20.36,-99.71 2.72,4.4 5.66,8.7 8.16,13.24zm-330.86 86.29c5.34,-2 5.74,-6.7 6,-11.78 1.32,-21.63 2,-43.38 4.76,-64.83 2.91,-24.26 10.77,-47.74 22.99,-68.9 1.83,-3 4.56,-5.37 7.8,-6.75 33.76,-13.23 69.79,-20.02 106.08,-20.02 1.28,0 2.63,0.04 3.87,0.04 1.82,0 3.64,0.16 5.68,0.26 0,11.2 0,21.67 0,32.15 0,17.57 12.83,26.13 28.89,19.25 53.69,-23.04 107.4,-46.07 161.12,-69.1 9.78,-4.18 16.11,-10.9 16.69,-21.77 0.58,-10.88 -4.9,-18.31 -14.25,-23.43 -51.43,-28.12 -102.85,-56.28 -154.26,-84.49 -15.99,-8.76 -30.33,-0.2 -30.39,17.99 0,8 0,15.85 0,23.99l-6.34 -0c-18.28,0 -36.59,2.33 -54.28,6.87 -8.12,2 -11.42,10.6 -5.56,15.35 2.26,1.5 4.9,2.29 7.6,2.29 0.94,0 1.88,-0.1 2.8,-0.29 16.07,-3.92 32.62,-5.92 49.17,-5.92 3.82,0 7.69,0.13 11.49,0.33 10.24,0.68 13.45,-2.14 13.51,-12.57 0,-10.78 0,-21.55 0,-33.35 2.98,1.28 4.38,1.76 5.66,2.46 50.65,27.7 101.2,55.46 151.66,83.28 2.16,1.2 5,4.28 4.72,6 -0.9,2.69 -2.91,4.87 -5.52,6 -52.67,22.7 -105.39,45.21 -158.16,67.53 -1.8,0.78 -3.72,1.3 -6.22,2.16 0,-14.13 0,-27.27 0,-40.4 0,-9.58 -2.46,-12.16 -12,-12.85 -27.23,-2 -53.98,1.36 -80.55,7.02 -37.76,8.06 -73.43,21.25 -104.26,45.46 -3.76,2.98 -7.38,6.16 -11.06,9.24 0.17,-3.7 0.99,-7.35 2.4,-10.77 15.23,-37.98 41.66,-66.45 76.47,-87.34 8,-4.78 16.55,-8.54 24.83,-12.83 5.24,-2.72 7.16,-7.58 5.04,-12.35 -2.12,-4.78 -7.26,-6.6 -12.61,-4.24 -37.89,16.71 -70.09,40.52 -93.06,75.61 -38.42,58.58 -31.51,128.87 17.23,176.51 3.46,3.4 7.02,6.18 12.06,4.22zm-31.63 -71.97c-1.7,-5.82 -2.34,-12 -4,-17.81 -1.66,-5.82 0.18,-9.64 4.16,-13.69 11.48,-11.74 23.67,-22.51 38.36,-30.59 -11.86,32.25 -18.4,66.37 -19.2,100.71 -8.8,-11.52 -15.39,-24.66 -19.32,-38.64l-0 0.02z"/>
  </g>
 </g>
</svg>
