<svg width="353" height="395" viewBox="0 0 353 395" fill="none" xmlns="http://www.w3.org/2000/svg">
<g opacity="0.3">
<g clip-path="url(#clip0_254_26)">
<path d="M176.449 197.443V0H0C0 3.22995 0.0735417 6.4599 0.216029 9.6847C0.358516 12.9146 0.569948 16.1343 0.854921 19.3488C1.1399 22.5685 1.49381 25.7727 1.91668 28.9667C2.33954 32.1658 2.83595 35.3443 3.39671 38.5176C3.96206 41.6859 4.59635 44.8335 5.2996 47.9709C5.99824 51.1031 6.77043 54.2148 7.60697 57.3059C8.4481 60.4021 9.35358 63.4674 10.328 66.5071C11.3024 69.5519 12.3412 72.5658 13.4443 75.5489C14.5521 78.532 15.7195 81.4893 16.9559 84.4055C18.1924 87.3269 19.4885 90.2122 20.8491 93.0616C22.2096 95.9109 23.6345 98.7243 25.1191 101.491C26.6037 104.264 28.1481 106.995 29.7522 109.679C31.3563 112.364 33.0202 115.008 34.7392 117.6C36.4583 120.197 38.2371 122.743 40.0664 125.243C41.9004 127.737 43.7849 130.185 45.7245 132.577C47.6642 134.974 49.6544 137.314 51.6952 139.598C53.736 141.881 55.8273 144.108 57.9692 146.279C60.1065 148.449 62.2944 150.558 64.5236 152.61C66.7574 154.657 69.0326 156.647 71.3492 158.571C73.6704 160.494 76.0283 162.356 78.4322 164.151C80.8315 165.946 83.2721 167.674 85.745 169.336C88.2224 170.997 90.7366 172.591 93.283 174.114C95.8294 175.636 98.4079 177.087 101.019 178.47C103.625 179.854 106.263 181.16 108.934 182.399C111.599 183.634 114.293 184.796 117.014 185.887C119.73 186.977 122.47 187.99 125.232 188.926C127.999 189.867 130.78 190.732 133.579 191.513C136.383 192.3 139.196 193.01 142.027 193.643C144.863 194.27 147.704 194.826 150.563 195.299C153.417 195.772 156.281 196.168 159.158 196.487C162.031 196.806 164.908 197.042 167.79 197.202C170.676 197.361 173.563 197.443 176.449 197.443Z" fill="#D6BCD2"/>
<path d="M176.449 197.443H352.899V0C350.012 0 347.126 0.0771485 344.239 0.236589C341.357 0.396028 338.475 0.632618 335.603 0.951497C332.73 1.26523 329.866 1.66126 327.007 2.13958C324.153 2.61276 321.308 3.16309 318.477 3.7957C315.641 4.42318 312.828 5.13294 310.024 5.91471C307.225 6.70163 304.439 7.56569 301.677 8.50176C298.914 9.43783 296.175 10.451 293.454 11.5414C290.738 12.6318 288.044 13.7941 285.374 15.0285C282.708 16.268 280.065 17.5744 277.459 18.9579C274.848 20.3363 272.269 21.7919 269.718 23.3143C267.172 24.8367 264.662 26.4311 262.185 28.0923C259.708 29.7536 257.272 31.4817 254.868 33.2767C252.468 35.0717 250.106 36.9284 247.789 38.8571C245.468 40.7807 243.193 42.7659 240.959 44.8181C238.73 46.8651 236.542 48.979 234.4 51.1494C232.263 53.3199 230.171 55.5469 228.131 57.8305C226.09 60.1141 224.1 62.4542 222.16 64.851C220.22 67.2426 218.331 69.6908 216.502 72.1852C214.668 74.6848 212.894 77.2307 211.175 79.8281C209.451 82.4202 207.792 85.0639 206.188 87.7486C204.584 90.4385 203.039 93.1645 201.555 95.9366C200.07 98.7088 198.645 101.517 197.284 104.372C195.924 107.221 194.623 110.106 193.391 113.028C192.155 115.949 190.987 118.901 189.88 121.884C188.777 124.872 187.738 127.886 186.763 130.926C185.789 133.971 184.884 137.036 184.047 140.127C183.21 143.218 182.438 146.335 181.735 149.467C181.036 152.605 180.402 155.752 179.841 158.926C179.276 162.094 178.784 165.278 178.357 168.472C177.934 171.671 177.58 174.875 177.3 178.089C177.015 181.304 176.803 184.529 176.661 187.754C176.518 190.984 176.449 194.213 176.449 197.443Z" fill="#D6BCD2"/>
<path d="M176.449 197.443H0V394.887C2.88651 394.887 5.77302 394.804 8.65493 394.645C11.5414 394.486 14.4188 394.249 17.2915 393.93C20.1688 393.611 23.0323 393.215 25.8867 392.742C28.7456 392.269 31.5861 391.713 34.4221 391.081C37.2534 390.453 40.0664 389.744 42.8702 388.957C45.6694 388.175 48.4502 387.311 51.2126 386.37C53.9796 385.434 56.719 384.42 59.4355 383.33C62.1565 382.24 64.85 381.077 67.5158 379.843C70.1817 378.603 72.8246 377.297 75.4308 375.913C78.0415 374.53 80.62 373.079 83.1664 371.557C85.7128 370.035 88.227 368.44 90.6999 366.779C93.1773 365.118 95.618 363.39 98.0173 361.595C100.417 359.8 102.779 357.938 105.096 356.014C107.417 354.091 109.692 352.1 111.926 350.053C114.155 348.001 116.343 345.892 118.48 343.722C120.622 341.551 122.713 339.324 124.754 337.041C126.795 334.757 128.785 332.417 130.725 330.02C132.665 327.629 134.549 325.181 136.383 322.686C138.212 320.187 139.991 317.641 141.71 315.043C143.429 312.451 145.093 309.807 146.697 307.123C148.301 304.438 149.846 301.707 151.33 298.935C152.815 296.168 154.24 293.354 155.6 290.505C156.961 287.656 158.257 284.77 159.493 281.849C160.73 278.933 161.897 275.975 163.005 272.992C164.108 270.009 165.147 266.995 166.121 263.95C167.096 260.911 168.001 257.845 168.838 254.749C169.679 251.658 170.451 248.546 171.15 245.414C171.853 242.277 172.487 239.129 173.053 235.961C173.613 232.788 174.11 229.609 174.533 226.41C174.956 223.216 175.31 220.012 175.595 216.792C175.879 213.578 176.091 210.358 176.233 207.128C176.376 203.903 176.449 200.673 176.449 197.443Z" fill="#D6BCD2"/>
<path d="M352.899 394.887C352.899 391.657 352.83 388.427 352.687 385.197C352.545 381.972 352.333 378.747 352.048 375.533C351.763 372.318 351.414 369.114 350.987 365.915C350.564 362.721 350.072 359.537 349.507 356.369C348.946 353.196 348.311 350.048 347.608 346.911C346.91 343.779 346.137 340.662 345.301 337.571C344.464 334.48 343.559 331.414 342.584 328.369C341.61 325.33 340.571 322.316 339.468 319.328C338.36 316.345 337.193 313.387 335.956 310.471C334.725 307.55 333.424 304.664 332.063 301.81C330.703 298.96 329.278 296.152 327.793 293.38C326.309 290.608 324.764 287.882 323.16 285.192C321.556 282.507 319.897 279.864 318.173 277.271C316.454 274.674 314.68 272.128 312.846 269.629C311.012 267.134 309.128 264.686 307.188 262.289C305.248 259.898 303.258 257.557 301.217 255.274C299.176 252.99 297.085 250.758 294.943 248.593C292.806 246.422 290.618 244.308 288.389 242.261C286.155 240.209 283.88 238.224 281.559 236.3C279.242 234.372 276.88 232.515 274.48 230.72C272.076 228.925 269.64 227.197 267.163 225.536C264.685 223.874 262.171 222.28 259.625 220.758C257.078 219.235 254.5 217.78 251.889 216.401C249.278 215.018 246.64 213.711 243.974 212.472C241.304 211.237 238.61 210.075 235.894 208.985C233.173 207.894 230.433 206.881 227.671 205.945C224.904 205.009 222.123 204.145 219.324 203.358C216.52 202.576 213.703 201.867 210.871 201.239C208.04 200.606 205.195 200.056 202.34 199.578C199.482 199.105 196.618 198.709 193.745 198.395C190.873 198.076 187.991 197.839 185.109 197.68C182.222 197.521 179.336 197.443 176.449 197.443V394.887H352.899Z" fill="#D6BCD2"/>
</g>
</g>
<defs>
<clipPath id="clip0_254_26">
<path d="M0 20C0 8.9543 8.95431 0 20 0H333C344.046 0 353 8.9543 353 20V395H0V20Z" fill="white"/>
</clipPath>
</defs>
</svg>
