<svg width="300" height="300" viewBox="0 0 300 300" fill="none" xmlns="http://www.w3.org/2000/svg">
<g opacity="0.3" clip-path="url(#clip0_254_23)">
<path d="M262.68 119.258L190.445 133.242L251.434 92.1174C252.387 91.4728 253.301 90.7775 254.18 90.0314C255.059 89.2892 255.891 88.4963 256.68 87.6603C257.473 86.8205 258.211 85.9455 258.906 85.0236C259.598 84.1057 260.242 83.1525 260.828 82.1603C261.418 81.1721 261.949 80.1525 262.426 79.1057C262.903 78.0588 263.317 76.9846 263.676 75.8908C264.031 74.7971 264.328 73.6877 264.567 72.5588C264.801 71.4338 264.973 70.2971 265.082 69.1525C265.195 68.0041 265.242 66.8557 265.223 65.7033C265.207 64.5549 265.129 63.4064 264.985 62.2658C264.844 61.1213 264.637 59.9924 264.371 58.8713C264.102 57.7502 263.774 56.6486 263.387 55.5666C262.996 54.4846 262.551 53.426 262.043 52.3908C261.539 51.3556 260.977 50.3517 260.363 49.3791C259.746 48.4064 259.078 47.4728 258.36 46.5744C257.641 45.6721 256.871 44.8166 256.059 44.0041C255.246 43.1877 254.387 42.4221 253.488 41.6994C252.59 40.9806 251.656 40.3088 250.684 39.6916C249.711 39.0744 248.707 38.5158 247.672 38.008C246.637 37.5002 245.578 37.051 244.496 36.6642C243.41 36.2736 242.309 35.9455 241.188 35.676C240.07 35.4064 238.938 35.2033 237.793 35.0588C236.653 34.9142 235.504 34.8361 234.352 34.8166C233.199 34.801 232.051 34.8478 230.906 34.9572C229.758 35.0666 228.621 35.2385 227.492 35.4728C226.367 35.7072 225.254 36.0041 224.16 36.3635C223.067 36.7189 221.992 37.1369 220.945 37.6135C219.895 38.09 218.875 38.6213 217.887 39.2072C216.895 39.7971 215.942 40.4377 215.02 41.133C214.102 41.8244 213.223 42.5666 212.383 43.3596C211.547 44.1486 210.754 44.9846 210.008 45.8596C209.262 46.7385 208.567 47.6525 207.922 48.6096L166.801 109.617L180.801 37.3596C181.024 36.2306 181.184 35.09 181.278 33.9455C181.375 32.7971 181.406 31.6447 181.375 30.4963C181.344 29.3439 181.25 28.1955 181.094 27.0549C180.934 25.9142 180.715 24.7853 180.434 23.6681C180.153 22.551 179.809 21.4533 179.406 20.3752C179.004 19.297 178.543 18.2424 178.024 17.215C177.504 16.1877 176.93 15.1916 176.301 14.2267C175.672 13.258 174.992 12.3322 174.262 11.4416C173.531 10.551 172.754 9.7072 171.926 8.90252C171.102 8.09783 170.238 7.34002 169.328 6.63299C168.422 5.92205 167.477 5.2658 166.496 4.66424C165.516 4.05877 164.504 3.50798 163.465 3.0158C162.422 2.52361 161.36 2.09002 160.27 1.71502C159.18 1.33611 158.074 1.02361 156.949 0.769704C155.828 0.515797 154.692 0.324391 153.547 0.195484C152.403 0.0665786 151.254 0.000172434 150.102 0.000172434C148.949 -0.00373382 147.801 0.0587663 146.653 0.183766C145.508 0.30486 144.371 0.49236 143.242 0.74236C142.117 0.992361 141.008 1.30095 139.918 1.67595C138.824 2.04705 137.758 2.47673 136.715 2.96892C135.668 3.4572 134.656 4.00408 133.672 4.60564C132.688 5.2072 131.742 5.85955 130.828 6.56658C129.918 7.27361 129.047 8.02752 128.219 8.8322C127.391 9.63299 126.61 10.4767 125.875 11.3674C125.141 12.258 124.457 13.1838 123.824 14.1486C123.192 15.1095 122.613 16.1056 122.09 17.1369C121.567 18.1642 121.102 19.2189 120.695 20.297C120.289 21.3752 119.945 22.4728 119.66 23.59C119.375 24.7111 119.153 25.84 118.992 26.9806C118.832 28.1252 118.735 29.2697 118.699 30.4221C118.668 31.5783 118.695 32.7267 118.789 33.8752C118.883 35.0275 119.039 36.1681 119.262 37.301L133.242 109.555L92.1174 48.5471C91.4728 47.5939 90.7775 46.676 90.0353 45.801C89.2892 44.9221 88.4963 44.0861 87.6603 43.2971C86.8244 42.508 85.9455 41.7658 85.0236 41.0705C84.1056 40.3791 83.1525 39.7346 82.1603 39.1486C81.1721 38.5588 80.1525 38.0275 79.1056 37.551C78.0549 37.0744 76.9846 36.6603 75.8908 36.301C74.7931 35.9455 73.6838 35.6486 72.5588 35.4142C71.4299 35.176 70.2931 35.0041 69.1486 34.8947C68.0002 34.7853 66.8517 34.7385 65.6994 34.758C64.551 34.7736 63.4025 34.8517 62.258 34.9963C61.1174 35.1408 59.9845 35.3478 58.8674 35.6135C57.7463 35.883 56.6447 36.2111 55.5627 36.6017C54.4767 36.9924 53.4181 37.4416 52.3869 37.9455C51.3517 38.4533 50.3478 39.0158 49.3752 39.633C48.4025 40.2502 47.4689 40.9181 46.5705 41.6369C45.672 42.3596 44.8166 43.1252 44.0041 43.9416C43.1877 44.7541 42.422 45.6096 41.6994 46.508C40.9806 47.4064 40.3127 48.3439 39.6955 49.3127C39.0783 50.2853 38.5158 51.2892 38.008 52.3244C37.5002 53.3596 37.0549 54.4181 36.6642 55.5002C36.2736 56.5822 35.9455 57.6838 35.676 58.8049C35.4064 59.926 35.2033 61.0549 35.0588 62.1994C34.9142 63.34 34.8361 64.4885 34.8166 65.6408C34.801 66.7892 34.8478 67.9377 34.9572 69.0861C35.0666 70.2307 35.2385 71.3674 35.4728 72.4963C35.7111 73.6213 36.0041 74.7346 36.3635 75.8283C36.7228 76.9221 37.1369 77.9924 37.6135 79.0432C38.09 80.09 38.6213 81.1096 39.2111 82.1017C39.797 83.09 40.4377 84.0432 41.133 84.965C41.8244 85.883 42.5666 86.7619 43.3595 87.5978C44.1486 88.4338 44.9845 89.2267 45.8595 89.9728C46.7385 90.7189 47.6564 91.4103 48.6095 92.0549L109.617 133.18L37.301 119.258C36.1681 119.039 35.0275 118.883 33.8752 118.789C32.7267 118.696 31.5783 118.668 30.422 118.699C29.2697 118.735 28.1252 118.832 26.9806 118.992C25.84 119.153 24.7111 119.375 23.59 119.66C22.4728 119.946 21.3752 120.289 20.297 120.696C19.2189 121.102 18.1642 121.567 17.1369 122.09C16.1056 122.613 15.1095 123.192 14.1486 123.824C13.1838 124.457 12.258 125.141 11.3674 125.875C10.4767 126.61 9.63299 127.391 8.8322 128.219C8.02752 129.047 7.27361 129.918 6.56658 130.828C5.85955 131.742 5.2072 132.688 4.60564 133.672C4.00408 134.656 3.4572 135.668 2.96892 136.715C2.47673 137.758 2.04705 138.824 1.67595 139.918C1.30095 141.008 0.99236 142.117 0.74236 143.242C0.49236 144.371 0.30486 145.508 0.183766 146.653C0.0587662 147.801 -0.00373382 148.949 0.000172434 150.102C-0.00373382 151.258 0.0587662 152.406 0.183766 153.551C0.30486 154.699 0.49236 155.836 0.74236 156.961C0.99236 158.086 1.30095 159.195 1.67595 160.289C2.04705 161.379 2.47673 162.449 2.96892 163.492C3.4572 164.535 4.00408 165.551 4.60564 166.535C5.2072 167.516 5.85955 168.465 6.56658 169.375C7.27361 170.289 8.02752 171.16 8.8322 171.988C9.63299 172.817 10.4767 173.598 11.3674 174.332C12.258 175.067 13.1838 175.75 14.1486 176.383C15.1095 177.016 16.1056 177.594 17.1369 178.117C18.1642 178.637 19.2189 179.102 20.297 179.508C21.3752 179.914 22.4728 180.262 23.59 180.547C24.7111 180.832 25.84 181.055 26.9806 181.215C28.1252 181.375 29.2697 181.473 30.422 181.504C31.5783 181.539 32.7267 181.508 33.8752 181.414C35.0275 181.32 36.1681 181.164 37.301 180.945L109.555 166.758L48.547 207.883C47.5939 208.528 46.676 209.223 45.797 209.969C44.922 210.715 44.0861 211.504 43.297 212.344C42.5041 213.18 41.7619 214.059 41.0705 214.981C40.3752 215.899 39.7345 216.856 39.1486 217.844C38.5588 218.836 38.0275 219.856 37.551 220.903C37.0744 221.953 36.6603 223.024 36.301 224.117C35.9416 225.215 35.6486 226.324 35.4103 227.453C35.176 228.582 35.0041 229.719 34.8947 230.863C34.7853 232.012 34.7385 233.16 34.7541 234.313C34.7736 235.465 34.8517 236.61 34.9963 237.754C35.1408 238.895 35.3439 240.028 35.6135 241.149C35.883 242.27 36.2111 243.371 36.6017 244.453C36.9924 245.539 37.4377 246.598 37.9455 247.633C38.4533 248.664 39.0158 249.668 39.633 250.641C40.2502 251.613 40.9181 252.551 41.6369 253.449C42.3595 254.348 43.1252 255.203 43.9416 256.02C44.7541 256.832 45.6135 257.598 46.5119 258.317C47.4103 259.035 48.3439 259.703 49.3166 260.321C50.2892 260.938 51.2931 261.496 52.3283 262.004C53.3635 262.508 54.422 262.957 55.5041 263.344C56.59 263.735 57.6916 264.063 58.8088 264.328C59.9299 264.598 61.0627 264.801 62.2033 264.946C63.3439 265.086 64.4924 265.168 65.6447 265.184C66.7931 265.199 67.9416 265.153 69.09 265.043C70.2346 264.934 71.3713 264.758 72.5002 264.524C73.6252 264.289 74.7346 263.992 75.8283 263.633C76.926 263.278 77.9963 262.86 79.0431 262.383C80.09 261.906 81.1096 261.375 82.1017 260.789C83.09 260.199 84.0431 259.559 84.965 258.863C85.883 258.172 86.7619 257.43 87.5978 256.641C88.4338 255.848 89.2267 255.016 89.9728 254.137C90.7189 253.262 91.4103 252.344 92.0549 251.391L133.18 190.406L119.262 262.68C119.039 263.813 118.883 264.953 118.789 266.102C118.692 267.254 118.664 268.403 118.695 269.559C118.727 270.711 118.824 271.86 118.985 273C119.145 274.145 119.367 275.274 119.653 276.391C119.938 277.508 120.281 278.61 120.688 279.688C121.094 280.766 121.559 281.821 122.082 282.852C122.602 283.879 123.18 284.875 123.813 285.84C124.445 286.805 125.129 287.731 125.863 288.621C126.602 289.508 127.383 290.356 128.211 291.156C129.039 291.961 129.91 292.715 130.82 293.422C131.735 294.129 132.68 294.781 133.664 295.383C134.649 295.985 135.664 296.531 136.711 297.02C137.754 297.508 138.82 297.942 139.914 298.313C141.008 298.684 142.117 298.992 143.242 299.242C144.367 299.492 145.504 299.676 146.653 299.801C147.801 299.922 148.949 299.985 150.102 299.981C151.258 299.981 152.406 299.922 153.551 299.797C154.699 299.672 155.836 299.488 156.961 299.238C158.086 298.988 159.195 298.676 160.289 298.305C161.379 297.934 162.449 297.504 163.492 297.012C164.535 296.524 165.551 295.977 166.535 295.375C167.516 294.774 168.465 294.117 169.375 293.414C170.289 292.707 171.16 291.953 171.988 291.149C172.817 290.348 173.598 289.5 174.332 288.613C175.067 287.723 175.75 286.797 176.383 285.832C177.016 284.867 177.594 283.871 178.117 282.844C178.637 281.817 179.102 280.762 179.508 279.684C179.914 278.606 180.262 277.504 180.547 276.387C180.832 275.27 181.055 274.141 181.215 273C181.375 271.856 181.473 270.707 181.504 269.555C181.539 268.403 181.508 267.254 181.414 266.102C181.32 264.953 181.164 263.813 180.945 262.68L166.758 190.445L207.883 251.434C208.528 252.387 209.223 253.301 209.969 254.18C210.715 255.059 211.508 255.891 212.344 256.68C213.18 257.473 214.059 258.215 214.981 258.906C215.899 259.602 216.856 260.242 217.844 260.828C218.832 261.418 219.852 261.949 220.903 262.426C221.949 262.903 223.024 263.317 224.117 263.676C225.211 264.035 226.324 264.332 227.449 264.567C228.578 264.801 229.715 264.973 230.86 265.086C232.008 265.196 233.156 265.242 234.309 265.227C235.457 265.207 236.606 265.129 237.75 264.985C238.891 264.844 240.024 264.637 241.145 264.371C242.262 264.102 243.363 263.774 244.449 263.387C245.531 262.996 246.594 262.551 247.625 262.043C248.66 261.539 249.664 260.977 250.637 260.363C251.61 259.746 252.547 259.078 253.445 258.36C254.348 257.641 255.203 256.871 256.02 256.059C256.832 255.242 257.598 254.387 258.317 253.488C259.035 252.59 259.703 251.653 260.32 250.68C260.938 249.707 261.496 248.703 262.004 247.668C262.508 246.633 262.957 245.574 263.344 244.488C263.735 243.406 264.063 242.305 264.328 241.184C264.598 240.063 264.801 238.934 264.945 237.789C265.086 236.649 265.168 235.5 265.184 234.348C265.199 233.196 265.153 232.047 265.043 230.903C264.934 229.754 264.762 228.617 264.524 227.492C264.289 226.363 263.992 225.254 263.633 224.156C263.278 223.063 262.86 221.992 262.383 220.942C261.91 219.895 261.375 218.875 260.789 217.887C260.199 216.895 259.559 215.942 258.867 215.02C258.172 214.102 257.43 213.223 256.641 212.387C255.852 211.547 255.016 210.754 254.137 210.008C253.262 209.262 252.344 208.567 251.391 207.922L190.406 166.801L262.641 180.801C263.77 181.02 264.91 181.18 266.063 181.27C267.211 181.363 268.363 181.395 269.516 181.36C270.668 181.328 271.817 181.231 272.957 181.07C274.098 180.91 275.231 180.688 276.348 180.403C277.465 180.117 278.563 179.774 279.641 179.367C280.723 178.961 281.774 178.496 282.805 177.973C283.832 177.449 284.828 176.871 285.793 176.238C286.758 175.606 287.684 174.922 288.57 174.188C289.461 173.453 290.305 172.672 291.11 171.844C291.91 171.016 292.664 170.145 293.371 169.235C294.078 168.32 294.731 167.375 295.332 166.391C295.938 165.406 296.481 164.391 296.973 163.348C297.461 162.305 297.891 161.235 298.266 160.145C298.637 159.051 298.945 157.945 299.195 156.817C299.445 155.692 299.633 154.555 299.758 153.41C299.879 152.262 299.942 151.113 299.938 149.957C299.938 148.809 299.871 147.664 299.742 146.52C299.617 145.379 299.426 144.246 299.172 143.125C298.922 142.004 298.606 140.899 298.235 139.813C297.86 138.727 297.426 137.664 296.934 136.625C296.442 135.586 295.895 134.574 295.293 133.598C294.692 132.617 294.039 131.676 293.332 130.766C292.625 129.86 291.871 128.996 291.07 128.172C290.27 127.348 289.422 126.571 288.535 125.84C287.649 125.106 286.723 124.426 285.762 123.797C284.801 123.168 283.805 122.594 282.781 122.074C281.758 121.555 280.707 121.094 279.629 120.688C278.555 120.285 277.457 119.942 276.344 119.656C275.231 119.375 274.102 119.153 272.965 118.992C271.828 118.832 270.684 118.738 269.535 118.703C268.383 118.672 267.238 118.699 266.09 118.793C264.945 118.887 263.809 119.043 262.68 119.258Z" fill="#D6BCD2"/>
</g>
<defs>
<clipPath id="clip0_254_23">
<rect width="300" height="300" fill="white"/>
</clipPath>
</defs>
</svg>
