<?xml version="1.0" encoding="UTF-8"?>
<!DOCTYPE svg PUBLIC "-//W3C//DTD SVG 1.1//EN" "http://www.w3.org/Graphics/SVG/1.1/DTD/svg11.dtd">
<!-- Creator: CorelDRAW -->
<svg xmlns="http://www.w3.org/2000/svg" xml:space="preserve" width="3.93701in" height="3.93701in" version="1.1" style="shape-rendering:geometricPrecision; text-rendering:geometricPrecision; image-rendering:optimizeQuality; fill-rule:evenodd; clip-rule:evenodd"
viewBox="0 0 3931.4 3931.4"
 xmlns:xlink="http://www.w3.org/1999/xlink"
 xmlns:xodm="http://www.corel.com/coreldraw/odm/2003">
 <defs>
  <style type="text/css">
   <![CDATA[
    .fil0 {fill:#E6E7E8}
    .fil1 {fill:#96989A}
   ]]>
  </style>
 </defs>
 <g id="Layer_x0020_1">
  <metadata id="CorelCorpID_0Corel-Layer"/>
  <g id="_2368446628464">
   <path class="fil0" d="M1965.7 393.14c868.51,0 1572.56,704.06 1572.56,1572.56 0,868.51 -704.06,1572.56 -1572.56,1572.56 -868.51,0 -1572.56,-704.06 -1572.56,-1572.56 0,-868.51 704.06,-1572.56 1572.56,-1572.56zm1965.7 1572.56c0,-1085.63 -880.07,-1965.7 -1965.7,-1965.7 -1085.63,0 -1965.7,880.07 -1965.7,1965.7 0,1085.63 880.07,1965.7 1965.7,1965.7 1085.63,0 1965.7,-880.07 1965.7,-1965.7z"/>
   <path class="fil1" d="M1965.7 393.14c868.51,0 1572.56,704.06 1572.56,1572.56 0,108.56 88.01,196.57 196.57,196.57 108.56,0 196.57,-88.01 196.57,-196.57 0,-1.71 -0.06,-3.41 -0.06,-5.12 -2.76,-1081.55 -878.96,-1957.75 -1960.51,-1960.52 -1.71,-0 -3.41,-0.06 -5.13,-0.06 -108.56,0 -196.57,88.01 -196.57,196.57 0,108.56 88.01,196.57 196.57,196.57z"/>
  </g>
 </g>
</svg>
