<svg width="80" height="80" viewBox="0 0 80 80" fill="none" xmlns="http://www.w3.org/2000/svg">
<rect y="6.10352e-05" width="80" height="80" rx="10" fill="#F9756D"/>
<path d="M24.8262 33.7296L19.3184 51.0001H14.2207L22.1162 29.6719H25.3389L24.8262 33.7296ZM29.3965 51.0001L23.874 33.7296L23.3027 29.6719H26.5693L34.4941 51.0001H29.3965ZM29.1621 43.0606V46.752H18.0439V43.0606H29.1621ZM45.2607 47.4551V28.5001H49.8604V51.0001H45.7295L45.2607 47.4551ZM35.3877 43.2657V42.9581C35.3877 41.7569 35.5195 40.6631 35.7832 39.6768C36.0566 38.6807 36.4521 37.8262 36.9697 37.1133C37.4971 36.3907 38.1465 35.834 38.918 35.4434C39.6895 35.0528 40.5732 34.8575 41.5693 34.8575C42.4873 34.8575 43.2881 35.0626 43.9717 35.4727C44.6553 35.8731 45.2363 36.4395 45.7148 37.1719C46.2031 37.8946 46.5986 38.7491 46.9014 39.7354C47.2041 40.712 47.4336 41.7715 47.5898 42.9141V43.4415C47.4434 44.5352 47.2139 45.5557 46.9014 46.503C46.5986 47.4503 46.2031 48.2852 45.7148 49.0079C45.2363 49.7208 44.6504 50.2823 43.957 50.6924C43.2734 51.0928 42.4678 51.293 41.54 51.293C40.5439 51.293 39.6602 51.0928 38.8887 50.6924C38.127 50.2921 37.4873 49.7305 36.9697 49.0079C36.4521 48.2852 36.0566 47.4356 35.7832 46.459C35.5195 45.4825 35.3877 44.418 35.3877 43.2657ZM39.958 42.9581V43.2657C39.958 43.8907 40.002 44.4717 40.0898 45.0089C40.1875 45.546 40.3438 46.0196 40.5586 46.4297C40.7734 46.8399 41.0566 47.1622 41.4082 47.3965C41.7598 47.6212 42.1895 47.7335 42.6973 47.7335C43.3809 47.7335 43.9424 47.5772 44.3818 47.2647C44.8213 46.9424 45.1533 46.4981 45.3779 45.9317C45.6025 45.3653 45.7197 44.7061 45.7295 43.9542V42.4161C45.7295 41.7911 45.666 41.2296 45.5391 40.7315C45.4121 40.2335 45.2217 39.8135 44.9678 39.4717C44.7236 39.1299 44.416 38.8712 44.0449 38.6954C43.6738 38.5098 43.2344 38.4171 42.7266 38.4171C42.2285 38.4171 41.8037 38.5342 41.4521 38.7686C41.1006 38.9932 40.8125 39.3106 40.5879 39.7208C40.373 40.1309 40.2119 40.6143 40.1045 41.171C40.0068 41.7178 39.958 42.3135 39.958 42.9581ZM61.3447 46.5909C61.3447 46.2979 61.252 46.0391 61.0664 45.8145C60.8906 45.5899 60.5684 45.3848 60.0996 45.1993C59.6406 45.0137 58.9912 44.8282 58.1514 44.6426C57.3604 44.4766 56.623 44.2618 55.9395 43.9981C55.2559 43.7247 54.6602 43.3975 54.1523 43.0167C53.6445 42.626 53.249 42.1671 52.9658 41.6397C52.6826 41.1026 52.541 40.4922 52.541 39.8087C52.541 39.1446 52.6826 38.5147 52.9658 37.919C53.2588 37.3233 53.6787 36.796 54.2256 36.337C54.7822 35.878 55.4561 35.5167 56.2471 35.253C57.0479 34.9893 57.9561 34.8575 58.9717 34.8575C60.3682 34.8575 61.5742 35.0772 62.5898 35.5167C63.6055 35.9464 64.3867 36.5518 64.9336 37.3331C65.4805 38.1046 65.7539 38.9883 65.7539 39.9844H61.1836C61.1836 39.5743 61.1055 39.2178 60.9492 38.9151C60.793 38.6124 60.5537 38.378 60.2314 38.212C59.9092 38.0362 59.4844 37.9483 58.957 37.9483C58.5469 37.9483 58.1855 38.0215 57.873 38.168C57.5703 38.3047 57.3311 38.4952 57.1553 38.7393C56.9893 38.9835 56.9062 39.2667 56.9062 39.5889C56.9062 39.8135 56.9551 40.0186 57.0527 40.2042C57.1602 40.3799 57.3213 40.546 57.5361 40.7022C57.7607 40.8487 58.0488 40.9805 58.4004 41.0977C58.7617 41.2149 59.2012 41.3272 59.7188 41.4346C60.8223 41.6397 61.8281 41.9278 62.7363 42.2989C63.6543 42.67 64.3867 43.1827 64.9336 43.837C65.4902 44.4913 65.7686 45.3555 65.7686 46.4297C65.7686 47.1329 65.6074 47.7774 65.2852 48.3633C64.9727 48.9493 64.5186 49.462 63.9229 49.9014C63.3271 50.3409 62.6143 50.6827 61.7842 50.9268C60.9541 51.171 60.0166 51.293 58.9717 51.293C57.4775 51.293 56.2129 51.0245 55.1777 50.4874C54.1426 49.9503 53.3613 49.2764 52.834 48.4659C52.3164 47.6456 52.0576 46.8057 52.0576 45.9464H56.3496C56.3691 46.4737 56.501 46.9034 56.7451 47.2354C56.999 47.5674 57.3262 47.8116 57.7266 47.9678C58.127 48.1143 58.5762 48.1876 59.0742 48.1876C59.5723 48.1876 59.9873 48.1192 60.3193 47.9825C60.6514 47.8458 60.9053 47.6602 61.0811 47.4258C61.2568 47.1817 61.3447 46.9034 61.3447 46.5909Z" fill="white"/>
</svg>
