<?xml version="1.0" encoding="UTF-8"?>
<!DOCTYPE svg PUBLIC "-//W3C//DTD SVG 1.1//EN" "http://www.w3.org/Graphics/SVG/1.1/DTD/svg11.dtd">
<!-- Creator: CorelDRAW -->
<svg xmlns="http://www.w3.org/2000/svg" xml:space="preserve" width="2.58533in" height="2.6671in" version="1.1" style="shape-rendering:geometricPrecision; text-rendering:geometricPrecision; image-rendering:optimizeQuality; fill-rule:evenodd; clip-rule:evenodd"
viewBox="0 0 313.48 323.39"
 xmlns:xlink="http://www.w3.org/1999/xlink"
 xmlns:xodm="http://www.corel.com/coreldraw/odm/2003"
 data-name="Layer 1">
 <defs>
  <style type="text/css">
   <![CDATA[
    .fil0 {fill:#C1D2EB;fill-rule:nonzero}
   ]]>
  </style>
 </defs>
 <g id="Layer_x0020_1">
  <metadata id="CorelCorpID_0Corel-Layer"/>
  <g id="_2708713536048">
   <path class="fil0" d="M200.93 177.9c0.96,-11.09 -3.79,-19.91 -13.24,-24.74 -3.17,-1.62 -7.78,-2.36 -9.21,-4.91 -1.62,-2.89 -0.4,-7.36 -0.4,-11.15l0 -18.66c3.65,1.92 6.59,3.39 9.45,5.05 2.53,1.43 4.89,1.26 6.52,-0.76 0.72,-0.83 1.12,-1.9 1.12,-3 0,-1.47 -0.7,-2.85 -1.89,-3.71 -1.16,-1.07 -2.48,-1.96 -3.9,-2.64 -3.64,-1.54 -7.36,-2.85 -11.29,-4.35 0,-1.65 0,-3.55 0,-5.43 -0.11,-3.33 -2.12,-5.49 -4.91,-5.41 -2.79,0.09 -4.46,2.11 -4.53,5.38 0,2.07 0,4.16 0,6.32 -1.26,0.35 -2.26,0.59 -3.25,0.92 -9.32,3.07 -14.71,9.61 -16.09,19.16 -1.38,9.55 2.17,16.68 10.61,21.36 1.96,1.21 4.02,2.3 6.14,3.21 2.16,0.82 2.67,2.11 2.64,4.28 -0.1,10.41 0,20.83 0,31.25l0 3.11c-0.21,0.01 -0.42,0.02 -0.64,0.02 -0.57,0 -1.15,-0.05 -1.71,-0.16 -4.17,-1.6 -8.36,-3.18 -12.48,-4.94 -2.73,-1.16 -5.24,-0.66 -6.58,1.65 -1.34,2.31 -0.69,4.65 1.59,6.32 0.51,0.37 1.07,0.67 1.6,1.01 5.34,3.41 11.48,5.38 17.81,5.71 0.23,0.42 0.32,0.51 0.32,0.61 0,2 0,3.99 0.1,5.99 0.08,3.49 1.82,5.47 4.72,5.44 2.9,-0.02 4.64,-2.02 4.72,-5.52 0,-2.21 0,-4.41 0,-6.86 1.41,-0.39 2.53,-0.66 3.63,-1 10.47,-3.37 17.99,-12.6 19.16,-23.54l0 0zm-32.41 -33.33c-6,-1.11 -9.97,-5.52 -10.02,-11.1 -0.08,-6.61 3.95,-12.15 10.02,-13.39l0 24.49zm9.67 15.31c8.84,1.93 13.57,7.58 13.36,15.66 -0.2,8.08 -6.1,15.45 -13.36,16.67l0 -32.33zm134.38 77.21c-2.53,-8.65 -10.1,-14.54 -19.02,-14.05 -3.79,0.21 -7.58,1.68 -11.23,2.75 -1.8,0.64 -3.56,1.4 -5.26,2.26 0.09,-0.52 0.21,-1.04 0.35,-1.54 8.56,-19.62 9.55,-39.89 5.05,-60.63 -5.05,-23.58 -16.7,-43.84 -31.96,-62.22 -2.02,-2.43 -4.09,-4.82 -6.32,-7.07 -0.87,-0.97 -2.12,-1.52 -3.43,-1.52 -1.15,0 -2.25,0.43 -3.1,1.19 -0.99,0.9 -1.55,2.17 -1.55,3.5 0,1.11 0.39,2.19 1.11,3.04 0.62,0.85 1.39,1.58 2.08,2.37 18.78,21.36 32.61,45.17 35.69,74.05 2.01,18.95 -1.26,36.89 -11.62,53.17 -0.91,1.37 -2.18,2.46 -3.66,3.16 -16.5,7.38 -33.04,14.64 -49.59,21.93 -2.17,0.96 -4.37,1.86 -6.95,2.93l0 -3.57c0,-14.99 -9.6,-27.24 -24.45,-29.62 -13.69,-2.17 -27.53,-3.49 -41.34,-4.93 -11.46,-1.19 -22.73,-2.72 -32.84,-9.04 -9.45,-5.95 -19.35,-11.03 -30.31,-13.82 -0.88,-0.38 -1.54,-1.15 -1.79,-2.07 -0.32,-1.75 -0.49,-3.54 -0.49,-5.32 -0.64,-19.08 4.27,-36.86 12.93,-53.67 11.91,-23.15 29.24,-41.68 49.12,-58.2 2.98,-2.53 5.53,-4.21 9.25,-1.64 1.04,0.52 2.16,0.87 3.31,1.01 11.77,2.85 23.76,3.13 35.76,2.29 8.05,-0.57 16.15,-1.39 23.34,-5.78 0.56,-0.34 1.97,0.11 2.64,0.64 4.28,3.4 8.49,6.91 12.71,10.38 2.9,2.41 5.54,2.53 7.49,0.2 1.95,-2.32 1.55,-4.91 -1.35,-7.38 -4.58,-3.88 -9.28,-7.58 -13.89,-11.47 -0.78,-0.66 -1.76,-1.82 -1.68,-2.64 0.11,-0.78 0.16,-1.58 0.16,-2.37 0,-4.97 -2.1,-9.72 -5.77,-13.07 3.47,-6.32 7.22,-12.15 10.1,-18.44 2.39,-5.11 4.12,-10.55 5.12,-16.1 1.76,-10.61 -4.96,-15.76 -14.74,-11.8 -1.04,0.49 -2.17,0.75 -3.32,0.75 -1.26,0 -2.51,-0.31 -3.62,-0.9 -2.5,-1.3 -5.29,-2.56 -8.05,-3.83l-5.67 0c-2.72,1.26 -5.48,2.53 -8.15,3.79 -1.13,0.65 -2.41,1 -3.71,1 -1.21,0 -2.4,-0.3 -3.46,-0.86 -2.65,-1.36 -5.36,-2.65 -8.05,-3.98l-6.32 -0c-1.78,0.57 -3.51,1.33 -5.13,2.27 -4.03,2.93 -7.87,2.97 -12.33,0.71 -4.66,-2.35 -8.84,-0.73 -10.9,4.07 -0.95,2.31 -1.44,4.79 -1.44,7.3 0,0.31 0.01,0.63 0.02,0.94 0.39,8.31 4.19,15.54 7.98,22.73 1.91,3.6 4.05,7.06 6.06,10.56 -2.17,1.58 -2.22,1.64 -3.71,0.24 -5.93,-5.85 -13.94,-9.13 -22.27,-9.13 -1.24,0 -2.48,0.07 -3.71,0.22 -1.36,0.16 -2.74,0.24 -4.11,0.24 -6.76,0 -13.4,-1.92 -19.12,-5.53 -2.75,-1.72 -5.42,-1.16 -6.91,1.14 -1.49,2.3 -0.85,5.05 2.06,6.93 5.7,3.83 12.31,6.12 19.16,6.63 4.61,0.28 9.25,-0.1 13.89,0 6.82,0.11 14.71,4.76 16.86,9.9 -1.41,0.08 -2.75,0.11 -4.08,0.21 -7.67,0.42 -15.23,2.13 -22.34,5.05 -7.86,3.34 -14.44,8.23 -18.83,15.63 -1.57,2.6 -1.07,5.19 1.09,6.71 0.78,0.62 1.75,0.96 2.75,0.96 1.59,0 3.05,-0.85 3.84,-2.22 5.51,-8.73 13.89,-12.91 23.52,-15.02 4.6,-1.01 9.33,-1.34 14.79,-2.1 -0.32,0.5 -0.67,0.99 -1.05,1.45l-2.2 1.78c-17.11,13.55 -32.4,28.84 -44.43,47.11 -15.35,23.32 -24.39,48.55 -22.73,76.92 -0.02,0.43 -0.1,0.85 -0.23,1.26l-13.05 -1.01c-0.09,-0.62 -0.2,-1.12 -0.23,-1.63 -0.61,-9.86 -5.89,-14.92 -15.83,-14.92l-17.68 0c-10.43,0 -15.79,5.31 -15.79,15.66 0,24.84 0,49.68 0,74.52 0,11.37 -0.08,22.73 0,34.1 -0,0.05 -0,0.1 -0,0.14 0,7.17 5.71,13.04 12.87,13.24 7.78,0.18 15.56,0.18 23.35,0 6.12,-0.2 11.31,-4.57 12.54,-10.57 0.29,-1.26 0.48,-2.64 0.75,-4.14 0.93,0.3 1.74,0.52 2.53,0.81 14.47,5.38 28.94,10.77 43.41,16.18 7.03,2.67 14.49,4.04 22.01,4.04 0.05,0 0.13,0 0.18,0 22.73,-0.07 45.47,-0.07 68.2,0 0.19,0 0.38,0 0.57,0 11.33,0 22.45,-3.27 31.97,-9.39 28.63,-18.21 57.32,-36.39 86.08,-54.54 5.6,-3.66 8.97,-9.9 8.97,-16.59 0,-1.96 -0.29,-3.92 -0.87,-5.79l-0.04 0zm-114.84 -167.51c-6.67,1.33 -13.43,2.21 -20.21,3.14 -0.94,0.06 -1.89,0.1 -2.83,0.1 -0.94,0 -1.89,-0.03 -2.83,-0.09 0,0.3 -0.08,0.59 -0.1,0.9 -8.18,-1.26 -16.42,-2.29 -24.52,-3.79 -4.9,-0.91 -6.93,-5.81 -4.65,-10.26 0.84,-1.96 2.76,-3.23 4.89,-3.23 0.56,0 1.12,0.09 1.65,0.26 7.36,1.87 14.96,2.83 22.57,2.83 3.62,0 7.26,-0.22 10.85,-0.65 4.04,-0.54 8.06,-1.35 12.07,-2.1 4.02,-0.75 6.49,0.81 7.43,4.41 1.05,4 -0.55,7.72 -4.33,8.48zm-60.87 -49.42c-1.07,-2.24 -1.05,-4.99 -1.64,-8.1 2.17,0.75 3.52,1.26 4.9,1.67 1.47,0.46 3.01,0.7 4.56,0.7 3.11,0 6.15,-0.96 8.7,-2.75 3.89,-2.64 7.38,-2.53 11.37,0 6.15,3.88 12.53,3.79 18.71,-0.21 2.72,-1.74 5.63,-2.88 8.55,-0.97 6.32,4.09 12.63,5.41 19.72,1.63l0.96 0.78c-0.96,3.49 -1.41,7.21 -2.98,10.38 -3.71,7.52 -7.93,14.78 -12.02,22.1 -0.5,0.75 -1.25,1.3 -2.12,1.54 -7.49,2 -15.23,3.03 -22.99,3.03 -6.13,0 -12.24,-0.64 -18.23,-1.89 -2.29,-0.49 -4.07,-1.26 -5.18,-3.46 -4.08,-8.19 -8.39,-16.22 -12.29,-24.45zm162.34 231.43c-28.95,18.4 -57.92,36.74 -86.91,55.03 -7.54,4.76 -16.3,7.29 -25.22,7.29 -0.17,0 -0.36,-0.01 -0.53,-0.01 -23.25,0 -46.5,0 -69.77,0 -6.63,-0.11 -13.21,-1.43 -19.36,-3.89 -15.16,-5.68 -30.31,-11.37 -45.47,-16.91 -2.2,-0.8 -2.77,-1.88 -2.75,-4.07 0.09,-15.16 0,-30.31 0,-45.47 0.01,-0.28 0.02,-0.57 0.02,-0.85 0,-0.66 -0.03,-1.33 -0.09,-1.99 -0.21,-2.5 -2.3,-4.42 -4.81,-4.42 -0.03,0 -0.05,0 -0.08,0 -2.49,0.1 -4.46,2.15 -4.46,4.64 0,0.05 0,0.1 0,0.14 -0.1,4.1 0,8.21 0,12.31 -0,16 -0,32 -0,48 0,5.05 -1.26,6.32 -6.32,6.32 -6.2,0 -12.42,0 -18.62,0 -3.97,0 -5.32,-1.35 -5.32,-5.31 0,-36 0,-71.99 0,-107.98 0,-4.05 1.44,-5.47 5.53,-5.48 6.32,0 12.63,0 18.95,0 4.36,0 5.78,1.47 5.8,5.95 0,7.58 0,15.16 0,22.73 0,3.86 1.58,5.91 4.51,6.01 2.93,0.1 4.9,-2.08 4.94,-5.99 0.04,-3.9 0,-7.75 0,-11.92 7.3,-0.18 14.4,0.21 21.02,2.53 8.19,2.83 16.26,6.28 24,10.22 9.75,4.99 19.17,10.61 30.31,11.94 15.24,1.82 30.51,3.5 45.77,5.24 2.3,0.27 4.61,0.42 6.88,0.85 9.61,1.67 16.62,10.01 16.62,19.76 0,0.22 -0,0.44 -0.01,0.65 0,1.97 0,3.95 0,6.32l-27.79 0c-6.73,0 -13.46,0 -20.21,0 -3.68,0 -5.57,1.59 -5.65,4.51 -0.08,2.92 1.91,4.93 5.63,4.93 17.15,0.05 34.31,0.05 51.47,-0 1.75,-0.12 3.47,-0.58 5.05,-1.35 27.63,-12.1 55.23,-24.23 82.82,-36.39 2,-0.92 4.09,-1.67 6.23,-2.2 0.84,-0.23 1.71,-0.35 2.58,-0.35 4.11,0 7.78,2.61 9.13,6.49 0.54,1.28 0.83,2.66 0.83,4.05 0,3.5 -1.78,6.77 -4.72,8.67l0 0z"/>
  </g>
 </g>
</svg>
