<svg width="80" height="80" viewBox="0 0 80 80" fill="none" xmlns="http://www.w3.org/2000/svg">
<rect width="80" height="80" rx="10" fill="#D6BCD2"/>
<path d="M17.32 54V26H29.44C31.9467 26 34.1067 26.4133 35.92 27.24C37.7333 28.04 39.1333 29.2 40.12 30.72C41.1067 32.24 41.6 34.0533 41.6 36.16C41.6 38.24 41.1067 40.04 40.12 41.56C39.1333 43.08 37.7333 44.2533 35.92 45.08C34.1067 45.88 31.9467 46.28 29.44 46.28H20.92L23.8 43.36V54H17.32ZM23.8 44.08L20.92 41H29.08C31.08 41 32.5733 40.5733 33.56 39.72C34.5467 38.8667 35.04 37.68 35.04 36.16C35.04 34.6133 34.5467 33.4133 33.56 32.56C32.5733 31.7067 31.08 31.28 29.08 31.28H20.92L23.8 28.2V44.08ZM53.4169 54.32C51.5769 54.32 49.8035 54.1067 48.0969 53.68C46.4169 53.2267 45.0835 52.6667 44.0969 52L46.1769 47.52C47.1635 48.1333 48.3235 48.64 49.6569 49.04C51.0169 49.4133 52.3502 49.6 53.6569 49.6C55.0969 49.6 56.1102 49.4267 56.6969 49.08C57.3102 48.7333 57.6169 48.2533 57.6169 47.64C57.6169 47.1333 57.3769 46.76 56.8969 46.52C56.4435 46.2533 55.8302 46.0533 55.0569 45.92C54.2835 45.7867 53.4302 45.6533 52.4969 45.52C51.5902 45.3867 50.6702 45.2133 49.7369 45C48.8035 44.76 47.9502 44.4133 47.1769 43.96C46.4035 43.5067 45.7769 42.8933 45.2969 42.12C44.8435 41.3467 44.6169 40.3467 44.6169 39.12C44.6169 37.76 45.0035 36.56 45.7769 35.52C46.5769 34.48 47.7235 33.6667 49.2169 33.08C50.7102 32.4667 52.4969 32.16 54.5769 32.16C56.0435 32.16 57.5369 32.32 59.0569 32.64C60.5769 32.96 61.8435 33.4267 62.8569 34.04L60.7769 38.48C59.7369 37.8667 58.6835 37.4533 57.6169 37.24C56.5769 37 55.5635 36.88 54.5769 36.88C53.1902 36.88 52.1769 37.0667 51.5369 37.44C50.8969 37.8133 50.5769 38.2933 50.5769 38.88C50.5769 39.4133 50.8035 39.8133 51.2569 40.08C51.7369 40.3467 52.3635 40.56 53.1369 40.72C53.9102 40.88 54.7502 41.0267 55.6569 41.16C56.5902 41.2667 57.5235 41.44 58.4569 41.68C59.3902 41.92 60.2302 42.2667 60.9769 42.72C61.7502 43.1467 62.3769 43.7467 62.8569 44.52C63.3369 45.2667 63.5769 46.2533 63.5769 47.48C63.5769 48.8133 63.1769 50 62.3769 51.04C61.5769 52.0533 60.4169 52.8533 58.8969 53.44C57.4035 54.0267 55.5769 54.32 53.4169 54.32Z" fill="white"/>
</svg>
