<?xml version="1.0" encoding="UTF-8"?>
<!DOCTYPE svg PUBLIC "-//W3C//DTD SVG 1.1//EN" "http://www.w3.org/Graphics/SVG/1.1/DTD/svg11.dtd">
<!-- Creator: CorelDRAW -->
<svg xmlns="http://www.w3.org/2000/svg" xml:space="preserve" width="1.65414in" height="1.66667in" version="1.1" style="shape-rendering:geometricPrecision; text-rendering:geometricPrecision; image-rendering:optimizeQuality; fill-rule:evenodd; clip-rule:evenodd"
viewBox="0 0 1661.08 1673.65"
 xmlns:xlink="http://www.w3.org/1999/xlink"
 xmlns:xodm="http://www.corel.com/coreldraw/odm/2003">
 <defs>
  <style type="text/css">
   <![CDATA[
    .fil0 {fill:#F9756D;fill-opacity:0.149020}
   ]]>
  </style>
 </defs>
 <g id="Layer_x0020_1">
  <metadata id="CorelCorpID_0Corel-Layer"/>
  <g id="_2230593309936">
   <path class="fil0" d="M824.25 0l0 836.83 286.29 -786.58c-89.31,-32.52 -185.73,-50.25 -286.29,-50.25z"/>
   <path class="fil0" d="M1362.17 195.77l-537.91 641.06 724.83 -418.48c-49.01,-84.7 -112.43,-160.01 -186.92,-222.58z"/>
   <path class="fil0" d="M1648.5 691.49l-824.25 145.34 824.25 145.34c8.27,-47.2 12.58,-95.77 12.58,-145.34 0,-49.57 -4.31,-98.13 -12.58,-145.34z"/>
   <path class="fil0" d="M1549.09 1255.31l-724.83 -418.48 537.91 641.06c74.49,-62.57 137.91,-137.88 186.92,-222.57z"/>
   <path class="fil0" d="M1110.54 1623.4l-286.29 -786.57 0 836.82c100.56,0 196.97,-17.74 286.29,-50.25z"/>
   <path class="fil0" d="M537.96 1623.4l286.29 -786.57 -537.91 641.06c74.05,62.19 159.02,111.8 251.63,145.51z"/>
   <path class="fil0" d="M99.42 1255.31l724.83 -418.48 -824.25 145.34c17.15,97.97 51.35,190.07 99.42,273.14z"/>
   <path class="fil0" d="M-0 691.49l824.25 145.34 -724.83 -418.48c-48.07,83.08 -82.26,175.18 -99.42,273.14z"/>
   <path class="fil0" d="M286.34 195.77l537.91 641.06 -286.29 -786.58c-92.61,33.72 -177.58,83.32 -251.63,145.51z"/>
  </g>
 </g>
</svg>
