<svg viewBox="0 0 48 48" xmlns="http://www.w3.org/2000/svg" width="300" height="300" version="1.1" xmlns:xlink="http://www.w3.org/1999/xlink" xmlns:svgjs="http://svgjs.dev/svgjs"><g transform="matrix(1,0,0,1,0,0)"><g id="warranty"><path d="m24 6a14 14 0 1 0 14 14 14 14 0 0 0 -14-14zm0 26a12 12 0 1 1 12-12 12 12 0 0 1 -12 12z" fill="#343434ff" data-original-color="#000000ff" stroke="none"/><path d="m42.77 17.27a1.65 1.65 0 0 1 -.38-1.94 3.64 3.64 0 0 0 -2.08-5 1.62 1.62 0 0 1 -1.1-1.64 3.67 3.67 0 0 0 -4-3.86 1.62 1.62 0 0 1 -1.54-1.1 3.64 3.64 0 0 0 -5-2.08c-1.88.86-1.95-1.65-4.67-1.65a3.69 3.69 0 0 0 -2.73 1.23 1.69 1.69 0 0 1 -1.94.38 3.63 3.63 0 0 0 -5 2.08 1.64 1.64 0 0 1 -1.65 1.1 3.67 3.67 0 0 0 -3.86 4 1.62 1.62 0 0 1 -1.1 1.54 3.65 3.65 0 0 0 -2.08 5 1.65 1.65 0 0 1 -.39 2 3.65 3.65 0 0 0 0 5.45 1.65 1.65 0 0 1 .38 1.94 3.63 3.63 0 0 0 2.08 5 1.64 1.64 0 0 1 1.1 1.65 3.62 3.62 0 0 0 2.64 3.7c-4.71 8.17-4.72 7.81-4.26 8.5s.77.46 5.17-.07c1.72 4.06 1.69 4.5 2.51 4.5s.65 0 6.1-9.47a1.89 1.89 0 0 1 .31.25 3.65 3.65 0 0 0 5.45 0 1.86 1.86 0 0 1 .3-.24c5.59 9.69 5.26 9.53 6.1 9.47s.79-.43 2.53-4.52c4.37.53 4.72.76 5.17.07s.22-.73-4.26-8.49a3.66 3.66 0 0 0 2.64-3.81 1.62 1.62 0 0 1 1.1-1.54 3.65 3.65 0 0 0 2.08-5 1.67 1.67 0 0 1 .38-1.94 3.64 3.64 0 0 0 0-5.51zm-27.71 27.5c-1.76-4.11-.82-3.53-5.19-3 4.06-7 3.62-6.37 3.74-6.3a1.61 1.61 0 0 1 .68.84 3.65 3.65 0 0 0 4.3 2.35zm17.88 0-3.53-6.11a3.64 3.64 0 0 0 4.29-2.35 1.77 1.77 0 0 1 .77-.89l3.66 6.35c-4.41-.54-3.46-1.06-5.19 3zm8.51-23.54a3.66 3.66 0 0 0 -.86 4.32 1.63 1.63 0 0 1 -.94 2.26 3.68 3.68 0 0 0 -2.44 3.75 1.66 1.66 0 0 1 -1.8 1.65 3.66 3.66 0 0 0 -3.6 2.44 1.65 1.65 0 0 1 -2.26.94 3.69 3.69 0 0 0 -4.31.85 1.71 1.71 0 0 1 -2.47 0 3.66 3.66 0 0 0 -4.32-.86 1.65 1.65 0 0 1 -2.27-.94 3.65 3.65 0 0 0 -3.74-2.44 1.66 1.66 0 0 1 -1.65-1.8 3.65 3.65 0 0 0 -2.44-3.6 1.62 1.62 0 0 1 -.94-2.26 3.67 3.67 0 0 0 -.85-4.31 1.65 1.65 0 0 1 0-2.47 3.68 3.68 0 0 0 .86-4.32 1.62 1.62 0 0 1 .94-2.26 3.68 3.68 0 0 0 2.44-3.75 1.65 1.65 0 0 1 1.8-1.65 3.65 3.65 0 0 0 3.6-2.44 1.65 1.65 0 0 1 2.26-.94 3.67 3.67 0 0 0 4.31-.85 1.71 1.71 0 0 1 2.47 0 3.68 3.68 0 0 0 4.32.86 1.64 1.64 0 0 1 2.26.94 3.68 3.68 0 0 0 3.75 2.44 1.66 1.66 0 0 1 1.65 1.8 3.65 3.65 0 0 0 2.44 3.6 1.62 1.62 0 0 1 .94 2.26 3.67 3.67 0 0 0 .85 4.31 1.65 1.65 0 0 1 0 2.47z" fill="#343434ff" data-original-color="#000000ff" stroke="none"/><path d="m27.14 16.1c-2.38-4.81-2.31-5.1-3.14-5.1s-.76.28-3.14 5.1c-5.3.77-5.55.61-5.81 1.4s0 .82 3.88 4.56c-.91 5.28-1.13 5.48-.46 6s.78.22 5.53-2.28c4.83 2.54 4.6 2.47 4.94 2.47a1 1 0 0 0 1-1.17l-.86-5 3.63-3.53a1 1 0 0 0 -.56-1.71zm.16 4.9c-.5.49-.31.71.32 4.39-3.49-1.83-3.29-1.77-3.62-1.77s-.13-.06-3.62 1.77c.64-3.7.82-3.91.32-4.39l-2.55-2.49 3.52-.51c.7-.1.68-.39 2.33-3.74 1.67 3.38 1.64 3.64 2.33 3.74l3.52.51z" fill="#343434ff" data-original-color="#000000ff" stroke="none"/></g></g></svg>