<svg width="154" height="156" viewBox="0 0 154 156" fill="none" xmlns="http://www.w3.org/2000/svg">
<path d="M73.1141 2.74191C75.1133 0.291887 78.8563 0.28974 80.8583 2.73747L89.0738 12.7819C90.5245 14.5556 92.9951 15.1161 95.0692 14.1422L106.956 8.56049C109.835 7.20908 113.226 8.85193 113.95 11.948L116.829 24.2588C117.358 26.5206 119.375 28.1204 121.698 28.1204H134.766C137.986 28.1204 140.366 31.1195 139.635 34.2554L136.804 46.4012C136.269 48.6973 137.41 51.0552 139.543 52.0597L151.102 57.5035C154.046 58.8898 154.902 62.6739 152.842 65.1925L144.93 74.8665C143.424 76.7081 143.424 79.356 144.93 81.1976L152.842 90.8715C154.902 93.3901 154.046 97.1742 151.102 98.5605L139.543 104.004C137.41 105.009 136.269 107.367 136.804 109.663L139.635 121.809C140.366 124.945 137.986 127.944 134.766 127.944H121.698C119.375 127.944 117.358 129.543 116.829 131.805L113.95 144.116C113.226 147.212 109.835 148.855 106.956 147.504L95.0692 141.922C92.9951 140.948 90.5245 141.508 89.0738 143.282L80.8583 153.327C78.8563 155.774 75.1133 155.772 73.1141 153.322L64.9267 143.289C63.4767 141.512 61.0036 140.949 58.9276 141.924L47.0383 147.506C44.1622 148.857 40.7725 147.217 40.0457 144.124L37.1498 131.8C36.6189 129.541 34.6032 127.944 32.2824 127.944H19.2353C16.0154 127.944 13.6349 124.945 14.3659 121.809L17.1969 109.663C17.7321 107.367 16.5907 105.009 14.4578 104.004L2.89876 98.5605C-0.04491 97.1742 -0.901222 93.3901 1.15878 90.8715L9.07122 81.1976C10.5775 79.356 10.5775 76.7081 9.07122 74.8664L1.15878 65.1925C-0.901225 62.6739 -0.0449173 58.8898 2.89875 57.5035L14.4578 52.0597C16.5907 51.0552 17.7321 48.6973 17.1969 46.4012L14.3659 34.2554C13.6349 31.1195 16.0154 28.1204 19.2353 28.1204H32.2824C34.6032 28.1204 36.6189 26.5234 37.1498 24.2641L40.0457 11.9398C40.7725 8.84667 44.1622 7.20711 47.0383 8.55757L58.9276 14.1403C61.0036 15.1151 63.4767 14.5525 64.9267 12.7755L73.1141 2.74191Z" fill="#F8E277"/>
</svg>
