<svg version="1.1" id="Capa_1" xmlns="http://www.w3.org/2000/svg" xmlns:xlink="http://www.w3.org/1999/xlink" x="0px" y="0px" viewBox="0 0 480 480" style="enable-background:new 0 0 480 480;" xml:space="preserve" width="300" height="300" xmlns:svgjs="http://svgjs.dev/svgjs"><g transform="matrix(1,0,0,1,0,0)"><g>
	<g>
		<path d="M384,255.999c-9.608,0-18.128,4.336-24,11.056c-5.872-6.72-14.392-11.056-24-11.056c-9.608,0-18.128,4.336-24,11.056&#10;&#9;&#9;&#9;c-5.872-6.72-14.392-11.056-24-11.056c-5.856,0-11.272,1.696-16,4.448v-24.896c1.04-0.288,2.088-0.568,3.12-0.88&#10;&#9;&#9;&#9;c0.792-0.24,1.56-0.528,2.344-0.784c2.408-0.792,4.784-1.64,7.128-2.576c0.632-0.256,1.256-0.52,1.88-0.784&#10;&#9;&#9;&#9;c2.704-1.136,5.36-2.36,7.968-3.688c0.144-0.072,0.288-0.144,0.424-0.216c11.112-5.712,21.352-13.096,30.272-22.072&#10;&#9;&#9;&#9;c0.256-0.264,0.352-0.624,0.568-0.912C347.008,181.751,360,151.983,360,119.999c0-33.152-13.216-64-37.216-86.88&#10;&#9;&#9;&#9;c-23.992-22.856-55.488-34.56-88.688-32.976C175.168,2.975,126.368,49.279,120.6,107.863c-3.616,36.704,9.736,71.456,33.92,96.136&#10;&#9;&#9;&#9;c0.144,0.168,0.192,0.4,0.352,0.56c0.544,0.552,1.136,1.048,1.688,1.584c0.4,0.392,0.816,0.76,1.224,1.152&#10;&#9;&#9;&#9;c2.016,1.896,4.088,3.72,6.224,5.472c0.64,0.52,1.272,1.048,1.92,1.56c2.144,1.68,4.336,3.28,6.584,4.808&#10;&#9;&#9;&#9;c0.56,0.384,1.096,0.784,1.664,1.16c2.776,1.816,5.608,3.528,8.52,5.112c0.672,0.368,1.376,0.68,2.056,1.032&#10;&#9;&#9;&#9;c2.256,1.168,4.544,2.28,6.88,3.312c1.072,0.472,2.16,0.912,3.256,1.352c2.128,0.864,4.288,1.656,6.472,2.4&#10;&#9;&#9;&#9;c1.048,0.36,2.088,0.728,3.152,1.056c1.16,0.36,2.328,0.688,3.504,1.008v121.128l-26.064-26.064&#10;&#9;&#9;&#9;c-6.864-6.856-15.976-10.632-25.672-10.632c-20.008,0-36.28,16.272-36.28,36.28c0,9.696,3.776,18.808,10.624,25.656L208,459.311&#10;&#9;&#9;&#9;v12.688c0,4.424,3.576,8,8,8h184c4.424,0,8-3.576,8-8v-30.112l7.16-14.312c0.552-1.104,0.84-2.336,0.84-3.576V287.967&#10;&#9;&#9;&#9;C416,270.343,401.648,255.999,384,255.999z M156.24,181.375c-14.712-20.112-22.328-45.44-19.72-71.952&#10;&#9;&#9;&#9;c5-50.736,47.28-90.856,98.336-93.296c28.816-1.44,56.096,8.768,76.88,28.576C332.544,64.527,344,91.271,344,119.999&#10;&#9;&#9;&#9;c0,22.6-7.472,43.944-20.248,61.344c-7.6-23.704-25.088-43.336-47.872-53.576c7.512-8.472,12.12-19.576,12.12-31.768&#10;&#9;&#9;&#9;c0-26.472-21.528-48-48-48s-48,21.528-48,48c0,12.192,4.608,23.296,12.12,31.776C181.328,138.015,163.832,157.655,156.24,181.375z&#10;&#9;&#9;&#9; M272,95.999c0,11.808-6.496,22.024-16.04,27.568c-0.04,0.024-0.088,0.024-0.136,0.048c-2.224,1.28-4.52,2.224-6.84,2.936&#10;&#9;&#9;&#9;c-0.424,0.128-0.832,0.288-1.272,0.392c-0.864,0.224-1.736,0.384-2.608,0.536c-1.448,0.232-2.912,0.416-4.416,0.448&#10;&#9;&#9;&#9;c-0.464,0.008-0.928,0.008-1.4,0c-1.504-0.032-2.968-0.208-4.416-0.448c-0.872-0.152-1.744-0.304-2.608-0.536&#10;&#9;&#9;&#9;c-0.432-0.112-0.84-0.272-1.272-0.392c-2.32-0.712-4.616-1.664-6.84-2.936c-0.04-0.024-0.088-0.024-0.128-0.048&#10;&#9;&#9;&#9;C214.496,118.031,208,107.807,208,95.999c0-17.648,14.352-32,32-32S272,78.351,272,95.999z M208,191.999v26.92&#10;&#9;&#9;&#9;c-3.336-1.072-6.584-2.36-9.776-3.752c-0.904-0.4-1.776-0.84-2.664-1.264c-2.256-1.064-4.464-2.2-6.632-3.424&#10;&#9;&#9;&#9;c-1.024-0.576-2.04-1.16-3.04-1.776c-2.072-1.264-4.088-2.624-6.072-4.032c-0.872-0.624-1.776-1.2-2.624-1.848&#10;&#9;&#9;&#9;c-2.576-1.952-5.056-4.032-7.448-6.232c-0.24-0.216-0.448-0.456-0.688-0.68c4.544-26.672,24.096-48.872,50.088-56.752&#10;&#9;&#9;&#9;c6.312,3.072,13.376,4.84,20.856,4.84s14.544-1.768,20.864-4.84c25.936,7.856,45.448,29.984,50.048,56.592&#10;&#9;&#9;&#9;c-1.08,1.016-2.136,2.056-3.256,3.024c-0.232,0.2-0.472,0.392-0.712,0.592c-3.808,3.224-7.848,6.184-12.096,8.856&#10;&#9;&#9;&#9;c-0.184,0.12-0.368,0.256-0.552,0.368c-1.536,0.952-3.136,1.8-4.728,2.672c-1.496,0.808-3,1.6-4.528,2.336&#10;&#9;&#9;&#9;c-1.304,0.632-2.616,1.256-3.952,1.832c-2.8,1.2-5.64,2.328-8.544,3.28c-0.184,0.064-0.352,0.136-0.536,0.2v-26.912&#10;&#9;&#9;&#9;c0-17.648-14.352-32-32-32S208,174.351,208,191.999z M400,422.111l-7.16,14.312c-0.552,1.104-0.84,2.336-0.84,3.576v24H224v-8&#10;&#9;&#9;&#9;c0-2.128-0.84-4.16-2.344-5.656l-79.72-79.72c-3.824-3.824-5.936-8.92-5.936-14.344c0-11.176,9.104-20.28,20.28-20.28&#10;&#9;&#9;&#9;c5.424,0,10.512,2.112,14.344,5.936l39.72,39.72c2.296,2.296,5.728,2.992,8.72,1.736c2.992-1.232,4.936-4.16,4.936-7.392v-146.64&#10;&#9;&#9;&#9;v-37.36c0-8.824,7.176-16,16-16c8.824,0,16,7.176,16,16v37.36v58.64v48h16v-48c0-8.824,7.176-16,16-16c8.824,0,16,7.176,16,16v48&#10;&#9;&#9;&#9;h16v-48c0-8.824,7.176-16,16-16c8.824,0,16,7.176,16,16v48h16v-48c0-8.824,7.176-16,16-16c8.824,0,16,7.168,16,15.968V422.111z" fill="#343434ff" data-original-color="#000000ff" stroke="none"/>
	</g>
</g><g>
	<g>
		<path d="M81.768,150.335C90.4,142.991,96,132.191,96,119.999c0-22.056-17.944-40-40-40c-22.056,0-40,17.944-40,40&#10;&#9;&#9;&#9;c0,12.192,5.6,22.992,14.232,30.336C12.296,159.679,0,178.415,0,199.999v24c0,4.424,3.576,8,8,8h96c4.424,0,8-3.576,8-8v-24&#10;&#9;&#9;&#9;C112,178.415,99.704,159.679,81.768,150.335z M56,95.999c13.232,0,24,10.768,24,24s-10.768,24-24,24s-24-10.768-24-24&#10;&#9;&#9;&#9;S42.768,95.999,56,95.999z M96,215.999H16v-16c0-22.056,17.944-40,40-40c22.056,0,40,17.944,40,40V215.999z" fill="#343434ff" data-original-color="#000000ff" stroke="none"/>
	</g>
</g><g>
	<g>
		<path d="M449.768,142.335C458.4,134.991,464,124.191,464,111.999c0-22.056-17.944-40-40-40c-22.056,0-40,17.944-40,40&#10;&#9;&#9;&#9;c0,12.192,5.6,22.992,14.232,30.336C380.296,151.679,368,170.415,368,191.999v24c0,4.424,3.576,8,8,8h96c4.424,0,8-3.576,8-8v-24&#10;&#9;&#9;&#9;C480,170.415,467.704,151.679,449.768,142.335z M424,87.999c13.232,0,24,10.768,24,24s-10.768,24-24,24s-24-10.768-24-24&#10;&#9;&#9;&#9;S410.768,87.999,424,87.999z M464,207.999h-80v-16c0-22.056,17.944-40,40-40c22.056,0,40,17.944,40,40V207.999z" fill="#343434ff" data-original-color="#000000ff" stroke="none"/>
	</g>
</g><g>
</g><g>
</g><g>
</g><g>
</g><g>
</g><g>
</g><g>
</g><g>
</g><g>
</g><g>
</g><g>
</g><g>
</g><g>
</g><g>
</g><g>
</g></g></svg>