<svg id="Layer_1" height="300" viewBox="0 0 64 64" width="300" xmlns="http://www.w3.org/2000/svg" version="1.1" xmlns:xlink="http://www.w3.org/1999/xlink" xmlns:svgjs="http://svgjs.dev/svgjs"><g transform="matrix(1,0,0,1,0,0)"><g><path d="m18.3 38.4c-.8 1-2 1.5-3.2 1.5s-2.4-.6-3.2-1.5c-.3-.4-1-.5-1.4-.2s-.5 1-.2 1.4c1.2 1.5 2.9 2.3 4.8 2.3s3.6-.8 4.8-2.3c.3-.4.3-1.1-.2-1.4s-1.1-.3-1.4.2z" fill="#343434ff" data-original-color="#000000ff" stroke="none"/><path d="m31 44h-1c-.5-3.4-3.4-6-6.9-6-.6 0-1 .4-1 1s.4 1 1 1c2.4 0 4.4 1.7 4.9 4h-15c-1.7 0-3 1.3-3 3v9h-3c-.6 0-1 .4-1 1s.4 1 1 1h3v4h-8v-17c0-2.8 2.2-5 5-5 .6 0 1-.4 1-1s-.4-1-1-1c-3.9 0-7 3.1-7 7v18c0 .6.4 1 1 1h10 22c.6 0 1-.4 1-1v-16c0-1.7-1.3-3-3-3zm1 18h-20v-15c0-.6.4-1 1-1h18c.6 0 1 .4 1 1z" fill="#343434ff" data-original-color="#000000ff" stroke="none"/><path d="m61 0h-44c-1.7 0-3 1.3-3 3v8c0 .6.4 1 1 1s1-.4 1-1v-8c0-.6.4-1 1-1h44c.6 0 1 .4 1 1v50c0 .6-.4 1-1 1h-24c-.6 0-1 .4-1 1s.4 1 1 1h24c1.7 0 3-1.3 3-3v-50c0-1.7-1.3-3-3-3z" fill="#343434ff" data-original-color="#000000ff" stroke="none"/><path d="m15 36.1c4.4 0 8-3.6 8-8v-3c0-.6-.4-1-1-1s-1 .4-1 1v3c0 3.3-2.7 6-6 6s-6-2.7-6-6v-3c0-.6-.4-1-1-1s-1 .4-1 1v3c0 4.4 3.6 8 8 8z" fill="#343434ff" data-original-color="#000000ff" stroke="none"/><path d="m8 22.1h14c.6 0 1-.4 1-1v-2c0-2.8-2.2-5-5-5h-6c-2.8 0-5 2.2-5 5v2c0 .6.5 1 1 1zm1-3c0-1.7 1.3-3 3-3h6c1.7 0 3 1.3 3 3v1h-12z" fill="#343434ff" data-original-color="#000000ff" stroke="none"/><path d="m22 48.6c-3 0-5.5 2.5-5.5 5.5s2.5 5.5 5.5 5.5 5.5-2.5 5.5-5.5-2.5-5.5-5.5-5.5zm0 9c-1.9 0-3.5-1.6-3.5-3.5s1.6-3.5 3.5-3.5 3.5 1.6 3.5 3.5-1.6 3.5-3.5 3.5z" fill="#343434ff" data-original-color="#000000ff" stroke="none"/><path d="m33.5 7.3h-4.6c-1.3 0-2.4 1.1-2.4 2.4v5.1c0 1.3 1.1 2.4 2.4 2.4h4.6c1.3 0 2.4-1.1 2.4-2.4 0-.6-.4-1-1-1s-1 .4-1 1c0 .2-.2.4-.4.4h-4.6c-.2 0-.4-.2-.4-.4v-5.1c0-.2.2-.4.4-.4h4.6c.6 0 1-.4 1-1s-.4-1-1-1z" fill="#343434ff" data-original-color="#000000ff" stroke="none"/><path d="m37.5 7.7c-.4-.4-1-.4-1.4 0l-4 4-.8-.8c-.4-.4-1-.4-1.4 0s-.4 1 0 1.4l1.5 1.5c.2.2.5.3.7.3s.5-.1.7-.3l4.7-4.7c.4-.4.4-1 0-1.4z" fill="#343434ff" data-original-color="#000000ff" stroke="none"/><path d="m40.4 11.2h18.1c.6 0 1-.4 1-1s-.4-1-1-1h-18.1c-.6 0-1 .4-1 1s.5 1 1 1z" fill="#343434ff" data-original-color="#000000ff" stroke="none"/><path d="m40.4 15.1h11.9c.6 0 1-.4 1-1s-.4-1-1-1h-11.9c-.6 0-1 .4-1 1s.5 1 1 1z" fill="#343434ff" data-original-color="#000000ff" stroke="none"/><path d="m34.9 30c-.6 0-1 .4-1 1 0 .2-.2.4-.4.4h-4.6c-.2 0-.4-.2-.4-.4v-5.1c0-.2.2-.4.4-.4h4.6c.6 0 1-.4 1-1s-.4-1-1-1h-4.6c-1.3 0-2.4 1.1-2.4 2.4v5.1c0 1.3 1.1 2.4 2.4 2.4h4.6c1.3 0 2.4-1.1 2.4-2.4 0-.5-.5-1-1-1z" fill="#343434ff" data-original-color="#000000ff" stroke="none"/><path d="m36.1 24-4 4-.8-.8c-.4-.4-1-.4-1.4 0s-.4 1 0 1.4l1.5 1.5c.2.2.5.3.7.3s.5-.1.7-.3l4.7-4.7c.4-.4.4-1 0-1.4s-1.1-.4-1.4 0z" fill="#343434ff" data-original-color="#000000ff" stroke="none"/><path d="m40.4 27.5h18.1c.6 0 1-.4 1-1s-.4-1-1-1h-18.1c-.6 0-1 .4-1 1s.5 1 1 1z" fill="#343434ff" data-original-color="#000000ff" stroke="none"/><path d="m40.4 31.4h11.9c.6 0 1-.4 1-1s-.4-1-1-1h-11.9c-.6 0-1 .4-1 1s.5 1 1 1z" fill="#343434ff" data-original-color="#000000ff" stroke="none"/><path d="m40.4 41.9h18.1c.6 0 1-.4 1-1s-.4-1-1-1h-18.1c-.6 0-1 .4-1 1s.5 1 1 1z" fill="#343434ff" data-original-color="#000000ff" stroke="none"/><path d="m40.4 45.8h11.9c.6 0 1-.4 1-1s-.4-1-1-1h-11.9c-.6 0-1 .4-1 1s.5 1 1 1z" fill="#343434ff" data-original-color="#000000ff" stroke="none"/></g></g></svg>