<svg id="Layer_1" enable-background="new 0 0 512 512" viewBox="0 0 512 512" xmlns="http://www.w3.org/2000/svg" width="300" height="300" version="1.1" xmlns:xlink="http://www.w3.org/1999/xlink" xmlns:svgjs="http://svgjs.dev/svgjs"><g transform="matrix(1,0,0,1,0,0)"><path d="m479.037 350.604c12.596-12.594 18.993-28.477 18.5-45.932l-4.79-169.053c-.445-15.755-16.168-29.87-33.128-29.87-.162 0-.326.001-.488.004-8.305.133-35.386 4.684-35.186 57.643l.35 91.833c.014 3.703-.385 7.22-1.217 10.61-1.251-1.959-2.764-3.837-4.537-5.61-11.445-11.445-30.212-11.572-42.729-.286-.268.241-.519.5-.751.775-14.915 17.634-33.184 33.03-47.862 45.402-5.115 4.311-9.946 8.382-13.897 11.944-16.155 14.561-18.306 34.792-18.278 52.662l.101 67.25-7.696-.066c-.059 0-.115 0-.173 0-10.773 0-19.586 8.719-19.68 19.515l-.22 25.581c-.094 10.854 8.66 19.759 19.515 19.854l132.893 1.141h.174c5.181 0 10.069-2.004 13.784-5.655 3.756-3.692 5.85-8.614 5.895-13.858l.22-25.582c.045-5.245-1.963-10.202-5.655-13.958s-8.614-5.85-13.858-5.895l-15.408-.132v-14.193zm-56.267 105.557c.403.41 1.078 1.294 1.066 2.604l-.22 25.583c-.011 1.31-.7 2.182-1.11 2.585-.409.402-1.292 1.073-2.604 1.065l-132.893-1.141c-1.311-.011-2.183-.701-2.586-1.111s-1.078-1.294-1.066-2.604l.22-25.581c.011-1.311.701-2.184 1.111-2.587.406-.399 1.278-1.066 2.57-1.066.011 0 .021.001.032.001h.001l132.895 1.142c1.309.011 2.181.7 2.584 1.11zm-111.645-18.048-.101-67.412c-.023-15.064 1.534-30.429 12.99-40.753 3.755-3.385 8.269-7.189 13.496-11.595 15.017-12.656 33.676-28.381 49.384-46.851 6.267-5.354 14.93-5.368 20.333.038 6.559 6.558 4.5 13.591 1.088 18.773-8.648 9.936-17.33 18.367-26.429 27.205-3.935 3.821-8.003 7.773-12.207 11.978-3.124 3.124-3.124 8.189.001 11.313 3.123 3.123 8.188 3.126 11.313-.001 4.12-4.121 8.146-8.031 12.04-11.812 8.684-8.435 16.999-16.511 25.378-25.935.595-.443 1.137-.977 1.606-1.599.341-.452.671-.906.988-1.362 1.71-1.979 3.426-4.022 5.148-6.143 9.568-11.781 14.194-24.47 14.141-38.791l-.35-91.833c-.098-25.842 7.17-41.387 19.441-41.584.078-.001.154-.002.231-.002 8.326 0 16.933 7.161 17.135 14.323l4.79 169.053c.371 13.132-4.278 24.626-13.819 34.165l-76.467 76.466c-1.5 1.501-2.343 3.535-2.343 5.657v17.369zm-18.912 29.441c1.622-4.08 6.244-6.072 10.324-4.45s6.072 6.244 4.45 10.324-6.244 6.072-10.324 4.45-6.072-6.245-4.45-10.324zm-67.469-29.645c-.057 0-.115 0-.172 0l-7.698.066.102-67.249c.027-17.871-2.123-38.103-18.277-52.663-3.952-3.562-8.783-7.634-13.898-11.944-14.679-12.372-32.947-27.769-47.862-45.402-.232-.275-.483-.534-.751-.775-12.518-11.284-31.284-11.159-42.729.286-1.773 1.773-3.285 3.65-4.536 5.609-.832-3.389-1.23-6.906-1.217-10.608l.35-91.833c.2-52.959-26.881-57.509-35.186-57.643-17.136-.261-33.166 13.96-33.616 29.866l-4.79 169.055c-.493 17.454 5.904 33.337 18.499 45.931l74.124 74.122v14.193l-15.408.132c-5.244.045-10.166 2.139-13.858 5.895s-5.7 8.713-5.655 13.957l.22 25.583c.045 5.244 2.139 10.166 5.895 13.858 3.715 3.651 8.604 5.656 13.783 5.655h.174l132.895-1.141c10.854-.095 19.607-9 19.514-19.853l-.22-25.583c-.097-10.796-8.908-19.514-19.683-19.514zm-104.001-22.154-76.468-76.466c-9.54-9.539-14.189-21.033-13.818-34.164l4.79-169.054c.202-7.162 8.808-14.322 17.135-14.322.076 0 .154 0 .231.002 12.271.197 19.539 15.742 19.441 41.584l-.35 91.834c-.054 14.321 4.572 27.009 14.142 38.792 1.723 2.12 3.438 4.163 5.147 6.142.317.456.647.91.988 1.362.47.622 1.012 1.155 1.606 1.599 8.379 9.424 16.693 17.5 25.378 25.935 3.894 3.781 7.92 7.691 12.04 11.812 3.125 3.125 8.19 3.126 11.313.001 3.125-3.124 3.125-8.189.001-11.313-4.204-4.204-8.272-8.156-12.207-11.978-9.099-8.838-17.78-17.27-26.428-27.205-3.413-5.183-5.472-12.216 1.086-18.773 5.403-5.404 14.068-5.393 20.334-.038 15.708 18.47 34.367 34.194 49.384 46.851 5.228 4.405 9.741 8.21 13.497 11.595 11.455 10.324 13.013 25.688 12.989 40.754l-.102 67.411-77.788.668v-17.369c.002-2.125-.841-4.159-2.341-5.66zm106.834 69.992c-.403.41-1.275 1.101-2.585 1.111l-132.895 1.141c-1.306.007-2.193-.663-2.604-1.065-.41-.403-1.1-1.275-1.11-2.585l-.22-25.584c-.012-1.31.663-2.193 1.066-2.604.402-.41 1.274-1.1 2.584-1.11l132.895-1.142h.001c1.33-.012 2.192.663 2.603 1.065.41.403 1.101 1.276 1.111 2.586l.22 25.583c.012 1.31-.663 2.194-1.066 2.604zm-7.79-18.193c1.622 4.08-.37 8.702-4.45 10.324s-8.702-.37-10.324-4.45.37-8.702 4.45-10.324 8.702.37 10.324 4.45zm-34.913-261.124h146.106c2.27 0 4.433-.964 5.95-2.653 1.518-1.688 2.246-3.941 2.004-6.199-3.349-31.295-24.021-56.77-51.907-67.384 9.807-8.289 16.051-20.668 16.051-34.484 0-24.896-20.254-45.15-45.15-45.15s-45.15 20.254-45.15 45.15c0 13.816 6.244 26.195 16.051 34.484-27.888 10.614-48.56 36.09-51.908 67.385-.242 2.257.486 4.51 2.004 6.199 1.516 1.688 3.679 2.652 5.949 2.652zm43.903-110.72c0-16.074 13.077-29.15 29.15-29.15s29.15 13.077 29.15 29.15c0 16.067-13.066 29.139-29.13 29.15-.007 0-.013 0-.02 0s-.013 0-.02 0c-16.063-.011-29.13-13.083-29.13-29.15zm29.13 45.15h.021s.014 0 .021 0c30.494.01 56.389 20.772 63.518 49.57h-127.079c7.128-28.798 33.024-49.561 63.519-49.57zm74.141 105.151c-21.213 14.654-46.204 22.596-72.271 22.966-.637.01-1.272.014-1.908.014-17.883 0-35.328-3.579-51.451-10.483-.297 2.451-1.721 4.732-4.042 6.029-3.854 2.153-8.729.776-10.886-3.083l-10.125-18.123c-1.394-2.495-1.351-5.544.113-7.999 1.464-2.456 4.104-3.945 6.984-3.902l20.758.293c4.417.062 7.948 3.694 7.886 8.112-.026 1.894-.709 3.625-1.829 4.979 35.081 13.915 76.093 9.852 107.678-11.967 3.635-2.51 8.617-1.6 11.129 2.035s1.6 8.618-2.036 11.129zm32.151-64.578c14.306-35.289 10.221-75.902-11.925-107.967-2.511-3.636-1.599-8.618 2.037-11.129 3.632-2.51 8.617-1.601 11.129 2.036 14.408 20.862 22.343 45.436 22.945 71.063.443 18.837-3.096 37.288-10.328 54.285 2.285.366 4.394 1.716 5.649 3.873 2.225 3.817.933 8.715-2.885 10.939l-17.938 10.451c-1.244.725-2.636 1.088-4.027 1.088-1.371 0-2.741-.352-3.973-1.056-2.48-1.419-4.016-4.054-4.027-6.912l-.083-20.76c-.018-4.418 3.55-8.014 7.968-8.032h.033c2.093.001 3.998.805 5.425 2.121zm-182.433-139.323c-2.511-3.636-1.599-8.618 2.037-11.129 21.042-14.534 45.83-22.472 71.684-22.958 18.61-.344 36.795 3.178 53.571 10.3.388-2.229 1.712-4.279 3.812-5.52 3.807-2.248 8.711-.986 10.958 2.817l10.562 17.873c1.454 2.46 1.484 5.51.081 8-1.404 2.489-4.029 4.041-6.888 4.07l-20.759.21c-.027 0-.056 0-.083 0-4.38 0-7.953-3.528-7.997-7.919-.022-2.142.8-4.096 2.156-5.545-35.141-14.042-76.393-9.997-108.005 11.836-3.632 2.513-8.618 1.602-11.129-2.035zm-43.773 44.693c-2.556-.247-4.947-1.717-6.267-4.142-2.11-3.881-.675-8.739 3.206-10.85l18.237-9.918c2.51-1.365 5.558-1.288 7.997.204 2.438 1.492 3.896 4.171 3.822 7.028l-.528 20.753c-.11 4.347-3.67 7.796-7.993 7.796-.069 0-.138-.001-.207-.002-1.779-.045-3.408-.668-4.711-1.685-13.853 35.048-9.774 75.984 12.024 107.54 2.512 3.635 1.601 8.618-2.035 11.129-1.388.958-2.972 1.418-4.54 1.418-2.539 0-5.036-1.206-6.589-3.454-14.67-21.235-22.611-46.254-22.967-72.351-.253-18.594 3.359-36.745 10.551-53.466z" fill="#343434ff" data-original-color="#000000ff" stroke="none"/></g></svg>