<svg id="Layer_1" enable-background="new 0 0 512 512" height="300" viewBox="0 0 512 512" width="300" xmlns="http://www.w3.org/2000/svg" version="1.1" xmlns:xlink="http://www.w3.org/1999/xlink" xmlns:svgjs="http://svgjs.dev/svgjs"><g transform="matrix(1,0,0,1,0,0)"><path d="m73.896 155.885 21.554 9.526c2.458 1.086 5.027 1.601 7.557 1.601 7.206 0 14.093-4.174 17.188-11.177l1.636-3.703c7.907 3.515 10.198 4.467 11.199 4.856 1.801.698 2.618 4.396 3.576 9.541.566 3.044 1.195 6.351 2.386 9.479l-5.519 10.318c-3.19 5.966-3.861 12.834-1.89 19.34 1.972 6.507 6.344 11.847 12.309 15.037 3.293 1.761 6.859 2.73 10.446 2.94-.211 3.048.135 6.144 1.05 9.161 1.972 6.507 6.343 11.847 12.309 15.038 7.206 3.854 15.462 3.857 22.409.726 2.317 4.157 5.798 7.673 10.171 10.011 6.417 3.434 13.759 3.827 20.253 1.594 2.268 4.837 6.058 8.948 11.015 11.6 3.804 2.034 7.897 2.998 11.936 2.998 7.515 0 14.829-3.348 19.72-9.348l4.674 2.684c3.71 2.131 7.832 3.216 12.027 3.216 2.238 0 4.497-.309 6.724-.933 6.443-1.807 11.979-6.19 15.19-12.027 1.827-3.322 2.809-6.893 3.018-10.461 3.284.404 6.657.146 9.948-.801 6.434-1.852 11.745-6.086 14.956-11.924 1.982-3.603 2.964-7.501 3.041-11.373 2.706.124 5.445-.2 8.127-.978 6.4-1.857 11.685-6.081 14.879-11.892 3.123-5.677 3.764-12.09 2.288-17.976 6.004-1.988 10.948-6.088 13.998-11.633 2.477-4.503 3.439-9.628 2.885-14.643l14.859-6.2 1.24 3.199c1.807 4.662 5.332 8.346 9.924 10.372 2.434 1.074 5.01 1.613 7.587 1.612 2.285 0 4.572-.423 6.763-1.272l21.973-8.518c9.645-3.739 14.45-14.63 10.711-24.275l-44.249-114.134c-3.738-9.646-14.629-14.449-24.274-10.712l-21.971 8.519c-4.662 1.807-8.346 5.331-10.372 9.924-2.027 4.593-2.148 9.688-.341 14.351l2.784 7.18-10.791 5.776c-5.994 3.119-12.315.807-22.97-3.55-15.164-6.199-35.648-14.551-62.348 1.496-19.297-10.924-35.757-7.077-49.17-3.934-10.882 2.552-17.894 3.921-24.643.124-.187-.105-.377-.203-.572-.292l-12.4-5.721 2.986-6.757c4.181-9.461-.114-20.562-9.576-24.745l-21.554-9.526c-9.462-4.179-20.563.115-24.745 9.576l-49.488 111.965c-4.181 9.461.115 20.561 9.577 24.745zm77.541 50.71c-2.197-1.175-3.81-3.152-4.542-5.568s-.489-4.957.686-7.153l10.729-20.061c2.443-4.566 8.151-6.296 12.728-3.853 4.214 2.249 6.06 7.565 4.205 11.954l-13.837 23.947c-2.9 2.11-6.78 2.439-9.969.734zm23.806 27.14c-2.197-1.175-3.811-3.152-4.542-5.569-.732-2.416-.489-4.956.687-7.153l17.249-30.296c2.903-2.13 6.805-2.452 10.017-.737 3.529 1.883 5.471 5.945 4.817 9.876l-15.469 29.957c-2.472 4.603-8.193 6.367-12.759 3.922zm32.579 10.737c-3.16-1.689-5.049-5.052-4.943-8.602l14.745-28.553c2.901-2.664 7.317-3.273 10.828-1.401 3.525 1.881 5.467 5.936 4.819 9.864l-13.64 26.215c-2.797 3.546-7.791 4.626-11.809 2.477zm31.268 13.192c-3.23-1.728-5.155-5.299-4.927-8.935l13.25-25.467c2.902-2.674 7.321-3.288 10.833-1.409 1.235.659 2.277 1.56 3.097 2.674 2.155 2.932 2.452 6.875.756 10.046l-10.287 19.236c-2.443 4.57-8.151 6.301-12.722 3.855zm48.707-7.011c-1.155 2.099-3.156 3.678-5.49 4.332-2.235.625-4.53.358-6.464-.752l-4.676-2.686 5.042-9.429c1.171-2.189 1.987-4.512 2.465-6.888 0 0 5.213 3.069 5.583 3.276 4.308 2.414 5.896 7.863 3.54 12.147zm73.987-208.997c.174-.395.604-1.111 1.517-1.465l21.971-8.519c.316-.122.644-.18.969-.18 1.112 0 2.187.677 2.605 1.757l44.248 114.137c.541 1.396-.181 3.033-1.577 3.574l-21.973 8.518c-.913.354-1.711.115-2.107-.061-.395-.174-1.111-.604-1.465-1.517l-44.249-114.136c-.354-.913-.114-1.713.061-2.108zm-52.01 32.108c11.575 4.731 23.544 9.622 36.491 2.89l9.151-4.897 28.613 73.806-15.812 6.597c-1.7-1.794-3.667-3.339-5.855-4.586l-58.438-33.308c-15.893-9.059-32.731-2.244-49.013 4.349-21.065 8.527-35.406 13.271-49.204-.262 14.88-9.226 27.67-19.209 38.089-29.739 4.786-4.837 9.598-8.918 14.312-12.14 21.767-14.932 36.29-8.995 51.666-2.71zm-137.656-3.016c12.414 6.836 24.323 4.044 35.842 1.345 10.156-2.381 19.88-4.653 30.882-.804-2.148 1.897-4.291 3.921-6.418 6.071-10.857 10.972-24.649 21.372-40.993 30.911-2.498 1.458-4.245 3.921-4.791 6.758-.546 2.836.16 5.771 1.931 8.044 10.477 13.48 22.71 19.979 37.438 19.743 12.16-.162 23.723-4.843 34.906-9.37 13.916-5.633 25.932-10.497 35.086-5.279l58.438 33.308c1.645.938 2.949 2.328 3.77 4.019 1.284 2.646 1.227 5.606-.158 8.123-1.149 2.091-3.065 3.608-5.394 4.275-2.269.648-4.625.388-6.635-.738-.002-.001-.004-.002-.007-.003-12.408-6.95-26.47-14.827-40.148-22.657-3.835-2.196-8.722-.867-10.917 2.968s-.866 8.723 2.968 10.917c13.738 7.865 27.83 15.759 40.265 22.724l.006.003c4.312 2.428 5.917 7.864 3.575 12.121-1.136 2.065-3.025 3.569-5.32 4.235-2.294.665-4.697.407-6.762-.729l-.013-.007-52.851-29.739c-3.85-2.168-8.728-.802-10.895 3.049s-.801 8.729 3.049 10.895c0 0 42.798 24.206 43.171 24.416 4.312 2.427 5.916 7.864 3.575 12.121-1.145 2.081-3.049 3.594-5.362 4.259-2.281.656-4.657.395-6.688-.734l-.015-.008-30.45-17.236c-2.064-2.456-4.55-4.475-7.416-6.007-5.661-3.024-12.032-3.724-17.926-2.301-2.089-5.7-6.21-10.615-11.876-13.639-5.66-3.021-12.029-3.716-17.921-2.297-2.089-5.701-6.21-10.616-11.877-13.641-4.618-2.465-9.761-3.377-14.741-2.829-1.5-7.119-6.022-13.532-12.874-17.189-9.043-4.826-19.726-3.606-27.392 2.231-1.567-6.284-4.505-12.953-12.36-16.003-.903-.35-3.544-1.472-10.522-4.574l31.928-72.237zm-93.165 66.86 49.487-111.965c.605-1.371 2.275-2.019 3.644-1.41l21.553 9.525c1.37.605 2.016 2.274 1.411 3.644l-49.488 111.964c-.606 1.369-2.275 2.017-3.644 1.41l-21.552-9.525c-1.37-.606-2.016-2.274-1.411-3.643zm50.84-95.935c.188-4.04 3.614-7.162 7.653-6.975 4.04.188 7.163 3.614 6.975 7.654-.187 4.04-3.614 7.162-7.653 6.975-4.039-.188-7.162-3.615-6.975-7.654zm242.315 7.527c0-4.044 3.278-7.322 7.322-7.322s7.322 3.278 7.322 7.322-3.278 7.322-7.322 7.322-7.322-3.278-7.322-7.322zm83.301 239.393h-105.28c-4.418 0-8 3.582-8 8 0 47.491-38.637 86.129-86.129 86.129s-86.129-38.638-86.129-86.129c0-4.418-3.582-8-8-8h-105.28c-4.418 0-8 3.582-8 8v26.987c0 3.31 2.038 6.277 5.126 7.466l29.161 11.224c4.101 15.581 10.281 30.488 18.415 44.423l-12.691 28.575c-1.343 3.024-.686 6.563 1.655 8.904l38.166 38.164c2.34 2.34 5.879 2.996 8.904 1.654l28.585-12.696c13.938 8.136 28.84 14.313 44.409 18.412l11.228 29.169c1.188 3.088 4.156 5.126 7.466 5.126h53.974c3.31 0 6.277-2.038 7.466-5.126l11.225-29.16c15.578-4.101 30.486-10.281 44.422-18.416l28.575 12.691c3.025 1.345 6.564.685 8.904-1.654l38.165-38.165c2.34-2.341 2.998-5.88 1.654-8.904l-12.696-28.585c8.135-13.938 14.313-28.84 18.412-44.409l29.169-11.228c3.089-1.188 5.126-4.156 5.126-7.466v-26.986c-.002-4.418-3.584-8-8.002-8zm-8 29.493-27.919 10.747c-2.461.947-4.298 3.048-4.909 5.613-3.993 16.78-10.618 32.758-19.689 47.491-1.383 2.246-1.57 5.03-.499 7.441l12.152 27.362-30.396 30.396-27.352-12.148c-2.412-1.072-5.197-.884-7.442.5-14.729 9.071-30.711 15.697-47.503 19.693-2.566.61-4.667 2.446-5.614 4.908l-10.743 27.91h-42.988l-10.746-27.919c-.947-2.462-3.048-4.298-5.614-4.908-16.78-3.993-32.758-10.617-47.49-19.689-2.248-1.384-5.032-1.571-7.442-.499l-27.362 12.152-30.397-30.396 12.148-27.353c1.071-2.411.884-5.195-.5-7.442-9.07-14.727-15.695-30.709-19.692-47.504-.611-2.565-2.447-4.666-4.909-5.613l-27.91-10.743v-13.494h89.589c4.093 52.591 48.196 94.129 101.819 94.129s97.726-41.538 101.819-94.129h89.59v13.495zm-138.752-29.493h-105.315c-2.122 0-4.157.843-5.657 2.343-1.5 1.501-2.343 3.535-2.343 5.657 0 33.446 27.211 60.657 60.657 60.657s60.657-27.211 60.657-60.657c0-2.122-.843-4.156-2.343-5.657-1.5-1.5-3.535-2.343-5.656-2.343zm-52.657 52.657c-21.893 0-40.157-15.838-43.939-36.657h87.879c-3.783 20.819-22.047 36.657-43.94 36.657z" fill="#343434ff" data-original-color="#000000ff" stroke="none"/></g></svg>