<svg id="line" viewBox="0 0 64 64" xmlns="http://www.w3.org/2000/svg" width="300" height="300" version="1.1" xmlns:xlink="http://www.w3.org/1999/xlink" xmlns:svgjs="http://svgjs.dev/svgjs"><g transform="matrix(1,0,0,1,0,0)"><path d="m30.07145 27.58559v-2.723a6.25237 6.25237 0 0 0 -4.28164-5.93985l-4.76616-1.58951c5.95546-3.84757 3.21325-13.34274-3.97982-13.33323-7.1935-.00421-9.93467 9.481-3.97824 13.33366l-4.76738 1.58909a6.25422 6.25422 0 0 0 -4.28165 5.93985v2.723a2.50584 2.50584 0 0 0 2.50344 2.5024h21.049a2.505 2.505 0 0 0 2.50245-2.50241zm-18.2919-16.32237c.22149-6.95773 10.30969-6.95511 10.5299.00013-.221 6.95798-10.3097 6.9573-10.5299-.00013zm-5.76417 16.32237v-2.723a4.25793 4.25793 0 0 1 2.91527-4.04448l5.6978-1.89829a7.69945 7.69945 0 0 1 4.8321-.001l5.69682 1.89927a4.25793 4.25793 0 0 1 2.91527 4.04448v2.723a.50359.50359 0 0 1 -.50361.50361h-21.04903a.50442.50442 0 0 1 -.50462-.50359z" fill="#343434ff" data-original-color="#000000ff" stroke="none"/><path d="m55.70277 48.83571-4.76793-1.58933c5.95631-3.84562 3.21465-13.34391-3.97806-13.33439-7.19337-.004-9.93692 9.48212-3.97817 13.33415l-4.76842 1.58859a6.25306 6.25306 0 0 0 -4.28067 5.94082v2.722a2.505 2.505 0 0 0 2.50248 2.50245h21.049a2.505 2.505 0 0 0 2.50243-2.50242v-2.722a6.25093 6.25093 0 0 0 -4.28066-5.93987zm-14.01124-7.65953c.221-6.9581 10.30969-6.95749 10.5299.00012-.22149 6.95762-10.30969 6.95499-10.5299-.00012zm16.29309 16.3214a.50358.50358 0 0 1 -.50361.5036h-21.04901a.50358.50358 0 0 1 -.50361-.5036v-2.722a4.2565 4.2565 0 0 1 2.91429-4.04448l5.6978-1.89926a7.6891 7.6891 0 0 1 4.8321 0l5.6978 1.90024a4.25435 4.25435 0 0 1 2.91429 4.0435z" fill="#343434ff" data-original-color="#000000ff" stroke="none"/><path d="m42.0624 19.71623c.817-.38619.45335-1.72463.52807-2.71129a13.36972 13.36972 0 0 1 12.025 10.4323c-.03007 1.13538-1.55895 2.78888-.15042 3.51648 2.005.81616 2.44142-5.10428 2.45679-6.38581a15.352 15.352 0 0 0 -14.33143-15.2996v-1.89926a1.00625 1.00625 0 0 0 -1.55377-.83154l-8.60135 5.73293a1.00646 1.00646 0 0 0 0 1.66308l8.60135 5.73293a1.00287 1.00287 0 0 0 1.02576.04978zm-1.47081-3.74778v.99941l-5.80027-3.86586 5.80027-3.8659v.99941a.99883.99883 0 0 0 .99941.99941 13.354 13.354 0 0 1 13.16213 11.20235 15.39246 15.39246 0 0 0 -13.16213-7.46827.99883.99883 0 0 0 -.99941.99945z" fill="#343434ff" data-original-color="#000000ff" stroke="none"/><path d="m22.96433 44.33349a1.00622 1.00622 0 0 0 -1.55376.83154v1.83a13.3697 13.3697 0 0 1 -12.02511-10.43233c.03019-1.13531 1.55883-2.78906.15042-3.51647-2.00455-.82129-2.44228 5.11416-2.45777 6.38577a15.35283 15.35283 0 0 0 14.33246 15.29963v1.89927a.99937.99937 0 0 0 1.55376.83154l8.60136-5.73293a1.00644 1.00644 0 0 0 0-1.66308zm.445 10.43035v-.99941a.99884.99884 0 0 0 -.99933-.99943 13.35357 13.35357 0 0 1 -13.1631-11.2043 15.39252 15.39252 0 0 0 13.1631 7.47021.99883.99883 0 0 0 .99941-.99941v-.99941l5.80025 3.86591z" fill="#343434ff" data-original-color="#000000ff" stroke="none"/></g></svg>