<?xml version="1.0" encoding="UTF-8"?>
<!DOCTYPE svg PUBLIC "-//W3C//DTD SVG 1.1//EN" "http://www.w3.org/Graphics/SVG/1.1/DTD/svg11.dtd">
<!-- Creator: CorelDRAW -->
<svg xmlns="http://www.w3.org/2000/svg" xml:space="preserve" width="2.66689in" height="2.54443in" version="1.1" style="shape-rendering:geometricPrecision; text-rendering:geometricPrecision; image-rendering:optimizeQuality; fill-rule:evenodd; clip-rule:evenodd"
viewBox="0 0 1115.53 1064.3"
 xmlns:xlink="http://www.w3.org/1999/xlink"
 xmlns:xodm="http://www.corel.com/coreldraw/odm/2003">
 <defs>
  <style type="text/css">
   <![CDATA[
    .fil0 {fill:#E6E6E6;fill-rule:nonzero}
   ]]>
  </style>
 </defs>
 <g id="Layer_x0020_1">
  <metadata id="CorelCorpID_0Corel-Layer"/>
  <path class="fil0" d="M464.63 286c6.32,-5.4 9.59,-14.34 13.64,-20.83 -1.6,-5.93 -3.63,-11.78 -6,-17.43 -4.82,-9.02 -14.22,-14.65 -24.45,-14.65 -0.25,0 -0.5,0.01 -0.74,0.01 -14.38,-0.48 -23.57,-6.06 -28.19,-20.26 -2.24,-6 -6.2,-11.21 -11.37,-14.99 -15.03,-11.42 -34.86,-5.49 -43.92,13.29 -5.66,12.07 -10.76,22.31 -27.01,21.79 -0.8,-0.07 -1.61,-0.1 -2.42,-0.1 -12.56,0 -23.64,8.24 -27.25,20.28 -1.21,3.22 -1.83,6.64 -1.83,10.09 0,9.71 4.9,18.77 13.03,24.07 7.58,4.63 12.2,12.87 12.2,21.75 0,3.55 -0.75,7.07 -2.18,10.32 -0.37,1.07 -0.64,2.19 -0.78,3.31 -0.46,2.07 -0.7,4.2 -0.7,6.32 0,9.38 4.57,18.18 12.25,23.57 9.72,7.19 21.26,8.71 30.81,2 14.99,-10.28 28.45,-10.89 42.61,0.39 0.94,0.61 1.97,1.09 3.05,1.4 3.32,1.25 6.85,1.91 10.4,1.91 15.17,0 27.83,-11.59 29.17,-26.7 0.09,-0.91 0.14,-1.83 0.14,-2.74 0,-2.84 -0.44,-5.67 -1.31,-8.37 -4.93,-14.6 -0.57,-24.75 10.89,-34.42zm-44.36 3.79c-3.05,9.32 -0.65,20.44 -0.65,33.29 -19.56,-15.99 -38.78,-14.9 -58.95,-0.44 7.8,-23.96 2.22,-42.7 -18.34,-57.43 25.58,0 40.96,-11.94 48.58,-35.68 7.76,23.96 23.01,35.6 47.93,34.33 -6.97,9.45 -15.51,16.77 -18.56,25.93zm-186.14 -163.05c9.85,0 15.77,-6.27 16.03,-17.86 0.26,-14.34 0,-28.67 0,-43.05 0,-27.49 5.8,-33.38 32.98,-33.38l500.72 0c33.2,0 66.45,-0.22 99.65,0 16.99,0 25.14,8.41 25.14,25.18 0,108.75 0,217.51 0,326.26 0,0.13 0,0.24 0,0.36 0,26.62 -8.81,52.52 -25.01,73.62 -16.71,22.84 -41.21,38.81 -68.84,44.89 3.2,-3.63 6.05,-7.56 8.5,-11.72 6.23,-14.34 14.2,-28.41 17.43,-43.57 3.57,-17.08 -8.37,-28.76 -25.88,-29.54 -3.79,0 -7.54,0 -11.33,0l-522.25 -0c-24.05,0 -31.02,-7.02 -31.02,-31.02 0,-61.18 0,-122.35 0,-183.52 0.04,-1.08 0.06,-2.18 0.06,-3.27 0,-2.69 -0.12,-5.38 -0.36,-8.06 -0.4,-7.79 -6.83,-13.91 -14.63,-13.91 -0.16,0 -0.33,0 -0.5,0.01 -0.47,-0.05 -0.95,-0.07 -1.42,-0.07 -7.42,0 -13.76,5.38 -14.96,12.7 -0.46,2.62 -0.69,5.29 -0.69,7.96 0,1.12 0.04,2.26 0.12,3.37 -0,61.52 -0,123.06 -0,184.61 0,42.57 20.78,63.53 62.96,63.53l528.65 0c-3.6,7.56 -7.84,14.9 -12.59,21.78 -7.77,9.14 -16.2,17.95 -24.97,26.14 -10.37,9.94 -13.33,18.78 -8.71,29.02 4.62,10.24 13.86,14.38 27.49,12.46 2.62,-0.39 5.23,-0.65 7.84,-0.96 86.66,-11.28 142,-73.68 142.13,-160.86 0.2,-106.08 0.2,-212.11 -0,-318.07 0.02,-0.83 0.04,-1.67 0.04,-2.5 0,-5.2 -0.54,-10.4 -1.57,-15.49 -6.4,-26.4 -27.97,-41.79 -58.39,-41.79l-602.37 -0c-3.01,0 -6.06,0 -9.06,0 -27.99,1.62 -50.19,24.27 -51.24,52.28 -0.61,18.87 -0.35,37.73 0,56.64 0.04,11.16 6.32,17.82 16.03,17.82zm879.53 645.99c-9.5,-44.79 -55.16,-66.66 -98.95,-47.93 -77.21,33.2 -154.36,66.61 -231.45,100.21 -38.43,16.77 -77.95,28.23 -120.08,29.41 -38.13,1 -75.47,-3.01 -110.37,-19.56 -41.57,-19.69 -35.51,-56.43 -16.38,-79.47 7.8,-8.72 16.6,-16.6 26.14,-23.36 29.76,-22.57 60.39,-44.05 89.71,-67.19 15.07,-11.77 23.89,-29.85 23.89,-48.99 0,-9.57 -2.22,-19.04 -6.47,-27.61 -10.57,-22.12 -32.94,-36.22 -57.47,-36.22 -4.4,0 -8.82,0.47 -13.12,1.37 -64.75,12.81 -129.41,25.88 -194.11,38.82l-96.64 19.04c-0.6,-1.58 -1.08,-3.23 -1.44,-4.88 -5.14,-35.55 -26.14,-54.33 -61.83,-54.42 -62.31,0 -124.61,-0.26 -186.92,0 -0.5,-0.01 -1.04,-0.02 -1.55,-0.02 -31.28,0 -56.64,25.37 -56.64,56.64 0,0.6 0.01,1.21 0.03,1.8 0,131.68 -0,263.4 -0,395.16 0,32.29 23.62,57.6 55.86,58.08 64.92,0.9 129.86,0.9 194.81,0 31.85,-0.39 54.64,-24.75 56.12,-56.64 0,-4.75 0,-9.5 0,-15.29 5.66,1.35 9.67,2.13 13.55,3.22 54.36,15.26 110.37,25.96 166.5,31.55 143.52,14.16 281.3,-6.67 412.97,-66.18 67.62,-30.93 131.07,-70.69 188.46,-117.96 22.24,-18.12 31.52,-41.65 25.37,-69.58zm-839.14 226.96c0,22.66 -8.71,31.5 -31.55,31.55 -59.64,0 -119.28,0 -178.95,0 -23.18,0 -31.85,-9.02 -31.85,-32.55l0 -381.73c0.09,-23.7 9.24,-32.72 33.2,-32.72l176.42 0c23.96,0 32.81,8.71 32.81,32.72 0,63.91 0,127.71 0,191.41 0,63.7 -0.03,127.48 -0.09,191.32zm794.83 -184c-101.17,82.79 -214.72,140.65 -343.43,166.88 -138.34,28.19 -274.5,16.69 -409.57,-22.22 -7.67,-2.22 -9.76,-5.62 -9.67,-13.07 0.35,-48.71 0,-97.43 0,-146.14 0,-48.71 0,-97.38 0,-146.1 0,-7.06 1.39,-10.59 9.32,-12.16 95.86,-18.79 191.61,-37.82 287.27,-57.08 16.69,-3.31 30.5,3.05 36.9,16.73 6.4,13.68 2.83,28.76 -10.85,39.22 -29.72,22.57 -60,44.44 -89.93,66.8 -23.09,17.43 -42.52,37.21 -47.93,67.32 -6.27,34.2 4.92,61.87 34.12,80.91 28.28,18.39 60.3,25.1 93.11,28.84 60.39,6.84 117.64,-4.66 173.15,-28.76 78.43,-34.13 156.96,-68.04 235.59,-101.74 24.92,-10.72 48.54,0 54.33,24.44 0.75,2.87 1.14,5.83 1.14,8.8 0,10.7 -4.98,20.81 -13.48,27.32l-0.09 0zm-916.09 50.02c-31.71,0.45 -57.25,26.22 -57.38,57.95 0.16,31.71 25.93,57.34 57.64,57.34 31.83,0 57.64,-25.81 57.64,-57.64 0,-31.83 -25.81,-57.64 -57.64,-57.64 -0.07,0 -0.15,0 -0.22,0l-0.05 0zm0.7 82.79c-0.02,-0 -0.06,-0 -0.09,-0 -13.83,0 -25.07,-11.18 -25.14,-25.01 -0,-0.17 -0.01,-0.36 -0.01,-0.53 0,-13.47 10.93,-24.4 24.4,-24.4 0.22,0 0.44,0.01 0.66,0.01 13.48,0.02 24.51,10.76 24.88,24.23 0,0.03 0,0.07 0,0.1 0,13.8 -10.92,25.13 -24.71,25.65l-0 -0.04zm690.78 -665.73c5.88,-5.25 9.25,-12.77 9.25,-20.66 0,-14.08 -10.56,-25.92 -24.54,-27.53 -18.34,-2.53 -28.71,-9.41 -36.51,-26.53 -4.48,-9.91 -14.34,-16.28 -25.21,-16.28 -10.97,0 -20.92,6.49 -25.33,16.53 -7.58,16.34 -16.73,25.53 -35.51,25.84 -11.72,0.22 -19.87,8.71 -23.4,20.04 -1.11,2.94 -1.68,6.08 -1.68,9.22 0,7.99 3.65,15.54 9.91,20.5 13.42,10.46 18.65,22.53 12.77,38.82 -0.22,0.72 -0.35,1.47 -0.39,2.22 -0.2,1.36 -0.29,2.74 -0.29,4.11 0,16 12.98,28.98 28.98,28.98 4.13,0 8.21,-0.88 11.97,-2.59 3.53,-1.25 6.91,-2.96 10.02,-5.05 9.02,-6.88 17.43,-5.93 26.58,0 5.37,3.02 11.07,5.54 16.94,7.41 22.31,0.3 37.12,-14.94 32.81,-33.38 -4.31,-18.43 0.4,-29.29 13.64,-41.66zm-46.67 39.21c-20.22,-14.03 -39.69,-14.81 -59.96,0 7.28,-24.05 1.26,-42.31 -18.91,-55.6 11.33,-3.57 22.61,-4.62 30.5,-10.37 7.89,-5.75 12.42,-16.16 19.48,-26.14 6.27,23.4 21.79,34.86 47.23,34.86 -19.78,15.21 -26.53,33.2 -18.34,57.38l0 -0.13zm-151.37 -162.74c12.11,-9.89 22.18,-21.35 16.95,-38.65 -5.23,-17.3 -20.04,-21.13 -35.77,-22.05 -0.18,0 -0.37,0.01 -0.55,0.01 -7.95,0 -14.89,-5.38 -16.88,-13.08 -1.25,-3.13 -2.7,-6.17 -4.36,-9.11 -4.45,-10.57 -14.8,-17.44 -26.26,-17.44 -0.19,0 -0.39,0 -0.58,0.01 -0.54,-0.03 -1.08,-0.05 -1.62,-0.05 -11.23,0 -21.24,7.1 -24.96,17.7 -5.53,15.6 -14.77,23.44 -32.02,23.57 -12.26,0.02 -22.89,8.49 -25.66,20.43 -1.09,2.98 -1.65,6.15 -1.65,9.33 0,8.77 4.24,17 11.37,22.09 13.07,9.59 16.69,21.09 11.37,35.95 -0.2,0.71 -0.37,1.44 -0.48,2.18 -0.37,1.84 -0.56,3.72 -0.56,5.6 0,8.85 4.16,17.18 11.24,22.5 5.01,4.23 11.37,6.56 17.94,6.56 4.09,0 8.13,-0.9 11.82,-2.64 5.25,-2.85 10.73,-5.49 16.24,-7.8 2.29,-0.7 4.67,-1.06 7.06,-1.06 2.39,0 4.77,0.36 7.06,1.06 9.41,3.27 18.34,7.97 23.49,10.28 22,-0.3 35.21,-15.03 33.46,-32.29 -0.22,-4.9 -1.03,-9.76 -2.4,-14.46 -0.79,-1.86 -1.2,-3.87 -1.2,-5.9 0,-5.15 2.62,-9.96 6.95,-12.75l0 0zm-37.04 29.67c-20.39,-14.42 -39.95,-15.16 -59.56,1 1.18,-34.86 1.18,-34.86 -19.87,-59.39 25.79,1.05 41.31,-10.2 48.93,-34.29 8.1,23.14 22.96,35.82 48.8,35.21 -19.91,14.94 -26.66,33.33 -18.3,57.47z"/>
 </g>
</svg>
