<?xml version="1.0" encoding="UTF-8"?>
<!DOCTYPE svg PUBLIC "-//W3C//DTD SVG 1.1//EN" "http://www.w3.org/Graphics/SVG/1.1/DTD/svg11.dtd">
<!-- Creator: CorelDRAW -->
<svg xmlns="http://www.w3.org/2000/svg" xml:space="preserve" width="6.30811in" height="6.33285in" version="1.1" style="shape-rendering:geometricPrecision; text-rendering:geometricPrecision; image-rendering:optimizeQuality; fill-rule:evenodd; clip-rule:evenodd"
viewBox="0 0 3004.52 3016.3"
 xmlns:xlink="http://www.w3.org/1999/xlink"
 xmlns:xodm="http://www.corel.com/coreldraw/odm/2003">
 <defs>
  <style type="text/css">
   <![CDATA[
    .fil0 {fill:#AAB8DD}
   ]]>
  </style>
 </defs>
 <g id="Layer_x0020_1">
  <metadata id="CorelCorpID_0Corel-Layer"/>
  <g id="_2686080927200">
   <path class="fil0" d="M406.49 630.36l228.34 -225.29c22.84,7.14 14.11,6.45 29.7,20.27l141.8 117.41c66.6,52.77 64.89,56.91 156.49,1.79 27.07,-16.29 45.87,-28.67 76.52,-41.3 59.08,-24.36 104.57,-46.08 170.78,-64.87 104.83,-29.75 111.01,9.85 126.98,-226.49 2.24,-33.1 5.39,-77.52 11.99,-105.84l312.24 0c0,71.51 13.3,141.34 17.87,211.89 11.15,171.97 78.4,55.14 363.2,225.92 114.05,68.39 93.25,47.29 211.43,-45.6 40.25,-31.64 73.05,-64.03 114.44,-91.75l231.21 228.3c-12.05,17.28 -35.67,42.74 -49.89,59.05 -27.63,31.69 -134.19,148.53 -134.19,183.94l80.44 155.21c45.01,94.14 88.22,249.96 93.9,259.57 17.69,29.93 47.47,24.02 88.21,29.61 39.13,5.37 68.4,6.61 108.15,9.68 33.3,2.57 76.68,11.34 112.38,11.34l0 329.91c-72.78,0 -145.54,12.43 -217.48,18.17 -111.53,8.89 -91.15,27.85 -117.6,118.05 -18.72,63.84 -38.31,116.17 -65.54,170.11 -111.62,221.09 -120.87,120.25 50.53,338.32 17.99,22.88 34.39,39.52 49.64,62.3l-228.3 231.21 -176.33 -144.7c-83.23,-67.4 -56.76,-41.51 -221.8,41.13 -246.51,123.44 -277.12,34.58 -291.64,179.66l-18.63 222.91 -312.24 0 -23.05 -212.6c-9.42,-114.12 -21.85,-96.48 -118.36,-123.18 -57.73,-15.97 -121.7,-39.99 -170.85,-64.8 -204.34,-103.17 -124.28,-117.54 -282.71,5.91 -39.3,30.62 -76.69,66.65 -117.86,94.22l-231.21 -228.3c12.05,-17.28 35.67,-42.74 49.89,-59.05 17.2,-19.73 30.46,-37.99 47.64,-58.4 173.37,-206.01 53.07,-65.52 -58.69,-451.6 -25.55,-88.25 -9.83,-113.62 -114.4,-121.24 -72.27,-5.27 -146.92,-18.1 -217.55,-18.1l0 -329.91c27.93,0 80.66,-7.98 107.04,-10.79 39.28,-4.18 68.72,-4.91 107.55,-10.27 99.61,-13.74 82.55,4.41 118.65,-122.89 25.22,-88.92 61.18,-170.66 106.73,-246.74 62.93,-105.1 47.11,-78.12 -51.2,-204.29 -30.62,-39.3 -66.65,-76.69 -94.22,-117.86zm471.3 -164.96c-12.95,-19.34 -143.73,-123.79 -171.67,-146.45 -92.89,-75.35 -84.49,-53.96 -227.46,89.01 -49.55,49.55 -94.78,94.79 -144.34,144.33 -80.98,80.95 -76.31,76.24 32.75,205.84l98.33 119.65c-4.08,17.5 -125.85,219.9 -135.5,335.8 -63.15,0 -132.27,13.86 -194.41,17.67 -71.04,4.37 -135.5,-0.12 -135.5,76.59l0 400.6c0,92.38 112.2,68.56 233.96,84.16 19.84,2.54 74.17,9.61 95.94,10.1 5.9,70.88 63.92,192.16 96.21,257.26 14.76,29.76 34.05,56.06 39.28,78.54l-128.09 154.69c-100.74,113.12 -81.57,92.22 141.34,315.13 25,25 45.69,45.69 70.69,70.69 105.2,105.21 82.88,70.17 272.03,-78.5 22.88,-17.99 39.52,-34.39 62.3,-49.64 114.22,60.44 153.01,88.22 286.18,126.21 19.84,5.66 31,10.84 49.62,15.18l14.27 186.03c8.37,59.1 -2.3,137.98 62.32,137.98l424.17 0c55.65,0 51.07,-126.84 53.23,-158.86 1.92,-28.41 7.94,-68.87 10.64,-95.4 9.77,-96.03 -17.85,-56.83 113.62,-104.36 26.76,-9.67 54.7,-19.41 79.8,-32.14 59.5,-30.18 76.83,-30.13 143.32,-74.65 65.31,43.73 212.18,188.52 253.32,188.52 37.11,0 228.77,-208.15 275.41,-254.79 114.95,-114.95 97.9,-92.79 -11.14,-227.46 -33.73,-41.66 -69.89,-80.59 -99.32,-124.54 60.51,-90.36 101.12,-199.16 131.59,-304.36 11.25,-38.86 30.14,-28.66 74.15,-31.9 29.55,-2.17 70.15,-9.05 100.81,-11.12 29.13,-1.96 73.62,-3.94 102.88,-9.06 34.19,-5.97 55.98,-19.66 55.98,-55.95l0 -435.95c0,-58.44 -128.92,-50.76 -162.47,-55.51 -32.36,-4.58 -64.87,-7.47 -96.55,-9.49 -15.71,-1.01 -32.62,-2.54 -47.76,-5.26 -28.14,-5.05 -21.01,-2.64 -28.19,-30.72 -31.06,-121.49 -78.54,-207.43 -130.44,-305.51 10.6,-15.82 34.22,-41.29 48.44,-57.6 27.2,-31.19 140.08,-156.42 140.08,-189.83 0,-33.76 -56.81,-77.43 -78.06,-98.68 -30.9,-30.89 -57.47,-57.47 -88.37,-88.37 -30.69,-30.69 -151.53,-166.43 -187.04,-166.43 -32.57,0 -38.48,12.45 -72.05,39.88l-181.27 148.64c-27.15,-23.6 -117.92,-66.72 -153.18,-82.47 -25.08,-11.2 -57.13,-22.08 -86.11,-31.71 -30.03,-9.98 -61.05,-20.32 -90.62,-27.21l-26.53 -268.03c-3.97,-22.91 -0.56,-19.18 -12.01,-35.12 -6.12,-8.53 -20.88,-20.87 -32.15,-20.87l-424.17 0c-76.3,0 -58.47,149.66 -73.2,256.71 -7.28,52.91 11.11,63.2 -35.81,76.12 -129.5,35.65 -204.85,77.32 -309.27,132.57z"/>
   <path class="fil0" d="M748.18 1508.15c0,-111.42 28.65,-222.48 63.08,-302.18 27.09,-62.71 62.95,-119.42 104.28,-172.61 36.42,-46.87 94.39,-98.35 142.35,-134.54 102.39,-77.28 272.41,-144.75 414.92,-144.75 138.35,0 224.42,13.24 353.41,70.76 70.68,31.52 156.79,94.76 210.7,148.67 120.7,120.7 219.42,321.44 219.42,493.41 0,142.06 -10.94,240.95 -72.65,363.3 -65.84,130.54 -60.51,106.18 -131.76,192.26 -9.83,11.88 -9.49,14.9 -21.88,25.25 -35.34,29.53 -61.32,56.33 -100.33,82.29 -36.75,24.46 -81.43,49.49 -121.18,67.33 -483.64,217.04 -1060.35,-134.8 -1060.35,-689.21zm-106.04 -58.91c0,168 5.43,277.42 82.45,430.08 76.23,151.08 145.85,230.64 276.88,329.91 109.03,82.6 302.04,159.04 453.65,159.04 166.5,0 199.65,0.42 361.61,-56.66 220.86,-77.84 388.28,-261.13 482.86,-471.51 125.48,-279.09 69.22,-613.4 -112.26,-857.97l-73.85 -85.22c-106.85,-106.85 -252.76,-189.36 -402.59,-227.77 -230.2,-59.01 -512.86,-5.98 -690.15,121.85l-88.4 70.66c-16.84,16.4 -27.64,20.46 -44.46,38.02 -69.89,72.98 -153.79,195.67 -187.6,289.59 -27.11,75.3 -58.15,173.99 -58.15,259.97z"/>
   <path class="fil0" d="M1160.57 1667.21c0,-67.99 51.23,-115.47 111.93,-129.61 48.79,32.67 96.11,100.15 229.76,100.15 47.67,0 99.42,-15.27 133.68,-31.27 20.24,-9.45 33.45,-18.59 51.44,-31.03 10.61,-7.34 41.25,-37.85 44.63,-37.85 49.27,0 111.93,60.64 111.93,123.72l0 241.54 -683.38 0 0 -235.65zm-106.04 -23.57l0 318.13c0,28.5 18.63,47.13 47.13,47.13l801.21 0c36.16,0 53.02,-28.04 53.02,-64.8 0,-136.42 17.8,-304.22 -39.18,-402.67 -38,-65.66 -111.51,-102.87 -187.24,-113.78 -82.88,-11.93 -93.76,98.17 -203.64,98.17 -227.29,0 -129.9,-144.19 -304.4,-86.42 -87.75,29.05 -166.9,119.68 -166.9,204.25z"/>
   <path class="fil0" d="M1508.15 1301.96c-44.5,0 -82.57,-17.6 -107.56,-39.72 -67.89,-60.13 -70.8,-172.32 -5.28,-232.17 8.88,-8.11 31.09,-23.92 41.95,-28.74 101.2,-44.89 226.56,31.18 223.11,146.98 -2.47,82.72 -75.98,153.66 -152.23,153.66zm-271 -159.06c0,147.11 131.51,265.1 235.65,265.1 84.66,0 149.54,-7.58 218.26,-76.3 20.46,-20.46 34.97,-39.61 48.94,-68.89 112.08,-234.86 -128.34,-457.72 -343.79,-361.46 -26.73,11.94 -60.53,33.74 -81.15,54.35 -9.36,9.35 -20,24.15 -29.1,35.7 -26.92,34.16 -48.81,103.26 -48.81,151.49z"/>
  </g>
 </g>
</svg>
