<?xml version="1.0" encoding="UTF-8"?>
<!DOCTYPE svg PUBLIC "-//W3C//DTD SVG 1.1//EN" "http://www.w3.org/Graphics/SVG/1.1/DTD/svg11.dtd">
<!-- Creator: CorelDRAW -->
<svg xmlns="http://www.w3.org/2000/svg" xml:space="preserve" width="4.16679in" height="4.83325in" version="1.1" style="shape-rendering:geometricPrecision; text-rendering:geometricPrecision; image-rendering:optimizeQuality; fill-rule:evenodd; clip-rule:evenodd"
viewBox="0 0 1207.75 1400.93"
 xmlns:xlink="http://www.w3.org/1999/xlink"
 xmlns:xodm="http://www.corel.com/coreldraw/odm/2003">
 <defs>
  <style type="text/css">
   <![CDATA[
    .fil0 {fill:#AAB8DD}
   ]]>
  </style>
 </defs>
 <g id="Layer_x0020_1">
  <metadata id="CorelCorpID_0Corel-Layer"/>
  <g id="_2686088191408">
   <path class="fil0" d="M483.03 1274.13l0 -66.42 48.3 0c0,51.47 -9.65,96.61 24.15,96.61 33.81,0 24.15,-45.14 24.15,-96.61l48.3 0c0,51.47 -9.65,96.61 24.15,96.61 33.81,0 24.15,-45.14 24.15,-96.61l48.3 0c0,55.35 12.07,144.91 -78.49,144.91 -65.1,0 -163.02,16.11 -163.02,-78.49zm-96.61 -141.89c0,-27.97 -6.98,-69.44 27.17,-69.44l380.38 0c34.15,0 27.17,41.46 27.17,69.44 0,14.92 -12.25,27.17 -27.17,27.17l-380.38 0c-14.92,0 -27.17,-12.25 -27.17,-27.17zm-141.89 -504.16l93.59 0c0,57.38 47.53,96.61 87.55,96.61 31.36,0 53.26,-3.2 77.86,-27.8 18.08,-18.08 27.8,-39.87 27.8,-68.8l48.3 0c0,55.35 -9.01,92.96 17.09,100.88 13.98,4.24 20.87,-4.28 31.21,-4.28 38.6,0 65.5,47.85 35.5,80.79 -25.26,27.73 -51.25,8.16 -64.45,10.91 -11.64,2.42 -19.36,9.77 -19.36,23.02l0 175.1 -96.61 0c0,-76 7.85,-65.81 -40.16,-86.63 -23.35,-10.12 -63.98,-39.6 -84.34,-57.54 -62.41,-55 -113.99,-156.55 -113.99,-242.24zm480.01 -48.3c0,-38.6 47.85,-65.5 80.79,-35.5 27.73,25.26 8.16,51.25 10.91,64.45 2.42,11.64 9.77,19.36 23.02,19.36l123.78 0c0,109.03 -62.01,195.49 -132.13,257.31l-41.25 28.19c-74.31,44.5 -65.11,8.1 -65.11,100.93l-96.61 0 0 -144.91c28.94,0 50.73,-9.72 68.8,-27.8 59.39,-59.39 20.08,-165.41 -68.8,-165.41l0 -48.3c55.35,0 92.96,9.01 100.88,-17.09 4.24,-13.98 -4.28,-20.87 -4.28,-31.21zm-241.51 -150.95c0,61.83 39.71,102.64 96.61,102.64l0 48.3c-55.35,0 -92.96,-9.01 -100.88,17.09 -4.24,13.98 4.28,20.87 4.28,31.21 0,38.6 -47.85,65.5 -80.79,35.5 -27.73,-25.26 -8.16,-51.25 -10.91,-64.45 -2.42,-11.64 -9.77,-19.36 -23.02,-19.36l-123.77 0c0,-70.02 29.31,-133.44 65.18,-185.39 22.32,-32.32 50.8,-60.73 82.75,-83.29 50.98,-35.99 118.37,-66.42 187.16,-66.42l0 93.59c-55.62,0 -96.61,44.11 -96.61,90.57zm-289.82 163.02c0,103.34 26.18,183.45 78.02,254.06 43.07,58.67 88.98,94.61 153.4,127.36 13.11,6.66 10.1,2.27 10.1,41.23l-30.19 0c-33.21,0 -66.42,33.21 -66.42,66.42l0 60.38c0,33.21 33.21,66.42 66.42,66.42l30.19 0 0 81.51c0,55.69 56.01,111.7 111.7,111.7l114.72 0c55.69,0 111.7,-56.01 111.7,-111.7l0 -81.51 30.19 0c33.21,0 66.42,-33.21 66.42,-66.42l0 -60.38c0,-33.21 -33.21,-66.42 -66.42,-66.42l-30.19 0c0,-49.49 -4.38,-31.39 21.02,-45.4 52.6,-29.02 107.43,-71.29 141.43,-121.22 52.68,-77.37 79.07,-142.15 79.07,-243.95 0,-14.6 -9.55,-24.15 -24.15,-24.15l-120.76 0c0,-91.38 -108.76,-127.56 -166.91,-67.28 -15.86,16.44 -26.3,35.95 -26.3,67.28l-48.3 0c0,-55.35 9.01,-92.96 -17.09,-100.88 -13.98,-4.24 -20.87,4.28 -31.21,4.28 -38.6,0 -65.5,-47.85 -35.5,-80.79 25.26,-27.73 51.25,-8.16 64.45,-10.91 11.64,-2.42 19.36,-9.77 19.36,-23.02l0 -150.95c0,-61 -183.79,6.51 -202.27,15.09 -6.2,2.88 -9.85,5.79 -15.23,8.92 -44.63,25.93 -56.7,31.43 -98.73,73.35 -58.46,58.32 -118.49,161.63 -118.49,276.99z"/>
   <path class="fil0" d="M724.54 241.67c0,-14.19 5.62,-24.6 12.8,-32.48 25.26,-27.73 51.25,-8.16 64.45,-10.91 11.64,-2.42 19.36,-9.77 19.36,-23.02l0 -123.77c73.14,0 156.9,37.15 209.08,83.75 25.79,23.03 38.2,33.87 59.59,64.18 5.53,7.83 11.48,16.35 16.88,25.38 27.7,46.27 49.54,105.47 49.54,161.78l-93.59 0c0,-128.22 -193.21,-129.05 -193.21,0l-48.3 0c0,-55.35 9.01,-92.96 -17.09,-100.88 -13.98,-4.24 -20.87,4.28 -31.21,4.28 -25.18,0 -48.3,-21.81 -48.3,-48.3zm48.3 -217.36l0 120.76c-31.33,0 -50.84,10.44 -67.28,26.3 -60.26,58.13 -24.15,166.91 67.28,166.91 0,115.14 -19.56,96.61 126.79,96.61 36.54,0 18.11,-46.75 18.11,-48.3 0,-38.6 47.85,-65.5 80.79,-35.5 27.73,25.26 8.16,51.25 10.91,64.45 2.42,11.64 9.77,19.36 23.02,19.36l150.95 0c28.07,0 24.15,-26.88 24.15,-45.28 0,-45.11 -11.52,-81.16 -24.5,-120.41 -17.79,-53.79 -55.82,-109.4 -95.5,-149.03 -78,-77.89 -175.35,-120 -290.57,-120 -14.6,0 -24.15,9.55 -24.15,24.15z"/>
   <path class="fil0" d="M996.24 845.45c0,13.25 10.07,19.91 19.73,25.55 23.09,13.47 72.51,46.9 94.98,46.9 12.1,0 22.73,-19.08 18.84,-30.7 -5.94,-17.77 -65.62,-45.62 -84.63,-57.48 -30.47,-19.01 -48.93,-2.01 -48.93,15.72z"/>
   <path class="fil0" d="M96.61 917.9c22.47,0 71.9,-33.43 94.98,-46.9 35.89,-20.94 17.32,-49.7 -7.44,-49.7 -8.34,0 -98.03,46.85 -105.54,63.82 -5.92,13.39 5.97,32.78 17.99,32.78z"/>
   <path class="fil0" d="M289.82 96.76c0,20.7 33.36,73.64 46.99,94.9 23.7,36.96 49.62,15.04 49.62,-7.35 0,-8.34 -46.85,-98.03 -63.82,-105.54 -13.39,-5.92 -32.78,5.97 -32.78,17.99z"/>
   <path class="fil0" d="M184.15 386.57c24.75,0 43.33,-28.76 7.44,-49.7 -10.37,-6.05 -19.48,-11.23 -28.73,-16.56 -20.17,-11.61 -46.25,-30.35 -66.26,-30.35 -2.53,0 -51.09,21.12 12.23,57.21 12.62,7.19 61.63,39.4 75.32,39.4z"/>
   <path class="fil0" d="M-0 603.93c0,14.6 9.55,24.15 24.15,24.15l96.61 0c32.41,0 32.41,-48.3 0,-48.3l-96.61 0c-14.6,0 -24.15,9.55 -24.15,24.15z"/>
   <path class="fil0" d="M1062.66 603.93c0,14.6 9.55,24.15 24.15,24.15l96.61 0c32.41,0 32.41,-48.3 0,-48.3l-96.61 0c-14.6,0 -24.15,9.55 -24.15,24.15z"/>
   <path class="fil0" d="M579.63 24.3l0 96.61c0,32.41 48.3,32.41 48.3,0l0 -96.61c0,-32.41 -48.3,-32.41 -48.3,0z"/>
  </g>
 </g>
</svg>
