<svg id="Layer_1" data-name="Layer 1" xmlns="http://www.w3.org/2000/svg" viewBox="0 0 256 256"><defs><style>.cls-1{fill:#aab8dd;}</style></defs><path class="cls-1" d="M29.87,66.81c-2.19-.58-4.4.53-5.72,3a96.61,96.61,0,0,0-8.64,20.28c-1.69,6.15-2.94,12.42-4.3,18.65-.22,1-.54,1.38-1.56,1.33-1.35-.08-2.71,0-4.06,0-3.49.07-5.54,2.12-5.55,5.6Q0,125,0,134.31C0,137.92,2,140,5.65,140q9.35.06,18.69,0C28,140,30,138,30,134.33q0-9.27,0-18.53c0-3.79-2-5.75-5.87-5.79-1,0-1.91,0-3,0a88.16,88.16,0,0,1,4.68-19.29c2-5.36,4.59-10.5,6.87-15.76a9.92,9.92,0,0,0,1-3.38A4.65,4.65,0,0,0,29.87,66.81Zm-10,63.1H10.12V120.1h9.77ZM40,50.07A5,5,0,1,0,45,55,5.07,5.07,0,0,0,40,50.07Zm176,0a5,5,0,1,0,5,5A5.06,5.06,0,0,0,216,50.07Zm-65.2,36.15c-5.93-10.84-11.82-21.69-17.81-32.5a8.3,8.3,0,0,0-2.89-3.13c-2.62-1.47-5.24-.16-7.07,3.19q-24.35,44.55-48.73,89.1a7.27,7.27,0,0,0-.49,6.63c5.75,15,11.39,30.07,17.09,45.11a1.55,1.55,0,0,1-.75,2.23A14.9,14.9,0,0,0,91.74,223a2,2,0,0,1,1.29,2.1c0,8.3,0,16.59,0,24.88,0,4,2,6,6,6q14.46,0,28.94,0h28.78c4.37,0,6.25-1.86,6.25-6.2,0-8.13,0-16.26,0-24.39a2.32,2.32,0,0,1,1.5-2.48,14.88,14.88,0,0,0,1.51-26,1.62,1.62,0,0,1-.79-2.35c5.73-15.08,11.39-30.18,17.15-45.26a6.85,6.85,0,0,0-.46-6.18Q166.26,114.68,150.75,86.22ZM128,141.55a5,5,0,1,1-4.92,4.89A5.14,5.14,0,0,1,128,141.55Zm25,104.33H103.1V224.61h49.8Zm6.37-31.65a11,11,0,0,1-2.57.26H98.85c-2.78,0-4.7-1.18-5.46-3.26a4.9,4.9,0,0,1,3.42-6.48,8.59,8.59,0,0,1,2.09-.23q29.09,0,58.17,0c3,0,4.89,1.22,5.61,3.5A4.86,4.86,0,0,1,159.27,214.23Zm11-61.35q-7.59,20.13-15.16,40.28a1.82,1.82,0,0,1-2,1.37q-25,0-50.07,0a1.89,1.89,0,0,1-2.1-1.48Q93.38,173,85.78,152.92c-.13-.34-.22-.7-.39-1.28.69,0,1.25-.11,1.81-.12,3.47,0,6.94,0,10.41,0a5,5,0,0,0,4.86-2.94,4.62,4.62,0,0,0-.68-5.18,5.19,5.19,0,0,0-4.31-1.87h-11c12.15-22.24,24.14-44.19,36.14-66.14l.32.09c0,.45.09.91.09,1.36,0,17.94,0,35.88,0,53.82a2.24,2.24,0,0,1-1.52,2.44,14.79,14.79,0,0,0-8,16.94,14.94,14.94,0,0,0,29.29-1.22A14.76,14.76,0,0,0,134.25,133a1.74,1.74,0,0,1-1.27-1.78q0-27.48,0-55a4.82,4.82,0,0,1,.1-.75l.34-.07c12,21.93,24,43.87,36.12,66.11h-3.83c-2.33,0-4.66,0-7,0-3.36,0-5.68,2.06-5.71,5s2.31,5,5.64,5,6.61,0,9.92,0h2A11.13,11.13,0,0,1,170.24,152.88ZM250.71,110c-1.08,0-2.16,0-3.25,0-2.8-.07-2.39.51-2.84-2.46A112.84,112.84,0,0,0,232,70a9.78,9.78,0,0,0-1.18-1.73,4.83,4.83,0,0,0-6.6-.62c-2.12,1.65-2.56,4.09-1.06,7A100.84,100.84,0,0,1,231.22,94c1.43,5.2,2.6,10.47,4,16-1.52,0-2.59,0-3.66,0-3.42.08-5.49,2.08-5.52,5.48q-.06,9.51,0,19c0,3.36,2,5.44,5.35,5.47q9.66.11,19.34,0a5,5,0,0,0,5.26-5.37q0-9.59,0-19.18A5.11,5.11,0,0,0,250.71,110Zm-4.81,19.89h-9.76v-9.75h9.76ZM204.39,36.54A108.37,108.37,0,0,0,181,22c-1.16-.53-2.32-1.09-3.89-1.82a14.18,14.18,0,0,1,1.49-.2c15.61,0,31.22,0,46.83,0a2,2,0,0,1,2.13,1.49,14.81,14.81,0,0,0,15.66,8.32,15.16,15.16,0,0,0,12.65-12.5C257,9.86,252.45,3,244.94.62a14.77,14.77,0,0,0-17.39,7.93,2.26,2.26,0,0,1-2.45,1.51Q185,10,144.93,10H143c0-1.54,0-2.88,0-4.23C143,2.09,140.94.06,137.27.05Q128,0,118.73.05c-3.67,0-5.68,2-5.73,5.75,0,1.34,0,2.68,0,4.23h-2.08q-39.93,0-79.84,0a2.48,2.48,0,0,1-2.69-1.65A14.92,14.92,0,0,0,12.8.18,15.41,15.41,0,0,0,.17,12.75,15.07,15.07,0,0,0,10.91,29.39a14.8,14.8,0,0,0,17.55-7.91A2.17,2.17,0,0,1,30.77,20c15.5,0,31,0,46.51,0,.4,0,.8.07,1.3.12-.17.23-.22.35-.3.39l-4.28,2A108.21,108.21,0,0,0,51.36,36.74c-2.1,1.72-2.7,4.09-1.67,6.22,1.49,3.12,4.84,3.78,7.94,1.53,2.24-1.62,4.37-3.4,6.65-5A110.22,110.22,0,0,1,99.72,23.79c4.28-1.09,8.64-1.87,13.28-2.86,0,1.42,0,2.48,0,3.55.09,3.43,2.08,5.49,5.49,5.52q9.51.08,19,0c3.41,0,5.4-2.08,5.49-5.52,0-1.07,0-2.13,0-3.47,3.62.72,7,1.28,10.28,2a111.48,111.48,0,0,1,37.35,15.78c2.74,1.84,5.3,3.94,8,5.84,3,2.1,6.39,1.25,7.76-1.85C207.36,40.63,206.63,38.35,204.39,36.54ZM241,10.07a5.08,5.08,0,0,1,4.94,5,5,5,0,1,1-9.9-.19A5.08,5.08,0,0,1,241,10.07ZM15,20a5.08,5.08,0,0,1-5-5,5.08,5.08,0,0,1,4.85-4.93A5.09,5.09,0,0,1,20,15,5.08,5.08,0,0,1,15,20ZM133,19.13a1.22,1.22,0,0,1-.84.85c-3,.06-5.93,0-9,0V10.2H133C133,13.22,133,16.18,133,19.13Z"/></svg>