<?xml version="1.0" encoding="UTF-8"?>
<!DOCTYPE svg PUBLIC "-//W3C//DTD SVG 1.1//EN" "http://www.w3.org/Graphics/SVG/1.1/DTD/svg11.dtd">
<!-- Creator: CorelDRAW -->
<svg xmlns="http://www.w3.org/2000/svg" xml:space="preserve" width="2.66709in" height="2.66626in" version="1.1" style="shape-rendering:geometricPrecision; text-rendering:geometricPrecision; image-rendering:optimizeQuality; fill-rule:evenodd; clip-rule:evenodd"
viewBox="0 0 3475.78 3474.7"
 xmlns:xlink="http://www.w3.org/1999/xlink"
 xmlns:xodm="http://www.corel.com/coreldraw/odm/2003"
 data-name="Layer 1">
 <defs>
  <style type="text/css">
   <![CDATA[
    .fil0 {fill:#E6E6E6;fill-rule:nonzero}
   ]]>
  </style>
 </defs>
 <g id="Layer_x0020_1">
  <metadata id="CorelCorpID_0Corel-Layer"/>
  <g id="_2585321329328">
   <path class="fil0" d="M405.49 906.7c-29.73,-7.88 -59.73,7.19 -77.65,40.73 -49.29,86.97 -89,179.36 -117.34,275.26 -22.94,83.49 -39.91,168.6 -58.37,253.18 -2.99,13.58 -7.33,18.73 -21.18,18.06 -18.33,-1.09 -36.79,0 -55.11,0 -47.38,0.95 -75.21,28.78 -75.34,76.02 -0.33,84.46 -0.5,168.81 -0.5,253.07 0,49.01 27.15,77.24 76.7,77.24 84.62,0.54 169.19,0.54 253.72,0 49.69,0 76.83,-27.15 76.83,-76.97 0,-83.89 0,-167.74 0,-251.54 0,-51.45 -27.15,-78.06 -79.69,-78.6 -13.58,0 -25.93,0 -40.73,0 11.1,-89.31 32.72,-177.41 63.55,-261.86 27.15,-72.76 62.31,-142.54 93.26,-213.94 7.21,-14.35 11.82,-29.93 13.56,-45.9 0.04,-0.87 0.06,-1.78 0.06,-2.65 0,-30.48 -21.8,-56.63 -51.78,-62.1l-0.01 0zm-135.75 856.59l-132.36 0 0 -133.17 132.63 0 -0.27 133.17zm273.27 -1083.83c-37.48,0 -67.86,30.39 -67.86,67.87 0,37.48 30.39,67.87 67.87,67.87 37.48,0 67.87,-30.39 67.87,-67.87 0,-0.31 -0.01,-0.65 -0.01,-0.95 -1,-36.88 -30.96,-66.43 -67.87,-66.92l-0.01 -0.01zm2389.21 0c-37.48,0 -67.87,30.39 -67.87,67.87 0,37.48 30.39,67.87 67.87,67.87 37.48,0 67.87,-30.39 67.87,-67.87 -0.44,-37.3 -30.57,-67.43 -67.86,-67.87l-0.01 -0.01zm-885.09 490.74c-80.5,-147.15 -160.46,-294.44 -241.77,-441.19 -9.14,-17.33 -22.69,-31.99 -39.24,-42.49 -35.57,-19.95 -71.13,-2.17 -95.97,43.3 -220.37,403.18 -440.87,806.36 -661.51,1209.54 -9.46,15.48 -14.48,33.31 -14.48,51.47 0,13.23 2.67,26.36 7.83,38.53 78.06,203.63 154.62,408.2 232,612.37 1.94,3.25 2.97,6.98 2.97,10.76 0,8.57 -5.2,16.29 -13.14,19.5 -59.23,36.92 -95.26,101.84 -95.26,171.65 0,78.62 45.59,150.17 116.85,183.35 10.62,3.95 17.68,14.09 17.68,25.44 0,1.02 -0.06,2.05 -0.17,3.06 0,112.67 0,225.21 0,337.75 0,54.3 27.15,81.45 81.45,81.45 130.86,0.01 261.82,0.01 392.86,0.01l390.69 0c59.32,0 84.84,-25.25 84.84,-84.16 0,-110.37 0,-220.73 0,-331.1 -0.17,-1.35 -0.27,-2.74 -0.27,-4.11 0,-13.2 8.24,-25.01 20.63,-29.56 70.06,-33.59 114.67,-104.44 114.67,-182.15 0,-69.32 -35.59,-133.81 -94.18,-170.8 -8.39,-3.32 -13.92,-11.44 -13.92,-20.47 0,-4.03 1.11,-8 3.21,-11.44 77.79,-204.71 154.62,-409.7 232.81,-614.41 4.72,-11.33 7.16,-23.51 7.16,-35.79 0,-16.95 -4.64,-33.61 -13.41,-48.1 -141.63,-257.37 -282.63,-514.85 -423,-772.41l0.68 0zm-309.51 751.11c0.35,0 0.72,-0.01 1.07,-0.01 37.48,0 67.87,30.39 67.87,67.87 0,37.48 -30.39,67.87 -67.87,67.87 -37.47,0 -67.86,-30.39 -67.86,-67.87 0,-0.49 0.01,-1 0.02,-1.48 1.71,-36.08 30.71,-64.89 66.78,-66.39l-0.01 0.01zm339.38 1416.29l-677.39 0 0 -288.74 676.03 0 1.36 288.74zm86.47 -429.65c-10.61,2.34 -21.49,3.55 -32.37,3.55 -0.84,0 -1.69,-0.02 -2.51,-0.02l-786.68 0.01c-37.74,0 -63.8,-16.02 -74.12,-44.25 -2.79,-7.47 -4.24,-15.4 -4.24,-23.37 0,-30.63 20.93,-57.31 50.67,-64.6 8.77,-2.07 17.82,-3.13 26.85,-3.13 0.5,0 1.04,0.02 1.52,0.02 263.26,0 526.48,0 789.65,0 40.73,0 66.38,16.56 76.16,47.51 2.14,6.58 3.24,13.48 3.24,20.4 0,30.1 -20.38,56.39 -49.53,63.89l1.35 0.01zm149.33 -832.83c-68.69,182.18 -137.29,364.45 -205.8,546.81 -2.71,11.03 -12.62,18.79 -23.99,18.79 -1.06,0 -2.11,-0.07 -3.16,-0.2 -226.25,0.01 -452.81,0.01 -679.7,0.01 -1.12,0.15 -2.27,0.23 -3.41,0.23 -12.11,0 -22.58,-8.48 -25.1,-20.32 -69.33,-181.45 -138.38,-363.04 -207.16,-544.76 -1.76,-4.62 -2.99,-9.5 -5.29,-17.38 9.37,0 16.97,-1.49 24.57,-1.63 47.11,0 94.21,0 141.32,0 1.35,0.07 2.73,0.12 4.08,0.12 26.71,0 50.94,-15.68 61.9,-40.03 4.47,-8.8 6.81,-18.55 6.81,-28.43 0,-15.46 -5.72,-30.39 -16.04,-41.89 -13.38,-16.16 -33.28,-25.52 -54.26,-25.52 -1.41,0 -2.85,0.05 -4.25,0.13l-149.33 0.01c164.94,-301.9 327.7,-599.88 490.6,-897.85l4.35 1.22c0,6.11 1.22,12.35 1.22,18.46 0,243.54 0,487.08 0,730.61 0.2,1.4 0.3,2.81 0.3,4.22 0,13.14 -8.45,24.8 -20.93,28.9 -69.96,33.25 -114.57,103.85 -114.57,181.33 0,16.37 2.04,32.75 5.98,48.63 21.94,91.08 103.48,155.33 197.16,155.33 100.05,0 185.18,-73.02 200.44,-171.89 1.69,-10.5 2.55,-21.19 2.55,-31.83 0,-79.01 -46.51,-150.71 -118.62,-182.93 -10.21,-2.84 -17.28,-12.15 -17.28,-22.75 0,-0.47 0.02,-0.94 0.04,-1.41 0,-248.69 0,-497.56 0,-746.62 0.18,-3.42 0.65,-6.83 1.36,-10.18l4.62 -0.95c162.9,297.7 325.8,595.54 490.34,897.44l-52 -0.01c-31.63,0 -63.26,0 -95.03,0 -45.61,0 -77.1,27.96 -77.52,67.87 -0.41,39.91 31.36,67.87 76.57,67.87 45.21,0 89.73,0 134.67,0l27.15 0.01c-1.06,6.26 -2.51,12.49 -4.34,18.58l1.76 0.02zm1090.62 -582.09c-14.66,0 -29.32,0 -44.12,0 -38.01,-0.95 -32.45,6.92 -38.55,-33.4 -26.47,-178.4 -84.82,-351.38 -171.41,-509.6 -4.39,-8.38 -9.77,-16.27 -15.93,-23.49 -12.44,-14.17 -30.4,-22.3 -49.26,-22.3 -14.61,0 -28.82,4.89 -40.33,13.87 -28.78,22.4 -34.75,55.52 -14.39,95.03 45.46,83.46 82.23,171.53 109.46,262.61 19.41,70.59 35.29,142.13 54.3,217.2 -20.64,0 -35.16,0 -49.69,0 -46.43,1.09 -74.53,28.23 -74.93,74.39 -0.57,86.11 -0.59,172.11 -0.05,257.99 0,45.61 27.15,73.85 72.63,74.26 87.43,1 174.94,1 262.55,0 1.23,0.06 2.49,0.09 3.72,0.09 37.48,0 67.87,-30.39 67.87,-67.87 0,-1.71 -0.07,-3.42 -0.19,-5.12 -0.01,-86.79 -0.01,-173.57 -0.01,-260.36 0.07,-1.31 0.11,-2.66 0.11,-3.98 0,-38.31 -31.06,-69.37 -69.37,-69.37 -0.81,0 -1.63,0.02 -2.42,0.04zm-65.29 270.01l-132.5 0 0 -132.35 132.5 0 0 132.35zm-563.5 -1267.23c-96.85,-78.92 -203.9,-145.55 -317.59,-197.46 -15.75,-7.19 -31.49,-14.8 -52.81,-24.7 6.71,-1.16 13.52,-2.11 20.29,-2.65 211.9,0 423.81,0 635.72,0 0.88,-0.08 1.76,-0.12 2.64,-0.12 12.38,0 23.19,8.37 26.28,20.36 33.15,70.37 104.04,115.31 181.85,115.31 10.28,0 20.57,-0.79 30.73,-2.36 87.86,-13.5 157.18,-81.99 171.73,-169.7 15.35,-100.87 -46.42,-193.99 -148.37,-226.3 -17.74,-5.01 -36.15,-7.58 -54.61,-7.58 -77.69,0 -148.41,44.92 -181.46,115.22 -4.24,12.44 -15.92,20.8 -29.05,20.8 -1.41,0 -2.82,-0.1 -4.22,-0.29 -362.91,-0.54 -725.68,-0.82 -1088.31,-0.82l-26.2 0c0,-20.91 0,-39.1 0,-57.42 0,-49.96 -27.97,-77.52 -77.79,-77.65 -83.89,-0.45 -167.79,-0.46 -251.68,0 -49.82,0 -77.1,27.15 -77.79,78.06 0,18.19 0,36.38 0,57.42l-28.23 -0.01c-361.37,0 -722.64,0 -1083.83,0 -1.54,0.22 -3.11,0.33 -4.67,0.33 -14.38,0 -27.17,-9.13 -31.84,-22.72 -33.98,-69.45 -104.6,-113.51 -181.92,-113.51 -9.94,0 -19.91,0.76 -29.72,2.2 -87.57,14.7 -156.32,83.14 -171.44,170.64 -1.4,9.66 -2.12,19.52 -2.12,29.31 0,91.14 60.37,171.34 147.91,196.56 18.3,5.37 37.33,8.09 56.41,8.09 77.85,0 148.71,-45.01 181.83,-115.45 3.97,-12.1 15.27,-20.29 28,-20.29 1.12,0 2.25,0.07 3.37,0.19 210.41,0 420.83,0 631.38,0 5.43,0 10.86,0.95 17.65,1.63 -2.31,3.12 -2.99,4.75 -4.07,5.29l-58.1 27.15c-110.02,51.34 -213.32,116.44 -307.29,193.2 -28.51,23.35 -36.65,55.52 -22.67,84.44 20.23,42.35 65.7,51.31 107.79,20.77 30.41,-21.99 59.32,-46.16 90.28,-67.87 146.24,-98.86 309.54,-171.2 481.07,-213.21 58.1,-14.8 117.29,-25.39 180.28,-38.82 0,19.28 0,33.67 0,48.19 1.22,46.56 28.23,74.53 74.53,74.93 86.05,0.75 172.01,0.77 257.89,0.05 46.29,0 73.31,-28.23 74.53,-74.93 0,-14.53 0,-28.92 0,-47.11 49.14,9.77 95.03,17.38 139.55,27.15 180.42,39.74 352.8,112.54 507.07,214.16 37.2,24.98 71.95,53.49 108.6,79.28 40.73,28.51 86.75,16.97 105.34,-25.11 13.39,-29.13 3.48,-60.08 -26.93,-84.65zm496.98 -359.33c36.92,1.01 66.49,30.95 67.06,67.87 0.32,2.71 0.5,5.46 0.5,8.2 0,37.48 -30.39,67.87 -67.87,67.87 -37.48,0 -67.87,-30.39 -67.87,-67.87 0,-3.61 0.29,-7.22 0.86,-10.77 1.9,-36.03 31.27,-64.5 67.33,-65.3l0 0.01zm-3067.96 134.8c-37.23,-0.58 -67.29,-30.64 -67.87,-67.87 1.02,-36.11 29.76,-65.31 65.83,-66.93 0.27,0.01 0.57,0 0.85,0 37.31,0 67.9,29.64 69.06,66.93 -0.57,37.24 -30.63,67.3 -67.87,67.88l-0.01 0zm1601.85 -11.81c-1.53,5.57 -5.85,9.94 -11.4,11.54 -40.73,0.82 -80.5,0 -122.17,0l0 -132.76 133.57 0c0,40.99 0,81.18 0,121.22z"/>
  </g>
 </g>
</svg>
