<?xml version="1.0" encoding="UTF-8"?>
<!DOCTYPE svg PUBLIC "-//W3C//DTD SVG 1.1//EN" "http://www.w3.org/Graphics/SVG/1.1/DTD/svg11.dtd">
<!-- Creator: CorelDRAW -->
<svg xmlns="http://www.w3.org/2000/svg" xml:space="preserve" width="4.40126in" height="5.33407in" version="1.1" style="shape-rendering:geometricPrecision; text-rendering:geometricPrecision; image-rendering:optimizeQuality; fill-rule:evenodd; clip-rule:evenodd"
viewBox="0 0 1598.96 1937.85"
 xmlns:xlink="http://www.w3.org/1999/xlink"
 xmlns:xodm="http://www.corel.com/coreldraw/odm/2003">
 <defs>
  <style type="text/css">
   <![CDATA[
    .fil0 {fill:#E6E6E6}
   ]]>
  </style>
 </defs>
 <g id="Layer_x0020_1">
  <metadata id="CorelCorpID_0Corel-Layer"/>
  <g id="_2686084267024">
   <path class="fil0" d="M166.53 1101.4l1264.15 0 -121.09 219.54c-47.57,92.13 -115.23,199.29 -162.79,291.39 -7.96,15.42 -33.07,68.15 -45.4,68.15l-605.58 0c-11.64,0 -20.15,-21.48 -25.22,-31.55l-263.69 -474.37c-13.67,-25.62 -27.01,-47.91 -40.37,-73.17zm919.72 -314.14c63.62,0 148.33,23.98 177.89,68.13 -35.33,0 -70.65,0 -105.98,0 -33.8,-0 -79.48,-7.1 -79.48,26.49 0,40.55 49.97,30.28 90.84,30.28 75.92,0 327.36,-5.48 367.13,3.78 7.82,33.56 3.78,74.69 3.78,109.76 0,8.86 -6.28,15.14 -15.14,15.14l-1453.39 0c-24.57,0 -15.14,-53.01 -15.14,-105.98 0,-10.22 1.81,-10.44 3.78,-18.92 41.55,-9.68 620.86,-3.78 715.34,-3.78 22.13,0 192.34,5.77 207.5,-4.45 19.03,-12.83 17.01,-47.23 -10.94,-52.07 -9.82,-1.7 -37.32,-0.25 -48.95,-0.25 24.83,-37.07 107.11,-68.13 162.75,-68.13zm-919.72 -185.46c0,-221 263.77,-344.39 434.43,-184.64 16.66,15.6 42.64,54.64 52.61,76.08 45.24,97.33 23.4,209.69 -50.83,283.61 -50.06,49.85 -106.98,76.33 -179.06,78.35 -63.94,1.8 -133.95,-29.71 -178.62,-74.57 -47.62,-47.82 -78.53,-106.29 -78.53,-178.84zm-56.77 -18.92c0,74.54 5.73,111.21 41.79,173.94 11.41,19.85 22.08,35.9 38.6,52.23l48.29 46.33c-49.2,0 -98.43,0.2 -147.62,-0.01 -32.12,-0.14 -42.49,-1 -62.84,12.85 -11.74,7.99 -27.98,30.47 -27.98,47.72l0 121.12c0,45.01 50.65,64.34 98.41,64.34 17.65,33.36 37.87,64.93 55.5,99.68l28.5 50.98c5.48,9.02 7.89,15.08 13.2,24.65l28.9 50.58c5.92,10.65 8.55,16.9 14.67,26.97l28.28 51.21c9.37,18.48 19.01,32.56 28.97,50.51l141.59 255.82c16.95,37.58 -3.5,107.57 6.24,152.73 7.75,35.95 44.48,73.33 85.63,73.33l117.33 0c19.84,0 34.57,-36.23 10.69,-52.32 -9.64,-6.5 -10.36,-4.72 -25.56,-4.72 -144.9,0.05 -132.74,17.15 -132.74,-139.77l598.01 0c0,97.18 14.38,140.46 -56.63,140.18l-269.17 -0.44c-46.82,2.37 -30.09,57.07 -7.27,57.07l302.79 0c40.83,0 75.63,-35.83 84.87,-70.31 16.98,-63.34 -21.84,-110 18.92,-177.9l71.57 -129.02c78.7,-147.58 177.65,-310.95 256.11,-459.23 121.48,0 98.41,-77.45 98.41,-185.46 0,-18.68 -15.71,-38.38 -28.57,-47.13 -24.92,-16.96 -28.02,-13.53 -66.05,-13.43 -52.98,0.13 -105.98,0 -158.97,0 -3.73,-13.96 -10.48,-15.23 -19.77,-25.65 -95.42,-106.94 -251.11,-133.31 -380.18,-63.95 -22.52,12.1 -62.95,41.22 -78.58,61.47 -9.4,12.18 -17.34,14.14 -21.07,28.13l-238.45 0c7.62,-10.41 61.1,-49.24 85.83,-95.85 60.06,-113.2 59.99,-229.64 -11.59,-337.95 -15.12,-22.88 -31.43,-41.05 -52.06,-57.7 -79.91,-64.49 -123.8,-76.23 -230.35,-76.23 -142.88,0 -287.65,144.71 -287.65,295.22z"/>
   <path class="fil0" d="M779.68 310.36c0,73.34 46.47,201.43 89.09,209.91 16.85,3.35 52.6,-13.94 21.29,-55.32 -7.02,-9.28 -8.9,-12.55 -15.08,-22.79 -60.93,-100.81 -42.88,-227.48 43.75,-314.48 21.87,-21.96 44.48,-34.11 72.85,-48.27 115.53,-57.66 271.56,-0.93 330.73,119.8 33.55,68.45 33.41,154.61 1.23,223.52 -12.16,26.04 -33.6,53 -52.73,72.17 -63.11,63.27 -167.44,90.41 -257.52,58.68 -13.66,-4.81 -21.99,-9.48 -33.75,-5.67 -17.75,5.76 -48.42,44.44 21.19,63.69 120.6,33.36 230.77,5.11 319.27,-82.65 116.33,-115.36 115.68,-319.01 -0,-433.43 -56.98,-56.36 -128.3,-89.33 -202.09,-95.53l-51.08 0c-37.87,3.19 -75.67,13.53 -111.84,31.49 -98.5,48.91 -175.31,152.98 -175.31,278.87z"/>
   <path class="fil0" d="M995.42 302.79l30.28 0 0 71.91 -30.28 0 0 -71.91zm185.46 71.91l-94.62 0c0,-81.55 -11.57,-94.34 34.06,-124.9 0,20.47 6.44,31.04 22.97,33.81 53.53,8.98 48.95,-32.7 48.95,79.74 0,8.72 -2.63,11.36 -11.36,11.36zm-242.23 -87.05c0,170.25 -31.02,143.83 253.59,143.83 12.14,0 32,-11.16 38.88,-17.89 26.14,-25.57 17.89,-76.2 17.89,-125.93 0,-39.66 -27.84,-60.56 -68.13,-60.56 0.47,-20.98 6.94,-22.11 -2.97,-42.35 -22.01,-44.97 -66.99,-22.6 -99.22,19.64 -56.06,73.46 -68.88,15.98 -119.18,47.35 -10.92,6.81 -20.86,20.31 -20.86,35.91z"/>
   <path class="fil0" d="M779.68 1203.59c-65.92,15.36 -129.05,126.81 -8.88,186.76 68.16,34.01 95.93,22.48 95.93,74.39 0,50.6 -52.58,66.41 -102.82,49.83 -6.1,-2.01 -67.5,-45.5 -67.5,18.3 0,20.72 57.59,44.85 83.27,45.42 0,22.38 5,53.86 35.81,47.15 22.81,-4.97 24.75,-24.93 24.75,-50.94 92.69,-21.59 128.69,-165.75 21.19,-210.43 -45.99,-19.11 -96.89,-28.2 -96.89,-65.86 0,-27.16 23.83,-43.23 52.04,-40.83 36.56,3.11 49.6,29.48 65.29,29.48 32.87,0 38.02,-35.12 21.7,-51.98 -10.48,-10.83 -42.62,-30.83 -63.33,-31.29 0,-60.07 -39.62,-56.07 -54.84,-35.91 -8.7,11.52 -5.72,18.22 -5.72,35.91z"/>
   <path class="fil0" d="M317.93 586.65c0,-24.81 17.84,-42.21 40.09,-47.11 33.69,-7.42 33.78,20.61 65.88,20.61 24.55,0 29.82,-27.72 62.1,-20.61 22.25,4.9 40.09,22.3 40.09,47.11 0,31.49 -45.78,66.52 -74.75,95.57 -10,10.02 -16.6,21.64 -31.23,25.55 -16.37,-10.96 -40.19,-38.3 -55.83,-53.93 -16.66,-16.66 -46.36,-37.18 -46.36,-67.18zm-56.77 -11.36c0,80.09 34.53,92.37 101.23,159.93 69.28,70.17 116.44,2.78 158.98,-39.76 44.93,-44.93 61.5,-50.93 61.5,-120.17 0,-63.28 -73.24,-109.82 -136.49,-91.02 -7.67,2.28 -19.25,8.73 -23.23,9.02 -7.97,0.59 -19.13,-12.63 -67.37,-12.63 -45.69,0 -94.62,48.46 -94.62,94.62z"/>
  </g>
 </g>
</svg>
