<?xml version="1.0" encoding="UTF-8"?>
<!DOCTYPE svg PUBLIC "-//W3C//DTD SVG 1.1//EN" "http://www.w3.org/Graphics/SVG/1.1/DTD/svg11.dtd">
<!-- Creator: CorelDRAW -->
<svg xmlns="http://www.w3.org/2000/svg" xml:space="preserve" width="5.33407in" height="5.33407in" version="1.1" style="shape-rendering:geometricPrecision; text-rendering:geometricPrecision; image-rendering:optimizeQuality; fill-rule:evenodd; clip-rule:evenodd"
viewBox="0 0 1102.38 1102.38"
 xmlns:xlink="http://www.w3.org/1999/xlink"
 xmlns:xodm="http://www.corel.com/coreldraw/odm/2003">
 <defs>
  <style type="text/css">
   <![CDATA[
    .fil0 {fill:#E6E6E6}
   ]]>
  </style>
 </defs>
 <g id="Layer_x0020_1">
  <metadata id="CorelCorpID_0Corel-Layer"/>
  <g id="_2686337206176">
   <path class="fil0" d="M919.37 443.54l-45.21 0 0 -88.28c8.29,1.93 24.45,12.52 46.21,16.23 17.68,3.02 14.08,-7.42 14.08,54.82 0,9.94 -4.77,17.23 -15.07,17.23zm183.01 -232.07l0 27c-2.24,24.42 -10.74,48.72 -26.73,70.68 -15.79,21.7 -32.94,37.31 -57.93,49.72 -51.28,25.47 -51.63,0.56 -51.11,30.7 0.52,30.52 3.81,51.67 -9.66,70 -17.7,24.08 -50.5,18.4 -82.79,18.4l0 342.34c0,9.6 -8.72,19.38 -17.23,19.38 -24.67,0 -17.22,-44.43 -17.22,-68.9l0.01 -422.01c0.11,-22.2 1.93,-21.04 -9.12,-33.94 -34.84,-40.69 -39.9,-102.31 -18.01,-154.66 3.26,-7.79 8.83,-16.66 13.54,-23.06 5.36,-7.28 13.58,-13.18 13.58,-23.02 0,-22.32 -7.95,-42.07 -22.79,-56.88 -14.33,-14.29 -34.37,-24.94 -61.18,-24.94l-409.09 0c-43.91,0 -73.79,27.83 -82.38,64.03 -4.8,20.22 0.38,83.83 -1.57,108.24 -2.31,28.99 -34.47,21.82 -34.47,-0.02l0 -83.97c0,-36.7 11.86,-64.88 30.66,-83.45 10.06,-9.93 17.85,-17.88 31.04,-24.94 9.56,-5.12 30.2,-12.18 43.8,-12.18l432.77 0c28.11,0 55.1,15.09 69.47,29.57 36.1,36.39 27.63,45.5 36.03,63.01 5.89,-1.57 11.09,-5.74 17.48,-8.35 112.57,-45.92 204.45,35.82 212.9,127.24zm-152.87 94.27c32.51,0 29.97,-15.61 51.41,2.42 5.19,4.36 10.32,8.47 11.03,16.96 -8.75,2.04 -13.18,6.15 -22.81,9.49 -22.53,7.81 -52.93,8.01 -75.51,0.55 -10.1,-3.34 -15.5,-7.96 -24.41,-10.04 2.41,-10.35 12,-19.42 21.58,-23.82 10.19,-4.67 23.38,4.44 38.7,4.44zm-47.37 -79.66c0,-72.19 96.89,-62.65 96.89,-8.61l0 10.77c0,24.85 -21.09,43.06 -51.67,43.06 -23.16,0 -45.22,-22.12 -45.22,-45.21zm-34.45 -4.31c0,21.45 8.85,38.1 19.38,53.83 -0.2,0.28 -25.56,25.63 -25.84,25.84 -14.73,-27.84 -27.99,-32.4 -27.99,-83.97 0,-58.38 53.53,-111.96 111.96,-111.96l12.92 0c46.59,0 86.62,35.8 100.63,69.46 8.7,20.91 12.97,43.15 8.33,69.63 -3.51,20.01 -16.39,48.19 -29.29,56.83 -2.13,-7.96 -15.72,-21.56 -23.68,-23.68 10.72,-20.27 19.38,-24.86 19.38,-58.13 0,-63.15 -84.69,-110.42 -139.44,-55.47 -14.96,15.01 -26.35,34.34 -26.35,57.62z"/>
   <path class="fil0" d="M114.11 955.97c19.69,0 24.09,11.04 53.71,4.19 5.91,-1.37 11.42,-4.19 17.34,-4.19 11.36,0 25.67,15.89 27.99,25.84 -7.65,1.78 -14.65,6.28 -23.06,9.24 -50.81,17.89 -86.17,-6.1 -99.67,-9.24 0.58,-6.95 3.99,-11.79 8.23,-15.46 1.22,-1.06 15.41,-10.38 15.46,-10.38zm-114.11 -73.11l0 -12.64c2,-49.46 27.94,-98.31 84.68,-126.7 51.34,-25.69 51.61,-0.48 51.09,-30.73 -0.56,-32.48 -3.91,-50.23 9.65,-70.02 16.48,-24.04 51.83,-18.39 82.81,-18.39l0 -340.19c0,-9.6 8.72,-19.38 17.23,-19.38 24.67,0 17.22,44.43 17.22,68.9l-0.01 419.86c-0.11,22.2 -1.93,21.04 9.12,33.94 19.45,22.72 31.8,60.39 31.8,93.08 0,66.36 -40.91,93.1 -40.91,107.65 0,22.84 8.34,43.03 23.88,57.94 0.45,0.43 1.79,1.64 2.25,2.06 13.72,12.34 32.34,21.82 57.84,21.82l404.78 0c46.85,0 76.6,-25.1 86.24,-62.32 6.26,-24.15 -0.19,-80.03 2.02,-107.79 2.31,-28.99 34.47,-21.82 34.47,0.02 0,74.31 11.81,150.85 -61.7,190.21 -9.56,5.12 -30.2,12.18 -43.8,12.18l-434.92 0c-36.22,0 -76.1,-30.3 -90.46,-58.1 -5.88,-11.37 -9.59,-20.33 -12.89,-34.48 -5.61,1.5 -18.26,10.13 -34.85,14.67 -113.9,31.19 -191.89,-53.49 -195.53,-141.6zm155.02 45.12c-73.31,0 -62.22,-96.89 -8.61,-96.89 77.63,0 62.67,96.89 8.61,96.89zm-86.12 -51.67c0,27.87 6.41,36.62 19.38,55.98 -7.7,5.16 -21.07,16.04 -23.68,25.84 -12.05,-8.07 -25.15,-36.62 -28.95,-55.02 -5.22,-25.28 -0.66,-50.85 7.05,-70.23 14.83,-37.27 59.09,-70.68 97.26,-70.68l19.38 0c56.89,0 109.81,54.55 109.81,111.96 0,23.3 -0.79,29.87 -8.87,51.42 -6.3,16.81 -17.05,24.8 -19.12,32.56 -7.72,-5.66 -14.75,-20.72 -25.84,-23.68 1.11,-4.17 50.41,-69.87 -14.72,-120.92 -53.25,-41.74 -131.69,0.08 -131.69,62.79zm99.04 -152.87c0,-75.17 -10.44,-64.59 60.29,-64.59l0 88.28c-6.68,-1.56 -7.63,-2.88 -13.63,-5.74 -29.18,-13.93 -46.65,-7.38 -46.65,-17.94z"/>
   <path class="fil0" d="M398.32 768.65l0 -266.98c0,-10.64 8.74,-19.38 19.38,-19.38l266.98 0c10.64,0 19.38,8.74 19.38,19.38l0 266.98c0,10.64 -8.74,19.38 -19.38,19.38l-266.98 0c-10.64,0 -19.38,-8.74 -19.38,-19.38zm4.31 -316.5c-14.57,1.21 -33.24,19.87 -34.45,34.45 -20.79,0 -49.52,-3.22 -49.52,17.23 0,22.63 31.15,17.22 45.22,17.22l0 53.83c-17.07,0 -45.22,-5.58 -45.22,17.23 0,19.94 30.08,17.22 45.22,17.22l0 51.67c-9.21,0 -45.22,-2.44 -45.22,15.07 0,24.17 20.29,19.38 45.22,19.38l0 53.83c-14.07,0 -45.22,-5.4 -45.22,17.23 0,20.45 28.73,17.23 49.52,17.23 1.21,14.57 19.87,33.24 34.45,34.45 0,20.79 -3.22,49.52 17.23,49.52 21.4,0 17.22,-28.41 17.22,-45.21l53.83 0c0,18.29 -4.53,45.21 17.23,45.21 19.94,0 17.23,-30.08 17.23,-45.21l51.67 0c0,15.13 -2.72,45.21 17.23,45.21 21.76,0 17.23,-26.92 17.23,-45.21l53.83 0c0,14.07 -5.4,45.21 17.22,45.21 20.45,0 17.23,-28.73 17.23,-49.52 14.57,-1.21 33.24,-19.87 34.45,-34.45 20.79,0 49.52,3.22 49.52,-17.23 0,-22.63 -31.15,-17.23 -45.22,-17.23l0 -53.83c18.29,0 45.22,4.53 45.22,-17.22 0,-19.94 -30.08,-17.23 -45.22,-17.23l0 -51.67c15.13,0 45.22,2.72 45.22,-17.22 0,-21.76 -26.92,-17.23 -45.22,-17.23l0 -53.83c16.81,0 45.22,4.18 45.22,-17.22 0,-20.45 -28.73,-17.23 -49.52,-17.23 -1.21,-14.57 -19.87,-33.24 -34.45,-34.45 0,-20.79 3.22,-49.52 -17.23,-49.52 -22.63,0 -17.22,31.15 -17.22,45.21l-53.83 0c0,-17.07 5.58,-45.21 -17.23,-45.21 -19.94,0 -17.23,30.08 -17.23,45.21l-51.67 0c0,-9.95 0.92,-27.42 -3.17,-35.59 -8.1,-16.19 -31.28,-10.67 -31.28,7.6l0 27.99 -53.83 0c0,-14.07 5.4,-45.21 -17.22,-45.21 -20.45,0 -17.23,28.73 -17.23,49.52z"/>
   <path class="fil0" d="M376.79 260.52c0,-33.94 21.23,-51.67 55.98,-51.67l236.84 0c65.76,0 69.71,68.37 33.09,89.07 -14.67,8.3 -35.13,5.66 -56.78,5.66 -93.77,0 -57.21,2.86 -94.74,27.99 -37.16,-24.88 -1.13,-27.99 -94.74,-27.99 -20.48,0 -41.16,2.41 -55.37,-4.92 -12.03,-6.21 -24.3,-20.75 -24.3,-38.14zm-34.45 -4.31c0,44.02 36.1,80.79 79.59,81.89 25.91,0.66 54.48,-1.61 79.91,-0.24 28.77,1.55 33.18,59.04 73.59,17.94 6.64,-6.75 11.88,-16.65 23.07,-17.84 21.42,-2.27 56.7,0.38 79.82,0.16 47.71,-0.47 81.73,-40.7 81.73,-79.75 0,-42.46 -35.71,-81.82 -77.51,-81.82l-262.68 0c-40.45,0 -77.51,39.02 -77.51,79.66z"/>
   <path class="fil0" d="M521.05 600.71c3.34,14.32 18.27,42.72 19.38,55.98l-40.91 0c2.1,-9.03 6.54,-19.44 10.14,-28.62l10.6 -26c0.16,-0.29 0.49,-0.93 0.79,-1.36zm-77.51 109.81c0,17.57 23.74,26.88 33.64,3.49 2.28,-5.38 6.84,-17.72 7.27,-22.87l71.05 0c2,8.57 10.08,36.6 21.53,36.6 35.62,0 12.62,-38.27 4.56,-60.54l-33.45 -89.27c-8.1,-21.3 -10.06,-35.36 -29.23,-35.36 -10.36,0 -14.07,5.67 -17.29,12.86 -3,6.71 -5.82,14.97 -8.3,21.84 -5.37,14.92 -11.1,27.94 -16.67,43.62 -4.6,12.95 -33.1,82.92 -33.1,89.62z"/>
   <path class="fil0" d="M443.54 79.66c0,11.1 10.57,17.23 19.38,17.23l176.55 0c25.24,0 25.89,-34.45 2.15,-34.45l-180.86 0c-10.41,0 -17.23,6.81 -17.23,17.22z"/>
   <path class="fil0" d="M411.24 256.22c0,10.41 6.81,17.22 17.23,17.22l155.02 0c21.64,0 23.59,-32.3 0,-32.3l-159.33 0c-6.08,0 -12.92,8.98 -12.92,15.07z"/>
   <path class="fil0" d="M615.78 555.5l0 159.33c0,17.16 32.3,17.16 32.3,0l0 -159.33c0,-17.16 -32.3,-17.16 -32.3,0z"/>
   <path class="fil0" d="M486.6 994.73c0,7.17 -0.99,21.53 17.23,21.53l94.74 0c23.48,0 23.48,-34.45 0,-34.45l-94.74 0c-7.87,0 -17.23,5.94 -17.23,12.92z"/>
   <path class="fil0" d="M628.7 256.22c0,22.25 20.33,17.22 45.21,17.22 24.76,0 18.9,-32.3 4.31,-32.3 -29.08,0 -49.52,-5.03 -49.52,15.07z"/>
  </g>
 </g>
</svg>
