<?xml version="1.0" encoding="UTF-8"?>
<!DOCTYPE svg PUBLIC "-//W3C//DTD SVG 1.1//EN" "http://www.w3.org/Graphics/SVG/1.1/DTD/svg11.dtd">
<!-- Creator: CorelDRAW -->
<svg xmlns="http://www.w3.org/2000/svg" xml:space="preserve" width="2.66666in" height="2.65527in" version="1.1" style="shape-rendering:geometricPrecision; text-rendering:geometricPrecision; image-rendering:optimizeQuality; fill-rule:evenodd; clip-rule:evenodd"
viewBox="0 0 1562.63 1555.95"
 xmlns:xlink="http://www.w3.org/1999/xlink"
 xmlns:xodm="http://www.corel.com/coreldraw/odm/2003"
 data-name="Layer 1">
 <defs>
  <style type="text/css">
   <![CDATA[
    .fil0 {fill:#E6E6E6;fill-rule:nonzero}
   ]]>
  </style>
 </defs>
 <g id="Layer_x0020_1">
  <metadata id="CorelCorpID_0Corel-Layer"/>
  <g id="_2549412560800">
   <path class="fil0" d="M799.63 1487.1l-101.32 0c-8.69,-0 -15.75,-7.06 -15.75,-15.75 0,-8.7 7.05,-15.75 15.75,-15.75l101.32 0c8.7,-0 15.75,7.05 15.75,15.75 0,8.7 -7.05,15.75 -15.75,15.75l0 0z"/>
   <path class="fil0" d="M766.97 1222.42c-2.99,-6.71 -9.65,-11.03 -17,-11.03 -10.28,0 -18.62,8.34 -18.62,18.62 0,10.28 8.34,18.62 18.62,18.62 2.75,0 5.48,-0.61 7.97,-1.79 6.49,-3.1 10.63,-9.66 10.63,-16.86 0,-2.6 -0.55,-5.18 -1.6,-7.56l-0 0z"/>
   <path class="fil0" d="M705.44 1323.08l-106.09 -187.46c-1.33,-2.36 -2.03,-5.04 -2.03,-7.75 0,-8.71 7.06,-15.77 15.77,-15.77 5.69,0 10.94,3.07 13.73,8.02l98.95 174.76 86.06 -39.98 -100.84 -149.98c-1.51,-2.48 -2.31,-5.33 -2.31,-8.24 0,-8.73 7.08,-15.81 15.81,-15.81 5.04,0 9.78,2.4 12.75,6.46l111.21 165.3c1.68,2.57 2.58,5.59 2.58,8.68 0,6.12 -3.53,11.7 -9.05,14.33l-115.97 53.96c-2.28,1.7 -5.05,2.63 -7.89,2.63 -5.73,0 -10.8,-3.7 -12.55,-9.16l-0.13 0z"/>
   <path class="fil0" d="M1367.97 1259.72c-80.19,-0.02 -145.21,-65.08 -145.21,-145.28 0,-80.22 65.06,-145.28 145.28,-145.28 80.22,0 145.28,65.06 145.28,145.28 -0.09,80.21 -65.12,145.22 -145.34,145.28l-0 0zm0 -259.05c-62.83,-0 -113.78,50.95 -113.78,113.78 0,62.83 50.95,113.78 113.78,113.78 62.83,0 113.78,-50.95 113.78,-113.78 -0.06,-62.8 -50.98,-113.72 -113.78,-113.78l-0 0z"/>
   <path class="fil0" d="M767.83 352.66c-80.19,-0.02 -145.21,-65.07 -145.21,-145.27 0,-80.22 65.06,-145.28 145.28,-145.28 80.22,0 145.27,65.06 145.27,145.28 -0.12,80.2 -65.15,145.19 -145.34,145.28l0 -0zm0 -259.05c-62.83,0 -113.78,50.95 -113.78,113.78 0,62.83 50.95,113.78 113.78,113.78 62.82,0 113.77,-50.95 113.77,-113.78 -0.06,-62.8 -50.98,-113.73 -113.77,-113.78l-0 0z"/>
   <path class="fil0" d="M1343.37 1385.16l-51.95 0 0 -86.62c-0.52,-8.34 -7.43,-14.83 -15.78,-14.83 -8.35,0 -15.26,6.49 -15.78,14.83l0 86.62 -1025.47 0 0 -319.24c0,-8.73 -7.08,-15.81 -15.81,-15.81 -8.73,0 -15.81,7.08 -15.81,15.81l0 319.24 -51.89 0c-8.51,0.16 -15.37,7.05 -15.5,15.56 0.19,85.78 69.81,155.22 155.59,155.22 0,0 0,0 0,0l912.61 0c85.76,-0.02 155.36,-69.48 155.59,-155.24 -0,0.01 -0,0.01 -0,0.01 0,-8.7 -7.05,-15.75 -15.75,-15.75 -0.02,0 -0.04,0 -0.06,0l0 0.18zm-139.78 139.54l-912.61 0c-62.3,-0.03 -114.93,-46.27 -122.99,-108.04l1158.6 -0c-8.06,61.77 -60.69,108.01 -122.99,108.04l-0 0z"/>
   <path class="fil0" d="M549.36 945.55c-8.59,-0.24 -15.43,-7.27 -15.43,-15.87 0,-5.99 3.37,-11.47 8.72,-14.17l16.73 -7.81c2.09,-0.98 4.37,-1.49 6.68,-1.49 8.71,0 15.77,7.06 15.77,15.77 0,6.12 -3.54,11.69 -9.09,14.29l-16.73 7.75c-2.08,0.99 -4.35,1.52 -6.65,1.52l-0 0z"/>
   <path class="fil0" d="M566.82 988.58c-8.56,-0.27 -15.37,-7.29 -15.37,-15.86 0,-5.99 3.38,-11.47 8.72,-14.17l16.73 -7.81c2.08,-0.96 4.36,-1.46 6.65,-1.46 8.76,0 15.87,7.11 15.87,15.87 0,6.19 -3.6,11.81 -9.21,14.41l-16.42 7.51c-2.06,1 -4.33,1.52 -6.62,1.52 -0.01,0 -0.02,0 -0.03,0l-0.31 0z"/>
   <path class="fil0" d="M591.72 1030.76c-8.63,-0.14 -15.56,-7.18 -15.56,-15.81 0,-6.06 3.46,-11.58 8.91,-14.23l16.73 -7.75c2.27,-1.2 4.79,-1.82 7.35,-1.82 8.7,0 15.75,7.05 15.75,15.75 0,6.4 -3.87,12.16 -9.8,14.58l-16.91 7.82c-2.08,0.96 -4.35,1.46 -6.65,1.46l0.18 0z"/>
   <path class="fil0" d="M1232.52 695.9l-245.63 0c-27.31,-48.31 -60.18,-93.48 -97.69,-134.28 -28.81,-30.52 -82.34,-79.84 -117.68,-63.48 -10.53,5.81 -18.09,15.88 -20.73,27.64l-51.21 170.12 -359.04 0c-31.98,-31.74 -75.28,-49.56 -120.35,-49.56 -94.38,0 -170.91,76.54 -170.91,170.91 0,94.38 76.54,170.91 170.91,170.91 23.89,0 47.55,-5.03 69.38,-14.71l0.61 333.95c0,8.69 7.05,15.74 15.75,15.74l-0 0c8.71,-0.03 15.75,-7.1 15.75,-15.81 0,0 0,0 0,0l-0.55 -352.2c44.18,-32.03 70.44,-83.36 70.44,-137.95 0,-0.3 0,-0.55 0,-0.85l219.74 0c-23.5,20.6 -49.72,38.06 -77.82,51.74l-63.05 29.3c-38.27,17.9 -62.75,56.37 -62.75,98.63 0,60.11 48.75,108.86 108.86,108.86 15.93,0 31.68,-3.51 46.12,-10.25l63.05 -29.3c65.07,-30.52 172.8,-44.13 240.56,-15.02l162.12 69.65c25.76,11.6 48.47,-0.49 57.75,-25.94 16.79,-45.96 6.53,-154.19 -41.51,-277.55l129.04 0 0 491.01c0.52,8.33 7.43,14.82 15.78,14.82 8.35,0 15.26,-6.49 15.78,-14.83l0 -506.63c-0.03,-8.71 -7.11,-15.75 -15.81,-15.75 0,0 0,0 0,0l-157.85 0c-8.46,-19.53 -17.62,-38.76 -27.47,-57.68l228.35 0c0,0 0,0 0,0 15.11,0 27.38,12.24 27.41,27.35l0 82.22c0.03,8.7 7.1,15.75 15.81,15.75 0,0 0,0 0,0l0 0c0,-0 0,-0 0,-0 8.71,0 15.78,-7.04 15.81,-15.75l0 -82.22c-0.09,-32.49 -26.47,-58.81 -58.97,-58.84l0 0zm-1012.29 260.94c-76.8,-0.26 -138.92,-62.62 -138.92,-139.42 0,-76.98 62.43,-139.41 139.42,-139.41 76.98,0 139.42,62.43 139.42,139.41 -0.19,77.04 -62.73,139.41 -139.78,139.41 -0.03,0 -0.09,0 -0.12,0l-0 0zm168.23 -171.77c-3.99,-20.42 -11.72,-40.03 -22.71,-57.69l320.1 0c-11.45,20.82 -25.57,40.29 -41.81,57.67l-255.58 0.01zm57.93 243.8c-19.35,-40.59 2.44,-87.78 42.73,-105.05 11.75,50.75 34.17,98.55 65.58,140.09 31.41,41.53 -72.48,40.23 -108.31,-35.03zm137.46 21.43c-32.26,-41.13 -54.71,-89.25 -65.54,-140.38 -10.83,-51.13 51.33,-24.78 62.99,-32.11 11.76,52.54 34.94,101.98 67.73,144.7 -13.11,4.53 -65.18,27.79 -65.18,27.79zm295.13 -28.69c-56.34,-24.42 -132.39,-22.65 -196.91,-7.81 -36.94,-44.63 -61.93,-98.06 -72.49,-155.03 48.4,-36.62 94.73,-87.47 115.98,-141.43 12.21,-31.07 19.96,-64.28 29.6,-96.2 14.16,67.63 45.66,152.6 80.57,227.01 28.08,59.94 75.32,147.11 122.93,207.54l-79.68 -34.07zm8.91 -197.89c-2.6,-5.55 -8.18,-9.09 -14.31,-9.09 -2.29,0 -4.55,0.5 -6.63,1.46l-9.16 4.27 -8.61 -18.31 27.77 -12.88c4.77,-2.23 9.99,-3.4 15.26,-3.4 19.86,0 35.96,16.1 35.96,35.96 0,13.95 -8.07,26.65 -20.7,32.56l-27.77 12.94 -8.61 -18.31 9.16 -4.27c5.56,-2.56 9.13,-8.12 9.13,-14.25 0,-2.31 -0.51,-4.6 -1.49,-6.69 -3.66,-7.87 3.72,7.87 0,0l-0 0zm162.43 269.49c-3.54,1.71 -25.76,-3.72 -69.77,-60.19 -32.5,-43.29 -61.79,-89.5 -86.53,-137.69l26.8 -12.21c25.58,-10.31 42.33,-35.1 42.33,-62.65 0,-37.28 -30.23,-67.51 -67.51,-67.51 -11.16,0 -22.15,2.77 -31.98,8.05l-26.8 12.21c-49.44,-120.31 -66.04,-211.32 -54.94,-240.93 1.1,-3.11 2.38,-6.1 6.1,-6.1 9.64,0 37.36,12.7 78.68,56.83 46.7,49.87 91.56,118.11 126.17,192.21 61.04,130.81 80.82,261.86 63.91,308.25 -2.44,6.65 -5.01,9.34 -6.1,9.83 -3.91,1.59 0.8,-0.61 -0.36,-0.12z"/>
   <path class="fil0" d="M1542.36 257.75c0,0 0,0 0,0 8.71,0 15.78,-7.04 15.81,-15.75l-0 -156.63c-0.03,-8.71 -7.1,-15.75 -15.81,-15.75 0,0 0,0 0,0l-508.22 0c-8.68,0.03 -15.72,7.06 -15.75,15.75l0 408.97c0.16,8.65 7.16,15.62 15.81,15.75l508.4 -0c0.02,0 0.04,0 0.06,0 8.7,0 15.75,-7.05 15.75,-15.75 0,0 0,0 0,0l0 -123.18c-0.34,-9.28 -7.59,-16.84 -16.85,-17.58l-491.68 0 0 -252.4 476.6 0 0 140.82c0.03,8.71 7.1,15.75 15.81,15.75 0.02,0 0.04,0 0.06,0zm-15.81 127.39l0 93.27 -476.66 0 0 -93.27 476.66 0z"/>
   <path class="fil0" d="M1120.82 447.22l-31.62 0c-0.33,0.02 -0.66,0.03 -0.98,0.03 -8.73,0 -15.81,-7.08 -15.81,-15.81 0,-8.73 7.08,-15.81 15.81,-15.81 0.33,0 0.66,0.01 0.98,0.03l31.62 0c0.33,-0.02 0.66,-0.03 0.98,-0.03 8.73,0 15.81,7.08 15.81,15.81 0,8.73 -7.08,15.81 -15.81,15.81 -0.33,0 -0.66,-0.01 -0.98,-0.03l0 -0z"/>
   <path class="fil0" d="M1487.85 415.66l0 0c0.02,-0.32 0.03,-0.66 0.03,-0.98 0,-8.73 -7.08,-15.81 -15.81,-15.81 -8.73,0 -15.81,7.08 -15.81,15.81 0,0.33 0.01,0.66 0.03,0.98l0 -0c-0.32,-0.02 -0.66,-0.03 -0.98,-0.03 -8.73,0 -15.81,7.08 -15.81,15.81 0,8.73 7.08,15.81 15.81,15.81 0.33,0 0.66,-0.01 0.98,-0.03l-0 -0c-0.02,0.33 -0.03,0.66 -0.03,0.98 0,8.73 7.08,15.81 15.81,15.81 8.73,0 15.81,-7.08 15.81,-15.81 0,-0.33 -0.01,-0.66 -0.03,-0.98l-0 0c8.34,-0.52 14.83,-7.43 14.83,-15.78 0,-8.35 -6.49,-15.26 -14.83,-15.78l-0 0z"/>
   <path class="fil0" d="M1399.77 415.66l-129.71 0c-5.11,-7.2 -13.41,-11.49 -22.25,-11.49 -8.84,0 -17.13,4.29 -22.25,11.49l-49.63 0c-0.32,-0.02 -0.66,-0.03 -0.98,-0.03 -8.73,0 -15.81,7.08 -15.81,15.81 0,8.73 7.08,15.81 15.81,15.81 0.33,0 0.66,-0.01 0.98,-0.03l49.62 -0c5.11,7.2 13.41,11.49 22.25,11.49 8.84,0 17.13,-4.29 22.25,-11.49l129.71 0c0.32,0.02 0.66,0.03 0.98,0.03 8.73,0 15.81,-7.08 15.81,-15.81 0,-8.73 -7.08,-15.81 -15.81,-15.81 -0.33,0 -0.66,0.01 -0.98,0.03l0 0z"/>
   <path class="fil0" d="M1321.83 303.83l-105.6 -55.73c-7.67,-4.23 -12.44,-12.3 -12.44,-21.06 0,-8.76 4.77,-16.83 12.43,-21.06l105.6 -55.73c3.3,-1.58 6.92,-2.41 10.58,-2.41 13.12,0 23.89,10.36 24.4,23.47l0 111.46c0,15.87 -13.06,29.48 -34.97,21.06zm-77.95 -76.79l81.37 42.73 0 -85.7 -81.37 42.97z"/>
   <ellipse class="fil0" cx="1275.68" cy="900.99" rx="20.26" ry="20.2"/>
   <ellipse class="fil0" cx="1542.36" cy="305.79" rx="20.26" ry="20.2"/>
   <path class="fil0" d="M136 563.8l-120.19 0c-0.02,0 -0.04,0 -0.06,0 -8.7,0 -15.75,-7.05 -15.75,-15.75 0,0 0,0 0,0l-0 -310.39c0,0 0,0 0,0 0,-8.7 7.05,-15.75 15.75,-15.75 0.02,0 0.04,0 0.06,0l120.18 0c0.02,-0 0.05,-0 0.06,-0 8.66,0 15.69,7.02 15.69,15.69 0,0.02 0,0.04 0,0.06l-0 310.39c0,0.02 0,0.04 0,0.06 0,8.66 -7.02,15.69 -15.69,15.69 -0.02,0 -0.04,0 -0.06,0l-0 0zm-104.44 -31.5l88.63 0 0 -279.14 -88.63 0 0 279.14z"/>
   <path class="fil0" d="M441.02 572.04l-202.35 0c-8.69,-0 -15.75,-7.05 -15.75,-15.75 0,-8.7 7.05,-15.75 15.75,-15.75l202.35 0c0.4,0.02 0.8,0.03 1.2,0.03 13.04,0 23.62,-10.58 23.62,-23.62 0,-13.04 -10.58,-23.62 -23.62,-23.62 -0.4,0 -0.81,0.01 -1.2,0.03l-46.15 -0c-8.76,0 -15.87,-7.11 -15.87,-15.87 0,-8.76 7.11,-15.87 15.87,-15.87l68.36 0c12.97,-0.03 23.47,-10.54 23.5,-23.5 -0.03,-13.1 -10.65,-23.71 -23.75,-23.74l-54.33 0c-8.51,-0.12 -15.48,-6.82 -15.93,-15.32 0,-0.14 -0,-0.29 -0,-0.43 0,-8.74 7.02,-15.86 15.75,-15.99l76.91 -0c12.98,0 23.5,-10.52 23.5,-23.5 -0.03,-13.09 -10.66,-23.68 -23.74,-23.68 0,0 0,0 0,0l-71.79 0c-8.69,0 -15.75,-7.05 -15.75,-15.75 -0,-0.02 -0,-0.04 -0,-0.06 0,-8.73 7.02,-15.83 15.75,-15.93l94.12 0c0,0 0,0 0,0 12.99,0 23.53,-10.51 23.56,-23.5 -0.06,-13.03 -10.58,-23.61 -23.62,-23.74l-203.69 -0.37c-0.42,0.03 -0.84,0.05 -1.25,0.05 -0.42,0 -0.84,-0.02 -1.25,-0.05 -13.75,-1.2 -24.31,-12.71 -24.31,-26.51 0,-2.57 0.38,-5.15 1.11,-7.61 0.19,-0.81 0.43,-1.61 0.73,-2.38 7.41,-18.62 13.86,-37.84 18.98,-57.18 8.55,-38.94 -3.42,-82.77 -32.17,-119.52 -15.32,60.41 -34.61,110.34 -56.58,148.31 -2.81,4.89 -8.03,7.9 -13.67,7.9 -8.71,0 -15.78,-7.07 -15.78,-15.78 0,-2.76 0.73,-5.48 2.11,-7.87 23.25,-40.1 43.03,-95.04 58.84,-163.4 4.58,-19.78 30.09,-11.6 39.55,-1.16 41.87,46.27 60,105.3 48.47,157.97 -4.91,18.93 -11.12,37.6 -18.31,55.76l196.85 0.37c30.31,0.37 54.75,24.96 54.94,55.28 0,0.01 0,0.03 0,0.04 0,20.86 -11.83,39.95 -30.52,49.22 5.66,8.83 8.67,19.12 8.67,29.62 0,20.99 -11.96,40.15 -30.83,49.36 5.64,8.82 8.64,19.1 8.64,29.58 0,20.98 -11.96,40.14 -30.8,49.35 5.67,8.85 8.7,19.15 8.7,29.66 0,30.34 -24.6,54.94 -54.94,54.94 -0.07,0 -0.15,0 -0.21,0l0.3 0z"/>
   <ellipse class="fil0" cx="75.87" cy="467.85" rx="22.16" ry="22.1"/>
   <path class="fil0" d="M203.2 786.41c0,-30.52 -15.2,-49.38 -39.68,-49.38 -24.48,0 -41.02,21.12 -41.02,51.45 0,34.37 20.2,49.75 39.86,49.75 19.65,0 40.84,-15.99 40.84,-51.82zm-40.35 28.32c-12.21,0 -13.37,-19.17 -13.18,-27.16 0,-10.19 2.75,-27.41 13.18,-27.41 11.42,0 13.12,16.91 13.12,26.98 0,8.49 -1.28,27.59 -13.12,27.59z"/>
   <polygon class="fil0" points="255.03,737.04 162.61,899.71 188.37,899.71 280.79,737.04 "/>
   <path class="fil0" d="M278.53 797.58c-20.39,0 -41.02,15.93 -41.02,51.64 0.3,34.24 20.26,49.56 39.92,49.56 19.66,0 40.53,-15.99 40.53,-51.82 0,-30.46 -15.08,-49.38 -39.43,-49.38zm-0.67 78.19c-11.84,0 -13.49,-18.92 -13.43,-27.16 0,-13.18 4.21,-27.41 13.43,-27.41 11.9,0 13.18,18.86 13.18,26.92 0,8.06 -1.28,27.65 -13.18,27.65z"/>
   <path class="fil0" d="M1357.47 1085.02c0,-5.13 3.72,-10.62 14.1,-10.62 8.54,0.35 16.85,3.04 23.99,7.75l7.38 -19.35c-6.82,-4.51 -14.64,-7.32 -22.77,-8.18l0 -17.03 -19.65 0 0 18.31c-14.97,3.01 -25.86,15.99 -26.25,31.25 0,18.98 14.95,27.47 31.13,33.82 14.83,6.1 16.85,11.54 16.85,16.6 0,7.63 -6.59,12.7 -16.36,12.7 -9.81,-0.38 -19.28,-3.78 -27.1,-9.7l-7.08 19.66c7.67,5.92 16.94,9.43 26.61,10.07l0 18.31 19.65 0 0 -19.59c15.9,-2.71 27.53,-16.49 27.53,-32.62 0,-0.07 0,-0.15 0,-0.23 0,-20.81 -15.5,-29.91 -29.18,-35.53 -16.11,-6.53 -18.86,-10.07 -18.86,-15.62z"/>
   <path class="fil0" d="M773.99 194.82c-16.11,-6.65 -18.8,-10.25 -18.8,-15.75 0,-5.49 3.66,-10.62 14.04,-10.62 8.65,0.31 17.06,3 24.29,7.75l7.38 -19.35c-6.82,-4.51 -14.64,-7.32 -22.77,-8.18l0 -17.09 -19.65 -0 0 18.31c-14.97,3.04 -25.87,16.04 -26.25,31.32 0,18.98 14.95,27.47 31.13,33.75 14.83,6.1 16.85,11.6 16.85,16.66 0,7.57 -6.59,12.7 -16.36,12.7 -9.81,-0.4 -19.28,-3.82 -27.1,-9.77l-7.02 19.72c7.65,5.91 16.91,9.4 26.55,10.01l0 18.31 19.65 -0 0 -19.41c15.9,-2.7 27.53,-16.48 27.53,-32.61 0,-0.07 0,-0.15 0,-0.23 0,-20.88 -15.5,-29.97 -29.18,-35.53 -16.11,-6.65 13.67,5.56 0,0l-0.3 0z"/>
  </g>
 </g>
</svg>
