<svg id="Layer_1" data-name="Layer 1" xmlns="http://www.w3.org/2000/svg" viewBox="0 0 256 256"><defs><style>.cls-1{fill:#aab8dd;}</style></defs><path class="cls-1" d="M131,244.15h-16.6a2.58,2.58,0,1,1,0-5.16H131a2.58,2.58,0,1,1,0,5.16Z"/><path class="cls-1" d="M125.65,200.79a3.05,3.05,0,1,0-1.48,4A3.06,3.06,0,0,0,125.65,200.79Z"/><path class="cls-1" d="M115.57,217.28,98.19,186.57a2.58,2.58,0,0,1,4.5-2.54l16.21,28.63L133,206.11l-16.52-24.57a2.59,2.59,0,0,1,4.3-2.88L139,205.74a2.6,2.6,0,0,1-1.06,3.77l-19,8.84a2.16,2.16,0,0,1-3.35-1.07Z"/><path class="cls-1" d="M224.11,206.9a23.8,23.8,0,1,1,23.81-23.8A23.83,23.83,0,0,1,224.11,206.9Zm0-42.44a18.64,18.64,0,1,0,18.64,18.64,18.66,18.66,0,0,0-18.64-18.64Z"/><path class="cls-1" d="M125.79,58.3A23.8,23.8,0,1,1,149.6,34.5,23.84,23.84,0,0,1,125.79,58.3Zm0-42.44A18.64,18.64,0,1,0,144.43,34.5a18.66,18.66,0,0,0-18.64-18.64Z"/><path class="cls-1" d="M220.08,227.45h-8.51V213.26a2.59,2.59,0,0,0-5.17,0v14.19h-168v-52.3a2.59,2.59,0,0,0-5.18,0v52.3h-8.5A2.59,2.59,0,0,0,22.18,230a25.49,25.49,0,0,0,25.49,25.43H197.18A25.5,25.5,0,0,0,222.67,230a2.58,2.58,0,0,0-2.59-2.58Zm-22.9,22.86H47.67a20.33,20.33,0,0,1-20.15-17.7H217.33A20.33,20.33,0,0,1,197.18,250.31Z"/><path class="cls-1" d="M90,155.43a2.6,2.6,0,0,1-1.1-4.92l2.74-1.28a2.58,2.58,0,1,1,2.19,4.68l-2.74,1.27a2.55,2.55,0,0,1-1.09.25Z"/><path class="cls-1" d="M92.86,162.48a2.6,2.6,0,0,1-1.09-4.92l2.74-1.28A2.58,2.58,0,1,1,96.69,161L94,162.23a2.48,2.48,0,0,1-1.09.25Z"/><path class="cls-1" d="M96.94,169.39a2.59,2.59,0,0,1-1.09-4.92l2.74-1.27a2.58,2.58,0,1,1,2.18,4.67L98,169.15a2.62,2.62,0,0,1-1.09.24Z"/><path class="cls-1" d="M201.92,114.53H161.68a119.55,119.55,0,0,0-16-22c-4.72-5-13.49-13.08-19.28-10.4A6.9,6.9,0,0,0,123,86.66l-8.39,27.87H55.79A28,28,0,1,0,47.44,160l.1,54.71a2.58,2.58,0,0,0,2.58,2.58h0a2.59,2.59,0,0,0,2.58-2.59L52.61,157a27.92,27.92,0,0,0,11.54-22.6c0-.05,0-.09,0-.14h36a57.4,57.4,0,0,1-12.75,8.48l-10.33,4.8a17.83,17.83,0,1,0,15.11,32.31l10.33-4.8c10.66-5,28.31-7.23,39.41-2.46L168.48,184c4.22,1.9,7.94-.08,9.46-4.25,2.75-7.53,1.07-25.26-6.8-45.47h21.14v80.44a2.59,2.59,0,0,0,5.17,0v-83a2.59,2.59,0,0,0-2.59-2.58H169q-2.08-4.8-4.5-9.45h37.41a4.49,4.49,0,0,1,4.49,4.48v13.47a2.59,2.59,0,0,0,2.59,2.58h0a2.59,2.59,0,0,0,2.59-2.58V124.17A9.67,9.67,0,0,0,201.92,114.53ZM36.08,157.28A22.84,22.84,0,1,1,59,134.44,22.9,22.9,0,0,1,36.08,157.28Zm27.56-28.14a28,28,0,0,0-3.72-9.45h52.44a47.15,47.15,0,0,1-6.85,9.45Zm9.49,39.94c-3.17-6.65.4-14.38,7-17.21a60.91,60.91,0,0,0,10.74,22.95S79,181.41,73.13,169.08Zm22.52,3.51a56.1,56.1,0,0,1-10.74-23s8.41-4.06,10.32-5.26a60.86,60.86,0,0,0,11.1,23.71C104.18,168.78,95.65,172.59,95.65,172.59Zm48.35-4.7c-9.23-4-21.69-3.71-32.26-1.28a55.8,55.8,0,0,1-11.88-25.4c7.93-6,15.52-14.33,19-23.17,2-5.09,3.27-10.53,4.85-15.76,2.32,11.08,7.48,25,13.2,37.19,4.6,9.82,12.34,24.1,20.14,34Zm1.46-32.42a2.59,2.59,0,0,0-3.43-1.25l-1.5.7-1.41-3,4.55-2.11a5.89,5.89,0,1,1,5,10.67l-4.55,2.12-1.41-3,1.5-.7a2.57,2.57,0,0,0,1.25-3.43c-.6-1.29.61,1.29,0,0Zm26.61,44.15c-.58.28-4.22-.61-11.43-9.86a156.58,156.58,0,0,1-14.17-22.56l4.39-2a11.06,11.06,0,1,0-9.37-20l-4.39,2c-8.1-19.71-10.82-34.62-9-39.47.18-.51.39-1,1-1,1.58,0,6.12,2.08,12.89,9.31,7.65,8.17,15,19.35,20.67,31.49,10,21.43,13.24,42.9,10.47,50.5-.4,1.09-.82,1.53-1,1.61C171.49,179.9,172.26,179.54,172.07,179.62Z"/><path class="cls-1" d="M252.68,42.75a2.59,2.59,0,0,0,2.59-2.58V14.51a2.59,2.59,0,0,0-2.59-2.58H169.42a2.59,2.59,0,0,0-2.58,2.58l0,67a2.63,2.63,0,0,0,2.59,2.58h83.29a2.58,2.58,0,0,0,2.59-2.58V61.33a3,3,0,0,0-2.76-2.88H172l0-41.35h78.08V40.17A2.59,2.59,0,0,0,252.68,42.75Zm-2.59,20.87V78.9H172V63.62Z"/><path class="cls-1" d="M183.62,73.79h-5.18a2.59,2.59,0,1,1,0-5.17h5.18a2.59,2.59,0,1,1,0,5.17Z"/><path class="cls-1" d="M243.75,68.62h0a2.59,2.59,0,1,0-5.17,0h0a2.59,2.59,0,1,0,0,5.17h0a2.59,2.59,0,1,0,5.17,0h0a2.59,2.59,0,0,0,0-5.17Z"/><path class="cls-1" d="M229.32,68.62H208.07a4.47,4.47,0,0,0-7.29,0h-8.13a2.59,2.59,0,1,0,0,5.17h8.13a4.47,4.47,0,0,0,7.29,0h21.25a2.59,2.59,0,1,0,0-5.17Z"/><path class="cls-1" d="M216.55,50.3l-17.3-9.13a3.94,3.94,0,0,1,0-6.9l17.3-9.13a4,4,0,0,1,5.73,3.45V46.85C222.28,49.45,220.14,51.68,216.55,50.3ZM203.78,37.72l13.33,7V30.68Z"/><ellipse class="cls-1" cx="208.99" cy="148.13" rx="3.32" ry="3.31"/><ellipse class="cls-1" cx="252.68" cy="50.62" rx="3.32" ry="3.31"/><path class="cls-1" d="M22.28,92.89H2.59A2.58,2.58,0,0,1,0,90.31V39.46a2.58,2.58,0,0,1,2.59-2.58H22.28a2.57,2.57,0,0,1,2.58,2.58V90.31A2.57,2.57,0,0,1,22.28,92.89ZM5.17,87.73H19.69V42H5.17Z"/><path class="cls-1" d="M72.25,94.24H39.1a2.58,2.58,0,1,1,0-5.16H72.25a3.87,3.87,0,1,0,0-7.73H64.69a2.6,2.6,0,0,1,0-5.2h11.2a3.86,3.86,0,0,0,3.85-3.85,3.9,3.9,0,0,0-3.89-3.89h-8.9a2.65,2.65,0,0,1-2.61-2.51,2.62,2.62,0,0,1,2.58-2.69h12.6a3.85,3.85,0,0,0,3.85-3.85,3.89,3.89,0,0,0-3.89-3.88H67.72a2.58,2.58,0,0,1-2.58-2.58,2.61,2.61,0,0,1,2.58-2.62H83.14A3.86,3.86,0,0,0,87,46.43a3.91,3.91,0,0,0-3.87-3.89l-33.37-.06a2.71,2.71,0,0,1-.41,0,4.36,4.36,0,0,1-3.8-5.59,2.91,2.91,0,0,1,.12-.39,80.83,80.83,0,0,0,3.11-9.37c1.4-6.38-.56-13.56-5.27-19.58C41,17.45,37.84,25.63,34.24,31.85a2.58,2.58,0,0,1-4.48-2.58C33.57,22.7,36.81,13.7,39.4,2.5c.75-3.24,4.93-1.9,6.48-.19,6.86,7.58,9.83,17.25,7.94,25.88a77.82,77.82,0,0,1-3,9.13l32.25.06a9.12,9.12,0,0,1,9,9.06,9,9,0,0,1-5,8.07,9,9,0,0,1-3.63,12.94,9,9,0,0,1-3.63,12.93,9,9,0,0,1-7.61,13.86Z"/><ellipse class="cls-1" cx="12.43" cy="77.17" rx="3.63" ry="3.62"/><path class="cls-1" d="M33.29,129.36c0-5-2.49-8.09-6.5-8.09s-6.72,3.46-6.72,8.43c0,5.63,3.31,8.15,6.53,8.15S33.29,135.23,33.29,129.36ZM26.68,134c-2,0-2.19-3.14-2.16-4.45,0-1.67.45-4.49,2.16-4.49,1.87,0,2.15,2.77,2.15,4.42C28.83,130.87,28.62,134,26.68,134Z"/><path class="cls-1" d="M41.78,121.27,26.64,147.92h4.22L46,121.27Z"/><path class="cls-1" d="M45.63,131.19c-3.34,0-6.72,2.61-6.72,8.46.05,5.61,3.32,8.12,6.54,8.12s6.64-2.62,6.64-8.49C52.09,134.29,49.62,131.19,45.63,131.19ZM45.52,144c-1.94,0-2.21-3.1-2.2-4.45,0-2.16.69-4.49,2.2-4.49,1.95,0,2.16,3.09,2.16,4.41S47.47,144,45.52,144Z"/><path class="cls-1" d="M222.39,178.28c0-.84.61-1.74,2.31-1.74a7.73,7.73,0,0,1,3.93,1.27l1.21-3.17a8.36,8.36,0,0,0-3.73-1.34v-2.79h-3.22v3a5.36,5.36,0,0,0-4.3,5.12c0,3.11,2.45,4.5,5.1,5.54,2.43,1,2.76,1.89,2.76,2.72,0,1.25-1.08,2.08-2.68,2.08a7.87,7.87,0,0,1-4.44-1.59l-1.16,3.22a8,8,0,0,0,4.36,1.65v3h3.22v-3.21a5.42,5.42,0,0,0,4.51-5.38c0-3.41-2.54-4.9-4.78-5.82C222.84,179.77,222.39,179.19,222.39,178.28Z"/><path class="cls-1" d="M126.8,32.44c-2.64-1.09-3.08-1.68-3.08-2.58s.6-1.74,2.3-1.74A7.73,7.73,0,0,1,130,29.39l1.21-3.17a8.36,8.36,0,0,0-3.73-1.34v-2.8h-3.22v3a5.37,5.37,0,0,0-4.3,5.13c0,3.11,2.45,4.5,5.1,5.53,2.43,1,2.76,1.9,2.76,2.73,0,1.24-1.08,2.08-2.68,2.08a7.88,7.88,0,0,1-4.44-1.6l-1.15,3.23a7.94,7.94,0,0,0,4.35,1.64v3h3.22V43.64a5.42,5.42,0,0,0,4.51-5.38c0-3.42-2.54-4.91-4.78-5.82-2.64-1.09,2.24.91,0,0Z"/></svg>