<svg id="Layer_1" data-name="Layer 1" xmlns="http://www.w3.org/2000/svg" viewBox="0 0 256 256"><defs><style>.cls-1{fill:#aab8dd;}</style></defs><path class="cls-1" d="M184.11,38.76A33.22,33.22,0,1,0,217.2,72.05,33.24,33.24,0,0,0,184.11,38.76Zm0,58.94A25.72,25.72,0,1,1,209.7,71.9,25.74,25.74,0,0,1,184.08,97.7Zm71.41-32c-.88-5.57-4.6-9.1-10-10.71a48.61,48.61,0,0,0-5.16-.79,6,6,0,0,1-3.77-9.77c.36-.46.77-.88,1.15-1.32a14.62,14.62,0,0,0-.45-19.6c-1.41-1.53-2.91-3-4.4-4.43-5.95-5.8-13.95-6.09-20.24-.63-2.19,1.9-4.45,3-7.27,1.81s-3.65-3.59-3.83-6.45c-.39-6.06-3.59-10.22-9-12.72-1-.45-2-.74-3-1.11h-11c-.54.2-1.07.41-1.61.58a14.6,14.6,0,0,0-10.45,13.24c-.18,2.86-1,5.28-3.83,6.46s-5.08.1-7.27-1.8a14.43,14.43,0,0,0-20.11.52c-2.54,2.46-4.89,5.12-7.26,7.62a74.35,74.35,0,0,0-7.54-3.07,31.65,31.65,0,0,0-8.3-1.54c-11.91-.19-23.83-.26-35.74-.08-7.15.1-12.27,3.83-15.28,10.25a3.47,3.47,0,0,1-3.36,2.29A17.27,17.27,0,0,0,41.88,50.63c-.15,3,1,4.73,3.35,4.9s3.73-1.25,4.12-4.29c.7-5.62,4-8.91,9.58-9.35,4.23-.33,7.18-2.2,8.81-6.21a9.44,9.44,0,0,1,9.31-6.31c11.41,0,22.83-.2,34.24.12,14.07.39,25.63,12.05,26.26,26.17.23,5.16-.25,10.36.23,15.48.43,4.6-.73,7.54-5.44,8.71A54.74,54.74,0,0,0,126.66,82c0-5.6-.27-10.59,0-15.54.73-11.27-8.95-20.2-21.49-16.63a38.35,38.35,0,0,1-15.54,1.65c-3.53-.46-7-1.54-10.49-2.16-10-1.77-18.54,5.14-18.83,15.27-.11,4.08,0,8.16,0,12.25,0,.7-.12,1.4-.18,2.07L49.28,76.69c0-2.3.09-4.62,0-6.93-.13-2.47-1.56-3.84-3.73-3.84S42,67.29,41.84,69.76c-.09,1.75-.1,3.5,0,5.25A7.34,7.34,0,0,1,40,80.69a10.15,10.15,0,0,0-2.05,5c-.38,2.53-.14,5.15-.29,7.72C37.23,101.26,41.47,105.92,48,107c.13,0,.24.2.36.32,1.63,12,7,21.91,16.69,29.36a3.91,3.91,0,0,1,1.21,2.7c.13,4.16.07,8.33.05,12.49,0,3.44-.75,4-4.17,4.63-11,2.07-22.14,3.87-33,6.6C15,166.68,5.34,175.39,1.26,189.7.77,191.44.42,193.22,0,195v44.5c.11.11.28.22.32.35C3.6,251.07,10.15,256,21.83,256h82.48c20.92,0,41.83,0,62.74,0A19.64,19.64,0,0,0,187,236.21c.05-3.92,0-7.83,0-11.75,0-2.9-1.46-4.56-3.84-4.5s-3.62,1.65-3.64,4.43c0,4,0,8,0,12a11.91,11.91,0,0,1-10.39,11.9c-3.68.42-7.44.07-11.45.07v-2.8c0-5.58,0-11.16,0-16.75,0-2.89-1.28-4.38-3.6-4.44s-3.81,1.55-3.88,4.48c0,2.25,0,4.5,0,6.75v12.71h-39l-4.67-34.54c-.67-5-1.38-9.89-2-14.85-.31-2.57,2.61-6.53,4.58-6.27a10.94,10.94,0,0,0,9-2.89c4.54-3.92,9-7.9,13.67-11.7,3.74-3.06,6.94-6.31,6.26-11.89,9.05,1.77,17.88,3.17,25.9,7.26a27.18,27.18,0,0,1,14.92,19.85c.79,4.12.48,8.45.69,12.69a3.74,3.74,0,1,0,7.47,0c.08-1.82,0-3.66,0-5.49,0-17.67-9.53-30.94-26.33-36.54-11.66-3.88-23.75-5.78-35.87-7.45-3.31-.45-4.06-1.17-4.08-4.43,0-4.16-.11-8.33.06-12.49a4.58,4.58,0,0,1,1.48-3.06,45,45,0,0,0,10.58-11.88,9.4,9.4,0,0,1,.9-1.06l1.57,1.5a14.52,14.52,0,0,0,20,.5c2.25-2,4.55-3.11,7.48-1.83s3.54,3.69,3.72,6.53c.41,6.63,5,12.22,11.56,13.21a40.15,40.15,0,0,0,12.38-.08c6.26-1,10.78-6.69,11.15-13,.17-3,.92-5.47,3.87-6.69s5.24.06,7.45,2a14.18,14.18,0,0,0,11.6,3.42c4.86-.57,8-3.73,11.19-7,7.13-7.21,7.55-14.48,1.16-22.35a6,6,0,0,1-1.18-6.29,5.85,5.85,0,0,1,5.11-3.84c.49-.07,1-.08,1.49-.12,7-.49,12.49-5.07,13.42-11.92A41.41,41.41,0,0,0,255.49,65.72Zm-198.75,101c.22-.92,1.77-1.74,2.89-2.18,2.42-.93,4.53-.21,6.73,1.23,6.59,4.33,13.34,8.42,20.4,12.83-3,2.13-5.57,4-8.21,5.91a3.34,3.34,0,0,1-4.54-.26c-5.37-4.61-10.8-9.15-16.05-13.89A4.49,4.49,0,0,1,56.74,166.69Zm17.05-24.55a50.52,50.52,0,0,0,19.57,4.35,48.5,48.5,0,0,0,19.54-4.28c1.12,6-1.38,12.4,2.68,17.9-7.19,4.5-14.22,8.93-21.3,13.28a2,2,0,0,1-1.78-.12c-7-4.32-14-8.7-20.27-12.65.59-3.57,1.26-6.44,1.51-9.35S73.79,145.47,73.79,142.14Zm27.49,46.49c-1.57,1.6-1.8,4.35-4.75,4-3.78-.52-8.65,2-10.57-4.15L93.5,183ZM82.47,199.12c-.78,6.11-1.65,12.21-2.47,18.31-1.39,10.22-2.77,20.44-4.18,30.86h-39v-5.37c0-4.74,0-9.49,0-14.24,0-2.77-1.49-4.32-3.8-4.31s-3.64,1.52-3.66,4.37c0,5.58,0,11.16,0,16.74v2.8c-4.11,0-8,.43-11.85-.1a11.63,11.63,0,0,1-10-11.7c-.08-12.83-.32-25.67.07-38.48.35-11.32,6-19.82,16.13-24.88,7.81-3.9,16.42-5.23,25.24-7-.42,4.94,1.76,8.13,5.12,10.88,5,4.12,9.9,8.41,14.8,12.67a11,11,0,0,0,8.94,2.94C79.94,192.39,82.82,196.36,82.47,199.12Zm.92,49.22c2.17-16.06,4.34-32.07,6.51-48.16h7.17c2.18,16,4.34,32,6.53,48.16Zm37.55-82.83c2.34-1.67,4.61-1.57,7.06-1a3.09,3.09,0,0,1,1.49,5.41c-5.53,4.93-11.18,9.71-16.82,14.5-1.4,1.19-2.91,1-4.36,0-2.55-1.86-5.11-3.7-8.06-5.83l8.27-5.19C112.67,170.78,117,168.35,120.94,165.51Zm10.46-62c-1.56,18.28-12.51,30.66-30.28,34.67-18.43,4.16-44.05-8.1-45.52-34-.21-3.7-1.28-4.65-4.94-4.68-4.32,0-5.45-1.17-5.46-5.52,0-2.16-.05-4.33,0-6.5.08-2,.87-3.27,3.26-3,4.06.46,8,.81,11.56,3.36,3.24,2.32,7.46-.08,7.7-4.25.19-3.32,0-6.66,0-10h0c0-2.92-.06-5.84,0-8.75.15-5.6,4.3-9,9.86-8.15,5.25.8,10.47,2.1,15.74,2.29,4.16.15,8.37-1,12.55-1.65,1.39-.21,2.76-.68,4.16-.76,5.13-.33,8.86,3,9,8.17.11,5.33,0,10.67,0,16,0,6.09,3.12,9.1,9.14,8.16,3.12-.49,6.1-2,9.09-3.24,3.61-1.47,4.35-1,4.39,2.93,0,2.25.07,4.5,0,6.75-.13,2.73-1.53,4-4.29,4.14-.59,0-1.17,0-1.75,0C132.87,99.55,131.64,100.7,131.4,103.52ZM248.48,73.87c0,5.31-2.27,7.83-7.55,8.23-5.43.42-9.57,2.84-11.87,7.83a13,13,0,0,0,2,14.68c3.78,4.55,3.67,7.84-.45,12l-.88.89c-5.55,5.55-7.55,5.56-13.86,1.07-2.28-1.62-5.18-2.35-7.79-3.49l-.27.61c-7.17,0-12.84,5.28-13.63,12.68-.65,6.09-2.9,8.14-9,8.14H183.4c-6.86,0-8.78-1.67-9.64-8.56-.69-5.46-3.56-9.31-8.64-11.27s-9.8-1-14,2.55a8.74,8.74,0,0,1-14-2.95,2.63,2.63,0,0,1-.06-1.45c.12-.73.48-1.44.54-2.17.28-3.56,1.38-6,5.44-7.14,3.69-1,5.76-4.53,6-8.48A69.92,69.92,0,0,0,149,85.81a10.58,10.58,0,0,0-2.27-5.4,7.12,7.12,0,0,1-1.59-5c0-6.25.06-12.5,0-18.74a33.8,33.8,0,0,0-9.37-23.31c-1.46-1.57-1.3-2.76-.14-4a53.62,53.62,0,0,1,5.66-5.62c2.85-2.34,6.38-1.93,9.54.77,5,4.27,10.88,5,16.16,2,4.3-2.49,6.44-6.32,6.86-11.23.46-5.41,3-7.7,8.37-7.73,1.42,0,2.84,0,4.25,0,4.52.09,7.27,2.7,7.63,7.2.63,7.85,5.37,12.89,12.78,13.51a13.06,13.06,0,0,0,9.87-3.4c4.41-3.76,7.66-3.61,11.73.46.77.76,1.54,1.53,2.3,2.3,3.86,3.91,4,7.42.41,11.6a13.59,13.59,0,0,0,9.5,22.67c5.68.51,7.78,2.86,7.79,8.52Z"/></svg>