<?xml version="1.0" encoding="UTF-8"?>
<!DOCTYPE svg PUBLIC "-//W3C//DTD SVG 1.1//EN" "http://www.w3.org/Graphics/SVG/1.1/DTD/svg11.dtd">
<!-- Creator: CorelDRAW -->
<svg xmlns="http://www.w3.org/2000/svg" xml:space="preserve" width="2.66716in" height="2.66689in" version="1.1" style="shape-rendering:geometricPrecision; text-rendering:geometricPrecision; image-rendering:optimizeQuality; fill-rule:evenodd; clip-rule:evenodd"
viewBox="0 0 419.27 419.23"
 xmlns:xlink="http://www.w3.org/1999/xlink"
 xmlns:xodm="http://www.corel.com/coreldraw/odm/2003"
 data-name="Layer 1">
 <defs>
  <style type="text/css">
   <![CDATA[
    .fil0 {fill:#E6E6E6;fill-rule:nonzero}
   ]]>
  </style>
 </defs>
 <g id="Layer_x0020_1">
  <metadata id="CorelCorpID_0Corel-Layer"/>
  <g id="_2585170173904">
   <path class="fil0" d="M301.48 63.5c-0.07,-0 -0.15,-0 -0.21,-0 -30.04,0 -54.4,24.36 -54.4,54.4 0,30.04 24.36,54.4 54.4,54.4 30,0 54.34,-24.29 54.4,-54.28 0,-0.03 0,-0.05 0,-0.08 0,-29.96 -24.22,-54.3 -54.18,-54.43l0 0zm0 96.51c-0.07,0 -0.15,0 -0.21,0 -23.26,0 -42.12,-18.86 -42.12,-42.12 0,-23.26 18.86,-42.12 42.12,-42.12 23.2,0 42.04,18.78 42.12,41.98 0,0.03 0,0.07 0,0.1 0,23.2 -18.76,42.05 -41.95,42.15l0.05 -0zm116.93 -52.4c-1.44,-9.12 -7.53,-14.9 -16.37,-17.54 -2.78,-0.57 -5.62,-1.03 -8.45,-1.3 -4.84,-0.69 -8.44,-4.83 -8.44,-9.72 0,-2.29 0.8,-4.51 2.26,-6.27 0.59,-0.75 1.26,-1.44 1.88,-2.16 3.75,-4.35 5.82,-9.9 5.82,-15.64 0,-6.12 -2.35,-12.01 -6.55,-16.46 -2.31,-2.51 -4.76,-4.91 -7.21,-7.25 -9.74,-9.5 -22.84,-9.97 -33.14,-1.03 -3.59,3.11 -7.29,4.91 -11.9,2.96 -4.62,-1.95 -5.98,-5.88 -6.27,-10.56 -0.64,-9.92 -5.88,-16.73 -14.74,-20.83 -1.64,-0.74 -3.28,-1.21 -4.91,-1.82l-18.01 0c-0.88,0.33 -1.75,0.67 -2.64,0.95 -9.72,2.87 -16.58,11.56 -17.11,21.68 -0.29,4.68 -1.64,8.65 -6.27,10.58 -4.63,1.93 -8.32,0.16 -11.9,-2.95 -4.36,-4.03 -10.09,-6.27 -16.03,-6.27 -6.36,0 -12.46,2.57 -16.9,7.12 -4.16,4.03 -8.01,8.38 -11.89,12.48 -4.01,-1.89 -8.15,-3.58 -12.34,-5.03 -4.39,-1.44 -8.97,-2.29 -13.59,-2.52 -19.5,-0.31 -39.02,-0.43 -58.52,-0.13 -11.71,0.16 -20.09,6.27 -25.02,16.78 -0.81,2.25 -2.95,3.75 -5.35,3.75 -0.05,0 -0.11,-0 -0.16,-0 -14.08,1.08 -25.22,12.39 -26.07,26.49 -0.25,4.91 1.64,7.75 5.49,8.02 3.85,0.28 6.11,-2.05 6.75,-7.03 1.15,-9.2 6.55,-14.59 15.69,-15.31 6.93,-0.54 11.76,-3.6 14.43,-10.17 2.17,-6.19 8.02,-10.35 14.59,-10.35 0.22,0 0.44,0.01 0.66,0.01 18.68,0 37.38,-0.33 56.07,0.2 23.04,0.64 41.97,19.73 43,42.85 0.38,8.45 -0.41,16.96 0.38,25.35 0.7,7.53 -1.2,12.35 -8.91,14.26 -3.15,0.99 -6.28,2.19 -9.3,3.52 0,-9.17 -0.44,-17.34 0,-25.45 1.19,-18.45 -14.66,-33.08 -35.19,-27.23 -6.21,1.99 -12.7,3.01 -19.22,3.01 -2.08,0 -4.17,-0.11 -6.23,-0.31 -5.78,-0.75 -11.46,-2.52 -17.18,-3.54 -16.37,-2.9 -30.36,8.42 -30.83,25 -0.18,6.68 0,13.36 0,20.06 0,1.15 -0.2,2.29 -0.29,3.39l-17.77 -3.64c0,-3.77 0.15,-7.57 0,-11.35 -0.21,-4.04 -2.55,-6.29 -6.11,-6.29 -3.55,0 -5.81,2.24 -6.08,6.29 -0.15,2.87 -0.16,5.73 0,8.6 0.04,0.42 0.07,0.84 0.07,1.27 0,2.97 -1.1,5.83 -3.08,8.03 -1.84,2.37 -3,5.21 -3.36,8.19 -0.62,4.14 -0.23,8.43 -0.47,12.64 -0.71,12.85 6.24,20.49 16.93,22.25 0.21,0 0.39,0.33 0.59,0.52 2.67,19.65 11.46,35.88 27.33,48.08 1.21,1.16 1.93,2.75 1.98,4.42 0.21,6.81 0.11,13.64 0.08,20.45 0,5.63 -1.23,6.55 -6.83,7.58 -18.01,3.39 -36.25,6.34 -54.04,10.81 -23.15,5.86 -38.97,20.13 -45.65,43.56 -0.8,2.85 -1.38,5.76 -2.06,8.68l0 72.87c0.18,0.18 0.46,0.36 0.52,0.57 5.37,18.37 16.1,26.45 35.22,26.45l135.06 0c34.26,0 68.49,0 102.73,0 0.16,-0 0.34,0 0.51,0 17.76,0 32.16,-14.4 32.16,-32.16 0,-0.08 0,-0.17 0,-0.25 0.08,-6.42 0,-12.82 0,-19.24 0,-4.75 -2.39,-7.47 -6.29,-7.37 -3.9,0.1 -5.93,2.7 -5.96,7.25 0,6.55 0,13.1 0,19.65 -0,0.05 -0,0.1 -0,0.14 0,9.81 -7.29,18.09 -17.01,19.34 -6.03,0.69 -12.18,0.11 -18.75,0.11l0 -4.58c0,-9.14 0,-18.27 0,-27.43 0,-4.73 -2.1,-7.17 -5.89,-7.27 -3.8,-0.1 -6.24,2.54 -6.35,7.34 0,3.68 0,7.37 0,11.05l0 20.81 -63.86 0 -7.65 -56.56c-1.1,-8.19 -2.26,-16.19 -3.28,-24.32 -0.51,-4.21 4.27,-10.69 7.5,-10.27 0.8,0.11 1.62,0.16 2.43,0.16 4.58,0 8.98,-1.75 12.31,-4.9 7.43,-6.42 14.74,-12.94 22.38,-19.16 6.12,-5.01 11.36,-10.33 10.25,-19.47 14.82,2.9 29.28,5.19 42.41,11.89 12.9,6.26 22,18.37 24.43,32.5 1.29,6.75 0.79,13.84 1.13,20.78 -0.01,0.1 -0.01,0.21 -0.01,0.32 0,3.38 2.74,6.12 6.12,6.12 3.38,0 6.12,-2.74 6.12,-6.12 0,-0.11 -0,-0.21 -0.01,-0.32 0.13,-2.98 0,-5.99 0,-8.99 0,-28.93 -15.61,-50.66 -43.11,-59.83 -19.09,-6.35 -38.89,-9.46 -58.74,-12.2 -5.42,-0.74 -6.65,-1.92 -6.68,-7.25 0,-6.81 -0.18,-13.64 0.1,-20.45 0.13,-1.92 1,-3.71 2.42,-5.01 6.88,-5.4 12.75,-12 17.32,-19.45 0.45,-0.62 0.95,-1.2 1.48,-1.74l2.57 2.46c4.45,4.45 10.5,6.96 16.81,6.96 5.89,0 11.58,-2.19 15.95,-6.14 3.68,-3.28 7.45,-5.09 12.25,-3 4.8,2.1 5.8,6.04 6.09,10.69 0.67,10.86 8.19,20.01 18.93,21.63 3.21,0.47 6.46,0.72 9.71,0.72 3.53,0 7.07,-0.29 10.55,-0.85 10.25,-1.64 17.65,-10.95 18.26,-21.29 0.28,-4.91 1.51,-8.96 6.34,-10.95 4.83,-2 8.58,0.1 12.2,3.28 4.25,3.78 9.75,5.87 15.44,5.87 1.19,0 2.38,-0.09 3.56,-0.27 7.96,-0.93 13.1,-6.11 18.32,-11.46 11.68,-11.81 12.36,-23.71 1.9,-36.6 -1.69,-1.82 -2.62,-4.2 -2.62,-6.68 0,-1.24 0.24,-2.47 0.69,-3.62 1.3,-3.57 4.58,-6.04 8.37,-6.29 0.8,-0.11 1.64,-0.13 2.44,-0.2 11.46,-0.8 20.45,-8.3 21.97,-19.52 0.34,-2.78 0.52,-5.58 0.52,-8.38 0,-3.71 -0.31,-7.44 -0.91,-11.09l0.05 -0.03zm-325.45 165.38c0.36,-1.51 2.9,-2.85 4.73,-3.57 3.96,-1.52 7.42,-0.34 11.02,2.01 10.79,7.09 21.84,13.79 33.4,21.01 -4.91,3.49 -9.12,6.55 -13.44,9.68 -0.98,0.81 -2.21,1.26 -3.49,1.26 -1.49,0 -2.92,-0.61 -3.95,-1.68 -8.79,-7.55 -17.68,-14.98 -26.28,-22.74 -1.34,-1.37 -2.09,-3.22 -2.09,-5.14 0,-0.28 0.02,-0.56 0.05,-0.84l0.05 0.02zm27.92 -40.2c10.09,4.48 21.01,6.93 32.05,7.13 11.03,-0.09 21.94,-2.49 31.99,-7.01 1.83,9.82 -2.26,20.3 4.39,29.31 -11.77,7.37 -23.29,14.62 -34.88,21.75 -0.4,0.17 -0.83,0.25 -1.26,0.25 -0.58,0 -1.15,-0.16 -1.65,-0.45 -11.46,-7.07 -22.92,-14.25 -33.19,-20.71 0.97,-5.85 2.06,-10.55 2.47,-15.31 0.41,-4.77 0.03,-9.51 0.03,-14.97l0.05 0.02zm45.01 76.13c-2.57,2.62 -2.95,7.12 -7.78,6.55 -6.19,-0.85 -14.16,3.28 -17.31,-6.8l12.3 -8.99 12.79 9.24zm-30.85 17.16c-1.28,10 -2.7,19.99 -4.04,29.98 -2.28,16.73 -4.54,33.47 -6.84,50.53l-63.86 0 0 -8.79c0,-7.76 0,-15.54 0,-23.32 0,-4.54 -2.44,-7.07 -6.22,-7.06 -3.78,0.02 -5.96,2.49 -5.99,7.16 0,9.14 0,18.27 0,27.41l0 4.58c-6.73,0 -13.1,0.7 -19.4,-0.16 -9.39,-1.33 -16.38,-9.37 -16.38,-18.86 0,-0.1 0,-0.2 0,-0.3 -0.13,-21.01 -0.52,-42.03 0.11,-63.01 0.57,-18.54 9.82,-32.45 26.41,-40.74 12.79,-6.39 26.89,-8.56 41.33,-11.46 -0.69,8.09 2.88,13.31 8.38,17.82 8.19,6.75 16.21,13.77 24.23,20.75 3.35,3.18 7.79,4.95 12.41,4.95 0.75,0 1.5,-0.05 2.23,-0.14 3.49,-0.36 8.2,6.14 7.63,10.66zm1.51 80.6c3.55,-26.3 7.11,-52.51 10.66,-78.86l11.74 -0c3.57,26.2 7.11,52.4 10.69,78.86l-33.09 0zm61.49 -135.63c3.83,-2.73 7.55,-2.57 11.56,-1.64 2.44,0.4 4.24,2.52 4.24,4.99 0,1.49 -0.66,2.91 -1.8,3.87 -9.05,8.07 -18.31,15.9 -27.54,23.74 -2.29,1.95 -4.76,1.64 -7.14,0 -4.18,-3.05 -8.37,-6.06 -13.2,-9.55l13.54 -8.5c6.8,-4.29 13.89,-8.27 20.34,-12.92zm17.13 -101.52c-2.55,29.93 -20.48,50.2 -49.58,56.77 -30.18,6.81 -72.13,-13.26 -74.54,-55.67 -0.34,-6.06 -2.1,-7.61 -8.09,-7.66 -7.07,0 -8.92,-1.92 -8.94,-9.04 0,-3.54 -0.08,-7.09 0,-10.64 0.13,-3.28 1.42,-5.35 5.34,-4.91 6.65,0.75 13.1,1.33 18.93,5.5 5.31,3.8 12.22,-0.13 12.61,-6.96 0.31,-5.44 0,-10.91 0,-16.37l-0 0c0,-4.78 -0.1,-9.56 0,-14.33 0.25,-9.17 7.04,-14.74 16.15,-13.35 8.6,1.31 17.14,3.44 25.77,3.75 6.81,0.25 13.71,-1.64 20.55,-2.7 2.28,-0.34 4.52,-1.11 6.81,-1.24 8.4,-0.54 14.51,4.91 14.74,13.38 0.18,8.73 0,17.47 0,26.2 0,9.97 5.11,14.9 14.97,13.36 5.11,-0.8 9.99,-3.28 14.88,-5.31 5.91,-2.41 7.12,-1.64 7.19,4.8 0,3.68 0.11,7.37 0,11.05 -0.21,4.47 -2.51,6.55 -7.03,6.78 -0.97,0 -1.92,0 -2.87,0 -4.49,0.12 -6.5,2 -6.89,6.62l0 -0.02zm191.72 -48.54c0,8.69 -3.72,12.82 -12.36,13.48 -8.89,0.69 -15.67,4.65 -19.44,12.82 -1.52,2.99 -2.32,6.3 -2.32,9.66 0,5.32 2,10.46 5.59,14.38 6.19,7.45 6.01,12.84 -0.74,19.65l-1.44 1.46c-9.09,9.09 -12.36,9.1 -22.7,1.75 -3.73,-2.65 -8.48,-3.85 -12.76,-5.71l-0.44 1c-11.74,0 -21.03,8.65 -22.32,20.76 -1.06,9.97 -4.75,13.33 -14.74,13.33l-2.92 0c-11.23,0 -14.38,-2.73 -15.79,-14.02 -1.13,-8.94 -5.83,-15.24 -14.15,-18.45 -8.32,-3.21 -16.05,-1.64 -22.92,4.18 -2.65,2.47 -6.14,3.85 -9.77,3.85 -5.73,0 -10.91,-3.42 -13.16,-8.68 -0.14,-0.44 -0.22,-0.9 -0.22,-1.36 0,-0.34 0.04,-0.68 0.12,-1.02 0.2,-1.2 0.79,-2.36 0.88,-3.55 0.46,-5.83 2.26,-9.82 8.91,-11.69 6.04,-1.64 9.43,-7.42 9.82,-13.89 0.23,-2.9 0.34,-5.87 0.34,-8.79 0,-3.2 -0.14,-6.42 -0.41,-9.6 -0.38,-3.23 -1.67,-6.3 -3.72,-8.84 -1.7,-2.08 -2.63,-4.69 -2.63,-7.38 0,-0.27 0.01,-0.54 0.03,-0.81 0,-10.23 0.1,-20.47 0,-30.69 -0.02,-14.22 -5.52,-27.9 -15.35,-38.17 -2.39,-2.57 -2.13,-4.52 -0.23,-6.55 2.85,-3.28 5.97,-6.39 9.27,-9.21 4.67,-3.83 10.45,-3.16 15.62,1.26 8.19,6.99 17.82,8.19 26.46,3.28 7.04,-4.08 10.55,-10.35 11.23,-18.39 0.75,-8.86 4.91,-12.61 13.71,-12.66 2.33,0 4.65,0 6.96,0 7.4,0.15 11.9,4.42 12.49,11.79 1.03,12.85 8.79,21.11 20.93,22.12 0.56,0.05 1.13,0.07 1.7,0.07 5.36,0 10.52,-2.01 14.47,-5.63 7.22,-6.16 12.54,-5.91 19.21,0.75 1.26,1.24 2.52,2.51 3.77,3.77 6.32,6.4 6.55,12.15 0.67,18.99 -3.68,4.08 -5.72,9.39 -5.72,14.89 0,11.91 9.38,21.71 21.27,22.23 9.3,0.83 12.74,4.68 12.76,13.95l-0 5.67z"/>
  </g>
 </g>
</svg>
