<?xml version="1.0" encoding="UTF-8"?>
<!DOCTYPE svg PUBLIC "-//W3C//DTD SVG 1.1//EN" "http://www.w3.org/Graphics/SVG/1.1/DTD/svg11.dtd">
<!-- Creator: CorelDRAW -->
<svg xmlns="http://www.w3.org/2000/svg" xml:space="preserve" width="7.08389in" height="7.08608in" version="1.1" style="shape-rendering:geometricPrecision; text-rendering:geometricPrecision; image-rendering:optimizeQuality; fill-rule:evenodd; clip-rule:evenodd"
viewBox="0 0 1855.02 1855.59"
 xmlns:xlink="http://www.w3.org/1999/xlink"
 xmlns:xodm="http://www.corel.com/coreldraw/odm/2003">
 <defs>
  <style type="text/css">
   <![CDATA[
    .fil0 {fill:#E6E6E6}
   ]]>
  </style>
 </defs>
 <g id="Layer_x0020_1">
  <metadata id="CorelCorpID_0Corel-Layer"/>
  <g id="_2686090009856">
   <path class="fil0" d="M1495.64 1800.56c-45.41,0 -88.54,-12.04 -120.37,-24.84 -18.49,-7.44 -31.45,-14.67 -47.82,-24.78 -69.83,-43.15 -140.37,-141.45 -140.37,-233.53 0,-78.58 5.61,-139.22 55.43,-205.94 10.99,-14.72 20.75,-25.55 33.38,-39.22 44.21,-47.82 132.59,-88.82 201.59,-88.82 93.15,0 153.42,17.58 220.59,77.08 86.65,76.75 123,189.59 95.28,304.14 -5.16,21.31 -10.64,37.92 -19.38,56.85 -39.08,84.56 -119.67,150 -210.85,170.32 -16.77,3.74 -50.12,8.74 -67.49,8.74zm-1140.35 -1800.56l54.93 0c113.21,0 268.23,121.53 294.04,232.33 42.44,-20.36 152.41,-36.3 217.81,-36.3 65.93,0 122.58,6.39 182.31,20.98 17.4,4.25 30.8,11.27 50.02,11.69 5.77,-24.75 31.05,-66.05 45.57,-85.11 53.15,-69.78 155.05,-143.59 248.47,-143.59l80.15 0c43.55,1.51 81.31,8.54 134.09,36.24 81.43,42.73 132.27,104.02 169.35,186.41 4.75,10.55 7.15,17.26 10.58,29.35 6.02,21.24 10.22,44.8 12.41,69.34l0 78.86c-3.64,40.23 -13.01,79.32 -28.99,111.7 -30.99,62.82 -62.45,103.34 -117.2,144.17 -20.17,15.04 -59.41,38.32 -86.14,44.54 5.05,10.53 11.23,37.58 14.53,50.81 22.45,90.01 29.78,202.48 11.26,294.43 -4.77,23.66 -16.75,86.07 -25.79,104.9 67.23,15.66 146.93,90.92 183.1,150.88 40.45,67.06 48.06,109.83 49.23,167.06l0 70.49c0,82.56 -69.58,184.69 -135.44,238.46 -7.85,6.41 -14.33,11.46 -23.09,16.85 -16.44,10.13 -33.13,21.3 -50.94,28.92 -34.01,14.54 -85.32,31.59 -131.76,31.59 -122.98,0 -174.5,-23.18 -263.47,-92.28 -33.4,-25.94 -93.09,-109.76 -95.91,-143.68 -18.43,8.84 -82.29,21.62 -105.24,25.45 -35.86,5.99 -78.29,10.85 -119.83,10.85 -48.3,0 -180.26,-14.8 -225.07,-36.3 -6.96,29.87 -32.15,69.77 -49.21,92.36 -119.45,158.15 -345.53,190.98 -506.23,74.65 -18.15,-13.14 -39.9,-26.77 -39.9,-47.22 0,-13.87 14.56,-49.07 53.66,-13.73 123.95,112.03 334.47,101.43 450.44,-52.1 89.02,-117.85 77.84,-290.62 -31.28,-399.74 -72.55,-72.55 -139.42,-89.85 -240.5,-89.85 -104.27,0 -219.99,84.96 -260.91,185.6 -26.68,65.61 -33.63,126.92 -15.06,199.28 6.45,25.14 21.86,55.98 21.86,65.26 0,18.96 -12.47,29.04 -21.78,29.04 -34.02,0 -36.66,-22.86 -50.4,-65.76 -15.97,-49.88 -14.94,-74.93 -14.94,-126.63 0,-136.44 122.54,-293.03 235.96,-319.45 -11.29,-23.53 -19.71,-70.85 -25.78,-101.28 -19.59,-98.28 -10.93,-272.37 25.78,-348.86 -29.87,-6.96 -69.77,-32.15 -92.36,-49.21 -27.68,-20.9 -48.09,-41.28 -68.97,-68.97 -56.24,-74.57 -74.62,-136.42 -74.62,-237.57 0,-82.05 43.01,-179.52 97.05,-233.29 16.45,-16.36 25.26,-25.5 44,-39.5 85.22,-63.65 135.42,-71.34 214.22,-72.08zm1154.87 667.95c-83.38,0 -125.36,-10.17 -192.42,-54.43 -72.57,-47.91 -130.67,-144.63 -130.67,-232.35 0,-65.99 0.42,-100.2 31.38,-161.02 31.29,-61.47 86.89,-115.41 151.63,-142.41 18.91,-7.89 32.63,-13.31 54.43,-18.17 142.84,-31.83 286.41,38.02 348.29,167.86 45.68,95.87 36.98,210.75 -18.64,299.73 -49.49,79.16 -149.07,140.79 -244.01,140.79zm-381.17 -319.45c0,149.75 77.08,281.01 211.74,343.68 99.45,46.28 144.37,33.52 227.51,26.6 43.76,91.2 43.14,323.94 0,413.84 -24.36,-0.54 -39.05,-7.26 -79.86,-7.26 -101.17,0 -196.27,47.32 -260.57,116.96 -4.27,4.62 -6.57,6.42 -10.82,10.96 -62.05,66.3 -88,157.95 -88,253.24 0,25.51 5.53,37.26 7.26,58.08 -91.79,44.04 -325.31,42.48 -413.84,0 6.96,-83.69 19.42,-124.47 -25.45,-225.03 -8.69,-19.46 -21.33,-39.89 -33.31,-57.45 -65.48,-96.01 -179.95,-156.77 -300.63,-156.77 -30.83,0 -51.07,6.7 -76.23,7.26 -5.68,-68.21 -29.04,-51.84 -29.04,-235.96 0,-40.51 8.31,-96.64 18.08,-134.39 3.69,-14.24 9.62,-27.41 10.96,-43.49 63.75,1.42 83.58,20.72 186.48,-9.54 33,-9.7 82.15,-25.99 82.15,-55.8 0,-53.87 -73.51,-6.35 -93.91,0.48 -74.57,24.95 -163.62,17.88 -234.02,-17.41 -54.1,-27.12 -67.2,-42.13 -103.14,-82 -69.61,-77.23 -90.36,-217.02 -43.32,-317.37 73.88,-157.6 243.35,-226.15 404.95,-160.43 100.59,40.9 185.6,156.58 185.6,260.91 0,77.84 -6.25,128.4 -50.05,193.17 -6.79,10.04 -12.47,15.67 -18.4,25.27 -20.75,33.54 20.59,66.98 46.87,32.25 49.88,-65.89 79.66,-138.87 79.66,-228.91 0,-30.83 -6.7,-51.07 -7.26,-76.23 57.62,-4.8 48.83,-29.04 239.59,-29.04 86.67,0 135.51,25.82 174.25,29.04 -1.9,22.87 -7.26,37.53 -7.26,65.34z"/>
   <path class="fil0" d="M733.3 820.41l101.64 0 0 141.58 -101.64 0 0 -141.58zm116.16 -54.45l-123.42 0c-32.76,0 -50.82,34.28 -50.82,72.6 0,117.32 -18.05,181.51 79.86,181.51 4.78,20.5 7.39,90.23 7.19,116.24 -0.11,14.13 0.64,70.4 10.34,80.41 3.19,3.29 16.8,10.27 22.41,10.27 36.49,0 27.47,-52.88 25.43,-90.77 -1.88,-34.82 -7.28,-79.83 -7.28,-116.15l39.93 0c24.96,0 9.18,-13.34 48.48,-1.34 13.53,4.13 35.67,12.23 49.54,12.23 31.33,0 35.68,-37.55 14.54,-50.84 -8.41,-5.28 -62.19,-20.6 -76.25,-21.77l0 -134.32c44.13,-0.98 166.62,-54.91 206.92,-76.23l0 286.78c-13.8,-3.22 -34.77,-18.15 -43.56,-18.15 -29.18,0 -45.18,38.1 -8.58,55.77 14.27,6.89 19.05,11.39 32.85,17.97 22.22,10.6 15.21,2.51 20.88,26.31 8.8,36.94 56.5,28.56 56.5,-5.68l0 -439.25c0,-29.74 -43.92,-46.93 -55.73,-4.91 -3.32,11.82 1.25,15.05 -22.91,27.91 -53.87,28.69 -121.97,57.89 -181.93,72.43 -15.93,3.86 -24.18,-1.05 -44.37,-1.05z"/>
   <path class="fil0" d="M283.17 490.07c10.08,-8.77 66.28,-33.68 3.5,-68.84 -28.56,-15.99 -50.72,-31.69 -62.17,-64.89 -6.5,-18.84 -6.67,-32.14 -6.67,-58.67 12.52,3.34 2.12,-0.11 11.97,6.18l39.29 22.43c33.41,12.53 45.67,14.96 83.06,14.96 55.19,0 -0.32,-90.75 76.23,-90.75 22.73,0 26,17.09 43.56,21.78 0,84.45 -14.34,162.68 -103.66,201.27 -28.09,12.14 -46.29,16.54 -85.11,16.54zm43.56 -206.92c-71.02,-1.58 -97.3,-72.6 -119.79,-72.6 -50.79,0 -59.33,131.14 -23.44,190.43 9.12,15.06 24.13,40.87 41.59,45.53l-54.2 11.14c-13.74,1.76 -29.29,14.46 -29.29,28.79 0,30.82 128.49,100.11 266.27,30.31 17.82,-9.03 28.41,-18.21 42.84,-29.76 14.27,-11.42 24.54,-25.73 35.08,-41.16 30.57,-44.75 39.73,-84.22 44.16,-140.98 2.36,-30.28 64.05,-92.58 11.61,-109.73 -29.64,-9.7 -29.66,30.75 -68.34,10.7 -70.57,-36.58 -145.17,18.08 -146.49,77.32z"/>
   <path class="fil0" d="M1357.69 1611.79l0 -243.22c0,-8.5 6.02,-14.52 14.52,-14.52l243.22 0c8.5,0 14.52,6.02 14.52,14.52l0 243.22c0,8.5 -6.02,14.52 -14.52,14.52l-243.22 0c-8.5,0 -14.52,-6.02 -14.52,-14.52zm-58.08 -239.59l0 232.33c0,43.12 30.69,79.86 72.6,79.86l243.22 0c41.91,0 72.6,-36.74 72.6,-79.86l0 -232.33c0,-44.72 -36.89,-76.23 -83.49,-76.23l-221.44 0c-23.27,0 -46.45,9.23 -59.14,20.73 -12.29,11.14 -24.36,33.52 -24.36,55.51z"/>
   <path class="fil0" d="M319.47 1560.97l0 -148.84c11.43,3.05 23.36,12.53 32.85,17.97 11.15,6.39 21.54,12.4 32.49,18.33l65.34 36.3c-5.25,7.17 -113.13,72.14 -130.69,76.23zm-54.45 -185.14l0 221.44c0,20.69 19.1,36.3 39.93,36.3 8.26,0 150.42,-82.6 174.94,-97.32 15.37,-9.22 46.49,-22.55 46.49,-44.26 0,-38.44 -51.42,-58.3 -98.01,-83.49 -14.16,-7.66 -109.15,-65.34 -116.16,-65.34 -18.54,0 -47.19,1.03 -47.19,32.67z"/>
   <path class="fil0" d="M1441.19 254.11l0 72.6c-22.53,0 -65.34,-5.81 -65.34,25.41 0,36.88 40.3,32.67 65.34,32.67l0 156.1c0,42.23 58.08,42.23 58.08,0l0 -156.1c18.36,0 42.03,2.37 55.19,-6.52 25.34,-17.11 12.98,-51.56 -15.26,-51.56l-39.93 0c0,-67.16 -13.03,-119.16 47.02,-119.96 28.55,-0.38 61.88,-0.32 61.88,-28.87 0,-35.74 -37.38,-29.04 -65.34,-29.04 -57.03,0 -101.64,47.78 -101.64,105.27z"/>
   <path class="fil0" d="M1466.6 1495.62c0,-45.5 54.45,-36.97 54.45,-7.26 0,25.5 -26.15,37.57 -44.44,22.66 -3.3,-2.69 -10.01,-12.38 -10.01,-15.4zm-54.45 -14.52l0 18.15c0,40.76 40.73,74.52 80.16,75.66 41.03,1.19 83.2,-34.34 83.2,-75.66l0 -18.15c0,-41 -37.34,-72.6 -87.12,-72.6 -37.09,0 -76.23,35.17 -76.23,72.6z"/>
  </g>
 </g>
</svg>
