<svg id="Layer_1" data-name="Layer 1" xmlns="http://www.w3.org/2000/svg" viewBox="0 0 256 256"><defs><style>.cls-1{fill:#aab8dd;}</style></defs><path class="cls-1" d="M28.3,101.85c-2.88,0-4.49,1.28-4.55,3.56s1.53,3.73,4.57,3.74,4.74-1.34,4.73-3.64S31.25,101.83,28.3,101.85ZM40.84,35c0,2.66,1.39,4.3,3.55,4.34s3.71-1.64,3.72-4.22q.06-13.74,0-27.47c0-2.61-1.54-4.23-3.72-4.2s-3.53,1.64-3.55,4.32c0,4.53,0,9.07,0,13.61S40.81,30.43,40.84,35Zm44.32-8.7A13.24,13.24,0,0,0,98.62,39.32c7.54,0,13.6-5.61,13.71-12.87.1-6.16,0-12.32,0-18.47,0-2.85-1.38-4.52-3.62-4.56s-3.65,1.67-3.66,4.69c0,5.92,0,11.83,0,17.75A6.08,6.08,0,0,1,98.66,32a6,6,0,0,1-6.2-6.24c0-6.08,0-12.16,0-18.23,0-2.57-1.6-4.2-3.78-4.13S85.2,5.07,85.17,7.56c0,3.24,0,6.48,0,9.72C85.15,20.28,85.13,23.28,85.16,26.27ZM19,39.32c7.54.13,13.59-5.39,13.84-12.71.1-3,0-6,0-9,0-3.41.07-6.82,0-10.22C32.72,4.74,30.86,3,28.63,3.47s-3.1,2.09-3.1,4.29c0,6,0,12,0,18A6.07,6.07,0,0,1,19,32a5.9,5.9,0,0,1-6-6.19c0-6,0-12,0-18C13,5,11.46,3.35,9.2,3.43S5.72,5.09,5.71,7.81c0,6.16.14,12.33,0,18.49C5.43,33.87,12.32,39.21,19,39.32Zm-11,72c2.39,1.47,5-.56,5.07-3.79.08-4.78,0-9.57,0-14.35s2.33-7,7-7H74.3c4.65,0,7,2.39,7,7.08q0,31.74,0,63.5c0,4.58-2.25,6.95-6.83,7q-27.25.08-54.51,0c-4.76,0-6.93-2.28-6.94-7.08,0-9.08,0-18.17,0-27.25a31.34,31.34,0,0,0-.18-4.85A3.27,3.27,0,0,0,9,121.64,3.32,3.32,0,0,0,5.74,125a14.16,14.16,0,0,0,0,1.46c0,10.14,0,20.27,0,30.41,0,8.66,5.42,14.18,14.1,14.21q27.38.1,54.75,0c8.61,0,14-5.66,14-14.3q0-15.81,0-31.63c0-10.94.05-21.89,0-32.84a13.18,13.18,0,0,0-13-13.33q-28.47-.17-56.94,0A13,13,0,0,0,5.76,91.65c-.16,5.35-.18,10.71,0,16A5.22,5.22,0,0,0,7.91,111.35ZM222,10.76c4,0,7.94,0,11.91,0s8.1,0,12.16,0c2.76,0,4.24-1.29,4.28-3.55s-1.49-3.71-4.15-3.73q-12.17-.06-24.31,0c-2.61,0-4.24,1.55-4.21,3.72S219.31,10.74,222,10.76ZM119.68,39.13A5.81,5.81,0,0,0,123.63,37c2.58-3.2,4.82-6.68,7.39-10.32,2.59,3.68,4.91,7,7.26,10.3,1.69,2.37,3.68,2.94,5.55,1.65s2.11-3.38.47-5.75c-2.53-3.67-5.08-7.33-7.71-10.93a2.26,2.26,0,0,1,0-3.19c2.29-3,4.45-6.18,6.59-9.34,1.39-2,1.05-4.14-.7-5.35s-3.78-.81-5.27,1.22c-2,2.77-4,5.61-6.14,8.66C129,11,127.1,8.37,125.22,5.76c-1.74-2.41-3.65-3-5.54-1.73s-2.09,3.53-.39,6c2.39,3.44,4.82,6.87,7.25,10.33-.79,1.13-1.47,2.13-2.17,3.12-2.29,3.25-4.63,6.46-6.86,9.75C115.74,35.81,116.85,39.07,119.68,39.13Zm126.13-7.21c-3.89,0-7.77,0-11.66,0-4.05,0-8.1,0-12.15,0-2.71,0-4.31,1.39-4.37,3.53s1.62,3.72,4.41,3.74q11.91,0,23.82,0c2.93,0,4.45-1.33,4.44-3.67S248.79,32,245.81,31.92Zm.25-14.22q-12-.06-24.06,0c-2.7,0-4.3,1.39-4.37,3.55S219.24,24.94,222,25c4,0,7.94,0,11.91,0s8.1,0,12.15,0c2.77,0,4.21-1.34,4.2-3.63S248.79,17.72,246.06,17.7ZM9.18,55.47a3.34,3.34,0,0,0-3.42,3.39,3.4,3.4,0,0,0,3,3.78,14.84,14.84,0,0,0,2.91.1H245c3.53,0,5.22-1.18,5.27-3.61s-1.59-3.69-5.12-3.69H11.37C10.64,55.45,9.9,55.41,9.18,55.47Zm53-16.18c.58-.63,2-1.57,2.55-2.87,4-9,7.77-18.13,11.59-27.22,1.1-2.6.42-4.61-1.72-5.5s-3.89.13-5,2.8c-1.85,4.3-3.67,8.63-5.49,12.94C62,24.28,59.89,29.1,57.92,34,56.81,36.71,58.52,39.36,62.15,39.29Zm80.3,99.38c2.09.63,3.83-.38,4.67-2.72.14-.38.26-.77.37-1.16A31.09,31.09,0,0,1,181.55,113,31,31,0,1,1,155.61,166a31.06,31.06,0,0,1-8.4-14.29c-.47-1.73-1.52-3.11-3.32-3a4.69,4.69,0,0,0-3.35,1.8,5.65,5.65,0,0,0-.09,3.92,38.16,38.16,0,0,0,42.33,27.17c19.34-2.72,34-20.47,32.74-39.71-1.32-20.61-17.85-36.45-38.06-36.46a37.6,37.6,0,0,0-25.79,9.71,36.94,36.94,0,0,0-11.5,18.8C139.58,136.25,140.54,138.09,142.45,138.67ZM27.29,220.89c.07,2.14,1.71,3.49,4.37,3.5,5.1,0,10.2,0,15.3,0,5.26,0,10.52,0,15.78,0,2.61,0,4.26-1.47,4.26-3.63s-1.67-3.64-4.28-3.65q-15.53,0-31.07,0C28.91,217.12,27.2,218.65,27.29,220.89Zm223-127.53c0-9-5.52-14.47-14.61-14.47q-58.53,0-117,0c-9.1,0-14.61,5.42-14.61,14.46q0,72.39,0,144.77a18.87,18.87,0,0,0,.47,4.57c1.36,5.42,5.31,8.26,10.33,9.92H239.5c7-2.31,10.87-6.8,10.86-14.48Q250.29,165.74,250.33,93.36Zm-7.3,144c0,5.91-2,7.91-7.85,7.91H119.1c-5.71,0-7.74-2-7.74-7.77q0-71.78,0-143.55c0-5.73,2-7.8,7.72-7.8H235.4c5.53,0,7.63,2.1,7.63,7.65q0,36,0,72Zm-34.32-40.3q-31.52,0-63,0a15.66,15.66,0,0,0-2.9.2c-7.92,1.5-13.06,8.47-12.34,16.68a15,15,0,0,0,14.87,13.35c10.63.09,21.25,0,31.88,0,10.22,0,20.44,0,30.65,0a20.06,20.06,0,0,0,4.11-.3c7.85-1.68,12.77-8.59,12-16.71C223.21,202.87,216.65,197.11,208.71,197.1Zm-.46,23c-10.47,0-20.93,0-31.4,0s-20.93,0-31.39,0a7.82,7.82,0,0,1-2.21-15.32,10.27,10.27,0,0,1,2.88-.32q31,0,62.06,0c5.12,0,8.56,3.23,8.52,7.92C216.67,216.85,213.23,220,208.25,220.06Zm-132-31c-10-.35-20-.15-29.92-.1a3.54,3.54,0,0,0-3.7,3.69c0,2.09,1.47,3.44,3.8,3.56.65,0,1.3,0,2,0,8.68,0,17.35,0,26,0,4.32,0,6.85,2.38,6.86,6.48q.06,18.12,0,36.25c0,3.89-2.51,6.36-6.45,6.37q-27.73,0-55.47,0c-3.82,0-6.31-2.42-6.33-6.22q-.09-18.24,0-36.49c0-3.93,2.47-6.28,6.44-6.37,2.92-.07,5.84,0,8.76,0s4.51-1.26,4.55-3.55-1.63-3.72-4.65-3.75c-2.68,0-5.36,0-8,0-8.89,0-14.37,5.53-14.39,14.46q0,17.39,0,34.78a18.87,18.87,0,0,0,.47,4.57c1.37,5.42,5.32,8.25,10.35,9.91H77.87a9.08,9.08,0,0,1,1-.51c6.18-2.08,9.67-6.82,9.68-13.34,0-12.16.06-24.33,0-36.49C88.54,195.19,83.32,189.27,76.26,189ZM47.44,148c3.16.06,6.32,0,9.48,0s6.33,0,9.49,0c2.55,0,4.07-1.36,4.16-3.46s-1.49-3.78-4.1-3.81q-9.48-.08-19,0c-2.44,0-4.06,1.56-4.08,3.62S45,148,47.44,148Zm-19.09,0c3,0,4.73-1.37,4.7-3.66s-1.81-3.66-4.77-3.64-4.49,1.3-4.54,3.59S25.31,148.05,28.35,148.05Zm38.38-46.16c-6.48-.09-13-.08-19.45,0a3.7,3.7,0,0,0-3.86,3.59c0,2.07,1.57,3.6,4,3.65,3.16.07,6.32,0,9.48,0s6.49,0,9.73,0c2.38,0,3.84-1.4,3.94-3.43A3.59,3.59,0,0,0,66.73,101.89ZM28.26,121.28c-2.85,0-4.47,1.33-4.51,3.62s1.54,3.68,4.61,3.68,4.73-1.36,4.69-3.66S31.21,121.26,28.26,121.28Zm19.15,0a3.72,3.72,0,0,0-4,3.71c0,2.08,1.62,3.5,4.1,3.54,3.08.05,6.16,0,9.24,0,3.24,0,6.49,0,9.73,0,2.51,0,4-1.42,4.07-3.54s-1.48-3.69-3.95-3.71Q57,121.2,47.41,121.32Z"/></svg>