<?xml version="1.0" encoding="UTF-8"?>
<!DOCTYPE svg PUBLIC "-//W3C//DTD SVG 1.1//EN" "http://www.w3.org/Graphics/SVG/1.1/DTD/svg11.dtd">
<!-- Creator: CorelDRAW -->
<svg xmlns="http://www.w3.org/2000/svg" xml:space="preserve" width="2.54924in" height="2.59659in" version="1.1" style="shape-rendering:geometricPrecision; text-rendering:geometricPrecision; image-rendering:optimizeQuality; fill-rule:evenodd; clip-rule:evenodd"
viewBox="0 0 322.09 328.07"
 xmlns:xlink="http://www.w3.org/1999/xlink"
 xmlns:xodm="http://www.corel.com/coreldraw/odm/2003"
 data-name="Layer 1">
 <defs>
  <style type="text/css">
   <![CDATA[
    .fil0 {fill:#E6E6E6;fill-rule:nonzero}
   ]]>
  </style>
 </defs>
 <g id="Layer_x0020_1">
  <metadata id="CorelCorpID_0Corel-Layer"/>
  <g id="_2549575618096">
   <path class="fil0" d="M29.83 129.6c-3.79,0 -5.91,1.68 -5.99,4.69 -0.08,3 2.01,4.91 6.01,4.92 4,0.01 6.24,-1.76 6.23,-4.79 -0.01,-3.03 -2.37,-4.84 -6.25,-4.82zm16.5 -87.98c0,3.5 1.83,5.66 4.67,5.71 2.84,0.05 4.88,-2.16 4.9,-5.55 0.05,-12.06 0.05,-24.11 -0,-36.15 0,-3.44 -2.03,-5.57 -4.9,-5.53 -2.87,0.04 -4.65,2.16 -4.67,5.69 0,5.96 0,11.94 0,17.91 0,5.98 -0.04,11.91 0,17.93zm58.33 -11.45c0.16,9.51 7.91,17.14 17.42,17.14 0.1,0 0.2,-0 0.29,-0 9.92,0 17.9,-7.38 18.04,-16.94 0.13,-8.11 0,-16.21 0,-24.31 0,-3.75 -1.82,-5.95 -4.76,-6 -2.95,-0.05 -4.8,2.2 -4.82,6.17 0,7.79 0,15.57 0,23.36 0,0.03 0,0.06 0,0.09 0,4.42 -3.58,8 -8,8 -0.14,0 -0.27,-0 -0.41,-0.01 -0.09,0 -0.18,0 -0.27,0 -4.36,0 -7.9,-3.54 -7.9,-7.9 0,-0.11 0,-0.21 0.01,-0.32 0,-8 0,-16 0,-23.99 0,-3.38 -2.11,-5.53 -4.97,-5.44 -2.87,0.09 -4.58,2.2 -4.62,5.47 0,4.26 0,8.53 0,12.79 -0.03,3.95 -0.05,7.9 -0.01,11.83l0 0.04zm-87.07 17.14c9.92,0.17 17.89,-7.09 18.21,-16.73 0.13,-3.95 0,-7.9 0,-11.85 0,-4.49 0.09,-8.98 0,-13.45 -0.16,-3.49 -2.61,-5.78 -5.54,-5.16 -2.93,0.62 -4.08,2.75 -4.08,5.65 0,7.9 0,15.79 0,23.69 0,0.08 0,0.17 0,0.25 0,4.41 -3.58,7.99 -7.99,7.99 -0.2,0 -0.41,-0.01 -0.61,-0.02 -0.05,0 -0.09,0 -0.14,0 -4.29,0 -7.76,-3.48 -7.76,-7.76 0,-0.13 0,-0.26 0.01,-0.38 0,-7.9 0,-15.79 0,-23.69 -0,-3.7 -2.03,-5.87 -5,-5.76 -2.97,0.11 -4.58,2.18 -4.59,5.76 0,8.11 0.18,16.23 0,24.33 -0.37,9.96 8.7,16.99 17.49,17.14zm-14.48 94.76c3.15,1.93 6.58,-0.74 6.67,-4.99 0.11,-6.29 0,-12.6 0,-18.89 0,-6.29 3.07,-9.21 9.21,-9.21l71.37 0c6.12,0 9.21,3.15 9.21,9.32 0,27.85 0,55.71 0,83.57 0,6.03 -2.96,9.15 -8.99,9.21 -23.91,0.07 -47.82,0.07 -71.74,0 -6.26,0 -9.12,-3 -9.13,-9.32 0,-11.95 0,-23.91 0,-35.86 0.02,-0.55 0.03,-1.11 0.03,-1.67 0,-1.57 -0.1,-3.16 -0.27,-4.72 -0.19,-2.23 -2.05,-3.94 -4.29,-3.94 -0.26,0 -0.51,0.02 -0.77,0.07 -2.38,0.04 -4.29,1.99 -4.29,4.37 0,0.02 0,0.04 0,0.05 -0.02,0.32 -0.02,0.64 -0.02,0.96 0,0.32 0.01,0.64 0.02,0.96 0,13.35 0,26.68 0,40.02 0,11.4 7.13,18.66 18.56,18.7 24.02,0.09 48.04,0.09 72.06,0 11.33,0 18.43,-7.45 18.43,-18.82 0,-13.87 0,-27.75 0,-41.63 0,-14.4 0.07,-28.81 0,-43.22 -0,-0.06 0,-0.13 0,-0.2 0,-9.49 -7.63,-17.22 -17.11,-17.34 -24.98,-0.15 -49.96,-0.15 -74.94,-0 -9.22,0.07 -16.73,7.45 -16.96,16.67 -0.21,7.04 -0.24,14.1 0,21.06 0.2,1.95 1.23,3.73 2.83,4.87l0.12 -0.04zm281.65 -132.35c5.26,0 10.45,0 15.67,0 5.22,0 10.66,0 16,0 3.63,0 5.58,-1.7 5.63,-4.67 0.05,-2.97 -1.96,-4.88 -5.46,-4.91 -10.68,-0.05 -21.34,-0.05 -31.99,0 -3.44,0 -5.58,2.04 -5.54,4.9 0.04,2.86 2.15,4.66 5.69,4.68zm-134.66 37.34c2.04,-0.2 3.91,-1.21 5.2,-2.8 3.4,-4.21 6.34,-8.79 9.73,-13.58 3.41,4.84 6.46,9.21 9.56,13.56 2.22,3.12 4.84,3.87 7.3,2.17 2.46,-1.7 2.78,-4.45 0.62,-7.57 -3.33,-4.83 -6.69,-9.65 -10.15,-14.39 -0.56,-0.56 -0.87,-1.31 -0.87,-2.1 0,-0.79 0.31,-1.54 0.87,-2.1 3.01,-3.95 5.86,-8.13 8.67,-12.29 1.83,-2.63 1.38,-5.45 -0.92,-7.04 -2.3,-1.59 -4.97,-1.07 -6.94,1.61 -2.63,3.65 -5.26,7.38 -8.08,11.4 -2.72,-3.88 -5.22,-7.34 -7.7,-10.78 -2.29,-3.17 -4.8,-3.95 -7.29,-2.28 -2.49,1.67 -2.75,4.65 -0.51,7.9 3.15,4.53 6.34,9.04 9.54,13.6 -1.04,1.49 -1.93,2.8 -2.86,4.11 -3.01,4.28 -6.09,8.5 -9.03,12.83 -2.33,3.4 -0.87,7.69 2.86,7.77zm166 -9.49c-5.12,0 -10.23,0 -15.35,0 -5.33,0 -10.66,0 -15.99,0 -3.57,0 -5.67,1.83 -5.75,4.65 -0.08,2.82 2.13,4.9 5.8,4.92 10.45,0 20.9,0 31.35,0 3.86,0 5.86,-1.75 5.84,-4.83 -0.01,-3.08 -1.99,-4.63 -5.91,-4.74zm0.33 -18.71c-10.53,-0.05 -21.08,-0.05 -31.67,0 -3.55,0 -5.66,1.83 -5.75,4.67 -0.09,2.84 2.12,4.86 5.75,4.93 5.26,0 10.45,0 15.67,0 5.22,0 10.66,0 15.99,0 3.65,0 5.54,-1.76 5.53,-4.78 -0.01,-3.01 -1.93,-4.8 -5.53,-4.83zm-311.76 49.71c-0.03,-0 -0.07,-0 -0.11,-0 -2.43,0 -4.4,1.97 -4.4,4.4 0,0.02 0,0.05 0,0.07 -0.02,0.17 -0.03,0.35 -0.03,0.53 0,2.28 1.71,4.2 3.98,4.45 0.85,0.11 1.72,0.17 2.58,0.17 0.41,0 0.83,-0.01 1.25,-0.04l307.09 0c4.65,0 6.87,-1.55 6.94,-4.75 0.07,-3.2 -2.09,-4.86 -6.74,-4.86l-307.68 -0c-0.96,0.01 -1.93,-0.04 -2.88,0.04zm69.75 -21.29c0.76,-0.83 2.63,-2.07 3.36,-3.78 5.26,-11.85 10.23,-23.86 15.25,-35.82 1.45,-3.42 0.55,-6.07 -2.26,-7.24 -2.82,-1.17 -5.12,0.17 -6.58,3.68 -2.43,5.66 -4.83,11.36 -7.23,17.03 -2.78,6.37 -5.55,12.71 -8.15,19.16 -1.46,3.57 0.79,7.05 5.57,6.96l0.04 0zm105.68 130.79c2.75,0.83 5.04,-0.5 6.15,-3.58 0.18,-0.5 0.34,-1.01 0.49,-1.53 5.22,-17.25 21.14,-29.07 39.16,-29.07 1.88,0 3.77,0.13 5.62,0.39 20.07,2.89 34.98,20.1 34.98,40.38 0,22.53 -18.27,40.8 -40.8,40.8 -10.56,0 -20.72,-4.1 -28.32,-11.43 -5.32,-5.15 -9.14,-11.66 -11.06,-18.81 -0.62,-2.28 -2,-4.09 -4.37,-3.95 -1.74,0.13 -3.34,0.99 -4.41,2.37 -0.35,0.87 -0.52,1.8 -0.52,2.74 0,0.82 0.14,1.64 0.4,2.42 6.19,21.5 25.88,36.31 48.26,36.31 2.49,0 4.99,-0.19 7.45,-0.56 25.45,-3.58 44.75,-26.94 43.09,-52.26 -1.74,-27.12 -23.49,-47.97 -50.09,-47.98 -0.24,0 -0.5,-0 -0.75,-0 -12.26,0 -24.1,4.56 -33.19,12.78 -7.44,6.51 -12.73,15.16 -15.14,24.74 -0.78,3.04 0.49,5.46 3,6.22l0.04 0zm-151.6 108.21c0.09,2.82 2.25,4.59 5.75,4.61 6.71,0 13.42,0 20.14,0 6.92,0 13.85,0 20.77,0 3.44,0 5.61,-1.93 5.61,-4.78 0,-2.84 -2.2,-4.79 -5.63,-4.8 -13.63,0 -27.26,0 -40.89,0 -3.61,0.01 -5.86,2.03 -5.74,4.97zm293.49 -167.84c0,-11.85 -7.26,-19.04 -19.23,-19.04 -51.35,0 -102.68,0 -153.98,0 -11.98,0 -19.23,7.13 -19.23,19.03 0,63.52 0,127.03 0,190.53 -0,0.16 -0,0.32 -0,0.48 0,1.86 0.21,3.72 0.62,5.53 1.79,7.13 6.99,10.87 13.6,13.06l164.02 -0c9.21,-3.04 14.31,-8.95 14.29,-19.06 -0.06,-63.52 -0.07,-127.03 -0.04,-190.53l-0.05 0zm-9.61 189.52c0,7.78 -2.63,10.41 -10.33,10.41l-152.72 0c-7.52,0 -10.19,-2.63 -10.19,-10.23 0,-62.98 0,-125.96 0,-188.93 0,-7.54 2.63,-10.27 10.16,-10.27l153.09 0c7.28,0 10.04,2.76 10.04,10.07 -0,31.59 -0,63.17 -0,94.76l-0.05 94.18zm-45.17 -53.04c-27.66,0 -55.29,0 -82.91,0 -0.16,-0 -0.33,-0.01 -0.5,-0.01 -1.11,0 -2.22,0.09 -3.32,0.27 -10.42,1.97 -17.19,11.15 -16.24,21.95 1.11,9.98 9.53,17.55 19.57,17.57 13.99,0.12 27.97,0 41.96,0 13.45,0 26.9,0 40.34,0 0.26,0 0.53,0.01 0.79,0.01 1.55,0 3.09,-0.14 4.62,-0.41 10.33,-2.21 16.81,-11.31 15.79,-21.99 -0.96,-9.75 -9.59,-17.33 -20.04,-17.35l-0.05 -0.05zm-0.61 30.27c-13.78,0 -27.55,0 -41.33,0 -13.78,0 -27.55,0 -41.31,0 -5.68,-0 -10.29,-4.61 -10.29,-10.29 0,-4.56 3,-8.58 7.38,-9.87 1.1,-0.28 2.24,-0.43 3.37,-0.43 0.14,0 0.28,0 0.42,0.01 27.2,0 54.43,0 81.68,0 6.74,0 11.27,4.25 11.21,10.42 -0,5.94 -4.53,10.08 -11.08,10.16l-0.05 0zm-173.73 -40.8c-13.16,-0.46 -26.32,-0.2 -39.38,-0.13 -0.07,-0 -0.14,-0.01 -0.21,-0.01 -2.57,0 -4.66,2.09 -4.66,4.66 0,0.07 0,0.14 0,0.2 0,2.75 1.93,4.53 5,4.69 0.86,0 1.71,0 2.63,0 11.42,0 22.83,0 34.22,0 5.69,0 9.02,3.13 9.03,8.53 0.05,15.9 0.05,31.8 -0,47.71 0,5.12 -3.3,8.37 -8.49,8.38 -24.33,0 -48.66,0 -73,0 -5.03,0 -8.3,-3.19 -8.33,-8.19 -0.08,-16 -0.08,-32.01 0,-48.03 0,-5.17 3.25,-8.27 8.48,-8.38 3.84,-0.09 7.69,0 11.53,0 3.84,0 5.94,-1.66 5.99,-4.67 0.05,-3.01 -2.15,-4.9 -6.12,-4.94 -3.53,0 -7.05,0 -10.53,0 -11.7,0 -18.91,7.28 -18.94,19.03 0,15.26 0,30.52 0,45.77 -0,0.16 -0,0.32 -0,0.48 0,1.86 0.21,3.72 0.62,5.53 1.8,7.13 7,10.86 13.62,13.04l80.73 -0c0.42,-0.25 0.87,-0.48 1.32,-0.67 8.13,-2.74 12.73,-8.98 12.74,-17.56 0,-16 0.08,-32.02 0,-48.02 -0.01,-9.37 -6.88,-17.16 -16.18,-17.52l-0.07 0.08zm-37.86 -54.04c4.16,0.08 8.32,0 12.48,0 4.16,0 8.33,0 12.49,0 3.36,0 5.36,-1.79 5.48,-4.55 0.12,-2.76 -1.96,-4.97 -5.4,-5.01 -8.32,-0.07 -16.65,-0.07 -25.01,0 -3.21,0 -5.34,2.05 -5.37,4.76 -0.03,2.71 2.12,4.8 5.33,4.8zm-25.12 0c3.95,0 6.23,-1.8 6.19,-4.82 -0.04,-3.01 -2.38,-4.82 -6.28,-4.79 -3.9,0.03 -5.91,1.71 -5.98,4.73 -0.07,3.01 2.07,4.95 6.07,4.95l0 -0.07zm50.51 -60.75c-8.53,-0.12 -17.11,-0.11 -25.6,0 -0.07,-0 -0.14,-0 -0.21,-0 -2.63,0 -4.79,2.1 -4.87,4.73 0,2.72 2.07,4.74 5.26,4.8 4.16,0.09 8.32,0 12.48,0 4.16,0 8.54,0 12.81,0 3.13,0 5.05,-1.84 5.19,-4.51 0,-0.08 0.01,-0.16 0.01,-0.24 0,-2.61 -2.12,-4.73 -4.73,-4.73 -0.11,0 -0.22,0 -0.34,0.01l0 -0.07zm-50.63 25.59c-3.75,0 -5.88,1.75 -5.94,4.76 -0.05,3.01 2.03,4.84 6.07,4.84 4.04,0 6.23,-1.79 6.17,-4.82 -0.05,-3.03 -2.42,-4.82 -6.3,-4.79zm25.2 0c-0.12,-0.01 -0.25,-0.01 -0.37,-0.01 -2.7,0 -4.9,2.19 -4.9,4.9 0,0 0,0 0,0 0,2.74 2.13,4.61 5.4,4.66 4.05,0.07 8.11,0 12.16,0 4.26,0 8.54,0 12.81,0 3.3,0 5.26,-1.87 5.36,-4.66 0.09,-2.79 -1.95,-4.86 -5.2,-4.88 -8.42,-0.07 -16.84,-0.05 -25.26,0.05l0 -0.05z"/>
  </g>
 </g>
</svg>
