<svg id="Layer_1" data-name="Layer 1" xmlns="http://www.w3.org/2000/svg" viewBox="0 0 256 256"><defs><style>.cls-1{fill:#aab8dd;}</style></defs><path class="cls-1" d="M31.11,75.33c.44-.37.84-.8,1.26-1.21,29.62-28.71,73.86-31.67,107-7.24a9.07,9.07,0,0,0,5,1.62c11,.16,22,.1,32.94.11.85,0,1.71,0,2.82,0-.41,1.26-.68,2.12-1,3-3.61,10.52-7.26,21-10.78,31.58a7.63,7.63,0,0,0-.19,4.33,83.16,83.16,0,0,1,3.39,33.5c-.29,2.75,1.18,4.69,3.48,4.83s3.68-1.46,4-4.2A89.86,89.86,0,0,0,176.21,108a9.07,9.07,0,0,1,.18-5c4-11.9,8.09-23.73,12.15-35.59,1.48-4.34,0-6.33-4.55-6.34-12.55,0-25.11,0-37.67-.1a7.58,7.58,0,0,1-4.06-1.33,88.68,88.68,0,0,0-42.13-16.12c-3.53-.37-7.08-.53-10.62-.78a3.68,3.68,0,0,1-.22-.83c0-7.9-.17-15.8,0-23.7.16-6.2,5-10.53,11.33-10.53q48.78,0,97.56,0c6.69,0,11.21,4.59,11.3,11.31,0,1.91-.1,3.84.07,5.73a3.46,3.46,0,0,0,3.51,3.51c2.14.09,3.7-1,3.79-3.12a45.26,45.26,0,0,0-.26-10C215,6.11,207.5.26,197.89.25q-47.91,0-95.81,0c-12.78,0-20.3,7.53-20.3,20.32,0,7.48,0,15,0,22.61-.88.18-1.44.34-2,.4A83.74,83.74,0,0,0,41.67,57.23C36.12,61,31.13,65.57,26,69.94a3.59,3.59,0,0,0-.28,5.33C27.21,76.82,29.26,76.85,31.11,75.33ZM160.43,18.74a3.72,3.72,0,0,0,3.63,3.9,3.81,3.81,0,0,0,3.74-3.84,3.69,3.69,0,0,0-3.68-3.6A3.6,3.6,0,0,0,160.43,18.74Zm12.4,136.9c-2.09-.74-4,.36-4.94,2.92-.15.39-.27.79-.41,1.18a82.81,82.81,0,0,1-19.48,31c-1.12,1.13-1.92,1.19-3.39.53a57.66,57.66,0,0,0-9.09-3.28c-7.64-2-15.35-3.67-23-5.58-.89-.22-2.28-1-2.32-1.67-.16-2.58-1.09-5.49,2.08-7.25a4.64,4.64,0,0,0,1.8-2.33c.59-1.57,1.63-1.82,3.1-1.72s3.15,0,4.73,0c7.94,0,12.82-4.78,12.84-12.67,0-2.06.32-3.34,2.47-4.41,4.18-2.09,6.21-5.88,6.32-10.57a97.3,97.3,0,0,0-.08-11.71c-.25-2.46-.87-5.36-2.41-7.11-2.17-2.47-2.58-4.93-2.45-7.9a47,47,0,0,0-.06-8.47c-.63-4.58-1.08-9.33-2.67-13.61C127.7,71,103.14,57.4,80.09,62.5,59.92,67,46.61,79.35,41.69,99.6c-1.42,5.85-.63,12.23-1,18.36a6.15,6.15,0,0,1-1.36,3.42,13,13,0,0,0-3.5,8.58c0,4-.09,8,0,12A12.16,12.16,0,0,0,48,154c3.16.07,6.33-.06,9.48.08a4,4,0,0,1,2.36,1.24q4.16,4.44,8.1,9.06a5.24,5.24,0,0,1,1.36,2.89c.16,4.07,0,8.15.1,12.22.06,1.89-.67,2.78-2.49,3a12.14,12.14,0,0,0-1.94.46c-10.59,3-21.74,4-31.84,9a3,3,0,0,1-.56-.35c-.67-.63-1.33-1.26-2-1.92A80.3,80.3,0,0,1,8,135.44,81.23,81.23,0,0,1,20.41,89c1.56-2.51,1.22-4.65-.76-5.88s-4-.54-5.59,2A81.76,81.76,0,0,0,3.27,110.36C2,115.85,1.31,121.45.35,127v11.48a18.29,18.29,0,0,1,.44,2.18A84,84,0,0,0,13,178.75c15.32,24.86,37.63,39,66.59,42.63,1.77.23,2.88.7,3.58,2.64A17.8,17.8,0,0,0,100,235.82c15,.05,30.1,0,45.16,0,.8,0,2,0,2.34-.46.88-1.14,1.94-2.59,1.91-3.9,0-2.09-1.8-3.07-3.85-3.09-5.49,0-11,0-16.47,0-9.73,0-19.46,0-29.19,0-4.26,0-8-2.61-9-6a1.34,1.34,0,0,1,.44-.2l3-.19c25.75-1.44,47-12.05,63.94-31.4A86.42,86.42,0,0,0,175,161C175.81,158.43,175,156.4,172.83,155.64Zm-45.64,2.49a4,4,0,0,1-3.93,3.76c-2.71.16-5.43,0-8.52,0,1.93-2.71,3.28-5.68,5.56-7.4,1.52-1.14,4.39-.48,6.91-.64A41.63,41.63,0,0,1,127.19,158.13ZM136,130.07c.1,3.91.11,7.82,0,11.73a4.62,4.62,0,0,1-4.8,4.7c-2.56.08-5.13,0-7.31,0V125.26c3,0,5.35-.15,7.65,0A4.59,4.59,0,0,1,136,130.07ZM55.46,146.38a65.22,65.22,0,0,1-8.57-.09c-2.27-.28-3.5-2.19-3.56-4.51-.08-3.91-.1-7.82,0-11.73a4.6,4.6,0,0,1,4.5-4.76c2.3-.19,4.62,0,7.63,0Zm-.25-37c-.07,2.64,0,5.29,0,8.12H48.58C45,103.09,51.7,86.77,65.34,76.8a41.83,41.83,0,0,1,45.86-1.89c15.09,9.22,22.53,25.28,19.66,42.64h-6.65c0-2-.15-3.91,0-5.78,1-11.44-9.73-20.29-21.82-15.62a52.64,52.64,0,0,1-12,2.88c-5.19.69-9.92-1.65-14.72-3.22-5-1.62-9.69-1.29-14,1.76A14.28,14.28,0,0,0,55.21,109.37Zm7.47,29.47q-.1-14.22,0-28.44c0-6,4.73-9.35,10.55-7.47s11.49,4.44,17.68,3.55a127.32,127.32,0,0,0,15.19-3.59c2.74-.74,5.26-.77,7.59,1a7.15,7.15,0,0,1,3,6c0,10.07.08,20.13-.1,30.19-.09,5.5-2.31,10.31-5.78,14.56a2.64,2.64,0,0,1-2.71,1A74,74,0,0,0,95,155.29c-5,.5-8.14,4.65-8.35,9.68,0,.57,0,1.15,0,2.63a50.11,50.11,0,0,1-6.17-3.14,111.76,111.76,0,0,1-9.06-7A24,24,0,0,1,62.68,138.84ZM77,171.65c8.06,3.69,16.7,4.15,25.42,5,.79,8.67.79,8.67,5,12.27-8.81,10.2-25.61,10.24-35.67-.11C79.24,184.92,76,177.71,77,171.65Zm27.85-2.73h-4c-1.16,0-2.32,0-3.48,0-2.11,0-3.27-.92-3.28-3.12s.91-3.27,3.32-3.32,5,0,7.46,0c2.19,0,3.12,1.31,3.06,3.37A2.79,2.79,0,0,1,104.83,168.92ZM39.44,197.13c1.88-.62,3.55-1.28,5.28-1.7,5.31-1.32,10.67-2.47,16-3.84a3.57,3.57,0,0,1,3.78,1c4.31,4.06,8.82,7.89,14.6,9.73,11.87,3.77,22.85,1.9,32-6.55,4-3.71,7.59-4.94,12.73-3,3.94,1.47,8.2,2,12.3,3.08,1.33.34,2.6.92,4.06,1.45C108.24,223,63.08,217.36,39.44,197.13Zm89.74-182c-2.78,0-4.44,1.35-4.53,3.54s1.65,3.87,4.47,3.92c3.41.06,6.82,0,10.23,0s7,0,10.47,0c2.89,0,4.65-1.48,4.67-3.74s-1.72-3.71-4.61-3.72Q139.53,15.07,129.18,15.1ZM245.3,99C236,85,227.16,70.71,218.2,56.52a8.38,8.38,0,0,1-1.14-3.92c-.16-3.48,0-7-.09-10.47a3.6,3.6,0,0,0-3.57-3.73,3.76,3.76,0,0,0-3.83,3.52,20.66,20.66,0,0,0,0,2.49c0,17.8,0,35.59-.06,53.39a3.57,3.57,0,0,1-1.28,2.74c-9.91,5.34-14.6,13.66-14.57,24.81,0,8.57-.09,17.13,0,25.7a34.52,34.52,0,0,1-8,23,40.12,40.12,0,0,0-7.21,13.83c-2.4,7.89-1.69,16-1.61,24a25.49,25.49,0,0,0,3.56,12.32c.71,1.26,1.36,2.55,2.18,4.09-6.42,0-12.41,0-18.39,0-2.86,0-4.62,1.53-4.59,3.82s1.75,3.64,4.68,3.65c6.57,0,13.14,0,19.71,0,3.19,0,4,.76,4.12,4.07s.11,6.82,0,10.22c-.07,2.3.38,4.26,2.37,5.63H193a4.75,4.75,0,0,0,2.67-4.9c-.12-3.48.22-7-.11-10.46a23.49,23.49,0,0,0-2-7.57c-1.93-4.13-4.58-7.93-6.43-12.09a33.39,33.39,0,0,1-2.75-9.7,94.15,94.15,0,0,1-.06-12.46,32.61,32.61,0,0,1,7.49-20.18,41.39,41.39,0,0,0,9.32-27.24c-.11-8.89-.08-17.79,0-26.69.08-9.89,6.45-17.36,15.87-18.78,3.12-.47,3.49-.17,3.49,2.94v51.89c0,5.32,0,10.65,0,16,0,2.51,1.54,4.15,3.68,4.19s3.76-1.56,3.76-4.06q0-35.18,0-70.35a8.41,8.41,0,0,0-7.41-8.13,28.54,28.54,0,0,0-3.35,0V69.32a9.92,9.92,0,0,1,.85.92c8,12.55,16.14,25,23.9,37.68A43.59,43.59,0,0,1,248,136.4c-1,8.25-2.05,16.49-3.11,24.73-2.24,17.3-4.42,34.61-6.75,51.9-1.68,12.45-3.36,24.88-3.27,37.48,0,2.28.57,4,2.54,5.25h2.5c2-1.21,2.51-3,2.55-5.26.09-5.81.17-11.65.79-17.42,1.17-10.91,2.71-21.77,4.11-32.65,2.44-18.87,4.56-37.78,7.43-56.59C257.26,127.54,254.52,112.75,245.3,99Z"/></svg>