<?xml version="1.0" encoding="UTF-8"?>
<!DOCTYPE svg PUBLIC "-//W3C//DTD SVG 1.1//EN" "http://www.w3.org/Graphics/SVG/1.1/DTD/svg11.dtd">
<!-- Creator: CorelDRAW -->
<svg xmlns="http://www.w3.org/2000/svg" xml:space="preserve" width="2.65939in" height="2.66156in" version="1.1" style="shape-rendering:geometricPrecision; text-rendering:geometricPrecision; image-rendering:optimizeQuality; fill-rule:evenodd; clip-rule:evenodd"
viewBox="0 0 402.59 402.91"
 xmlns:xlink="http://www.w3.org/1999/xlink"
 xmlns:xodm="http://www.corel.com/coreldraw/odm/2003"
 data-name="Layer 1">
 <defs>
  <style type="text/css">
   <![CDATA[
    .fil0 {fill:#E6E6E6;fill-rule:nonzero}
   ]]>
  </style>
 </defs>
 <g id="Layer_x0020_1">
  <metadata id="CorelCorpID_0Corel-Layer"/>
  <g id="_2549412563968">
   <path class="fil0" d="M48.51 118.39c0.69,-0.58 1.32,-1.26 1.99,-1.91 46.71,-45.27 116.47,-49.94 168.73,-11.42 2.32,1.61 5.06,2.5 7.88,2.55 17.35,0.25 34.69,0.16 51.94,0.17 1.34,0 2.7,0 4.45,0 -0.65,1.99 -1.07,3.34 -1.58,4.73 -5.69,16.59 -11.45,33.12 -17,49.8 -0.43,1.26 -0.66,2.59 -0.66,3.92 0,0.98 0.12,1.96 0.36,2.91 3.99,12.72 6.04,26.01 6.04,39.34 0,4.5 -0.24,9.01 -0.69,13.48 -0.46,4.34 1.86,7.4 5.49,7.62 3.63,0.22 5.8,-2.3 6.31,-6.62 0.52,-4.92 0.78,-9.94 0.78,-14.9 0,-12.89 -1.78,-25.76 -5.24,-38.16 -0.27,-1.12 -0.41,-2.28 -0.41,-3.44 0,-1.5 0.24,-3.01 0.71,-4.44 6.31,-18.76 12.76,-37.42 19.16,-56.12 2.33,-6.84 0,-9.98 -7.18,-10 -19.79,0 -39.6,0 -59.4,-0.16 -2.29,-0.07 -4.51,-0.8 -6.4,-2.1 -19.57,-14.05 -42.48,-22.82 -66.44,-25.42 -5.57,-0.58 -11.16,-0.84 -16.75,-1.23 -0.16,-0.42 -0.28,-0.86 -0.34,-1.31 0,-12.46 -0.27,-24.91 0,-37.37 0.25,-9.78 7.88,-16.6 17.87,-16.6 51.28,0 102.56,-0 153.84,-0 10.55,0 17.68,7.24 17.82,17.83 0,3.01 -0.16,6.06 0.11,9.04 -0,0.03 -0,0.05 -0,0.08 0,3.01 2.44,5.46 5.46,5.46 0.03,0 0.05,-0 0.08,-0 3.37,0.14 5.83,-1.58 5.98,-4.92 0.17,-2.01 0.26,-4.03 0.26,-6.04 0,-3.25 -0.23,-6.51 -0.66,-9.72 -2.51,-14.2 -14.34,-23.42 -29.49,-23.44 -50.37,0 -100.73,0 -151.08,0 -20.15,0 -32.01,11.87 -32.01,32.04 0,11.8 0,23.65 0,35.65 -1.39,0.28 -2.27,0.54 -3.15,0.63 -21.47,2.15 -42.14,9.56 -60.1,21.53 -8.75,5.94 -16.62,13.15 -24.71,20.04 -1.33,1.07 -2.1,2.69 -2.1,4.4 0,1.5 0.6,2.94 1.66,4 2.35,2.44 5.58,2.49 8.5,0.09zm203.92 -89.24c-0,0.09 -0.01,0.19 -0.01,0.29 0,3.19 2.55,5.79 5.73,5.87 3.27,-0.06 5.9,-2.73 5.9,-6.01 0,-0.02 0,-0.03 0,-0.05 -0.08,-3.15 -2.65,-5.67 -5.8,-5.68 -0.05,-0 -0.1,-0 -0.14,-0 -3.1,0 -5.63,2.49 -5.68,5.58zm19.55 215.88c-3.3,-1.17 -6.31,0.57 -7.79,4.6 -0.24,0.62 -0.43,1.25 -0.65,1.86 -6.46,18.36 -16.98,35.09 -30.72,48.88 -1.77,1.78 -3.03,1.88 -5.35,0.84 -4.61,-2.12 -9.42,-3.86 -14.32,-5.17 -12.05,-3.15 -24.21,-5.79 -36.27,-8.8 -1.4,-0.35 -3.6,-1.58 -3.66,-2.63 -0.25,-4.07 -1.72,-8.66 3.28,-11.43 1.32,-0.88 2.31,-2.17 2.84,-3.67 0.93,-2.48 2.57,-2.87 4.89,-2.71 2.32,0.16 4.97,0 7.46,0 12.52,0 20.22,-7.54 20.25,-19.98 0,-3.25 0.5,-5.27 3.89,-6.95 6.59,-3.3 9.79,-9.27 9.97,-16.67 0.12,-2.7 0.22,-5.47 0.22,-8.19 0,-3.43 -0.11,-6.87 -0.34,-10.28 -0.39,-3.88 -1.37,-8.45 -3.8,-11.21 -3.42,-3.89 -4.07,-7.77 -3.86,-12.46 0.16,-2.04 0.25,-4.1 0.25,-6.15 0,-2.4 -0.13,-4.82 -0.35,-7.2 -0.99,-7.22 -1.7,-14.71 -4.21,-21.46 -12.88,-34.67 -51.61,-56.12 -87.96,-48.08 -31.81,7.1 -52.79,26.57 -60.55,58.5 -2.24,9.22 -0.99,19.29 -1.58,28.95 -0.15,1.97 -0.9,3.86 -2.14,5.39 -3.44,3.67 -5.41,8.5 -5.52,13.53 0,6.31 -0.14,12.62 0,18.92 0.1,10.52 8.66,18.99 19.17,18.99 0,0 0.01,0 0.02,0 4.98,0.11 9.98,-0.09 14.95,0.13 1.43,0.21 2.74,0.9 3.72,1.96 4.37,4.67 8.63,9.43 12.77,14.29 1.17,1.26 1.92,2.85 2.15,4.56 0.25,6.42 0,12.85 0.16,19.27 0.09,2.98 -1.06,4.38 -3.93,4.73 -1.04,0.16 -2.06,0.4 -3.06,0.72 -16.7,4.73 -34.28,6.31 -50.21,14.19 -0.31,-0.15 -0.61,-0.34 -0.88,-0.55 -1.06,-0.99 -2.1,-1.99 -3.15,-3.03 -22.23,-22.99 -34.97,-53.57 -35.58,-85.54 -0.07,-1.66 -0.11,-3.35 -0.11,-5.02 0,-24.13 6.83,-47.77 19.67,-68.2 2.46,-3.96 1.92,-7.33 -1.2,-9.27 -3.12,-1.94 -6.31,-0.85 -8.81,3.15 -7.87,12.2 -13.63,25.67 -17.01,39.79 -2.01,8.66 -3.1,17.49 -4.61,26.24l0 18.1c0.3,1.13 0.54,2.28 0.69,3.44 1.47,21.26 8.1,41.91 19.26,60.07 24.16,39.2 59.34,61.5 105.01,67.22 2.79,0.36 4.54,1.1 5.65,4.16 3.98,11.15 14.57,18.6 26.42,18.6 0.03,0 0.08,0 0.11,0 23.65,0.08 47.46,0 71.21,0 1.26,0 3.15,0 3.69,-0.73 1.39,-1.8 3.06,-4.08 3.01,-6.15 0,-3.3 -2.84,-4.84 -6.07,-4.87 -8.66,0 -17.35,0 -25.97,0 -15.34,0 -30.69,0 -46.03,0 -6.72,0 -12.62,-4.12 -14.19,-9.46 0.21,-0.15 0.45,-0.25 0.69,-0.32l4.73 -0.3c40.61,-2.27 74.11,-19 100.83,-49.51 11.78,-13.64 20.76,-29.51 26.37,-46.65 1.28,-4.05 -0,-7.25 -3.42,-8.45zm-71.97 3.93c-0.2,3.29 -2.9,5.88 -6.2,5.93 -4.27,0.25 -8.56,0 -13.44,0 3.04,-4.27 5.17,-8.96 8.77,-11.67 2.4,-1.8 6.92,-0.76 10.9,-1.01 0.04,1.01 0.07,2.05 0.07,3.07 0,1.23 -0.04,2.46 -0.1,3.68l0 0zm13.89 -44.25c0.16,6.17 0.17,12.33 0,18.5 0,0.04 0,0.09 0,0.13 0,4.02 -3.26,7.29 -7.29,7.29 -0.09,0 -0.19,-0 -0.28,-0.01 -4.04,0.13 -8.09,0 -11.53,0l0 -33.49c4.73,0 8.44,-0.24 12.06,0 3.92,0.11 7.04,3.31 7.04,7.23 0,0.12 -0,0.23 -0.01,0.35l0 0zm-127 25.72c-1.87,0.11 -3.8,0.16 -5.68,0.16 -2.61,0 -5.24,-0.11 -7.83,-0.3 -3.58,-0.44 -5.52,-3.45 -5.61,-7.11 -0.13,-6.17 -0.16,-12.33 0,-18.5 -0,-0.08 -0,-0.17 -0,-0.25 0,-3.95 3.16,-7.17 7.1,-7.25 3.63,-0.3 7.29,0 12.03,0l-0 33.26zm-0.39 -58.34c-0.11,4.16 0,8.34 0,12.8l-10.45 0c-5.65,-22.72 4.92,-48.46 26.43,-64.18 11.19,-8.02 24.65,-12.35 38.43,-12.35 11.93,0 23.65,3.25 33.89,9.37 23.8,14.54 35.53,39.86 31,67.24l-10.49 -0c0,-3.15 -0.24,-6.17 0,-9.11 1.58,-18.04 -15.34,-32 -34.41,-24.63 -6.1,2.24 -12.46,3.78 -18.92,4.54 -8.18,1.09 -15.64,-2.6 -23.21,-5.08 -7.88,-2.55 -15.28,-2.03 -22.08,2.78 -6.29,4.11 -10.11,11.09 -10.19,18.61l0 0.01zm11.78 46.47c-0.1,-14.95 -0.1,-29.9 0,-44.85 0,-9.46 7.46,-14.74 16.64,-11.78 9.18,2.97 18.12,7 27.88,5.6 8.09,-1.37 16.11,-3.31 23.95,-5.66 4.32,-1.17 8.29,-1.21 11.97,1.58 2.97,2.11 4.74,5.54 4.74,9.18 0,0.09 -0,0.19 -0,0.28 0,15.88 0.13,31.74 -0.16,47.61 -0.14,8.67 -3.64,16.26 -9.11,22.96 -0.78,1.06 -2.03,1.68 -3.34,1.68 -0.31,0 -0.63,-0.04 -0.93,-0.11 -4.48,-0.52 -9.01,-0.79 -13.52,-0.79 -2.38,0 -4.77,0.07 -7.14,0.21 -7.88,0.79 -12.84,7.33 -13.17,15.26 0,0.9 0,1.81 0,4.15 -3.34,-1.42 -6.61,-3.08 -9.72,-4.95 -4.92,-3.42 -9.74,-7.14 -14.28,-11.03 -8.73,-7.19 -13.79,-17.91 -13.79,-29.22 0,-0.05 0,-0.11 0,-0.15l-0 0.02zm22.58 51.72c12.71,5.82 26.33,6.54 40.08,7.88 1.25,13.67 1.25,13.67 7.88,19.35 -13.89,16.08 -40.38,16.15 -56.25,-0.17 11.81,-6.13 6.7,-17.5 8.28,-27.06zm43.92 -4.3l-6.31 0c-1.83,0 -3.66,0 -5.49,0 -3.33,0 -5.16,-1.45 -5.17,-4.92 -0.02,-3.47 1.44,-5.16 5.24,-5.24 3.8,-0.08 7.88,0 11.76,0 3.45,0 4.92,2.07 4.83,5.31 0.02,0.16 0.03,0.31 0.03,0.47 0,2.43 -1.97,4.4 -4.4,4.4 -0.17,0 -0.34,-0.01 -0.51,-0.03l0.03 0zm-103.15 44.48c2.96,-0.98 5.6,-2.02 8.33,-2.68 8.37,-2.08 16.83,-3.89 25.23,-6.06 0.57,-0.19 1.17,-0.29 1.78,-0.29 1.6,0 3.12,0.68 4.19,1.86 6.8,6.4 13.91,12.44 23.02,15.34 18.72,5.95 36.03,3 50.46,-10.33 6.31,-5.85 11.97,-7.79 20.07,-4.73 6.21,2.32 12.93,3.15 19.4,4.86 2.1,0.54 4.1,1.45 6.4,2.29 -50.38,40.53 -121.6,31.63 -158.87,-0.27zm141.51 -286.99c-4.38,0 -7,2.13 -7.14,5.58 -0.14,3.45 2.6,6.1 7.05,6.18 5.38,0.09 10.75,0 16.13,0 5.38,0 11.04,0 16.51,0 4.56,0 7.33,-2.33 7.36,-5.9 0.03,-3.56 -2.71,-5.85 -7.27,-5.87 -10.88,-0.06 -21.76,-0.08 -32.64,-0.05l0 0.05zm183.11 132.25c-14.67,-22.08 -28.6,-44.61 -42.73,-66.99 -1.1,-1.88 -1.72,-4 -1.8,-6.18 -0.25,-5.49 0,-11.04 -0.14,-16.51 0,-0.07 0,-0.14 0,-0.21 0,-3.12 -2.52,-5.65 -5.63,-5.68 -0.04,0 -0.08,-0 -0.12,-0 -3.13,0 -5.72,2.43 -5.92,5.55 -0.04,0.65 -0.06,1.31 -0.06,1.96 0,0.65 0.02,1.32 0.06,1.96 0,28.07 0,56.12 -0.09,84.19 0,-0 0,0 0,0 0,1.67 -0.74,3.25 -2.02,4.32 -15.63,8.42 -23.02,21.54 -22.98,39.12 0,13.51 -0.14,27.01 0,40.53 0,0.46 0.02,0.93 0.02,1.4 0,12.74 -4.48,25.09 -12.63,34.87 -5.18,6.45 -9.05,13.87 -11.37,21.8 -3.78,12.44 -2.66,25.23 -2.54,37.85 0.18,6.85 2.12,13.54 5.62,19.43 1.12,1.99 2.14,4.02 3.44,6.45 -10.12,0 -19.57,0 -29,0 -4.51,0 -7.29,2.41 -7.24,6.02 0.05,3.61 2.76,5.74 7.38,5.76 10.36,0 20.72,0 31.08,0 5.03,0 6.31,1.2 6.5,6.42 0.19,5.22 0.17,10.75 0,16.12 -0.11,3.63 0.6,6.72 3.74,8.88l3.97 0c2.61,-1.24 4.27,-3.87 4.27,-6.76 0,-0.32 -0.02,-0.64 -0.06,-0.96 -0.19,-5.49 0.35,-11.04 -0.17,-16.49 -0.38,-4.12 -1.44,-8.17 -3.15,-11.94 -3.04,-6.51 -7.22,-12.5 -10.14,-19.06 -2.21,-4.85 -3.67,-10.01 -4.33,-15.29 -0.23,-3.49 -0.38,-7.04 -0.38,-10.54 0,-3.03 0.09,-6.11 0.27,-9.12 0.22,-11.63 4.4,-22.86 11.82,-31.82 9.51,-11.65 14.72,-26.24 14.72,-41.29 0,-0.55 -0.02,-1.12 -0.02,-1.67 -0.17,-14.02 -0.13,-28.05 0,-42.09 0.13,-15.6 10.17,-27.38 25.03,-29.61 4.92,-0.74 5.5,-0.27 5.5,4.64l0 81.82c0,8.39 0,16.79 0,25.23 0,3.96 2.43,6.54 5.8,6.61 3.37,0.06 5.93,-2.46 5.93,-6.4 0,-36.98 0,-73.96 0,-110.94 -0.17,-6.58 -5.15,-12.04 -11.69,-12.82 -0.87,-0.05 -1.76,-0.08 -2.64,-0.08 -0.88,0 -1.77,0.03 -2.64,0.08l0 -45.37c0.48,0.45 0.93,0.94 1.34,1.45 12.62,19.79 25.45,39.42 37.69,59.42 6.65,10.82 10.17,23.29 10.17,35.98 0,2.98 -0.19,5.97 -0.58,8.93 -1.58,13.01 -3.23,26 -4.9,39 -3.53,27.28 -6.97,54.58 -10.64,81.84 -2.65,19.63 -5.3,39.23 -5.16,59.1 0,3.6 0.9,6.31 4.01,8.28l3.94 0c3.15,-1.91 3.96,-4.73 4.02,-8.29 0.14,-9.16 0.27,-18.37 1.25,-27.47 1.85,-17.2 4.27,-34.33 6.48,-51.49 3.85,-29.76 7.19,-59.58 11.72,-89.24 3.89,-25.7 -0.43,-49.03 -14.96,-70.71z"/>
  </g>
 </g>
</svg>
