<svg id="Layer_1" data-name="Layer 1" xmlns="http://www.w3.org/2000/svg" viewBox="0 0 256 256"><defs><style>.cls-1{fill:#aab8dd;}</style></defs><path class="cls-1" d="M176.54,224a15.29,15.29,0,0,0,17.4,5.22,15.45,15.45,0,0,0,10.45-14.94,13.61,13.61,0,0,0-2.13-7.67c-2.32-3.69-4.63-7.4-7.19-10.92A15.55,15.55,0,0,0,169,212.58,125.48,125.48,0,0,0,176.54,224Zm1.62-25.74a7.86,7.86,0,0,1,10.83,1.8c2.48,3.44,4.76,7,7,10.67a16.63,16.63,0,0,1,1.21,3.73,8.61,8.61,0,0,1-5.55,7.68,7.87,7.87,0,0,1-9.14-2.67c-2.47-3.46-4.83-7-7-10.67A7.9,7.9,0,0,1,178.16,198.29ZM252.27,11.5c-2.17-1.92-4.77-2.32-7.58-2.32Q128,9.23,11.35,9.2H9.92A9.56,9.56,0,0,0,.32,19q0,50.84,0,101.66A9.55,9.55,0,0,0,10,130.55c2.71,0,5.42,0,8.14,0H79.94c1,0,1.77,0,2.28,1.2,5,11.22,10,22.41,15,33.62a1.85,1.85,0,0,1,0,1.46c-2.25,3.54-4.57,7-7,10.67l-1.46-.73a32.29,32.29,0,0,0-42.53,10.6q-3.16,4.71-6.2,9.48a31.78,31.78,0,0,0-3.93,26.9c4.38,15.33,20.35,25.34,36,22.62,9.93-1.72,17.36-7,22.8-15.4,7.65-11.83,15.52-23.53,23.09-35.41,3.83-6,8.92-5.78,14.87-4.42,2.32.53,3.67,2.57,4.95,4.53q11.76,18,23.58,36.05c5.65,8.61,13.59,13.81,23.81,14.83,12.69,1.26,23.12-3.43,30.23-14,7.21-10.75,7.62-22.25,1.43-33.68a122.19,122.19,0,0,0-8.24-12.72,32.14,32.14,0,0,0-37.37-11.27c-1.92.71-3.75,1.67-5.75,2.57-1.82-2.77-3.46-5.64-5.47-8.23a4.94,4.94,0,0,1-.46-6.14c1.57-2.89,2.8-6,4.08-9a3.7,3.7,0,0,0-1.88-5,3.75,3.75,0,0,0-4.87,1.83c-.23.42-.41.87-.61,1.3q-4.44,9.9-8.9,19.78a18.45,18.45,0,0,1-9.88,9.71,20.52,20.52,0,0,1-9.7,1.25c-6.49-.45-11.59,2.1-15.3,7.43-.26.38-.57.72-.94,1.18l-15.06-9.87c.36-.6.62-1.05.9-1.49L130,130.55l41.18-62.86c1.74-2.65,3-2.72,5.05-.31,1.83,2.15,3.62,4.33,5.48,6.44,4.47,5.05,5.2,10.54,2.4,16.69-6.66,14.66-13.22,29.37-19.81,44.07-1.08,2.41-.4,4.48,1.66,5.4s4,.05,5.15-2.35c.84-1.78,1.68-3.56,2.39-5.39a2.36,2.36,0,0,1,2.61-1.71c11.7.06,23.41,0,35.11,0s23.09,0,34.63,0a9.53,9.53,0,0,0,9.78-9.8q0-50.84,0-101.67A9.66,9.66,0,0,0,252.27,11.5ZM170.15,183.72a24.37,24.37,0,0,1,32.4,6.69,98.82,98.82,0,0,1,8.79,14c5.53,11.36.94,25.1-10.06,31.52s-25.24,3.5-32.41-6.87c-7-10.1-13.54-20.48-20.28-30.74a1.6,1.6,0,0,1-.08-.39,5.31,5.31,0,0,1,.64-.6C156.14,192.79,163,188.05,170.15,183.72Zm-15.5-9.35c1.7,2.6,3.18,4.84,4.77,7.28l-15.12,9.92-2.62-3.45A27,27,0,0,0,154.65,174.37Zm-47.53,23.15a3.91,3.91,0,0,1,.48.52l-9,13.77c-3.5,5.34-7,10.7-10.51,16-7.62,11.43-21.75,14.79-33.51,8a24.64,24.64,0,0,1-9.06-33.31,139.11,139.11,0,0,1,8-12.29,24.42,24.42,0,0,1,32.06-6.69C92.92,187.94,100,192.85,107.12,197.52ZM7.78,28.47q0-4.45,0-8.93c0-2.14.72-2.83,2.9-2.86H244.17c.64,0,1.28,0,1.92,0a2,2,0,0,1,2.07,2c.08,3.72.07,7.45,0,11.17,0,.31-.57.73-1,.87a4.19,4.19,0,0,1-1.42,0H10.06C7.4,30.8,7.8,31,7.78,28.47ZM31.25,99.76c0,1.27-.27,1.76-1.66,1.75-6.76-.07-13.51,0-20.27,0-.42,0-.84,0-1.43-.07v-63c.58,0,1-.07,1.51-.07,6.71,0,13.41,0,20.11,0,1.48,0,1.74.49,1.74,1.83Q31.19,69.93,31.25,99.76Zm71.31,59.08c-4.32-9.64-8.42-18.77-12.63-28.13H121Zm31.84-48.61c-2.52,3.88-5.09,7.73-7.58,11.63a2.45,2.45,0,0,1-2.34,1.25q-56.82,0-113.63,0c-2.4,0-3.06-.66-3.07-3,0-3.19.07-6.38,0-9.57,0-1.35.47-1.58,1.66-1.58q16.75.06,33.51,0a7.35,7.35,0,0,0,2.34-.31,3.58,3.58,0,0,0,2.37-3.9,3.67,3.67,0,0,0-3.29-3.19,36.44,36.44,0,0,0-4.31,0c-1.07,0-1.39-.37-1.36-1.39.06-1.7,0-3.4,0-5.11V38.28h83.4c2.15,0,2.16,0,2.16,2.2V99.37c0,2.11,0,2.11-2.08,2.11H63.28c-.69,0-1.39,0-2.08,0a3.71,3.71,0,0,0-.28,7.38,12.29,12.29,0,0,0,1.92.06H135A12.44,12.44,0,0,1,134.4,110.23Zm47-48.36c-4.71-5.35-12.07-4.87-16,1.09q-12.16,18.45-24.21,37a2.91,2.91,0,0,1-3,1.58,48.39,48.39,0,0,0-5.11,0c-1.05,0-1.47-.38-1.37-1.4a7.12,7.12,0,0,0,0-.8V40.41c0-2.12,0-2.13,2.08-2.13q40.77,0,81.54,0c1.51,0,2.09.36,2,1.93s0,3.4,0,5.1c0,2.58,1.5,4.3,3.7,4.32s3.74-1.69,3.76-4.25c0-2,0-3.93,0-5.9,0-.77.2-1.18,1.08-1.18q10.92,0,21.86,0c.09,0,.19.09.4.19v62.85c-.52,0-1,.11-1.43.11-6.76,0-13.52,0-20.27,0-1.39,0-1.66-.49-1.66-1.75q.06-17.72,0-35.43a8.23,8.23,0,0,0-.16-2,3.66,3.66,0,0,0-3.89-2.64,3.71,3.71,0,0,0-3.35,3.13,12.74,12.74,0,0,0-.06,1.75c0,11.7,0,23.41,0,35.11,0,1.43-.34,1.9-1.85,1.88-8.67-.07-17.34,0-26,0-.56,0-1.13,0-2-.09.79-1.77,1.52-3.29,2.13-4.84a61.63,61.63,0,0,0,3.21-8.64c1.52-6.64-.23-12.64-4.51-17.89C186.05,67.25,183.73,64.55,181.38,61.87Zm66.82,58.5c0,1.89-.74,2.7-2.56,2.7q-33.4,0-66.83,0a10.57,10.57,0,0,1-1.05-.16c2.05-4.55,4-8.91,6-13.22.21-.44,1.21-.71,1.85-.71,9.78,0,19.56,0,29.34,0,10.48,0,21,0,31.42,0,1.49,0,1.89.43,1.84,1.88C248.14,114,248.23,117.18,248.2,120.37Zm-130.89,43a13,13,0,1,0,13-13A13,13,0,0,0,117.31,163.33Zm18.52,0a5.59,5.59,0,0,1-5.51,5.5,5.53,5.53,0,0,1-5.51-5.46,5.45,5.45,0,0,1,5.39-5.54A5.51,5.51,0,0,1,135.83,163.37ZM82,192.05a15.46,15.46,0,0,0-21.15,3.78c-2.55,3.52-4.85,7.24-7.17,10.92a14.32,14.32,0,0,0-2.15,7.75,27.27,27.27,0,0,0,.36,3.16c1.52,6.46,5.53,10.65,12,12.05,6.67,1.45,12.17-.88,16.15-6.42,2.35-3.27,4.54-6.68,6.64-10.12A15.54,15.54,0,0,0,82,192.05Zm-1.86,17.43q-3,5-6.39,9.73a8,8,0,0,1-9.32,3,8.8,8.8,0,0,1-5.68-7.84,25.61,25.61,0,0,1,1.65-4.23c1.92-3.18,4-6.28,6.08-9.36a8.11,8.11,0,1,1,13.66,8.73ZM64.94,81.84C65,89.17,71.64,92.92,78,89.27q10.22-5.86,20.42-11.78c6.5-3.77,6.5-11.43,0-15.22Q88.23,56.35,78,50.49c-6.38-3.65-13,.1-13,7.44,0,4,0,8,0,12S64.89,77.86,64.94,81.84Zm7.47-23.48c0-1.88.47-2.16,2.06-1.25q10,5.76,20,11.55c1.66,1,1.64,1.49-.07,2.49Q84.48,76.9,74.53,82.62c-1.67,1-2.11.69-2.12-1.29,0-3.83,0-7.66,0-11.49S72.4,62.18,72.41,58.36Z"/></svg>