<?xml version="1.0" encoding="UTF-8"?>
<!DOCTYPE svg PUBLIC "-//W3C//DTD SVG 1.1//EN" "http://www.w3.org/Graphics/SVG/1.1/DTD/svg11.dtd">
<!-- Creator: CorelDRAW -->
<svg xmlns="http://www.w3.org/2000/svg" xml:space="preserve" width="2.65957in" height="2.47535in" version="1.1" style="shape-rendering:geometricPrecision; text-rendering:geometricPrecision; image-rendering:optimizeQuality; fill-rule:evenodd; clip-rule:evenodd"
viewBox="0 0 1607.39 1496.05"
 xmlns:xlink="http://www.w3.org/1999/xlink"
 xmlns:xodm="http://www.corel.com/coreldraw/odm/2003"
 data-name="Layer 1">
 <defs>
  <style type="text/css">
   <![CDATA[
    .fil0 {fill:#E6E6E6;fill-rule:nonzero}
   ]]>
  </style>
 </defs>
 <g id="Layer_x0020_1">
  <metadata id="CorelCorpID_0Corel-Layer"/>
  <g id="_2549261251200">
   <path class="fil0" d="M1109.44 1352.42c18.17,24.23 46.73,38.52 77.02,38.52 11.08,0 22.09,-1.93 32.52,-5.67 39.34,-13.43 65.81,-50.45 65.81,-92.03 0,-0.66 -0.01,-1.37 -0.02,-2.02 0.01,-0.72 0.03,-1.48 0.03,-2.22 0,-16.32 -4.68,-32.31 -13.44,-46.07 -14.6,-23.23 -29.15,-46.59 -45.27,-68.75 -18.38,-25.55 -47.97,-40.73 -79.47,-40.73 -54.06,0 -97.9,43.84 -97.9,97.9 0,17.26 4.58,34.25 13.24,49.17 14.41,24.72 30.52,48.93 47.49,71.88l-0.02 0.02zm10.2 -162.05c8.29,-5.78 18.17,-8.88 28.28,-8.88 15.75,0 30.58,7.51 39.9,20.21 15.61,21.66 29.97,44.07 44.07,67.17 3.45,7.5 6.02,15.39 7.62,23.49 -0.94,21.63 -14.69,40.67 -34.94,48.34 -5.64,2.16 -11.66,3.27 -17.71,3.27 -15.71,0 -30.49,-7.46 -39.83,-20.08 -15.55,-21.78 -30.41,-44.07 -44.07,-67.17 -4.13,-7.4 -6.31,-15.75 -6.31,-24.23 0,-16.98 8.67,-32.8 22.99,-41.93l0 -0.19zm466.57 -1175.76c-13.66,-12.09 -30.03,-14.6 -47.72,-14.6 -489.76,0.21 -979.43,0.25 -1469.01,0.13l-9 0c-0.09,0 -0.18,0 -0.27,0 -33.23,0 -60.19,26.95 -60.19,60.19 0,0.5 0.01,1.02 0.02,1.51 -0,213.38 -0,426.71 -0,640.01 -0.02,0.71 -0.04,1.43 -0.04,2.15 0,33.2 26.92,60.12 60.12,60.12 0.28,0 0.59,-0.01 0.86,-0.01 17.06,0 34.12,0 51.25,0l389.06 0c6.3,0 11.14,0 14.36,7.55 31.48,70.64 62.96,141.08 94.44,211.66 0.62,1.45 0.95,3.01 0.95,4.59 0,1.58 -0.32,3.15 -0.94,4.59 -14.16,22.29 -28.77,44.07 -44.07,67.17l-9.19 -4.59c-29.94,-16.42 -63.6,-25.06 -97.77,-25.06 -68.5,0 -132.43,34.52 -169.98,91.78 -13.27,19.78 -26.28,39.68 -39.04,59.7 -21.82,32.8 -33.49,71.39 -33.49,110.82 0,19.84 2.96,39.57 8.74,58.52 27.58,96.51 128.12,159.53 226.64,142.41 62.51,-10.83 109.29,-44.07 143.54,-96.95 48.16,-74.48 97.71,-148.13 145.36,-222.93 24.11,-37.77 56.16,-36.39 93.62,-27.83 14.6,3.34 23.1,16.18 31.16,28.52 49.36,75.55 98.85,151.21 148.46,226.97 35.57,54.21 85.56,86.94 149.9,93.36 79.89,7.93 145.56,-21.59 190.32,-88.14 45.39,-67.68 47.97,-140.08 9,-212.04 -15.45,-27.57 -33.02,-54.62 -51.89,-80.07 -38,-52.68 -99.07,-83.91 -164.04,-83.91 -24.31,0 -48.47,4.4 -71.22,12.94 -12.09,4.47 -23.61,10.51 -36.2,16.18 -11.46,-17.44 -21.78,-35.51 -34.44,-51.81 -5.32,-5.75 -8.29,-13.3 -8.29,-21.14 0,-6.25 1.88,-12.35 5.4,-17.51 9.88,-18.19 17.63,-37.77 25.69,-56.66 1.5,-3.14 2.29,-6.58 2.29,-10.07 0,-9.32 -5.56,-17.74 -14.12,-21.41 -2.95,-1.27 -6.14,-1.93 -9.35,-1.93 -9.1,0 -17.4,5.24 -21.31,13.45 -1.45,2.64 -2.58,5.48 -3.84,8.19 -18.63,41.55 -37.31,83.06 -56.03,124.53 -11.99,27.66 -34.34,49.61 -62.21,61.13 -14.83,5.72 -30.65,8.69 -46.57,8.69 -4.84,0 -9.68,-0.28 -14.49,-0.82 -40.86,-2.83 -72.96,13.22 -96.32,46.78 -1.64,2.39 -3.59,4.53 -5.92,7.43l-94.81 -62.14c2.27,-3.78 3.9,-6.61 5.67,-9.38l205.16 -312.57 259.25 -395.74c10.95,-16.68 18.89,-17.12 31.79,-1.95 11.52,13.54 22.79,27.26 34.5,40.54 28.14,31.79 32.74,66.36 15.11,105.07 -41.93,92.29 -83.23,184.9 -124.72,277.44 -6.8,15.17 -2.52,28.2 10.45,34 12.97,5.79 25.18,0.31 32.42,-14.8 5.29,-11.21 10.58,-22.41 15.05,-33.93 1.78,-6.45 7.64,-10.92 14.33,-10.92 0.7,0 1.41,0.05 2.11,0.15 73.66,0.38 147.38,0 221.04,0 73.66,0 145.36,0 218.02,0 0.52,0.01 1.07,0.02 1.6,0.02 33.13,0 60,-26.86 60,-59.99 0,-0.57 -0.01,-1.16 -0.02,-1.72 -0,-213.38 -0,-426.74 -0,-640.07 0.01,-0.48 0.02,-0.99 0.02,-1.48 0,-17.72 -7.74,-34.56 -21.17,-46.12l-0 -0zm-516.99 1084.23c23.89,-14.41 51.3,-22.03 79.2,-22.03 49.49,0 95.98,23.92 124.77,64.15 20.78,27.75 39.47,57.29 55.34,88.13 34.81,71.52 5.92,158.02 -63.33,198.44 -69.25,40.42 -158.9,22.03 -204.04,-43.25 -44.07,-63.59 -85.24,-128.93 -127.68,-193.53 -0.27,-0.79 -0.44,-1.62 -0.5,-2.46 1.23,-1.36 2.59,-2.63 4.03,-3.78 44.01,-28.58 87.19,-58.42 132.21,-85.68zm-97.58 -58.86c10.7,16.37 20.02,30.47 30.03,45.83l-95.19 62.45 -16.49 -21.72c36.73,-18.05 65.78,-48.85 81.66,-86.57l-0 0zm-299.23 145.74c1.1,0.99 2.12,2.09 3.02,3.27l-56.66 86.69c-22.03,33.62 -44.07,67.36 -66.17,100.73 -47.97,71.96 -136.93,93.11 -210.97,50.37 -47.57,-27.82 -76.82,-78.8 -76.82,-133.91 0,-26.53 6.82,-52.65 19.77,-75.79 15.38,-26.58 32.27,-52.56 50.34,-77.37 28.96,-39.67 75.15,-63.16 124.25,-63.16 27.27,0 54.09,7.28 77.63,21.04 46.2,27.82 90.77,58.73 135.6,88.13zm-625.4 -1064.27c0,-18.68 0,-37.42 0,-56.22 0,-13.47 4.53,-17.82 18.26,-18.01l1469.96 0c4.03,0 8.06,0 12.09,0 0.15,-0.01 0.3,-0.01 0.44,-0.01 6.95,0 12.59,5.64 12.59,12.59 0,0 0,0.01 0,0.01 0.5,23.42 0.44,46.9 0,70.32 0,1.95 -3.59,4.59 -6.3,5.48 -1.48,0.25 -2.97,0.38 -4.47,0.38 -1.5,0 -3,-0.13 -4.47,-0.38l-1483.74 -0c-16.75,0.5 -14.23,1.76 -14.35,-14.16zm147.76 448.81c0,7.99 -1.7,11.08 -10.45,11.02 -42.56,-0.44 -85.05,0 -127.61,0 -2.64,0 -5.29,0 -9,-0.44l0 -396.62c3.65,0 6.3,-0.44 9.51,-0.44 42.24,0 84.42,0 126.61,0 9.32,0 10.95,3.08 10.95,11.52 -0.25,124.78 -0.25,249.77 0,374.97zm448.94 371.94c-27.2,-60.69 -53.01,-118.17 -79.51,-177.09l195.6 -0 -116.09 177.1zm200.45 -306.03c-15.87,24.43 -32.04,48.66 -47.72,73.22 -2.72,4.88 -7.88,7.92 -13.47,7.92 -0.42,0 -0.84,-0.02 -1.26,-0.05 -238.47,0 -476.93,0 -715.37,0 -15.11,0 -19.26,-4.15 -19.33,-18.89 0,-20.08 0.44,-40.16 0,-60.25 0,-8.5 2.96,-9.95 10.45,-9.95 70.3,0.25 140.62,0.25 210.97,0 0.45,0.01 0.92,0.02 1.37,0.02 4.53,0 9.04,-0.67 13.37,-1.97 9.07,-3.14 15.15,-11.69 15.15,-21.3 0,-1.09 -0.08,-2.18 -0.24,-3.26 -1.37,-10.71 -9.97,-19.05 -20.71,-20.08 -4.49,-0.26 -9.06,-0.4 -13.57,-0.4 -4.51,0 -9.08,0.14 -13.56,0.39 -6.74,0 -8.75,-2.33 -8.56,-8.75 0.38,-10.7 0,-21.41 0,-32.17l-0.01 -357.46 525.05 0c13.54,0 13.6,0 13.6,13.85l0 370.75c0,13.28 0,13.28 -13.09,13.28l-370.81 -0c-4.34,0 -8.75,0 -13.09,0 -12.34,0.73 -21.98,10.95 -21.98,23.32 0,11.69 8.64,21.58 20.22,23.14 2.8,0.3 5.64,0.46 8.45,0.46 1.21,0 2.44,-0.03 3.64,-0.09l454.28 0c-1.09,2.81 -2.37,5.58 -3.78,8.24l-0 0zm295.9 -304.46c-29.65,-33.68 -75.99,-30.66 -100.73,6.86 -51.04,77.44 -101.84,155.08 -152.42,232.94 -3.11,6.2 -9.45,10.12 -16.38,10.12 -0.84,0 -1.68,-0.06 -2.51,-0.17 -5.34,-0.27 -10.73,-0.42 -16.09,-0.42 -5.36,0 -10.75,0.15 -16.07,0.41 -6.61,0 -9.25,-2.39 -8.63,-8.81 0.03,-0.82 0.05,-1.67 0.05,-2.5 0,-0.84 -0.03,-1.68 -0.07,-2.52l0 -371c0,-13.35 0,-13.41 13.09,-13.41 171.11,0 342.23,0 513.34,0 9.51,0 13.16,2.27 12.59,12.15 -0.57,9.88 0,21.41 0,32.11 0,16.24 9.44,27.07 23.29,27.2 13.85,0.13 23.54,-10.64 23.67,-26.76 0,-12.59 0,-24.74 0,-37.14 0,-4.85 1.26,-7.43 6.8,-7.43 45.83,0 91.7,0 137.62,0 0.57,0 1.2,0.57 2.52,1.2l0 395.68c-3.27,0 -6.3,0.69 -9,0.69 -42.56,0 -85.12,0 -127.61,0 -8.75,0 -10.45,-3.08 -10.45,-11.02 0.25,-74.37 0.25,-148.72 0,-223.06 0.03,-0.72 0.05,-1.47 0.05,-2.19 0,-3.49 -0.36,-6.98 -1.06,-10.4 -2.81,-9.9 -11.86,-16.74 -22.16,-16.74 -0.78,0 -1.56,0.04 -2.33,0.12 -10.73,0.92 -19.45,9.06 -21.09,19.7 -0.28,2.73 -0.43,5.5 -0.43,8.25 0,0.92 0.02,1.86 0.05,2.77 0,73.66 0,147.38 0,221.04 0,9 -2.14,11.96 -11.65,11.84 -54.58,-0.44 -109.17,0 -163.69,0 -3.53,0 -7.11,0 -12.59,-0.57 4.97,-11.14 9.57,-20.71 13.41,-30.47 8.03,-17.52 14.85,-35.81 20.21,-54.37 9.57,-41.8 -1.45,-79.58 -28.39,-112.63 -14.1,-17.59 -28.71,-34.59 -43.5,-51.46l0.13 0zm420.67 368.29c0,11.9 -4.66,17 -16.12,17 -140.18,0 -280.43,0 -420.73,0 -2.22,-0.22 -4.43,-0.57 -6.61,-1.01 12.91,-28.65 25.18,-56.09 37.77,-83.23 1.32,-2.77 7.62,-4.47 11.65,-4.47 61.57,0 123.14,0 184.71,0 65.98,0 132.21,0 197.81,0 9.38,0 11.9,2.71 11.58,11.84 -0.57,19.77 0,39.79 -0.19,59.88l0.13 0zm-824.03 270.71c0,45.19 36.65,81.84 81.84,81.84 45.19,0 81.84,-36.65 81.84,-81.84 0,-45.19 -36.65,-81.84 -81.84,-81.84 -0.04,0 -0.09,0 -0.13,0 -45.09,0 -81.71,36.5 -81.84,81.59l0.12 0.25zm116.59 0c-0.3,19.01 -15.68,34.35 -34.69,34.62 -19,-0.06 -34.44,-15.37 -34.68,-34.37 -0,-0.19 -0.01,-0.38 -0.01,-0.57 0,-18.8 15.14,-34.11 33.94,-34.31 0.2,0 0.42,-0 0.63,-0 19.14,0 34.66,15.5 34.69,34.63l0.13 0zm-339.02 180.56c-16.04,-10.77 -34.94,-16.53 -54.26,-16.53 -31.24,0 -60.6,15.02 -78.89,40.33 -16.05,22.16 -30.53,45.58 -45.14,68.75 -8.83,14.25 -13.54,30.74 -13.54,47.52 0,0.42 0.01,0.86 0.01,1.27 0.34,6.64 1.14,13.33 2.27,19.89 9.57,40.67 34.81,67.05 75.55,75.86 41.99,9.13 76.62,-5.54 101.67,-40.42 14.8,-20.59 28.58,-42.05 41.8,-63.71 9.47,-15.4 14.51,-33.17 14.51,-51.28 0,-32.88 -16.53,-63.58 -43.98,-81.67l-0.01 -0zm-11.71 109.73c-12.59,20.98 -26,41.4 -40.23,61.25 -9.39,13.69 -24.93,21.89 -41.54,21.89 -5.84,0 -11.64,-1.01 -17.13,-3 -20.7,-7.83 -34.78,-27.25 -35.76,-49.36 2.66,-9.15 6.16,-18.08 10.39,-26.63 12.09,-20.02 25.18,-39.54 38.28,-58.93 9.19,-15.48 25.88,-24.99 43.89,-24.99 28.19,0 51.06,22.86 51.06,51.06 0,10.31 -3.13,20.39 -8.96,28.89l0 -0.19zm-95.69 -803.57c0.38,46.15 42.18,69.76 82.22,46.78 42.89,-24.59 85.75,-49.32 128.56,-74.16 40.92,-23.73 40.92,-71.96 0,-95.82 -42.77,-24.85 -85.62,-49.57 -128.56,-74.16 -40.16,-22.98 -81.84,0.63 -81.84,46.84 0,25.18 0,50.37 0,75.55 0,25.18 -0.69,49.93 -0.38,74.98zm47.03 -147.82c0,-11.84 2.96,-13.6 12.97,-7.87 41.97,24.18 83.94,48.41 125.91,72.71 10.45,6.3 10.32,9.38 -0.44,15.68 -41.64,24.13 -83.33,48.21 -125.09,72.21 -10.51,6.3 -13.28,4.34 -13.35,-8.12 0,-24.11 0,-48.22 0,-72.34 0,-24.11 -0.06,-48.22 0,-72.27z"/>
  </g>
 </g>
</svg>
