<?xml version="1.0" encoding="UTF-8"?>
<!DOCTYPE svg PUBLIC "-//W3C//DTD SVG 1.1//EN" "http://www.w3.org/Graphics/SVG/1.1/DTD/svg11.dtd">
<!-- Creator: CorelDRAW -->
<svg xmlns="http://www.w3.org/2000/svg" xml:space="preserve" width="4.79754in" height="5.00544in" version="1.1" style="shape-rendering:geometricPrecision; text-rendering:geometricPrecision; image-rendering:optimizeQuality; fill-rule:evenodd; clip-rule:evenodd"
viewBox="0 0 987.75 1030.55"
 xmlns:xlink="http://www.w3.org/1999/xlink"
 xmlns:xodm="http://www.corel.com/coreldraw/odm/2003">
 <defs>
  <style type="text/css">
   <![CDATA[
    .fil0 {fill:#FEFEFE}
   ]]>
  </style>
 </defs>
 <g id="Layer_x0020_1">
  <metadata id="CorelCorpID_0Corel-Layer"/>
  <g id="_1759622168672">
   <path class="fil0" d="M256.32 809.62l0 201.63c0,10.6 8.7,19.3 19.3,19.3l72.93 0 0 -167.31c0,-22.88 32.17,-16.99 32.17,-2.14l0 169.45 227.37 0 0 -169.45c0,-14.84 32.17,-20.73 32.17,2.14l0 167.31 72.93 0c10.6,0 19.3,-8.7 19.3,-19.3l0 -201.63c0,-122.51 -282.28,-125.94 -395.28,-86.41 -35.88,12.55 -80.9,39.96 -80.9,86.41z"/>
   <path class="fil0" d="M442.93 116.8c-11.87,0 -22.05,-0.43 -33.08,1.24l-65.62 3.02c-15.68,-0.18 -25.71,-1.69 -25.71,10.75 0,6.51 11.07,12.88 19.3,19.3l66.62 53.55c13.08,10.07 4.61,22.79 -4.86,57.54 -3.72,13.65 -16.72,54.93 -16.72,66.93 0,20.53 35.36,-8.27 53.21,-19.72 72.32,-46.37 41.76,-48.81 115.83,-1.32 61.98,39.74 64.75,51.05 37.78,-44.22 -3.21,-11.35 -5.37,-19.16 -8.23,-30.39 -6.96,-27.36 -11.99,-17.85 45.93,-63.08 5.53,-4.32 42.9,-31.31 42.9,-38.61 0,-12.42 -10.04,-10.96 -25.72,-10.74 -14.52,0.2 -20.31,-1.85 -32.12,-2.2 -24.37,-0.73 -42.55,-2.08 -66.56,-2.08l-35.12 -89.29c-3.68,-10.36 -14.47,-44.42 -26.32,-17.2 -2.56,5.89 -3.69,9.46 -5.86,15.59l-23.1 60.55c-4.12,10.18 -7.39,20.57 -12.56,30.34z"/>
   <path class="fil0" d="M387.16 528.63c0,40.25 7.43,74.84 27.84,103 64.95,89.64 186.65,41.76 186.65,-103 0,-140.72 -214.49,-140.72 -214.49,0z"/>
   <path class="fil0" d="M672.44 281.96c9.32,2.49 66.7,52.88 68.64,55.77 -10.9,46.79 -40.7,109.01 -2.98,82.83l41.59 -27.06c25.08,-16.77 17.84,-16.76 41.6,-0.85l40.33 26.17c39.72,27 14.24,-18.14 -0.42,-81.09 4.55,-6.8 45.85,-39.21 58.14,-49.11 5.74,-4.62 2.94,-4.64 10.5,-6.66 -0.46,-20.87 -12.82,-10.08 -40.44,-13.18 -65.41,-7.34 -42.46,18.83 -76.01,-67.7 -7.4,-19.07 -12.17,-34.05 -23.3,-3.1 -2.14,5.95 -4.84,13.19 -7.61,20.28 -26.56,68.04 -7.53,42.3 -65.57,50.25 -30.28,4.15 -43.97,-8.3 -44.46,13.46z"/>
   <path class="fil0" d="M58.99 281.96c7.83,2.09 28.68,21.21 35.56,26.64 7.45,5.89 28.75,22.66 33.08,29.12 -3.07,13.17 -7.68,26.56 -11.17,40.3 -15.48,60.84 -23.93,64.76 49.78,15.46 24.8,-16.59 13.98,-20.01 62.63,12.44 61.22,40.83 41.27,27.93 18.88,-68.21 9.81,-14.66 68.64,-52.14 68.64,-60.06 0,-18.15 -74.49,-3.52 -90.09,-12.87 -7.14,-4.28 -14.77,-33.76 -18.08,-41.97 -3.19,-7.9 -5.23,-13.9 -8.28,-21.75 -7.4,-19.07 -12.17,-34.05 -23.3,-3.1l-19.59 51.19c-10.7,28.41 -6.19,12.85 -53.59,19.34 -30.28,4.15 -43.97,-8.3 -44.46,13.46z"/>
   <path class="fil0" d="M822.59 571.53l-73.11 4.1c-16.64,1.06 -33.33,-1.21 -4.6,22.13l54.12 42.4c-2.87,34.52 -34.61,92.23 -15.01,92.23 4.87,0 46.25,-28.66 55.33,-34.75 6.94,-4.66 13.19,-8.05 19.74,-12.43 30.88,16.34 81.51,63.62 81.51,40.75 0,-14.05 -19.83,-66.39 -21.45,-85.8l34.99 -27.21c5.59,-4.52 33.65,-22.9 33.65,-30.7 0,-9.5 -9.21,-5.93 -18.92,-6.82l-73.32 -3.9 -24.51 -65.58c-3.69,-9.32 -4.59,-15.29 -11.96,-20.22 -10.26,6.87 -22.45,48.44 -27.88,62.2 -2.44,6.19 -7.11,17.3 -8.58,23.59z"/>
   <path class="fil0" d="M93.31 571.53l-73.12 4.1c-16.64,1.06 -33.33,-1.21 -4.6,22.13l54.12 42.4c-2.87,34.52 -34.61,92.23 -15.02,92.23l75.07 -47.19c30.88,16.34 81.51,63.62 81.51,40.75 0,-9.64 -8.19,-33.19 -10.74,-42.89 -3.13,-11.92 -9.71,-30.89 -10.71,-42.91l61.4 -47.99c3.71,-2.88 7.24,-4.74 7.24,-9.92 0,-9.5 -9.21,-5.93 -18.92,-6.82l-73.32 -3.9c-1.38,-5.92 -5.4,-15.55 -7.95,-22.07 -5.35,-13.67 -18.4,-56.95 -28.51,-63.72 -10.26,6.87 -22.45,48.44 -27.88,62.2 -2.44,6.19 -7.11,17.3 -8.58,23.59z"/>
  </g>
 </g>
</svg>
