<?xml version="1.0" encoding="UTF-8"?>
<!DOCTYPE svg PUBLIC "-//W3C//DTD SVG 1.1//EN" "http://www.w3.org/Graphics/SVG/1.1/DTD/svg11.dtd">
<!-- Creator: CorelDRAW -->
<svg xmlns="http://www.w3.org/2000/svg" xml:space="preserve" width="5.00222in" height="5.00168in" version="1.1" style="shape-rendering:geometricPrecision; text-rendering:geometricPrecision; image-rendering:optimizeQuality; fill-rule:evenodd; clip-rule:evenodd"
viewBox="0 0 1087.61 1087.49"
 xmlns:xlink="http://www.w3.org/1999/xlink"
 xmlns:xodm="http://www.corel.com/coreldraw/odm/2003">
 <defs>
  <style type="text/css">
   <![CDATA[
    .fil0 {fill:#FEFEFE}
   ]]>
  </style>
 </defs>
 <g id="Layer_x0020_1">
  <metadata id="CorelCorpID_0Corel-Layer"/>
  <g id="_1760425494832">
   <path class="fil0" d="M-0 1080.72c4.65,3.11 5.86,6.77 11.28,6.77l665.58 0c29.2,0 -17.73,-107.7 -21.81,-115.82 -29.02,-57.74 -60.99,-93.57 -110.96,-130.46 -16.49,-12.17 -32.16,-20.01 -51.49,-29.73 -69.55,-34.96 -157.1,-42.49 -234.53,-23.19 -22.9,5.71 -38.28,12.42 -58.25,20.72 -19.88,8.27 -56.12,30.34 -72.8,44.53 -21.31,18.13 -41.06,36.65 -58.09,59.23 -6.24,8.28 -9.88,13.97 -15.7,22.66 -22.01,32.86 -53.24,102.14 -53.24,145.3z"/>
   <path class="fil0" d="M629.48 279.77c0,-78.15 36.04,-136.22 103.02,-169.99 113.29,-57.11 257.98,30.88 257.98,154.19 0,73.34 -22.91,114.24 -72.87,155.01 -64.14,52.34 -171.01,46.35 -236.8,-19.06 -24.96,-24.81 -51.32,-71.27 -51.32,-120.15zm-97.02 -40.61c0,23.77 19.44,49.73 27.47,69.55 17.57,43.39 -26.2,103.23 30.79,133.92 57.15,30.78 44.77,2.57 88.84,69.09 42.79,64.58 79.64,18.5 137.18,18.5 30.24,0 84.85,46.06 122.81,-17.08 36.99,-61.52 36.05,-42.89 88.58,-69.35 48.05,-24.21 27.77,-73.48 27.77,-116.63 0,-42.84 74.67,-79.25 -5.18,-145.99 -6.94,-5.8 -10.66,-7.58 -16.76,-14.83 -29.15,-34.6 -9.79,-110.46 -77.38,-114.4 -15.88,-0.93 -46.41,-1.76 -59.52,-5.9 -35.29,-11.14 -43.13,-46.03 -91.59,-46.03 -28.66,0 -54.64,36.56 -80.55,45.8 -28.7,10.23 -79.66,-4.43 -102.32,26.28 -19.87,26.92 -14.59,70.03 -35.41,93.19 -18.56,20.64 -54.72,40.61 -54.72,73.89z"/>
   <path class="fil0" d="M336.17 755.83c54.01,0 93.88,-13.77 131.43,-51.32 61.97,-61.97 68.94,-157.26 17.52,-228.48 -17.18,-23.79 -44.35,-45.57 -71.54,-57.06 -67.22,-28.4 -142.71,-13.86 -193.08,36.18 -116.4,115.65 -22.63,300.68 115.67,300.68z"/>
   <path class="fil0" d="M789.67 302.33c-9.8,-2.62 -40.55,-37.76 -50.11,-46.91 -18.85,-18.04 -53.68,-7.74 -53.68,26.6 0,13.15 12.39,22.56 19.74,29.9 14.24,14.22 62.19,69.38 79.53,69.38 24.68,0 31.49,-14.57 50.2,-33.28l78.97 -78.97c9.57,-9.57 33.28,-29.65 33.28,-45.69 0,-18.78 -13.47,-33.84 -31.59,-33.84 -22.26,0 -45.18,30.51 -67.12,52.46l-59.23 60.35z"/>
   <path class="fil0" d="M886.69 582.1c-12.53,0 -13.38,-2.26 -24.82,-2.26l15.07 32.31c5.94,11.87 9.84,21.96 15.79,33.84l22.51 49.69c3.43,8.57 3.22,10.26 14.31,10.5 2.85,-12.22 34.88,-56.94 38.36,-69.94l66.42 10.37c30.89,6.3 23.65,3.88 -11.53,-72.03l-32.33 -71.46c-17.87,11.97 -33.99,78.97 -103.79,78.97z"/>
   <path class="fil0" d="M566.31 643.02c0,11.98 16.16,4.08 38.65,0.3 13.54,-2.28 33.85,-7.06 47.09,-7.06l31.15 54.58c4.92,8.33 4.63,12.87 13.97,15.36 7.55,-5.53 40.41,-80.07 46.08,-93.81 4.57,-11.06 12.38,-21.98 14.84,-32.54 -31.82,0 -65.91,14.05 -107.39,-48.28 -5.39,-8.1 -14.61,-19.47 -16.7,-28.43l-4.51 0c-1.8,7.73 -4.28,10.15 -7.41,17.4l-55.76 122.48z"/>
  </g>
 </g>
</svg>
