<?xml version="1.0" encoding="UTF-8"?>
<!DOCTYPE svg PUBLIC "-//W3C//DTD SVG 1.1//EN" "http://www.w3.org/Graphics/SVG/1.1/DTD/svg11.dtd">
<!-- Creator: CorelDRAW -->
<svg xmlns="http://www.w3.org/2000/svg" xml:space="preserve" width="0.84in" height="0.84in" version="1.1" style="shape-rendering:geometricPrecision; text-rendering:geometricPrecision; image-rendering:optimizeQuality; fill-rule:evenodd; clip-rule:evenodd"
viewBox="0 0 834.42 834.42"
 xmlns:xlink="http://www.w3.org/1999/xlink"
 xmlns:xodm="http://www.corel.com/coreldraw/odm/2003">
 <defs>
  <style type="text/css">
   <![CDATA[
    .str1 {stroke:#F97068;stroke-width:27.6;stroke-miterlimit:2.61313}
    .str0 {stroke:#F97068;stroke-width:27.6;stroke-linecap:round;stroke-linejoin:round;stroke-miterlimit:2.61313}
    .fil0 {fill:none}
    .fil1 {fill:none;fill-rule:nonzero}
    .fil2 {fill:#F97068;fill-rule:nonzero}
   ]]>
  </style>
 </defs>
 <g id="Layer_x0020_1">
  <metadata id="CorelCorpID_0Corel-Layer"/>
  <g id="_2361258981328">
   <line class="fil0 str0" x1="400.6" y1="251.64" x2="566.68" y2= "251.64" />
   <line class="fil0 str0" x1="400.6" y1="135.38" x2="566.68" y2= "135.38" />
   <polyline class="fil0 str0" points="267.73,135.38 284.34,151.99 334.17,102.16 "/>
   <polyline class="fil0 str0" points="267.73,251.64 284.34,268.25 334.17,218.42 "/>
   <polyline class="fil1 str1" points="178.3,310.06 178.3,29.31 656.12,29.31 656.12,310.06 "/>
   <g>
    <path class="fil2" d="M834.42 505.12l-110.78 -246.08 -120.08 53.91 8.04 17.97c-25.58,8.24 -53.7,10.15 -82.24,5.49 -18.6,-2.96 -37.42,-2.96 -55.81,0 -14.59,2.33 -29.18,6.77 -42.92,12.9 -6.34,2.75 -12.47,6.13 -18.6,9.94l-53.49 26.21c-8.24,-1.48 -16.49,-2.54 -24.74,-2.96 -29.17,-1.27 -56.66,-8.88 -80.33,-22.2l11.42 -15.64 -107.19 -76.95 -157.71 219.02 106.76 76.95 11.42 -15.64c20.29,18.18 36.15,41.86 46.51,69.13 0.85,2.32 1.69,4.44 2.75,6.76l-13.53 18.6c-13.53,18.82 -9.3,45.24 9.52,58.77 6.13,4.44 12.89,6.77 19.87,7.61 0,2.11 0.21,4.23 0.42,6.34 1.9,10.99 7.82,20.72 16.91,27.49 7.19,5.28 15.85,8.03 24.52,8.03 1.27,0 2.33,0 3.6,-0.21 2.32,9.72 8.03,18.18 16.28,24.1 7.4,5.29 16.07,8.03 24.52,8.03 4.44,0 8.88,-0.63 13.11,-2.11 2.96,6.55 7.61,12.26 13.53,16.49 7.19,5.29 15.86,8.03 24.53,8.03 2.33,0 4.65,-0.21 6.77,-0.63 11.2,-1.9 20.93,-7.82 27.48,-16.91l8.46 -11.84 40.38 23.25c7.19,4.23 15.22,6.13 22.83,6.13 12.47,0 24.53,-5.08 32.98,-14.8 4.65,-5.5 8.03,-11.84 9.73,-18.82 8.24,2.75 16.91,3.38 25.79,1.9 14.38,-2.33 26.85,-10.15 35.31,-21.99 5.49,-7.82 9.09,-16.91 9.94,-26.21 0.42,-4.23 0.42,-8.46 -0.22,-12.47 14.8,-0.85 28.96,-7.4 38.69,-19.24 8.24,-9.93 12.47,-21.99 12.47,-34.67 3.17,0.21 6.13,0 9.3,-0.63 11.63,-1.9 21.77,-8.24 28.54,-17.76 5.71,-8.03 9.3,-17.33 10.36,-27.27 0,-0.42 0,-1.06 0.21,-1.48 2.96,-3.81 5.71,-7.82 8.24,-11.84 15.43,-24.53 35.52,-44.19 58.56,-57.93l7.82 17.13 120.08 -53.91 0 0zm-39.11 -14.8l-65.96 29.6 -86.47 -192.17 65.96 -29.6 86.47 192.17zm-630.84 -181.17l58.77 42.28 -115.85 160.67 -7.4 10.36 -58.77 -42.28 123.25 -171.03zm13.53 350.73l18.39 -25.58 1.06 -1.48c0.42,-0.64 1.06,-1.27 1.48,-1.69 0,0 0,0 0,0 0.64,-0.42 1.06,-1.06 1.69,-1.27 0,0 0.21,0 0.21,-0.21 0.63,-0.42 1.27,-0.63 1.9,-1.06 0,0 0.21,0 0.21,0 0.63,-0.21 1.48,-0.42 2.32,-0.63 0,0 0.21,0 0.21,0 0.42,0 1.06,-0.21 1.48,-0.21 0.21,0 0.42,0 0.42,0 0.42,0 1.06,0 1.48,0.21 0.21,0 0.43,0 0.64,0 0.42,0 0.84,0.21 1.27,0.21 0.21,0 0.21,0 0.42,0.22 0.42,0.21 1.06,0.42 1.48,0.63 0.21,0 0.21,0.21 0.42,0.21 0.42,0.21 1.06,0.63 1.48,0.84 3.17,2.32 5.08,5.92 5.08,9.72 0,0.63 0,1.06 0,1.69 0,0.63 -0.21,1.27 -0.21,1.69 -0.42,1.48 -1.06,2.96 -1.9,4.23l-19.45 27.06c-4.02,5.5 -11.84,6.77 -17.34,2.75 -5.49,-4.02 -6.76,-11.84 -2.75,-17.33l-0 0zm40.17 58.77c-2.75,-1.9 -4.44,-4.87 -5.08,-8.04 -0.63,-3.38 0.21,-6.55 2.12,-9.3l43.55 -60.46c1.9,-2.75 4.86,-4.44 8.03,-5.08 0.63,0 1.27,-0.21 1.9,-0.21 0,0 0.21,0 0.21,0 0.63,0 1.06,0 1.69,0.21 0,0 0.21,0 0.21,0 0.42,0 1.06,0.22 1.48,0.43 0,0 0.21,0 0.21,0 0.63,0.21 1.06,0.42 1.48,0.63 0.21,0 0.21,0.21 0.42,0.21 0.42,0.21 1.06,0.63 1.48,0.84 2.75,1.9 4.44,4.86 5.07,8.03 0.21,1.06 0.21,2.12 0,3.38 0,0.85 -0.21,1.9 -0.63,2.75 0,0.21 0,0.42 -0.21,0.42 -0.21,0.21 -0.21,0.63 -0.42,0.84 0,0.22 -0.21,0.43 -0.21,0.64 -0.21,0.21 -0.42,0.63 -0.42,0.84 -0.21,0.21 -0.21,0.42 -0.42,0.63 0,0 0,0 0,0l0 0c0,0 0,0 0,0l-43.55 60.46c-1.9,2.75 -4.86,4.44 -8.03,5.07 -2.96,0.43 -6.34,-0.21 -8.88,-2.32l-0 0zm44.19 31.92c-2.75,-1.9 -4.44,-4.86 -5.08,-8.03 -0.63,-3.38 0.21,-6.55 2.12,-9.3l43.55 -60.46c0,0 0,0 0,0 0,0 0,0 0,0 0.42,-0.63 0.84,-1.06 1.48,-1.69 0.21,-0.21 0.21,-0.21 0.42,-0.42 0.42,-0.43 1.06,-0.85 1.69,-1.27 0.21,0 0.21,-0.21 0.42,-0.21 0.42,-0.21 1.06,-0.63 1.69,-0.84 0.22,0 0.22,0 0.43,-0.21 0.63,-0.21 1.27,-0.42 2.11,-0.63 0.21,0 0.42,0 0.63,-0.21 0.21,0 0.21,0 0.43,0 0.42,0 0.63,0 1.06,0 0,0 0.21,0 0.21,0 0.63,0 1.27,0 1.69,0.21 0,0 0,0 0.21,0 0.63,0 1.06,0.21 1.69,0.42 0,0 0.21,0 0.21,0 0.63,0.21 1.06,0.42 1.69,0.63 0,0 0.21,0 0.21,0.21 0.42,0.21 1.06,0.63 1.48,0.85 0.84,0.63 1.69,1.48 2.33,2.32 1.69,2.12 2.75,4.65 2.75,7.4 0,0.63 0,1.06 0,1.69 -0.21,1.06 -0.42,2.12 -0.63,3.17 0,0 0,0 0,0 0,0.21 -0.21,0.21 -0.21,0.42 -0.42,0.85 -0.84,1.69 -1.27,2.54l-43.55 60.46c-4.44,5.71 -12.26,6.98 -17.76,2.96l-0 0zm60.46 24.53c-3.38,0.63 -6.55,-0.21 -9.3,-2.12 -2.75,-1.9 -4.44,-4.86 -5.07,-8.03 -0.63,-3.38 0.21,-6.55 2.11,-9.3l19.45 -27.06 0 0 0 0c0.21,-0.42 0.63,-0.63 0.84,-0.84 0.21,-0.21 0.63,-0.63 0.84,-0.84 0.21,-0.21 0.63,-0.43 1.06,-0.85 0.21,-0.21 0.63,-0.42 0.84,-0.63 0.43,-0.21 0.85,-0.42 1.27,-0.63 0.21,-0.21 0.63,-0.21 0.84,-0.42 0.84,-0.21 1.48,-0.42 2.33,-0.63 0.63,0 1.27,-0.21 1.9,-0.21 0.21,0 0.21,0 0.42,0 0.63,0 1.06,0 1.69,0.21 0.21,0 0.21,0 0.42,0 0.42,0 1.06,0.21 1.48,0.42 0,0 0.21,0 0.21,0 0.43,0.21 1.06,0.42 1.48,0.63 0.21,0 0.21,0.21 0.42,0.21 0.42,0.21 1.06,0.63 1.48,0.85 3.59,2.53 5.49,6.97 5.07,11.42 -0.21,2.11 -1.06,4.23 -2.33,6.13l-19.45 27.06c-1.9,2.32 -4.65,4.23 -8.03,4.65l-0 0zm287.3 -164.9c-0.42,4.65 -2.11,9.09 -4.86,12.89 -2.33,3.17 -5.5,5.08 -9.3,5.71 -3.81,0.63 -7.61,-0.21 -10.57,-2.54l-16.49 -11.84 0 0c0,0 0,0 0,0l-32.34 -23.25c-6.55,-4.86 -15.86,-3.17 -20.72,3.38 -4.86,6.55 -3.17,15.85 3.38,20.72l32.35 23.25c0,0 0,0 0,0 5.49,4.02 9.09,10.14 10.15,16.91 0.84,6.77 -1.06,13.53 -5.5,19.03 -8.03,9.94 -23.68,11.42 -34.67,3.59l-3.17 -2.32c0,0 -0.21,-0.21 -0.21,-0.21l0 0 -39.96 -28.75c-6.55,-4.86 -15.85,-3.17 -20.72,3.38 -4.87,6.55 -3.17,15.85 3.38,20.72l39.96 28.75c0,0 0,0 0,0l0 0c6.97,5.07 10.78,13.74 9.93,22.62 -0.42,4.44 -1.9,8.46 -4.44,11.84 -3.81,5.28 -9.52,8.88 -16.07,9.94 -6.55,1.06 -13.11,-0.43 -18.39,-4.44l-19.45 -13.95c0,0 -0.21,0 -0.21,-0.21l-37.84 -27.27c-6.55,-4.87 -15.85,-3.17 -20.72,3.38 -4.86,6.55 -3.17,15.85 3.38,20.72l37.84 27.27 0 0 0 0c3.38,2.33 5.28,5.92 5.71,9.94 0.42,4.02 -0.85,8.03 -3.38,11.2 -4.44,5.07 -12.26,6.13 -18.82,2.32l-38.69 -22.2c0,0 0,0 0,0 0.21,-0.63 0.42,-1.06 0.63,-1.69 0,-0.21 0.21,-0.63 0.21,-0.84 0.21,-0.63 0.42,-1.27 0.42,-1.9 0,-0.21 0.21,-0.42 0.21,-0.63 0.21,-0.63 0.21,-1.48 0.43,-2.11 0,-0.21 0,-0.42 0.21,-0.63 0.21,-0.85 0.21,-1.9 0.42,-2.75 1.48,-15.01 -5.07,-29.6 -17.34,-38.48 -1.06,-0.85 -2.11,-1.48 -3.17,-2.12 -0.42,-0.21 -0.63,-0.42 -1.06,-0.63 -0.84,-0.42 -1.48,-0.84 -2.32,-1.27 -0.43,-0.21 -0.85,-0.42 -1.27,-0.63 -0.84,-0.42 -1.48,-0.63 -2.32,-0.84 -0.43,-0.21 -0.85,-0.42 -1.27,-0.42 -0.21,0 -0.63,-0.22 -0.84,-0.22 0,0 0,-0.21 0,-0.21 0.21,-0.42 0.42,-1.06 0.63,-1.48 0.21,-0.42 0.21,-0.63 0.42,-1.06 0.21,-0.63 0.43,-1.06 0.43,-1.69 0,-0.42 0.21,-0.63 0.21,-1.06 0.21,-0.63 0.21,-1.27 0.42,-1.9 0,-0.21 0.21,-0.63 0.21,-0.84 0.21,-0.84 0.21,-1.9 0.42,-2.75l0 0c1.48,-15.01 -5.07,-29.6 -17.34,-38.48 -1.06,-0.84 -2.32,-1.48 -3.38,-2.11 -0.42,-0.21 -0.63,-0.43 -1.06,-0.63 -0.84,-0.43 -1.69,-0.85 -2.54,-1.27 -0.42,-0.21 -0.63,-0.21 -1.06,-0.42 -0.84,-0.42 -1.69,-0.63 -2.75,-1.06 -0.42,-0.21 -0.63,-0.21 -1.06,-0.42 -1.06,-0.21 -1.9,-0.63 -2.96,-0.84 -0.21,0 -0.63,-0.21 -0.85,-0.21 -1.06,-0.22 -2.11,-0.43 -3.17,-0.64 -0.21,0 -0.43,0 -0.63,0 -1.06,-0.21 -2.33,-0.21 -3.38,-0.21 -0.22,0 -0.43,0 -0.43,0 -1.27,0 -2.53,0 -3.59,0 0,0 -0.21,0 -0.21,0 -0.21,0 -0.42,0 -0.63,0 0,-0.21 -0.21,-0.42 -0.21,-0.63 -0.21,-0.84 -0.42,-1.69 -0.63,-2.53 0,-0.42 -0.21,-0.63 -0.42,-1.06 -0.21,-0.84 -0.63,-1.69 -1.06,-2.53 0,-0.21 -0.21,-0.42 -0.21,-0.63 -0.43,-1.06 -0.85,-1.9 -1.48,-2.96 -0.21,-0.21 -0.21,-0.42 -0.42,-0.84 -0.42,-0.63 -0.84,-1.48 -1.27,-2.12 -0.22,-0.21 -0.43,-0.63 -0.64,-0.84 -0.63,-0.84 -1.06,-1.69 -1.69,-2.33 0,0 -0.21,-0.21 -0.21,-0.21 -0.63,-0.84 -1.48,-1.69 -2.11,-2.53 -0.21,-0.22 -0.43,-0.43 -0.64,-0.64 -0.63,-0.63 -1.27,-1.27 -1.9,-1.69 -0.21,-0.21 -0.42,-0.42 -0.84,-0.63 -0.84,-0.63 -1.69,-1.48 -2.75,-2.12 -9.09,-6.55 -20.29,-9.3 -31.29,-7.4 -1.27,0.21 -2.54,0.43 -3.59,0.85 -0.21,0 -0.63,0.21 -0.84,0.21 -1.06,0.21 -2.12,0.63 -3.17,1.06 -0.21,0 -0.21,0 -0.42,0.21 -1.06,0.42 -2.33,0.84 -3.38,1.48 -0.21,0.21 -0.63,0.21 -0.84,0.43 -0.85,0.42 -1.9,1.06 -2.75,1.48 -0.21,0.21 -0.42,0.21 -0.63,0.21 -1.06,0.63 -1.9,1.27 -2.96,2.12 -0.21,0.21 -0.42,0.42 -0.63,0.63 -0.42,0.21 -0.63,0.63 -1.06,0.84 0,0 0,0 0,0 -0.63,-0.84 -1.27,-1.69 -1.9,-2.54 -0.21,-0.21 -0.42,-0.42 -0.63,-0.63 -0.42,-0.63 -1.06,-1.27 -1.48,-1.69 -0.21,-0.21 -0.42,-0.42 -0.84,-0.84 -0.63,-0.64 -1.06,-1.06 -1.69,-1.48 -0.21,-0.21 -0.42,-0.42 -0.84,-0.63 -0.85,-0.63 -1.69,-1.27 -2.54,-1.9 -1.06,-0.63 -2.11,-1.48 -3.17,-1.9 -0.21,-0.21 -0.63,-0.42 -0.84,-0.63 -0.84,-0.42 -1.69,-0.84 -2.54,-1.27 -0.21,-0.21 -0.63,-0.21 -0.84,-0.43 -1.06,-0.42 -1.9,-0.84 -2.96,-1.27 -0.43,-0.21 -1.06,-0.42 -1.48,-0.42 -0.63,-0.21 -1.06,-0.42 -1.69,-0.42 -0.85,-0.21 -1.9,-0.42 -2.75,-0.63 -0.63,-0.21 -1.06,-0.21 -1.69,-0.21 -0.63,0 -1.27,-0.21 -1.9,-0.21 -0.42,0 -1.06,0 -1.48,-0.21 -0.84,0 -1.9,0 -2.75,0 -0.63,0 -1.48,0 -2.11,0 -0.63,0 -1.06,0 -1.69,0.21 -0.84,0 -1.69,0.21 -2.32,0.21 -0.21,0 -0.64,0 -0.85,0 -0.21,0 -0.42,0 -0.63,0.21 -0.84,0.21 -1.69,0.42 -2.75,0.63 -0.42,0.21 -1.06,0.21 -1.48,0.42 -0.84,0.21 -1.69,0.42 -2.32,0.84 -0.63,0.21 -1.27,0.42 -1.9,0.63 -0.42,0.21 -0.84,0.42 -1.48,0.63 -12.48,-30.86 -31.29,-57.29 -54.97,-77.8l100.42 -139.32c19.87,11.84 42.07,20.09 65.75,24.31l-12.68 124.94c-1.9,18.82 11.84,35.52 30.44,37.42 17.55,1.69 34.46,-3.38 47.99,-14.37 13.53,-10.99 21.99,-26.85 23.89,-44.19l3.38 -32.77c17.12,-0.63 33.83,-5.71 48.62,-14.38l156.65 120.92c1.06,0.85 1.69,1.48 2.32,1.9l0.21 0.21c0.22,0.21 0.64,0.63 0.85,0.84l0.42 0.42c0.21,0.21 0.21,0.42 0.42,0.42l0.42 0.43c0.21,0.21 0.42,0.42 0.63,0.63l1.27 1.9c0.64,0.85 1.06,1.69 1.27,2.33l0.21 0.42c0.21,0.42 0.42,0.63 0.42,1.06 0.21,0.42 0.42,0.84 0.42,1.27 0.21,0.43 0.21,0.85 0.42,1.27l0.42 1.27c0.21,1.06 0.43,2.11 0.63,2.96l0 0.42c0,0.42 0,0.84 0.22,1.27 0,0 0,0.21 0,0.21l0 0 0 1.06 0 0c-0.42,0.42 -0.42,1.48 -0.63,2.54l0 0 -0.01 -0zm19.24 -35.52l-0.21 -0.42c0,0 0,0 0,0l0 0c-0.63,-0.84 -1.06,-1.48 -1.48,-1.9 0,0 0,-0.21 -0.21,-0.21 -0.21,-0.22 -0.43,-0.43 -0.63,-0.85 -0.21,-0.21 -0.21,-0.21 -0.42,-0.42 -0.43,-0.42 -0.63,-0.84 -1.06,-1.27 -0.63,-0.85 -1.48,-1.48 -2.11,-2.12 0,0 0,0 0,0 0,0 0,0 0,0 -0.21,-0.21 -0.42,-0.42 -0.63,-0.63 -0.21,-0.21 -0.21,-0.21 -0.42,-0.42 -0.21,-0.21 -0.21,-0.21 -0.42,-0.42 -1.06,-0.84 -2.12,-1.9 -3.6,-2.96l-174.2 -134.46 -9.09 6.77c-15.01,11.2 -33.4,16.49 -52.22,14.59l-14.8 -1.48 -6.13 61.1c-1.06,9.51 -5.71,18.18 -13.11,24.31 -7.4,6.13 -16.91,8.88 -26.43,7.82 -2.53,-0.21 -4.23,-2.53 -4.02,-4.86l10.57 -103.8 75.68 -37.21 0 0 20.93 -10.36 1.27 -0.63c5.5,-3.38 10.78,-6.13 16.07,-8.46 11.42,-5.07 23.47,-8.88 35.52,-10.78 15.22,-2.54 30.86,-2.54 46.3,0 34.25,5.71 68.28,2.96 99.15,-7.4l70.4 156.65c-24.95,14.37 -47.15,34.67 -64.69,59.82l0 0z"/>
    <path class="fil2" d="M745.63 500.05c0.85,0 1.48,0.21 2.33,0.21 5.07,0 9.94,-1.69 13.74,-4.86 4.44,-3.81 7.4,-8.88 8.03,-14.8 0.63,-5.92 -1.06,-11.63 -4.86,-16.07 -3.81,-4.44 -8.88,-7.4 -14.8,-8.04 -5.92,-0.63 -11.63,1.06 -16.07,4.87 -4.44,3.81 -7.4,8.88 -8.04,14.8 -1.06,12.05 7.82,22.83 19.66,23.89l0 0zm-4.86 -22.41c0.21,-1.9 1.06,-3.59 2.54,-4.86 1.27,-1.06 2.75,-1.69 4.44,-1.69 0.21,0 0.42,0 0.63,0 1.9,0.21 3.59,1.06 4.86,2.53 1.27,1.48 1.69,3.38 1.48,5.29l0 0c-0.21,1.9 -1.06,3.59 -2.54,4.86 -1.48,1.27 -3.38,1.69 -5.28,1.48 -3.59,-0.21 -6.34,-3.81 -6.13,-7.61l0 0z"/>
    <path class="fil2" d="M109.72 476.8l0 0c1.27,-12.05 -7.61,-22.83 -19.66,-24.1 -5.92,-0.63 -11.63,1.06 -16.07,4.87 -4.44,3.81 -7.4,8.88 -8.03,14.8 -1.27,12.05 7.61,22.83 19.66,24.1 0.84,0 1.48,0.21 2.33,0.21 11.2,-0.21 20.72,-8.67 21.78,-19.87l0 0zm-28.75 -2.96c0.21,-1.9 1.06,-3.59 2.54,-4.86 1.27,-1.06 2.75,-1.69 4.44,-1.69 0.21,0 0.42,0 0.63,0 3.81,0.43 6.77,3.81 6.34,7.82 -0.42,3.81 -3.8,6.77 -7.82,6.34 -3.81,-0.21 -6.55,-3.59 -6.13,-7.61l0 0z"/>
   </g>
  </g>
  <rect class="fil0" x="-0" y="-0" width="834.42" height="834.42"/>
 </g>
</svg>
