<?xml version="1.0" encoding="UTF-8"?>
<!DOCTYPE svg PUBLIC "-//W3C//DTD SVG 1.1//EN" "http://www.w3.org/Graphics/SVG/1.1/DTD/svg11.dtd">
<!-- Creator: CorelDRAW -->
<svg xmlns="http://www.w3.org/2000/svg" xml:space="preserve" width="5.97441in" height="5.40375in" version="1.1" style="shape-rendering:geometricPrecision; text-rendering:geometricPrecision; image-rendering:optimizeQuality; fill-rule:evenodd; clip-rule:evenodd"
viewBox="0 0 10554.07 9545.96"
 xmlns:xlink="http://www.w3.org/1999/xlink"
 xmlns:xodm="http://www.corel.com/coreldraw/odm/2003">
 <defs>
  <style type="text/css">
   <![CDATA[
    .fil0 {fill:black;fill-rule:nonzero}
   ]]>
  </style>
 </defs>
 <g id="Layer_x0020_1">
  <metadata id="CorelCorpID_0Corel-Layer"/>
  <path class="fil0" d="M3785.36 9136.09l-20.16 -114.34c-1654.95,291.81 -3238.73,-817.17 -3530.54,-2472.11 -25.82,-146.46 71.97,-286.12 218.43,-311.95 146.46,-25.82 286.12,71.97 311.95,218.43 240.24,1362.48 1544.16,2275.5 2906.65,2035.26l-20.15 -114.3c-19.83,-112.44 89.5,-204.2 196.8,-165.15l724.26 263.61c107.29,39.05 132.07,179.62 44.62,253.01l-590.42 495.42c-87.46,73.39 -221.59,24.56 -241.41,-87.87z"/>
  <path class="fil0" d="M8508.21 2941.95c-240.24,-1362.49 -1544.16,-2275.5 -2906.66,-2035.26l20.16 114.31c19.83,112.43 -89.5,204.2 -196.82,165.12l-724.26 -263.6c-107.29,-39.04 -132.07,-179.62 -44.61,-253.01l590.44 -495.4c87.46,-73.39 221.59,-24.58 241.42,87.85l20.16 114.31c1654.95,-291.81 3238.74,817.17 3530.54,2472.12 25.83,146.46 -71.97,286.12 -218.43,311.94 -146.46,25.87 -286.13,-71.94 -311.96,-218.38z"/>
  <g id="_1901594331776">
   <g>
    <g>
     <path class="fil0" d="M7915.54 7567.33c3.24,-0.02 7.12,-0.02 10.57,-0.02 788.43,0 1554.87,318.73 2175.95,903.67 76.3,68.02 122.17,175.03 123.89,289.41l0 390.62 -4548.94 -0.02 0 -454.9c1.67,-116.04 48.74,-224.48 126.84,-292.33 607.29,-542.8 1344.72,-837.04 2101.08,-837.04 3.44,0 7.32,0 10.76,0l-0.15 0.61zm0 -396.17c-2.46,-0.01 -5.29,-0.01 -7.65,-0.01 -827.71,0 -1634.2,321.23 -2299.2,914.81 -161.94,141.86 -258.51,368.58 -259.82,610.16l0 528.88c0.01,177.21 119.26,320.96 266.29,320.96l4672.63 0c147.03,0 266.28,-143.75 266.28,-321l0 -465.19c-1.75,-236.48 -94.47,-458.91 -250.7,-601.86 -680.77,-639.02 -1520.55,-986.75 -2383.55,-986.75 -1.42,0 -2.84,0 -4.26,0l-0.02 0z"/>
    </g>
    <g>
     <path class="fil0" d="M7917.18 4044.59c711.73,0.01 1288.92,695.81 1288.92,1553.8 0,857.99 -577.19,1553.79 -1288.91,1553.79 -711.73,0 -1288.92,-695.8 -1288.92,-1553.79 0.63,-857.57 577.54,-1553.04 1288.97,-1553.79l-0.06 -0.01zm0 -395.57c-892.92,0.01 -1617.04,872.94 -1617.04,1949.37 0,1076.42 724.12,1949.36 1617.05,1949.36 892.92,0 1617.04,-872.94 1617.04,-1949.36 0,-1076.42 -724.12,-1949.36 -1617.04,-1949.36l-0.01 -0.01z"/>
    </g>
   </g>
  </g>
  <g id="_1901594332592">
   <g>
    <g>
     <path class="fil0" d="M2566.67 3918.31c3.24,-0.02 7.12,-0.02 10.57,-0.02 788.43,0 1554.87,318.73 2175.95,903.67 76.3,68.02 122.17,175.03 123.89,289.41l0 390.62 -4548.94 -0.02 0 -454.9c1.67,-116.04 48.74,-224.48 126.84,-292.33 607.29,-542.8 1344.72,-837.04 2101.08,-837.04 3.44,0 7.32,0 10.76,0l-0.15 0.61zm0 -396.17c-2.46,-0.01 -5.29,-0.01 -7.65,-0.01 -827.71,0 -1634.2,321.23 -2299.2,914.81 -161.94,141.86 -258.51,368.58 -259.82,610.16l0 528.88c0.01,177.21 119.26,320.96 266.29,320.96l4672.63 0c147.03,0 266.28,-143.75 266.28,-321l0 -465.19c-1.75,-236.48 -94.47,-458.91 -250.7,-601.86 -680.77,-639.02 -1520.55,-986.75 -2383.55,-986.75 -1.42,0 -2.84,0 -4.26,0l-0.02 0z"/>
    </g>
    <g>
     <path class="fil0" d="M2568.31 395.57c711.73,0.01 1288.92,695.81 1288.92,1553.8 0,857.99 -577.19,1553.79 -1288.91,1553.79 -711.73,0 -1288.92,-695.8 -1288.92,-1553.79 0.63,-857.57 577.54,-1553.04 1288.97,-1553.79l-0.06 -0.01zm0 -395.57c-892.92,0.01 -1617.04,872.94 -1617.04,1949.37 0,1076.42 724.12,1949.36 1617.05,1949.36 892.92,0 1617.04,-872.94 1617.04,-1949.36 0,-1076.42 -724.12,-1949.36 -1617.04,-1949.36l-0.01 -0.01z"/>
    </g>
   </g>
  </g>
 </g>
</svg>
